<?xml version="1.0" encoding="UTF-8" standalone="no"?>
<svg
   xmlns:dc="http://purl.org/dc/elements/1.1/"
   xmlns:cc="http://creativecommons.org/ns#"
   xmlns:rdf="http://www.w3.org/1999/02/22-rdf-syntax-ns#"
   xmlns:svg="http://www.w3.org/2000/svg"
   xmlns="http://www.w3.org/2000/svg"
   xmlns:sodipodi="http://sodipodi.sourceforge.net/DTD/sodipodi-0.dtd"
   xmlns:inkscape="http://www.inkscape.org/namespaces/inkscape"
   version="1.1"
   x="0"
   y="0"
   width="161.92307"
   height="226.99054"
   viewBox="0 0 161.92307 226.99054"
   id="svg48857"
   sodipodi:docname="gahag-dessert_purin.svg"
   inkscape:version="0.92.2 5c3e80d, 2017-08-06">
  <metadata
     id="metadata48863">
    <rdf:RDF>
      <cc:Work
         rdf:about="">
        <dc:format>image/svg+xml</dc:format>
        <dc:type
           rdf:resource="http://purl.org/dc/dcmitype/StillImage" />
        <dc:title></dc:title>
      </cc:Work>
    </rdf:RDF>
  </metadata>
  <defs
     id="defs48861" />
  <sodipodi:namedview
     pagecolor="#ffffff"
     bordercolor="#666666"
     borderopacity="1"
     objecttolerance="10"
     gridtolerance="10"
     guidetolerance="10"
     inkscape:pageopacity="0"
     inkscape:pageshadow="2"
     inkscape:window-width="1669"
     inkscape:window-height="1028"
     id="namedview48859"
     showgrid="true"
     inkscape:snap-global="false"
     fit-margin-top="0"
     fit-margin-left="0"
     fit-margin-right="0"
     fit-margin-bottom="0"
     inkscape:pagecheckerboard="true"
     inkscape:zoom="1.9614527"
     inkscape:cx="87.964015"
     inkscape:cy="162.37248"
     inkscape:window-x="0"
     inkscape:window-y="23"
     inkscape:window-maximized="0"
     inkscape:current-layer="svg48857">
    <inkscape:grid
       type="xygrid"
       id="grid48865"
       originx="-15.523304"
       originy="-6.0973805" />
  </sodipodi:namedview>
  <g
     id="Layer_1"
     transform="rotate(-9.3857924,97.424559,210.59011)">
    <path
       d="M 87.201,51.501 C 81.154,45.173 65.31,44.682 64.092,56.915 57.896,57.884 45.071,58.487 42.253,62.361 40.065,68.396 1.734,165.9 3.103,188.392 c 13.005,15.026 40.202,30.928 75.775,35.678 35.578,4.754 75.358,-3.546 83.29,-9.667 1.875,-16.587 5.433,-126.205 5.433,-126.205 -6.104,-10.158 -19.551,-14.902 -23.925,-16.522 -0.78,-7.441 -1.419,-13.744 -9.641,-15.149 -8.224,-1.406 -9.452,1.434 -9.452,1.434 C 124.344,52.193 118.1,42.97 105.199,41.97 104.624,25.804 126.384,10.001 133.624,7.064 c 4.883,1.375 7.124,3.413 8.298,1.257 1.176,-2.158 0.804,-3.912 -1.508,-4.049 -2.313,-0.138 -6.62,0.272 -14.461,4.389 -7.841,4.115 -12.582,10.19 -17.361,17.213 -4.778,7.024 -5.889,13.65 -5.82,15.994 -4.01,0.559 -12.452,2.703 -15.571,9.633"
       id="path48840"
       inkscape:connector-curvature="0"
       style="fill:#422009;fill-opacity:1" />
    <path
       d="m 102.628,45.798 c -3.941,0.279 -12.21,2.845 -13.829,8.809 -1.621,5.963 1.532,8.271 2.34,8.711 0.808,0.442 6.753,1.661 7.953,5.823 3.88,-0.925 8.052,2.017 9.073,3.683 -0.139,-5.911 9.21,-4.576 11.005,-3.825 1.114,-2.616 1.854,-3.3 2.244,-5.869 0.388,-2.565 0.217,-16.68 -15.837,-17.362 -0.118,0.778 0.279,6.57 1.626,6.615 1.346,0.043 3.421,-0.518 4.047,-0.98 -1.034,2.63 -6.163,4.955 -10.988,1.598 0.78,0.12 2.738,0.337 3.173,0.084 -0.835,-1.322 -0.967,-6.753 -0.807,-7.287"
       id="path48842"
       inkscape:connector-curvature="0"
       style="fill:#d7262c;fill-opacity:1" />
    <path
       d="m 68.832,62.408 c -1.958,-1.251 -3.045,-5.635 0.75,-9.677 3.796,-4.042 10.084,-1.419 12.141,0.248 2.056,1.663 4.971,8.154 4.726,10.823 -0.244,2.669 -2.437,6.634 -4.07,7.421 3.016,0.06 7.46,-3.007 7.277,-4.945 3.069,0.226 7.833,2.938 7.663,7.21 1.762,-1.643 6.858,-1.667 8.558,1.297 1.701,2.964 1.119,9.96 -0.237,11.028 -1.357,1.068 -12.922,2.027 -15.43,-9.14 -0.778,1.589 -7.545,4.225 -14.923,1.438 -7.376,-2.79 -7.624,-10.091 -5.362,-12.407 2.258,-2.31 9.68,-1.903 10.698,-1.271 -2.16,-2.556 -9.372,-3.809 -11.791,-2.025"
       id="path48844"
       inkscape:connector-curvature="0"
       style="fill:#ffffff" />
    <path
       d="m 109.342,74.514 c 0.928,0.698 2.86,5.288 1.882,7.53 2.338,1.387 5.311,3.828 7.374,3.344 2.063,-0.482 6.497,-2.439 7.368,-6.604 0.869,-4.166 -10.84,-11.988 -16.624,-4.27"
       id="path48846"
       inkscape:connector-curvature="0"
       style="fill:#fffffe" />
    <path
       d="m 122.224,69.86 c 0.97,-2.72 4.014,-7.59 9.386,-8.369 5.37,-0.777 8.986,2.16 9.605,5.435 0.616,3.279 -0.825,9.108 -3.781,11.287 -2.955,2.18 -7.251,2.108 -7.251,2.108 0,0 -3.365,-8.731 -7.959,-10.461"
       id="path48848"
       inkscape:connector-curvature="0"
       style="fill:#fffffe" />
    <path
       d="m 26.67,117.942 c -3.485,9.34 -18.947,60.963 -17.409,68.678 9.878,8.342 38.117,26.842 73.692,31.597 35.573,4.753 69.558,-6.574 74.896,-12.425 1.578,-14.619 3.879,-76.035 3.879,-76.035 0,0 -6.771,4.069 -9.262,10.695 -2.488,6.625 -5.162,17.259 -3.47,24.308 1.692,7.048 7.112,21.346 0.399,25.743 -6.716,4.392 -15.417,4.028 -18.26,-4.519 -2.844,-8.55 5.282,-13.847 5.799,-17.267 0.518,-3.424 3.254,-26.729 -1.891,-31.65 -5.144,-4.916 -7.232,-2.686 -8.05,1.646 -0.814,4.336 -1.41,11.409 -0.494,13.775 0.916,2.368 -0.099,9.058 -4.216,8.913 -4.116,-0.145 -6.616,-4.663 -6.795,-9.784 -0.18,-5.121 5.023,-12.135 3.496,-15.708 -1.53,-3.574 -8.155,-12.379 -13.073,-7.233 -4.919,5.144 -2.791,8.967 -2.119,10.821 0.675,1.853 0.247,7.837 -2.121,8.752 -2.366,0.915 -10.839,0.11 -13.136,-4.696 -2.297,-4.805 2.026,-8.13 1.676,-14.232 -0.347,-6.103 -4.533,-12.097 -10.907,-12.055 -6.374,0.045 -10.208,3.283 -10.26,6.78 -0.05,3.493 4.673,13.285 1.33,16.438 -3.343,3.154 -19.782,4.484 -18.698,-7.927 1.085,-12.412 5.886,-11.526 -0.123,-17.051 -6.006,-5.529 -18.432,-7.57 -24.883,2.436"
       id="path48850"
       inkscape:connector-curvature="0"
       style="fill:#f7f29b;fill-opacity:1" />
    <path
       d="m 44.872,66.099 c 3.609,6.995 13.606,17.714 27.803,23.475 14.198,5.76 38.742,8.363 45.336,8.087 C 112.288,97.432 87.214,91.884 73.504,86.198 59.795,80.512 44.872,66.099 44.872,66.099"
       id="path48852"
       inkscape:connector-curvature="0"
       style="fill:#fffffe" />
    <path
       d="m 97.956,50.239 c -1.743,-0.18 -3.03,1.565 -3.64,3.011 -0.574,1.364 0.236,2.559 -0.745,3.831 -0.128,-0.029 -0.372,-0.126 -0.481,-0.21 -0.245,-0.736 -0.198,-3.123 0.109,-3.828 0.544,-1.242 2.282,-2.156 2.487,-3.516 0.501,-0.013 0.86,0.215 1.334,0.294"
       id="path48854"
       inkscape:connector-curvature="0"
       style="fill:#fffffe" />
  </g>
</svg>
