<?xml version="1.0" encoding="iso-8859-1"?>
<!-- Generator: Adobe Illustrator 19.0.0, SVG Export Plug-In . SVG Version: 6.00 Build 0)  -->
<svg version="1.1" id="Layer_1" xmlns="http://www.w3.org/2000/svg" xmlns:xlink="http://www.w3.org/1999/xlink" x="0px" y="0px"
	 viewBox="0 0 512 512" style="enable-background:new 0 0 512 512;" xml:space="preserve">
<g>
	<path style="fill:#EAA0E3;" d="M164.231,72.333h-11.134c-5.969,0-10.807,4.838-10.807,10.807v105.628h32.748V83.141
		C175.038,77.172,170.2,72.333,164.231,72.333z"/>
	<path style="fill:#EAA0E3;" d="M271.571,72.333h-11.134c-5.969,0-10.807,4.838-10.807,10.807v105.628h32.748V83.141
		C282.378,77.172,277.54,72.333,271.571,72.333z"/>
</g>
<g>
	<path style="fill:#D57CD4;" d="M153.099,72.333L153.099,72.333c-5.969,0-10.807,4.838-10.807,10.807v105.628h10.807V72.333z"/>
	<path style="fill:#D57CD4;" d="M260.438,72.333L260.438,72.333c-5.969,0-10.807,4.838-10.807,10.807v105.628h10.807V72.333z"/>
</g>
<g>
	<path style="fill:#F4C063;" d="M177.319,18.654L158.665,0l-18.654,18.654c-10.301,10.301-10.301,27.005,0,37.307l0,0
		c10.301,10.301,27.005,10.301,37.307,0l0,0C187.62,45.658,187.62,28.955,177.319,18.654z"/>
	<path style="fill:#F4C063;" d="M284.657,18.654L266.004,0L247.35,18.654c-10.301,10.301-10.301,27.005,0,37.307l0,0
		c10.301,10.301,27.005,10.301,37.307,0l0,0C294.96,45.658,294.96,28.955,284.657,18.654z"/>
</g>
<path style="fill:#EAA0E3;" d="M378.91,72.333h-11.134c-5.969,0-10.807,4.838-10.807,10.807v105.628h32.748V83.141
	C389.717,77.172,384.879,72.333,378.91,72.333z"/>
<path style="fill:#F4C063;" d="M391.997,18.654L373.344,0L354.69,18.654c-10.301,10.301-10.301,27.005,0,37.307l0,0
	c10.301,10.301,27.005,10.301,37.307,0l0,0C402.299,45.658,402.299,28.955,391.997,18.654z"/>
<path style="fill:#D57CD4;" d="M367.777,72.333L367.777,72.333c-5.969,0-10.807,4.838-10.807,10.807v105.628h10.807V72.333z"/>
<rect x="53.142" y="294.937" style="fill:#EC589B;" width="405.714" height="177.04"/>
<polyline style="fill:#D3468D;" points="105.905,294.937 105.905,471.977 53.142,471.977 53.142,294.937 "/>
<polyline style="fill:#F4C063;" points="458.857,350.687 458.857,438.013 53.142,438.013 53.142,350.687 "/>
<polyline style="fill:#D5A03C;" points="105.905,350.687 105.905,438.013 53.142,438.013 53.142,350.687 "/>
<polyline style="fill:#B7744F;" points="458.857,414.362 458.857,481.931 53.142,481.931 53.142,414.362 "/>
<polyline style="fill:#A46141;" points="105.905,414.362 105.905,481.931 53.142,481.931 53.142,414.362 "/>
<path style="fill:#D3468D;" d="M458.857,253.709v69.271c-9.667,9.594-21.869,16.714-35.782,20.147
	c-4.549,1.128-9.788,1.795-16.084,1.795c-37.746,0-37.746-24.259-75.505-24.259c-37.746,0-37.746,24.259-75.493,24.259
	c-37.759,0-37.759-24.259-75.505-24.259s-37.747,24.259-75.493,24.259c-19.565,0-28.989-6.513-38.79-12.784
	c-4.767-3.057-9.133-6.562-13.063-10.48v-67.949H458.857z"/>
<path style="fill:#F9DCA4;" d="M482.503,235.945c0,36.228-24.256,68.474-59.425,77.166c-4.545,1.123-9.787,1.796-16.08,1.796
	c-37.753,0-37.753-24.259-75.505-24.259c-37.751,0-37.751,24.259-75.502,24.259s-37.75-24.259-75.5-24.259
	c-37.748,0-37.748,24.259-75.497,24.259c-19.563,0-28.988-6.515-38.782-12.793c-22.887-14.668-36.717-39.994-36.717-67.178
	c0-8.721,0-17.381,0-25.069c0-15.003,12.162-27.165,27.165-27.165h398.678c15.003,0,27.165,12.162,27.165,27.165L482.503,235.945
	L482.503,235.945z"/>
<path style="fill:#E7C080;" d="M120.79,302.116c-22.887-14.669-36.717-39.994-36.717-67.178c0-8.721,0-17.381,0-25.069
	c0-15.003,12.162-27.165,27.165-27.165H56.66c-15.003,0-27.165,12.161-27.165,27.165c0,7.688,0,16.348,0,25.069
	c0,27.184,13.83,52.51,36.717,67.178c9.794,6.277,19.219,12.793,38.782,12.793c12.181,0,20.425-2.531,27.281-5.954
	C128.123,306.882,124.482,304.482,120.79,302.116z"/>
<path style="fill:#E6E6E6;" d="M424.031,512H87.969c-22.571,0-43.954-10.117-58.267-27.57l-10.213-12.453h473.022l-10.213,12.453
	C467.985,501.882,446.602,512,424.031,512z"/>
<path style="fill:#CCCCCC;" d="M102.474,484.43l-10.213-12.453H19.488l10.213,12.453C44.015,501.883,65.398,512,87.968,512h72.772
	C138.17,512,116.787,501.882,102.474,484.43z"/>
<g>
</g>
<g>
</g>
<g>
</g>
<g>
</g>
<g>
</g>
<g>
</g>
<g>
</g>
<g>
</g>
<g>
</g>
<g>
</g>
<g>
</g>
<g>
</g>
<g>
</g>
<g>
</g>
<g>
</g>
</svg>
