<?xml version="1.0" standalone="no"?>
<!DOCTYPE svg PUBLIC "-//W3C//DTD SVG 20010904//EN"
 "http://www.w3.org/TR/2001/REC-SVG-20010904/DTD/svg10.dtd">
<svg version="1.0" xmlns="http://www.w3.org/2000/svg"
 width="303.000000pt" height="317.000000pt" viewBox="0 0 303.000000 317.000000"
 preserveAspectRatio="xMidYMid meet">

<g transform="translate(0.000000,317.000000) scale(0.100000,-0.100000)"
fill="#000000" stroke="none">
<path d="M1478 3040 c-10 -11 -13 -20 -8 -20 6 0 10 -11 10 -24 0 -40 18 -76
37 -76 17 1 17 1 1 11 -12 7 -18 22 -18 49 0 28 5 40 18 43 15 4 15 5 0 6 -9
0 -18 8 -20 16 -2 13 -6 12 -20 -5z"/>
<path d="M1246 2991 c-13 -15 -16 -28 -11 -51 11 -51 73 -61 97 -16 11 20 10
20 -9 4 -23 -21 -46 -23 -62 -5 -14 18 -4 27 28 27 14 0 33 4 41 10 12 7 12
12 -4 29 -24 26 -58 27 -80 2z m63 -5 c13 -15 -4 -26 -40 -26 -22 0 -24 11 -7
28 16 16 33 15 47 -2z"/>
<path d="M1848 2989 c-28 -16 -24 -75 6 -94 19 -13 29 -14 45 -5 28 15 26 22
-4 14 -49 -12 -73 36 -35 71 18 17 21 17 45 1 14 -9 25 -12 25 -7 0 12 -33 31
-52 31 -7 0 -21 -5 -30 -11z"/>
<path d="M1014 2926 c-22 -35 -1 -80 39 -84 29 -3 57 12 57 31 0 5 -9 2 -19
-7 -21 -19 -52 -18 -58 1 -4 11 7 18 65 38 10 4 10 10 2 25 -16 29 -65 27 -86
-4z m65 1 c8 -11 3 -16 -24 -24 -37 -12 -48 0 -23 25 16 16 33 15 47 -1z"/>
<path d="M2083 2933 c-23 -9 -13 -20 13 -15 16 3 30 -1 35 -9 15 -24 10 -27
-32 -22 -28 4 -44 2 -49 -8 -14 -22 8 -49 40 -49 17 0 30 -5 30 -12 1 -23 30
54 30 78 0 31 -35 51 -67 37z m31 -59 c13 -5 14 -9 5 -20 -21 -26 -71 -11 -54
16 7 11 26 13 49 4z"/>
<path d="M2286 2831 c-21 -40 -35 -75 -32 -78 2 -3 11 8 19 23 l15 29 11 -43
c15 -52 25 -55 16 -4 -6 37 -5 39 27 50 l33 12 -42 -5 -42 -5 20 35 c12 19 19
40 16 47 -2 7 -21 -20 -41 -61z"/>
<path d="M857 2874 c-3 -6 -2 -26 3 -44 13 -44 3 -52 -22 -17 -11 15 -27 27
-35 27 -12 0 -14 -9 -9 -47 l7 -48 -30 35 c-16 19 -33 31 -37 27 -4 -4 10 -25
31 -47 22 -22 43 -36 47 -32 5 5 5 28 -1 50 -11 50 -2 53 32 12 30 -36 49 -39
42 -7 -3 12 -9 40 -13 62 -4 22 -11 35 -15 29z"/>
<path d="M570 2705 c-6 -8 -10 -22 -8 -32 4 -18 20 -21 63 -12 12 3 21 -2 23
-13 2 -12 -6 -20 -30 -27 -31 -9 -31 -9 -6 -10 25 -1 58 21 58 38 0 20 -28 30
-64 24 -31 -5 -38 -3 -34 8 2 8 14 15 26 17 12 2 22 8 22 13 0 14 -36 11 -50
-6z"/>
<path d="M2463 2708 c-21 -27 -23 -51 -8 -74 15 -24 65 -34 65 -14 0 5 -7 7
-15 4 -20 -8 -45 13 -45 37 0 24 11 24 43 -1 14 -11 30 -20 35 -20 18 0 23 33
7 56 -17 26 -66 33 -82 12z m71 -20 c5 -9 7 -20 3 -24 -8 -8 -57 23 -57 37 0
16 42 6 54 -13z"/>
<path d="M1995 2628 c-44 -143 -58 -190 -82 -282 -22 -86 -33 -111 -50 -118
-14 -7 -25 -26 -33 -57 -6 -25 -26 -93 -44 -150 l-33 -105 -6 52 c-9 80 -39
125 -127 195 -137 108 -209 132 -248 82 -11 -14 -31 -50 -43 -80 -21 -51 -25
-55 -57 -55 -18 0 -70 16 -113 35 -91 40 -135 43 -198 15 l-44 -20 7 -93 c4
-50 7 -118 6 -149 -2 -77 14 -129 56 -183 l35 -47 -37 -32 -38 -33 -2 -115
c-3 -109 -1 -117 20 -137 21 -19 22 -26 14 -93 -11 -109 -12 -220 0 -248 11
-30 87 -102 128 -123 16 -8 72 -27 124 -42 126 -35 356 -45 500 -21 102 17
271 77 301 107 17 17 19 36 19 179 0 152 1 160 20 160 34 0 44 37 41 164 -1
66 -6 126 -10 134 -4 8 2 32 16 59 24 48 32 136 13 148 -6 4 -17 22 -25 41
-10 24 -26 39 -50 49 -19 9 -35 19 -35 23 0 5 18 53 40 108 27 67 38 108 34
126 -3 17 3 42 17 69 28 56 69 169 69 192 0 9 -11 23 -25 29 -36 16 -44 4 -97
-127 -24 -60 -52 -122 -61 -136 -10 -14 -29 -66 -43 -115 -28 -93 -38 -114
-59 -114 -17 0 28 171 60 226 26 45 32 93 14 111 -7 7 5 60 42 181 43 142 50
174 39 187 -15 18 -49 20 -55 3z m41 -18 c7 -7 0 -43 -22 -113 -19 -56 -42
-134 -53 -172 -21 -72 -44 -115 -56 -103 -14 13 97 398 114 398 4 0 12 -5 17
-10z m122 -240 c1 -14 -17 -70 -41 -125 -35 -81 -48 -101 -67 -103 -21 -3 -22
-1 -17 27 4 17 25 76 48 132 31 74 46 99 58 97 9 -2 17 -14 19 -28z m-675
-134 c18 -8 40 -20 51 -28 18 -14 18 -16 1 -41 -21 -33 -10 -36 15 -5 15 19
20 20 34 9 20 -17 20 -30 -1 -53 -9 -10 -13 -21 -9 -25 7 -7 13 0 35 36 7 11
13 10 35 -4 35 -23 33 -42 -9 -88 -50 -55 -43 -59 11 -7 44 44 46 44 60 25 32
-44 30 -67 -11 -102 -40 -34 -33 -45 10 -17 24 16 25 16 25 -10 0 -40 -58
-136 -82 -136 -28 0 -58 -18 -58 -35 0 -11 5 -10 20 5 22 22 29 24 49 11 10
-7 20 3 38 38 35 66 47 74 39 26 -11 -61 -16 -73 -31 -77 -10 -2 -12 -7 -5
-18 8 -13 11 -12 24 5 9 11 16 26 16 32 0 7 22 35 48 63 41 43 53 50 74 45 16
-4 29 -1 38 10 9 11 22 14 44 9 46 -9 136 -72 147 -102 6 -15 15 -30 21 -33
29 -18 -7 -169 -40 -169 -9 0 -27 -11 -41 -24 -32 -29 -111 -41 -138 -20 -10
7 -35 14 -56 14 -33 0 -46 7 -83 46 -37 40 -46 45 -59 34 -12 -10 -19 -10 -27
-2 -7 7 -17 12 -22 12 -6 0 -5 -5 2 -12 7 -7 12 -27 12 -45 0 -28 -6 -36 -45
-58 -27 -16 -55 -25 -72 -23 -27 3 -28 5 -25 48 2 25 -2 58 -7 73 -8 21 -8 34
0 50 12 22 12 22 -9 3 -16 -14 -19 -23 -12 -37 12 -21 13 -129 2 -147 -5 -6
-28 -12 -53 -13 -177 -4 -194 3 -158 67 12 21 31 49 42 62 21 22 11 32 -11 10
-25 -25 -232 -15 -232 11 0 4 10 13 23 20 20 10 18 11 -14 7 -56 -7 -109 37
-56 47 19 3 17 5 -11 12 -29 7 -62 37 -62 57 0 5 10 8 23 8 21 1 20 2 -5 16
-36 19 -40 64 -5 65 22 0 22 0 1 9 -17 7 -23 20 -28 67 -3 32 -9 79 -12 104
-8 65 11 82 87 77 46 -3 66 -11 103 -39 25 -19 50 -45 55 -59 7 -17 10 -20 10
-7 2 34 61 9 61 -26 1 -20 2 -20 11 -4 5 9 21 17 34 17 22 0 25 -5 26 -37 1
-33 2 -34 8 -13 4 16 14 25 26 25 16 0 21 -9 25 -45 4 -36 7 -41 13 -25 8 20
9 20 23 1 18 -26 18 -60 -1 -96 -16 -31 -9 -40 13 -18 9 9 12 2 13 -33 2 -54
2 -48 -6 -82 -5 -20 -3 -27 7 -27 19 0 48 119 48 195 l1 60 20 -28 c52 -69 38
37 -21 161 -57 118 -72 109 -45 -28 l7 -35 -32 38 c-17 20 -45 44 -62 53 -26
14 -29 19 -24 47 3 17 18 50 32 74 20 35 30 43 55 43 16 0 44 -6 62 -14z m487
-19 c0 -6 -11 -33 -25 -59 -14 -26 -38 -91 -53 -145 -26 -90 -31 -99 -61 -114
-19 -9 -40 -28 -48 -42 -18 -35 -35 -35 -27 1 20 83 81 293 95 331 7 17 13 20
22 12 9 -7 21 -5 43 9 34 22 54 25 54 7z m-833 -81 c28 -13 85 -32 126 -41 93
-21 130 -43 167 -101 33 -53 55 -143 44 -182 -6 -24 -9 -19 -20 35 -15 69 -42
129 -70 154 -11 10 -57 29 -102 43 -98 31 -118 40 -153 73 -14 13 -39 28 -55
33 -20 6 -23 9 -9 9 11 0 43 -10 72 -23z m926 -16 c25 0 21 -28 -19 -124 -30
-72 -40 -86 -59 -86 -41 0 -46 20 -25 97 29 105 40 125 64 119 12 -3 29 -6 39
-6z m-563 -117 c11 -30 19 -61 17 -67 -6 -14 -57 92 -57 117 0 31 18 9 40 -50z
m-428 -369 c17 -9 48 -21 69 -28 l37 -11 -13 -39 c-13 -38 -13 -40 15 -66 34
-32 84 -43 120 -26 36 17 104 13 108 -7 7 -37 234 -45 294 -10 47 27 55 46 34
77 -9 15 -28 31 -41 36 -26 10 -25 39 2 62 13 10 20 7 44 -20 32 -36 66 -52
109 -52 16 0 32 -4 35 -10 8 -13 86 -13 121 0 15 6 33 18 41 28 12 16 14 15
33 -7 17 -20 20 -38 20 -135 0 -61 -5 -118 -10 -126 -18 -29 -32 7 -40 107 -4
54 -8 83 -9 65 -3 -89 -60 -138 -71 -62 -6 38 -25 48 -54 27 -12 -9 -20 -33
-25 -77 -7 -61 -25 -90 -62 -102 -6 -2 -15 -25 -20 -52 -11 -58 -25 -78 -53
-74 -29 4 -46 44 -46 111 0 81 -39 147 -87 147 -30 0 -49 -33 -58 -97 -8 -58
-36 -103 -65 -103 -25 0 -50 37 -50 75 0 39 -16 96 -33 120 -11 14 -28 19 -76
20 -90 3 -97 -8 -103 -174 -6 -144 -19 -181 -63 -181 -34 0 -38 26 -19 121 24
121 5 319 -30 319 -8 0 -19 7 -26 16 -8 8 -25 14 -39 12 -24 -3 -26 -8 -32
-65 -6 -63 -20 -93 -45 -93 -24 0 -34 45 -24 102 6 29 8 71 4 94 -5 37 -3 43
26 67 37 32 41 32 82 11z m202 -32 c3 -5 -4 -23 -15 -41 -20 -33 -15 -63 13
-74 7 -3 0 -6 -15 -6 -29 -1 -67 15 -78 32 -9 14 10 69 29 85 18 14 58 16 66
4z m438 -69 c29 -26 22 -48 -25 -73 -75 -40 -131 -4 -74 47 25 23 57 42 71 43
5 0 18 -7 28 -17z m-620 -43 c7 -11 18 -20 24 -20 7 0 15 -8 19 -17 15 -37 18
-207 5 -289 -16 -102 -6 -137 37 -132 51 6 66 44 73 185 7 160 12 170 84 171
68 0 83 -14 97 -94 16 -86 29 -108 66 -112 38 -4 70 31 78 87 14 86 19 96 50
96 25 0 33 -7 53 -45 15 -29 22 -62 22 -98 0 -58 28 -112 58 -112 29 0 62 41
62 77 0 20 8 40 20 50 11 10 29 25 39 34 12 11 21 37 26 77 4 34 13 66 21 73
15 12 28 6 30 -14 0 -7 2 -20 2 -29 2 -21 40 -34 55 -19 6 6 15 11 19 11 5 0
6 -64 4 -142 -3 -79 -6 -153 -6 -165 0 -17 -6 -23 -23 -23 -13 0 -37 -12 -53
-26 -42 -37 -69 -46 -100 -32 -19 9 -33 9 -58 0 -18 -7 -51 -12 -75 -12 -23 0
-56 -7 -72 -16 -26 -13 -38 -14 -80 -3 -38 10 -52 10 -61 1 -16 -16 -83 -15
-108 0 -15 10 -27 10 -55 -1 -41 -15 -71 -8 -86 21 -9 18 -17 20 -55 14 -43
-5 -47 -4 -90 39 -27 28 -54 45 -68 45 -15 0 -30 10 -41 27 -26 39 -17 217 14
266 14 23 21 51 21 84 0 27 3 53 7 56 12 13 33 7 45 -13z m483 2 c-3 -8 -5
-22 -5 -33 0 -16 -7 -19 -49 -19 -55 0 -101 14 -101 30 0 5 15 10 34 10 18 0
39 6 45 13 14 18 83 17 76 -1z m-529 -436 c20 5 26 2 31 -14 3 -11 22 -33 44
-47 30 -22 45 -26 72 -21 27 5 38 2 57 -19 25 -27 67 -33 101 -14 16 8 26 7
44 -5 30 -20 112 -19 123 1 6 11 15 11 40 2 18 -6 49 -8 70 -5 20 4 64 10 97
14 33 4 69 13 81 19 12 7 25 8 35 2 26 -16 60 -9 106 21 62 42 83 40 83 -9 0
-38 -1 -39 -67 -68 -164 -74 -327 -98 -543 -83 -261 19 -440 117 -440 242 l0
22 20 -22 c15 -16 28 -20 46 -16z"/>
<path d="M1050 2004 c0 -4 18 -26 39 -49 22 -24 51 -68 66 -100 56 -118 198
-163 150 -48 -18 41 -51 71 -110 98 -27 12 -71 41 -97 64 -27 24 -48 39 -48
35z m169 -129 c16 -8 40 -28 55 -45 29 -36 36 -86 10 -76 -9 3 -19 6 -23 6
-19 0 -101 99 -101 123 0 12 29 8 59 -8z"/>
<path d="M1917 1843 c-4 -3 -7 -16 -7 -27 1 -19 2 -19 11 -3 5 9 19 17 30 17
11 0 17 5 14 10 -7 11 -38 13 -48 3z"/>
<path d="M1996 1782 c-3 -6 1 -12 9 -16 20 -7 19 -25 -2 -48 -9 -10 -14 -20
-11 -23 7 -7 48 34 48 49 0 18 -37 50 -44 38z"/>
<path d="M1808 1767 c-30 -11 -37 -27 -14 -27 21 0 67 26 59 33 -8 8 -10 8
-45 -6z"/>
<path d="M1558 1723 c7 -3 16 -2 19 1 4 3 -2 6 -13 5 -11 0 -14 -3 -6 -6z"/>
<path d="M1595 1720 c3 -5 11 -10 16 -10 6 0 7 5 4 10 -3 6 -11 10 -16 10 -6
0 -7 -4 -4 -10z"/>
<path d="M1859 1650 c-26 -21 -20 -27 10 -8 26 16 51 3 51 -27 0 -15 4 -24 10
-20 16 10 12 40 -8 58 -24 22 -35 21 -63 -3z"/>
<path d="M1383 1648 c21 -7 32 -7 40 1 8 8 0 11 -28 10 -40 -1 -40 -1 -12 -11z"/>
<path d="M1070 970 c0 -5 5 -10 10 -10 6 0 10 5 10 10 0 6 -4 10 -10 10 -5 0
-10 -4 -10 -10z"/>
<path d="M1956 955 c4 -8 10 -15 15 -15 4 0 6 7 3 15 -4 8 -10 15 -15 15 -4 0
-6 -7 -3 -15z"/>
<path d="M1205 930 c3 -5 8 -10 11 -10 2 0 4 5 4 10 0 6 -5 10 -11 10 -5 0 -7
-4 -4 -10z"/>
<path d="M1790 911 c0 -6 5 -13 10 -16 6 -3 10 1 10 9 0 9 -4 16 -10 16 -5 0
-10 -4 -10 -9z"/>
<path d="M1390 896 c0 -9 5 -16 10 -16 6 0 10 4 10 9 0 6 -4 13 -10 16 -5 3
-10 -1 -10 -9z"/>
<path d="M1250 890 c0 -5 5 -10 10 -10 6 0 10 5 10 10 0 6 -4 10 -10 10 -5 0
-10 -4 -10 -10z"/>
<path d="M316 2352 c-125 -188 -204 -391 -241 -617 -21 -130 -16 -395 10 -510
69 -308 200 -551 415 -766 289 -290 646 -439 1055 -439 314 0 593 86 855 264
109 73 313 281 388 394 127 191 233 470 231 606 0 45 -3 38 -23 -59 -30 -143
-66 -247 -127 -368 -210 -421 -592 -708 -1060 -798 -100 -19 -136 -21 -304
-16 -267 7 -384 36 -620 153 -409 201 -690 569 -791 1034 -27 122 -27 448 0
570 45 207 136 417 245 568 36 48 54 82 46 82 -8 0 -43 -44 -79 -98z"/>
<path d="M2710 2445 c0 -3 18 -29 39 -58 124 -165 216 -377 261 -602 17 -85
18 -87 19 -39 2 102 -78 342 -167 499 -73 130 -152 234 -152 200z"/>
<path d="M411 2319 c-101 -143 -187 -342 -226 -519 -25 -114 -31 -372 -11
-495 37 -233 128 -447 268 -634 71 -94 229 -244 327 -310 257 -171 530 -249
835 -238 607 22 1118 417 1292 1001 43 143 57 264 51 441 -8 230 -48 391 -149
587 -53 105 -142 238 -159 238 -12 0 -8 -7 47 -82 102 -139 196 -369 229 -557
19 -108 21 -349 5 -444 -40 -234 -136 -456 -273 -634 -54 -71 -181 -196 -259
-257 -329 -253 -777 -340 -1197 -231 -151 39 -346 136 -478 238 -266 204 -458
523 -519 858 -23 126 -22 354 1 474 43 225 124 409 274 616 8 12 9 19 2 19 -6
0 -33 -32 -60 -71z"/>
<path d="M2410 2017 c0 -19 -9 -46 -20 -60 -24 -30 -25 -37 -6 -37 20 0 46
-39 46 -67 0 -12 5 -25 12 -29 8 -5 9 5 5 39 -6 41 -4 48 18 65 l25 20 -25 16
c-14 9 -28 30 -32 47 -8 42 -23 46 -23 6z m33 -54 c13 -15 13 -21 2 -36 -11
-15 -16 -16 -33 -6 -17 10 -18 17 -9 36 12 28 19 29 40 6z"/>
<path d="M2316 1638 c-9 -65 -27 -100 -70 -135 l-35 -27 40 -17 c44 -20 70
-57 101 -149 l23 -65 5 100 c5 109 10 122 54 150 l29 19 -42 18 c-32 13 -46
27 -61 60 -11 24 -20 55 -20 71 0 46 -17 30 -24 -25z m39 -68 c8 -16 27 -37
40 -46 l25 -16 -24 -28 c-13 -16 -26 -47 -30 -69 -3 -23 -10 -41 -14 -41 -4 0
-17 18 -30 41 -13 22 -34 45 -48 51 -27 13 -32 33 -9 42 8 3 25 26 37 51 12
25 25 45 30 45 4 0 14 -13 23 -30z"/>
<path d="M968 563 c-15 -4 -18 -16 -18 -64 0 -38 4 -58 10 -54 6 3 10 14 10
25 0 13 5 17 20 13 26 -7 50 13 50 41 0 39 -24 52 -72 39z m52 -18 c18 -22 3
-57 -23 -53 -22 3 -33 28 -23 54 7 18 30 18 46 -1z"/>
<path d="M1168 563 c-14 -3 -18 -14 -16 -46 1 -40 1 -40 5 -8 3 19 12 41 21
48 18 13 17 13 -10 6z"/>
<path d="M1308 559 c-21 -12 -24 -49 -6 -67 14 -14 44 -16 52 -3 3 4 -5 6 -18
4 -15 -3 -25 1 -29 11 -5 13 1 16 28 16 36 0 46 15 23 38 -14 14 -27 15 -50 1z
m50 -16 c2 -9 -7 -13 -28 -13 -28 0 -31 2 -20 15 15 18 41 16 48 -2z"/>
<path d="M1493 563 c-8 -3 -12 -21 -12 -46 l2 -42 6 40 c7 46 37 62 45 23 3
-13 7 -32 9 -43 3 -11 5 -3 6 18 1 24 7 40 16 44 21 7 27 0 35 -44 l8 -38 1
36 c1 45 -21 69 -49 51 -12 -7 -21 -8 -25 -2 -7 11 -22 12 -42 3z"/>
<path d="M1723 525 c0 -27 2 -38 4 -22 2 15 2 37 0 50 -2 12 -4 0 -4 -28z"/>
<path d="M1844 530 c1 -44 2 -45 34 -46 31 -1 32 0 31 40 l-2 41 -6 -35 c-4
-26 -11 -35 -26 -35 -16 0 -21 9 -26 40 l-7 40 2 -45z"/>
<path d="M2038 563 c-13 -3 -18 -15 -18 -44 0 -50 18 -51 22 -1 2 25 8 37 18
37 10 0 16 -12 18 -37 4 -48 22 -50 22 -4 0 62 35 58 50 -6 l8 -33 1 31 c1 16
-5 39 -13 50 -13 16 -18 17 -35 7 -13 -8 -22 -9 -26 -3 -6 10 -17 11 -47 3z"/>
</g>
</svg>
