<?xml version="1.0" encoding="iso-8859-1"?>
<!-- Generator: Adobe Illustrator 19.0.0, SVG Export Plug-In . SVG Version: 6.00 Build 0)  -->
<svg version="1.1" id="Capa_1" xmlns="http://www.w3.org/2000/svg" xmlns:xlink="http://www.w3.org/1999/xlink" x="0px" y="0px"
	 viewBox="0 0 512 512" style="enable-background:new 0 0 512 512;" xml:space="preserve">
<path style="fill:#F0DBC2;" d="M8.525,230.4h494.933l0,0v221.867c0,28.279-22.921,51.2-51.2,51.2l0,0H8.525l0,0L8.525,230.4
	L8.525,230.4z"/>
<path id="SVGCleanerId_0" style="fill:#F2B9B8;" d="M8.525,281.6h418.133c14.14,0,25.6,11.46,25.6,25.6v119.467
	c0,14.14-11.46,25.6-25.6,25.6H8.525l0,0L8.525,281.6L8.525,281.6z"/>
<g>
	<path id="SVGCleanerId_0_1_" style="fill:#F2B9B8;" d="M8.525,281.6h418.133c14.14,0,25.6,11.46,25.6,25.6v119.467
		c0,14.14-11.46,25.6-25.6,25.6H8.525l0,0L8.525,281.6L8.525,281.6z"/>
</g>
<path style="fill:#F29C9B;" d="M8.525,230.4L307.191,51.2l0,0c101.598,0.017,186.539,77.252,196.19,178.389l0.077,0.811H8.525z"/>
<circle style="fill:#F0614A;" cx="401.058" cy="93.867" r="51.2"/>
<path style="fill:#EA5242;" d="M426.539,49.493c-1.229,38.059-31.795,68.625-69.854,69.854
	c14.029,24.55,45.303,33.084,69.854,19.063c24.55-14.029,33.084-45.303,19.063-69.854C441.062,60.612,434.483,54.033,426.539,49.493
	z"/>
<g>
	<path style="fill:#965735;" d="M409.591,76.8h-17.067c0.051-42.394,34.406-76.749,76.8-76.8v17.067
		C436.352,17.101,409.626,43.827,409.591,76.8z"/>
	
		<rect x="302.92" y="80.06" transform="matrix(-0.7071 0.7071 -0.7071 -0.7071 601.0964 -52.6549)" style="fill:#965735;" width="17.067" height="36.207"/>
	
		<rect x="199.488" y="140.83" transform="matrix(-0.7071 0.7071 -0.7071 -0.7071 477.0671 101.1196)" style="fill:#965735;" width="36.207" height="17.067"/>
	
		<rect x="243.189" y="165.4" transform="matrix(-0.7071 0.7071 -0.7071 -0.7071 559.4736 135.2645)" style="fill:#965735;" width="17.067" height="36.207"/>
	
		<rect x="276.287" y="140.797" transform="matrix(-0.7071 0.7071 -0.7071 -0.7071 608.1479 46.7577)" style="fill:#965735;" width="36.207" height="17.067"/>
	
		<rect x="421.369" y="174.918" transform="matrix(-0.7071 0.7071 -0.7071 -0.7071 879.9459 2.4177)" style="fill:#965735;" width="36.207" height="17.067"/>
	
		<rect x="327.499" y="174.917" transform="matrix(-0.7071 0.7071 -0.7071 -0.7071 719.6986 68.7909)" style="fill:#965735;" width="36.207" height="17.067"/>
	
		<rect x="139.76" y="174.93" transform="matrix(-0.7071 0.7071 -0.7071 -0.7071 399.2185 201.5657)" style="fill:#965735;" width="36.207" height="17.067"/>
</g>
<path style="fill:#EBD3B7;" d="M321.562,281.6h105.097c14.14,0,25.6,11.46,25.6,25.6v119.467c0,14.14-11.46,25.6-25.6,25.6H123.947
	l-59.281,51.2h387.593c28.279,0,51.2-22.921,51.2-51.2l0,0V230.4H380.851L321.562,281.6z"/>
<path style="fill:#F2AEAC;" d="M426.658,452.267c14.14,0,25.6-11.46,25.6-25.6V307.2c0-14.14-11.46-25.6-25.6-25.6H321.562
	L123.947,452.267H426.658z"/>
<rect x="8.525" y="358.4" style="fill:#F28685;" width="443.733" height="17.067"/>
<path d="M511.872,228.787c-4.122-44.578-22.81-86.562-53.171-119.467c7.953-29.107-7.194-59.554-35.2-70.775
	c11.324-13.611,28.117-21.478,45.824-21.478V0c-25.728,0.017-49.732,12.919-63.949,34.355c-1.434-0.102-2.859-0.222-4.318-0.222
	c-14.925,0.009-29.303,5.632-40.277,15.753c-17.468-4.753-35.49-7.185-53.589-7.219c-1.545,0-3.063,0.418-4.395,1.22L4.13,223.087
	c-0.35,0.256-0.683,0.538-0.99,0.853c-0.299,0.213-0.589,0.444-0.853,0.7c-0.555,0.614-1.024,1.306-1.382,2.048
	c-0.085,0.171-0.213,0.299-0.282,0.469c-0.393,0.964-0.597,1.997-0.614,3.038c0,0.077,0,0.137,0,0.213v273.058
	c0,4.71,3.823,8.533,8.533,8.533h443.716c32.973-0.034,59.699-26.761,59.733-59.733V230.4c-0.043-0.316-0.111-0.623-0.188-0.93
	C511.838,229.248,511.863,229.018,511.872,228.787z M396.851,51.627c-2.85,8.09-4.309,16.597-4.326,25.173h17.067
	c-0.009-7.996,1.604-15.915,4.727-23.279c22.4,7.313,34.637,31.394,27.324,53.794s-31.394,34.637-53.794,27.324
	c-22.4-7.313-34.637-31.394-27.324-53.794C365.773,64.768,380.023,53.308,396.851,51.627z M309.53,59.733
	c13.329,0.162,26.607,1.732,39.612,4.693c-16.341,28.621-6.383,65.067,22.238,81.408c27.469,15.676,62.396,7.211,79.625-19.311
	c23.066,27.059,37.922,60.134,42.846,95.343H39.33L309.53,59.733z M17.058,375.467h426.667v51.2c0,9.429-7.637,17.067-17.067,17.067
	h-409.6C17.058,443.733,17.058,375.467,17.058,375.467z M443.725,358.4H17.058v-68.267h409.6c9.429,0,17.067,7.637,17.067,17.067
	V358.4z M494.925,452.267c-0.026,23.552-19.115,42.641-42.667,42.667h-435.2V460.8h409.6c18.85,0,34.133-15.283,34.133-34.133V307.2
	c0-18.85-15.283-34.133-34.133-34.133h-409.6v-34.133h477.867V452.267z"/>
<rect x="302.92" y="80.06" transform="matrix(-0.7071 0.7071 -0.7071 -0.7071 601.0964 -52.6549)" width="17.067" height="36.207"/>
<rect x="199.488" y="140.83" transform="matrix(-0.7071 0.7071 -0.7071 -0.7071 477.0671 101.1196)" width="36.207" height="17.067"/>
<rect x="243.189" y="165.4" transform="matrix(-0.7071 0.7071 -0.7071 -0.7071 559.4736 135.2645)" width="17.067" height="36.207"/>
<rect x="276.287" y="140.797" transform="matrix(-0.7071 0.7071 -0.7071 -0.7071 608.1479 46.7577)" width="36.207" height="17.067"/>
<rect x="421.369" y="174.918" transform="matrix(-0.7071 0.7071 -0.7071 -0.7071 879.9459 2.4177)" width="36.207" height="17.067"/>
<rect x="327.499" y="174.917" transform="matrix(-0.7071 0.7071 -0.7071 -0.7071 719.6986 68.7909)" width="36.207" height="17.067"/>
<rect x="139.76" y="174.93" transform="matrix(-0.7071 0.7071 -0.7071 -0.7071 399.2185 201.5657)" width="36.207" height="17.067"/>
<g>
</g>
<g>
</g>
<g>
</g>
<g>
</g>
<g>
</g>
<g>
</g>
<g>
</g>
<g>
</g>
<g>
</g>
<g>
</g>
<g>
</g>
<g>
</g>
<g>
</g>
<g>
</g>
<g>
</g>
</svg>
