<svg xmlns="http://www.w3.org/2000/svg" viewBox="0 0 745.26 743.49"><defs><style>.cls-1{isolation:isolate;}.cls-2{fill:#62424a;}.cls-3{fill:#fcfcfc;}.cls-4{fill:#ebe2e3;}.cls-5{fill:#fff;opacity:0.2;mix-blend-mode:soft-light;}</style></defs><g class="cls-1"><g id="OBJECT"><polygon class="cls-2" points="371.76 473.71 371.76 514.35 371.76 514.35 371.76 473.71 371.76 473.71"/><path class="cls-2" d="M259.35,495.36v51.73h0Z" transform="translate(-134.95 -126.32)"/><path class="cls-2" d="M259.35,547.1v0h0Z" transform="translate(-134.95 -126.32)"/><path class="cls-3" d="M690.89,460a6.71,6.71,0,1,0,6.7,6.71A6.7,6.7,0,0,0,690.89,460Z" transform="translate(-134.95 -126.32)"/><path class="cls-3" d="M630.43,512.78a6.71,6.71,0,1,0,6.71,6.7A6.71,6.71,0,0,0,630.43,512.78Z" transform="translate(-134.95 -126.32)"/><circle class="cls-3" cx="429.66" cy="382.21" r="6.71"/><path class="cls-3" d="M535.66,672.63a6.71,6.71,0,1,0,6.71,6.71A6.71,6.71,0,0,0,535.66,672.63Z" transform="translate(-134.95 -126.32)"/><circle class="cls-3" cx="482.12" cy="353.82" r="6.71"/><path class="cls-4" d="M506.71,600v40.64l57.9-24.82v-6.73a6.71,6.71,0,0,1,13.41,0v57.73a6.46,6.46,0,1,0,12.92,0V645.14a19.87,19.87,0,1,1,39.74,0v37h0v9.6a6.46,6.46,0,1,0,12.91,0V597.89A19.9,19.9,0,0,1,663.47,578c11.33,0,19.87,9.27,19.87,21.55v48.15a6.9,6.9,0,0,0,1.37,4,6.66,6.66,0,0,1,2.31,2.11,5.62,5.62,0,0,0,2.47.74,6.38,6.38,0,0,0,6.34-4.2,6.67,6.67,0,0,1,.42-4.62V551.68a6.71,6.71,0,0,1,13.42,0v2l17.57-7.53V505.52Z" transform="translate(-134.95 -126.32)"/><polygon class="cls-4" points="365.1 367.76 592.29 270.39 365.1 367.76 365.1 367.76"/><path class="cls-5" d="M460.47,419.79a7.09,7.09,0,0,0-.52.94,7.09,7.09,0,0,1,.52-.94Z" transform="translate(-134.95 -126.32)"/><path class="cls-5" d="M425.62,404.59a7.6,7.6,0,0,1-.39,1.26,7.6,7.6,0,0,0,.39-1.26Z" transform="translate(-134.95 -126.32)"/><polygon class="cls-2" points="245.28 462.44 358.35 510.9 358.35 510.9 245.28 462.44 245.28 462.44"/><polygon class="cls-5" points="245.28 462.44 358.35 510.9 358.35 510.9 245.28 462.44 245.28 462.44"/><polygon class="cls-2" points="194.88 403.66 210.56 410.38 210.56 410.38 194.88 403.66 194.88 403.66"/><polygon class="cls-5" points="194.88 403.66 210.56 410.38 210.56 410.38 194.88 403.66 194.88 403.66"/><polygon class="cls-2" points="157.9 387.81 137.82 379.2 137.82 379.2 157.9 387.81 157.9 387.81"/><polygon class="cls-5" points="157.9 387.81 137.82 379.2 137.82 379.2 157.9 387.81 157.9 387.81"/><polygon class="cls-2" points="250.3 427.41 263.21 432.94 263.21 432.94 250.3 427.41 250.3 427.41"/><polygon class="cls-5" points="250.3 427.41 263.21 432.94 263.21 432.94 250.3 427.41 250.3 427.41"/><path class="cls-3" d="M450.26,667.94a6.71,6.71,0,1,0-6.7,6.71A6.7,6.7,0,0,0,450.26,667.94Z" transform="translate(-134.95 -126.32)"/><path class="cls-3" d="M365.38,649.16a6.71,6.71,0,1,0,6.7,6.71A6.71,6.71,0,0,0,365.38,649.16Z" transform="translate(-134.95 -126.32)"/><path class="cls-3" d="M458.34,527.51a6.71,6.71,0,1,0,6.7,6.71A6.71,6.71,0,0,0,458.34,527.51Z" transform="translate(-134.95 -126.32)"/><path class="cls-3" d="M322.37,600.71a6.71,6.71,0,1,0,6.71,6.71A6.71,6.71,0,0,0,322.37,600.71Z" transform="translate(-134.95 -126.32)"/><polygon class="cls-4" points="365.05 367.78 365.1 367.76 365.1 367.76 365.05 367.78"/><polygon class="cls-5" points="365.05 367.78 365.1 367.76 365.1 367.76 365.05 367.78"/><path class="cls-4" d="M586.77,408l-84.13,36.06-.18.05a7.35,7.35,0,0,1-.94.3l-.34.07a7.1,7.1,0,0,1-1.13.12v49.47L727.24,396.7V347.93l0-.06-.11-.05v0l-90.05,38.6a6.71,6.71,0,0,1-8.81-3.52l-38,16.27A6.7,6.7,0,0,1,586.77,408Z" transform="translate(-134.95 -126.32)"/><path class="cls-3" d="M501.52,444.41a7.35,7.35,0,0,0,.94-.3l.18-.05L586.77,408a6.71,6.71,0,0,0-5.29-12.33L500,430.59l-31.24-13.38a6.27,6.27,0,0,0-1.23-.39,3.87,3.87,0,0,0-.46-.06,5.16,5.16,0,0,0-.78-.08,5.82,5.82,0,0,0-.59,0c-.21,0-.41,0-.61.06s-.45.09-.67.15l-.47.14a5.74,5.74,0,0,0-.72.3,3.59,3.59,0,0,0-.34.17,7,7,0,0,0-.73.47l-.21.16a8.93,8.93,0,0,0-.72.66l-.1.12a7,7,0,0,0-.66.86h0a7.09,7.09,0,0,0-.52.94,6.71,6.71,0,0,0,3.53,8.81l33.88,14.52.18.05a7.35,7.35,0,0,0,.94.3l.34.07a6.43,6.43,0,0,0,1.16.12h.07a7.1,7.1,0,0,0,1.13-.12Z" transform="translate(-134.95 -126.32)"/><path class="cls-3" d="M740.85,401.08V347.93a13.46,13.46,0,0,0-4-9.57,6.68,6.68,0,0,0-2.76-2.23L675.22,310.9l-46-19.71c5.5-5,9.32-10.71,11.1-16.85a28.71,28.71,0,0,0,1-5.19l.57-5.68a6.72,6.72,0,0,0-7.75-7.3l-9.66,1.58-38.9,6.34a127.57,127.57,0,0,1-15.05,1.51l-.93,0-10.72-4.59a27.58,27.58,0,0,0,0-7.09c-1.38-10.75-9.15-20.85-21.86-28.41l-7.12-4.24a6.7,6.7,0,0,0-8.18,1L505,239.18a33.37,33.37,0,0,0-17.88,2.32l-20.33,8.72c-13.65-8.07-32.58-13.1-53.59-13.71l-10.64-.3a6.71,6.71,0,0,0-6,10l14.82,25.95a15.51,15.51,0,0,1,.75,1.46L396,280.57c-19.83-.47-39.91,3.15-55.41,10.59l-3.71,1.78-4.22,2a6.72,6.72,0,0,0-3.79,6.37c0,.08,0,.17,0,.25a6.69,6.69,0,0,0,4.59,5.79l-17.5,7.5L266.72,336a6.6,6.6,0,0,0-2.21,1.54,13.42,13.42,0,0,0-5,10.43V495.3h0v51.77h0V619.5a30.32,30.32,0,0,0,16.34,26.9c.66.35,1.35.68,2.05,1L415.2,706.2l82.36,35.3a1.39,1.39,0,0,0,.19.06,6.13,6.13,0,0,0,.92.29l.33.07a7,7,0,0,0,1.2.12h0a7,7,0,0,0,1.2-.12l.32-.07a5.9,5.9,0,0,0,.93-.29c.07,0,.13,0,.19-.06l114.65-49.14a19.86,19.86,0,0,0,39.72-.59V675.34l23.18-9.93A18.93,18.93,0,0,0,689.1,668a19.77,19.77,0,0,0,20.11-14.93l13.26-5.68a30.27,30.27,0,0,0,18.38-27.87V401.08ZM506.91,585.43V505.81L727.43,411.3v79.62ZM710.32,340.54,632,374.12a6.71,6.71,0,1,0,5.29,12.33l90-38.6v0l.1.05,0,.06V396.7L500.25,494.07l-.05,0-62.1-26.61v-4.67a6.71,6.71,0,1,0-13.41,0v103a6.4,6.4,0,0,1-2,4.67,6.47,6.47,0,0,1-4.76,1.78c-3.22-.14-6.16-3.41-6.16-6.87V514.29c0-12.28-8.54-21.55-19.87-21.55A19.9,19.9,0,0,0,372,512.62v63a6.46,6.46,0,1,1-12.91,0V482.06a19.88,19.88,0,0,0-39.75,0v37.85a6.46,6.46,0,1,1-12.91,0V407.21a6.69,6.69,0,0,0-13.15-1.78L273,396.7V347.93l.12-.08,143.54,61.52a6.71,6.71,0,0,0,8.8-3.52,6.81,6.81,0,0,0,.4-1.26h0c0-.14,0-.28.05-.42a7.9,7.9,0,0,0,.09-.82c0-.18,0-.35,0-.53s0-.46-.06-.69-.08-.35-.12-.53-.12-.44-.19-.65a5.32,5.32,0,0,0-.21-.5c-.09-.21-.2-.41-.31-.61s-.18-.3-.28-.44-.29-.39-.45-.58-.21-.25-.33-.36a5.43,5.43,0,0,0-.63-.54,4.19,4.19,0,0,0-.33-.26,6.07,6.07,0,0,0-1.12-.62l-54.35-23.3,47.24-7.7a127.57,127.57,0,0,1,15-1.51c4.36-.18,8.7-.55,13-1.06a27.5,27.5,0,0,0-1.34,12.69c1.38,10.76,9.14,20.85,21.86,28.42l7.12,4.23a6.62,6.62,0,0,0,3.42.95,6.73,6.73,0,0,0,4.76-2l23.86-23.94a44.42,44.42,0,0,1,7.91-6.16,70.44,70.44,0,0,0,10.4-7.91c12.71,13.89,37.6,23,66.39,23.85l10.65.3H598a6.71,6.71,0,0,0,5.82-10L589,358a17.61,17.61,0,0,1-2.16-6.12,31.66,31.66,0,0,0-.83-3.91,138.27,138.27,0,0,0,21.8,1.71c18.71,0,37.39-3.64,52-10.65l7.93-3.81a6.71,6.71,0,0,0-1.07-12.5l-44.82-12.75a87.53,87.53,0,0,1-12.35-4.51c-.82-.37-1.67-.72-2.51-1.08a82.7,82.7,0,0,0,9.14-4.14ZM281.09,634A17,17,0,0,1,273,619.5V557.3l82.42,35.32a20,20,0,0,0,4.95,2.13l133.16,57.06v73.35l-52.57-22.53L283.21,635A16.3,16.3,0,0,1,281.09,634Zm64.61-97.26h0v37.19L273,542.7V505.52h0l20.09,8.6h0v5.79A19.85,19.85,0,0,0,330,530h0Zm-12.91-20.13v-34.5a6.46,6.46,0,1,1,12.91,0v40Zm-39.74-17L273,490.92V411.3l20.09,8.61Zm105.31,59.73h0v6.14c0,10.72,8.51,19.81,19,20.27A19.78,19.78,0,0,0,432,580.18a20,20,0,0,0,3.73-4.92L493.49,600v37.18h0L380.42,588.76h0a19.73,19.73,0,0,0,5-13.16V553.72h0Zm-12.92-20.13V512.62a6.47,6.47,0,0,1,6.46-6.46c3.86,0,6.46,3.27,6.46,8.13v30.37Zm52.66,22.56V482.08l55.39,23.73v79.62Zm25.58-221.26a70.13,70.13,0,0,0-10.17,7.69c-1.88.42-3.8.8-5.76,1.12a153,153,0,0,1-18.48,1.89,142,142,0,0,0-16.64,1.67L373,359.26c3.66-11.77,21.27-22.24,44.57-26.1a154.41,154.41,0,0,1,18.47-1.89,139.28,139.28,0,0,0,16.64-1.67h0l7.11-1.15a49.05,49.05,0,0,0,7.86,9.21C466.45,338.6,465.12,339.53,463.68,340.43Zm7.11,11.38a60.69,60.69,0,0,0,8.43-6.31,48.49,48.49,0,0,0,31.88,3.66c.1.43.19.86.25,1.3a34.32,34.32,0,0,0,2.12,7.73l-.37.41a53.84,53.84,0,0,1-9.81,7.71A57.93,57.93,0,0,0,493,374.37l-20.18,20.24-2.62-1.56c-9.1-5.42-14.57-12-15.42-18.6-.65-5.08,1.44-10.11,6.21-14.94A54.07,54.07,0,0,1,470.79,351.81Zm84.75-13a117.42,117.42,0,0,0,14,5.28c.42.6.82,1.2,1.18,1.81a22.26,22.26,0,0,1,2.86,7.92,31,31,0,0,0,3.79,10.81l8.88,15.56c-27.2-1.06-51.26-10.74-58.79-23.74a22.62,22.62,0,0,1-2.87-7.92,30.38,30.38,0,0,0-.93-4.1,49.07,49.07,0,0,0,14.12-11.66l5.37,1.53A87.67,87.67,0,0,1,555.54,338.78Zm-10.47-17.93a48.24,48.24,0,0,0,3.46-12.64,121.12,121.12,0,0,1,40.15,3.87A106.65,106.65,0,0,1,604,317.61a100.22,100.22,0,0,0,14.25,5.22l26.94,7.66c-20.52,7-46.92,7.77-68.77,1.62a105.89,105.89,0,0,1-15.29-5.54,101.44,101.44,0,0,0-14.25-5.21Zm7.58-40A152.79,152.79,0,0,1,571.12,279a139.07,139.07,0,0,0,16.64-1.67l39.61-6.46c-3.67,11.77-21.25,22.23-44.52,26.09a139.24,139.24,0,0,0-34.39-2.12,47.94,47.94,0,0,0-3.13-11.46c.53-.45,1-.91,1.56-1.37C548.77,281.59,550.68,281.22,552.65,280.89Zm-25.08-45.37,2.63,1.57c9.09,5.41,14.57,12,15.41,18.59.65,5.08-1.43,10.11-6.2,14.94-.32.33-.68.64-1,1A48.55,48.55,0,0,0,509.13,254ZM500.4,266.64a35.14,35.14,0,1,1-35.16,35.15A35.11,35.11,0,0,1,500.4,266.64Zm-33.51,0a48.51,48.51,0,0,0-14.49,27.66c-2.61-.9-5.14-1.89-7.54-3a118.07,118.07,0,0,0-14-5.28,19.84,19.84,0,0,1-1.18-1.8,22.4,22.4,0,0,1-2.87-7.93A30.7,30.7,0,0,0,423,265.53L414.11,250C436.13,250.83,456.09,257.34,466.89,266.68ZM424,298a106.66,106.66,0,0,1,15.29,5.54,102.22,102.22,0,0,0,13,4.83,47,47,0,0,0,1.61,7.43l-3.34.54a127.57,127.57,0,0,1-15.05,1.51,167.06,167.06,0,0,0-17.63,1.69c-2.09-.45-4.15-.94-6.17-1.51a107,107,0,0,1-15.28-5.53,101.11,101.11,0,0,0-14.26-5.21l-26.94-7.67C375.75,292.64,402.16,291.87,424,298ZM353.87,313.2l24.63,7a87.21,87.21,0,0,1,12.36,4.51c.81.38,1.66.73,2.5,1.08-20,7.7-32.83,20.46-34.31,35.18l-.58,5.69a6.69,6.69,0,0,0,.57,3.43l-69-29.56ZM617.46,677.78,506.91,725.16v-69.9l57.9-24.81v38.21a6.63,6.63,0,0,0,.46,2.45,19.87,19.87,0,0,0,39.28-4.26V645.14a6.46,6.46,0,0,1,12.91,0Zm39.75-17V597.89a6.46,6.46,0,0,1,6.45-6.45c3.87,0,6.46,3.26,6.46,8.13v48.15a20.15,20.15,0,0,0,1.26,6.95ZM696,650.38a6.61,6.61,0,0,1-1.57,2.42,6.45,6.45,0,0,1-4.77,1.78,5.62,5.62,0,0,1-2.47-.74,6.66,6.66,0,0,0-2.31-2.11,6.9,6.9,0,0,1-1.37-4V599.57c0-12.28-8.55-21.55-19.88-21.55a19.9,19.9,0,0,0-19.87,19.87v93.88a6.46,6.46,0,1,1-12.91,0v-9.6h0v-37a19.87,19.87,0,1,0-39.74,0v21.71a6.46,6.46,0,0,1-12.92,0V609.12a6.71,6.71,0,1,0-13.41,0v6.73l-57.9,24.82h0V600h0l220.52-94.51v40.64l-17.56,7.53v-2a6.71,6.71,0,0,0-13.42,0v94.08A6.67,6.67,0,0,0,696,650.38Zm31.4-30.88A16.89,16.89,0,0,1,717.19,635l-7.32,3.14v-69.9l17.56-7.53Z" transform="translate(-134.95 -126.32)"/><path class="cls-4" d="M487.09,330.55a41.79,41.79,0,0,1-8.21-.83,35.13,35.13,0,0,0,49.24-49.25,41.79,41.79,0,0,1-41,50.08Z" transform="translate(-134.95 -126.32)"/><path class="cls-3" d="M242.12,287.73,220.3,259.91l6.71-8.33L255.42,292l-6.26,7.78-45.52-19.18,6.66-8.28Z" transform="translate(-134.95 -126.32)"/><path class="cls-3" d="M279,253.1l-9.44,9,4.89,8.78-7.33,7L245,233.39l6.33-6.07,43.64,24-7.4,7.09Zm-13.46,1.83,6.4-6.13L257,239.64Z" transform="translate(-134.95 -126.32)"/><path class="cls-3" d="M329.54,225.7l-7.78,5.61-29.59-17.07,18.22,25.27-7.78,5.6-27.77-38.52,7.78-5.61,29.63,17.08L294,192.77l7.76-5.59Z" transform="translate(-134.95 -126.32)"/><path class="cls-3" d="M350.21,213.83l-8.34,4.73-23.41-41.32,8.34-4.72Z" transform="translate(-134.95 -126.32)"/><path class="cls-3" d="M368.49,195.82,383.86,189l3.24,7.27L363,207l-19.32-43.38,8.76-3.9Z" transform="translate(-134.95 -126.32)"/><path class="cls-3" d="M404.64,181.87l16.07-5,2.37,7.6-25.22,7.86L383.73,147l9.15-2.86Z" transform="translate(-134.95 -126.32)"/><path class="cls-3" d="M455.19,168.11l-12.88,2.24-.84,10-10,1.74L438,132.77l8.65-1.5,22.84,44.23-10.09,1.75Zm-12.19-6,8.74-1.52-7.27-15.91Z" transform="translate(-134.95 -126.32)"/><path class="cls-3" d="M526.94,155l-14.9-.33L511.61,174l-9.58-.21,1.05-47.47,26.28.58-.18,8-16.69-.37-.27,12.16,14.9.33Z" transform="translate(-134.95 -126.32)"/><path class="cls-3" d="M556.3,160.18l-4.71-.69-2.5,17.17-9.49-1.38,6.83-47,15.14,2.2q7.14,1,10.48,5.3t2.37,11.07q-1.36,9.36-8.72,12.11l5.44,20.43-.07.46-10.2-1.49Zm-3.56-8.6,5.39.79a5.06,5.06,0,0,0,4.53-1.27,8.32,8.32,0,0,0,2.16-4.85q1-7.06-4.5-7.87l-5.55-.8Z" transform="translate(-134.95 -126.32)"/><path class="cls-3" d="M619,172.69q-2.64,9.18-8.44,13T597,187.31c-5.11-1.47-8.66-4.31-10.61-8.5s-2.1-9.32-.4-15.37l2.25-7.81q2.7-9.4,8.58-13.43t13.62-1.79q7.62,2.19,10.51,8.64t.26,15.84Zm-7-10.31q1.77-6.16.89-9.69A6.76,6.76,0,0,0,602,149.45c-1.72,1.6-3.18,4.37-4.35,8.3l-2.34,8.12q-1.72,6-.76,9.34a6.33,6.33,0,0,0,4.7,4.42,6.15,6.15,0,0,0,6.16-1.23q2.55-2.27,4.27-8.09Z" transform="translate(-134.95 -126.32)"/><path class="cls-3" d="M648.57,192.5a5.93,5.93,0,0,0,.41-4.61,16.85,16.85,0,0,0-3.69-5q-5.44-5.35-6.84-9.95a12.68,12.68,0,0,1,.6-9.13,12,12,0,0,1,7.78-7.1,16.09,16.09,0,0,1,11.36,1,16.37,16.37,0,0,1,6.39,4.83,12.82,12.82,0,0,1,2.72,6.89,15.63,15.63,0,0,1-1.39,7.73l-8.75-3.86a7.82,7.82,0,0,0,.75-5.21,5,5,0,0,0-3-3.25,5.14,5.14,0,0,0-4.18-.22,5.6,5.6,0,0,0-2.9,3.09,5,5,0,0,0,0,3.87,18,18,0,0,0,3.75,5.24q5.34,5.1,6.75,9.71a13.69,13.69,0,0,1-.87,9.77q-2.49,5.67-7.52,7.27t-11.22-1.13a18.5,18.5,0,0,1-6.91-5.11,14.13,14.13,0,0,1-3.23-7.34,15.71,15.71,0,0,1,1.4-8.48l8.8,3.88c-1.1,2.51-1.42,4.55-.94,6.11s1.81,2.83,4,3.81Q646.43,197.37,648.57,192.5Z" transform="translate(-134.95 -126.32)"/><path class="cls-3" d="M709.76,195.51l-10-6.07-20.43,33.8-8.23-5,20.43-33.8-9.88-6,4.13-6.84,28.16,17Z" transform="translate(-134.95 -126.32)"/><path class="cls-3" d="M706.77,242.42l-7.66-5.77,28.58-37.92,7.66,5.77Z" transform="translate(-134.95 -126.32)"/><path class="cls-3" d="M742.21,273.8l-7-6.57,11.1-32.3L725,257.63l-7-6.57,32.52-34.6,7,6.56-11.1,32.35,21.35-22.72,7,6.54Z" transform="translate(-134.95 -126.32)"/><path class="cls-3" d="M775.56,305.24a17.45,17.45,0,0,1-7.79-2.46,24.65,24.65,0,0,1-6.71-5.92q-5.14-6.37-4-13.08t8.57-12.89l6.65-5.36q7.65-6.16,14.46-6.15t12,6.41q4.85,6,4.34,11.48t-6.46,11.05l-5.85-7.26c2.18-2.1,3.39-3.89,3.62-5.35a6.06,6.06,0,0,0-1.66-4.69,6.15,6.15,0,0,0-5.75-2.62q-3.31.41-8.18,4.25l-6.71,5.4c-3.37,2.72-5.41,5.19-6.13,7.44s-.15,4.51,1.7,6.81a8.32,8.32,0,0,0,3.77,2.87l1,.29,6.78-5.46-4.21-5.24,5.64-4.54,10.25,12.72Z" transform="translate(-134.95 -126.32)"/><path class="cls-3" d="M176.5,807.65q-4.81-7.51-1.92-18.24c.39-1.46,1.08-3.8,2.09-7s1.78-5.68,2.29-7.15q3.61-10.25,11.93-13.84t19.56-.11a34.71,34.71,0,0,1,12,6.24,21.46,21.46,0,0,1,6.82,9.45,18.53,18.53,0,0,1,.23,11.43,1.68,1.68,0,0,1-.89,1,1.83,1.83,0,0,1-1.38.09L215.91,786a2.58,2.58,0,0,1-1.5-.94,3.8,3.8,0,0,1-.41-1.92q.09-4.26-1.7-6.51a11,11,0,0,0-5.55-3.42q-9-2.79-12.43,7.17-.75,2.13-2.13,6.59t-2,6.81q-2.78,10.15,6.23,12.93a11,11,0,0,0,6.52.27,9.56,9.56,0,0,0,5.06-4.38,3.16,3.16,0,0,1,1.39-1.36,2.79,2.79,0,0,1,1.81.08l11.32,3.5a1.84,1.84,0,0,1,1.09.86,1.62,1.62,0,0,1,.15,1.36,18.56,18.56,0,0,1-6.63,9.31,21.6,21.6,0,0,1-11,3.95,34.89,34.89,0,0,1-13.44-1.62Q181.3,815.17,176.5,807.65Z" transform="translate(-134.95 -126.32)"/><path class="cls-3" d="M237.36,830.37a2,2,0,0,1-.2-1.6l13-52.59a2.17,2.17,0,0,1,.94-1.36,2,2,0,0,1,1.61-.25l11.1,2.76a2,2,0,0,1,1.35,1,2.1,2.1,0,0,1,.24,1.65l-4.77,19.2,19.13,4.75,4.76-19.21a2.16,2.16,0,0,1,1-1.35,2.11,2.11,0,0,1,1.65-.23l11,2.73a2.07,2.07,0,0,1,1.35,1,2.11,2.11,0,0,1,.24,1.65l-13.05,52.59a2,2,0,0,1-1,1.31,2.16,2.16,0,0,1-1.64.19l-11-2.73a2.17,2.17,0,0,1-1.36-.94,2,2,0,0,1-.24-1.61l4.92-19.85-19.12-4.75-4.93,19.86a2,2,0,0,1-1,1.31,2.2,2.2,0,0,1-1.64.19l-11.1-2.75A2.06,2.06,0,0,1,237.36,830.37Z" transform="translate(-134.95 -126.32)"/><path class="cls-3" d="M308.7,847.23a2,2,0,0,1-.34-1.55l10.06-53.24a2.17,2.17,0,0,1,.86-1.41,2,2,0,0,1,1.59-.34L359.59,798a2.12,2.12,0,0,1,1.73,2.54l-1.53,8.12a2,2,0,0,1-.89,1.36,2.24,2.24,0,0,1-1.63.29l-25.93-4.9-2,10.42,24.12,4.55a2.14,2.14,0,0,1,1.4.91,2.11,2.11,0,0,1,.33,1.63l-1.42,7.47a2.09,2.09,0,0,1-.9,1.4,2.12,2.12,0,0,1-1.63.33l-24.12-4.56-2,10.66,26.58,5a2.12,2.12,0,0,1,1.73,2.53l-1.53,8.12a1.93,1.93,0,0,1-.89,1.36,2.15,2.15,0,0,1-1.63.29L310,848.12A2,2,0,0,1,308.7,847.23Z" transform="translate(-134.95 -126.32)"/><path class="cls-3" d="M372.18,858.62a2,2,0,0,1-.43-1.53l6.85-53.75a2.18,2.18,0,0,1,.78-1.45,2,2,0,0,1,1.57-.44l22.78,2.91q10.92,1.39,16.46,7.15t4.39,14.78a17.57,17.57,0,0,1-3.95,9.52,18,18,0,0,1-8.22,5.34L421,862.79a2.19,2.19,0,0,1,.13.94,1.76,1.76,0,0,1-.65,1.14,1.63,1.63,0,0,1-1.31.38l-11.68-1.49a3.47,3.47,0,0,1-3.11-2.67L397.58,842l-7.95-1-2.31,18.14a2,2,0,0,1-.81,1.41,2.2,2.2,0,0,1-1.61.39l-11.35-1.45A2,2,0,0,1,372.18,858.62Zm28.2-28.68a7.62,7.62,0,0,0,5.65-1.09,6.56,6.56,0,0,0,2.49-4.69,7,7,0,0,0-1.22-5.29,7.34,7.34,0,0,0-5.18-2.6l-9.19-1.17-1.75,13.67Z" transform="translate(-134.95 -126.32)"/><path class="cls-3" d="M441,866.61a2,2,0,0,1-.54-1.5l2.93-54.1a2.12,2.12,0,0,1,.67-1.51,2,2,0,0,1,1.53-.55l22.93,1.24q11,.6,16.94,5.94t5.45,14.43a17.57,17.57,0,0,1-3.25,9.77,17.9,17.9,0,0,1-7.8,5.93l10.15,21a2.18,2.18,0,0,1,.2.94,1.76,1.76,0,0,1-.57,1.18,1.63,1.63,0,0,1-1.28.47l-11.75-.64a3.49,3.49,0,0,1-3.3-2.43l-8.19-18.59-8-.43-1,18.25a2,2,0,0,1-.71,1.47,2.17,2.17,0,0,1-1.57.5l-11.42-.62A2,2,0,0,1,441,866.61ZM467,836a7.62,7.62,0,0,0,5.55-1.49,6.56,6.56,0,0,0,2.15-4.86,7,7,0,0,0-1.6-5.19,7.26,7.26,0,0,0-5.36-2.21l-9.25-.51-.75,13.76Z" transform="translate(-134.95 -126.32)"/><path class="cls-3" d="M523.31,868.88a2,2,0,0,1-.67-1.44l-.56-17.77-20.39-35.29a1.77,1.77,0,0,1-.28-.91,1.87,1.87,0,0,1,1.7-1.81l11-.34a3,3,0,0,1,1.94.53,3.82,3.82,0,0,1,1.12,1.21l12.25,20.59,10.95-21.31a3.79,3.79,0,0,1,1-1.28,3.07,3.07,0,0,1,1.91-.65l11-.34a1.87,1.87,0,0,1,1.81,1.7,1.85,1.85,0,0,1-.22.93l-18.17,36.48.56,17.77a2,2,0,0,1-.58,1.53,2.21,2.21,0,0,1-1.53.63l-11.43.35A2,2,0,0,1,523.31,868.88Z" transform="translate(-134.95 -126.32)"/><path class="cls-3" d="M605.91,858.88q-7.51-4.82-9.39-15.76c-.26-1.48-.61-3.91-1.06-7.27s-.76-5.91-.91-7.46q-1-10.82,5-17.56t17.72-8.3a34.66,34.66,0,0,1,13.52.64A21.57,21.57,0,0,1,641,808.89a18.53,18.53,0,0,1,5,10.28,1.65,1.65,0,0,1-.37,1.32,1.86,1.86,0,0,1-1.22.66l-11.75,1.57a2.62,2.62,0,0,1-1.76-.23,3.83,3.83,0,0,1-1.18-1.57q-1.7-3.9-4.27-5.2a11.06,11.06,0,0,0-6.46-.78q-9.36,1.24-8.3,11.72.23,2.25.84,6.88t1,7q1.72,10.4,11.07,9.14a11,11,0,0,0,6-2.49,9.56,9.56,0,0,0,2.77-6.1,3.12,3.12,0,0,1,.68-1.81,2.76,2.76,0,0,1,1.68-.69L646.5,837a1.9,1.9,0,0,1,1.35.33,1.61,1.61,0,0,1,.7,1.17,18.56,18.56,0,0,1-2.12,11.23,21.48,21.48,0,0,1-8.3,8.18,34.65,34.65,0,0,1-12.88,4.16Q613.42,863.7,605.91,858.88Z" transform="translate(-134.95 -126.32)"/><path class="cls-3" d="M665.13,855a1.7,1.7,0,0,1-.77-1.09,2.71,2.71,0,0,1-.06-.75l8.75-56.27a3.26,3.26,0,0,1,2.81-3l12.78-2.51a3.24,3.24,0,0,1,3.74,1.73l29.43,48.75a2.58,2.58,0,0,1,.22.72,1.66,1.66,0,0,1-.29,1.29,1.7,1.7,0,0,1-1.09.77L710,846.71a2.89,2.89,0,0,1-3.14-1.26l-4.51-7.36-21.46,4.22-1.39,8.53a2.9,2.9,0,0,1-2.43,2.35l-10.65,2.1A1.71,1.71,0,0,1,665.13,855Zm16.78-25.64,14.58-2.87L685.09,807Z" transform="translate(-134.95 -126.32)"/><path class="cls-3" d="M739.52,839.51a2,2,0,0,1-1-1.26l-13.41-52.5a2.11,2.11,0,0,1,.18-1.64,2,2,0,0,1,1.3-1l10.84-2.77a2,2,0,0,1,1.61.24A2.19,2.19,0,0,1,740,782l4.51,17.63,9.68-21.77a3.41,3.41,0,0,1,2.75-2.43l12.37-3.16a1.84,1.84,0,0,1,2.13,1.26,1.38,1.38,0,0,1-.07,1.06l-12.6,29.24L786,825.43a1.35,1.35,0,0,1,.58.88,1.68,1.68,0,0,1-.23,1.31,1.75,1.75,0,0,1-1.12.85l-12.7,3.25a4,4,0,0,1-2.24,0,3.47,3.47,0,0,1-1.41-.81L748.5,815.11l4.94,19.34a2,2,0,0,1-.21,1.56,1.94,1.94,0,0,1-1.3,1l-10.84,2.77A2,2,0,0,1,739.52,839.51Z" transform="translate(-134.95 -126.32)"/><path class="cls-3" d="M803.72,822.45a2,2,0,0,1-1-1.21l-16.11-51.73a2.18,2.18,0,0,1,.1-1.65,2,2,0,0,1,1.25-1l37.63-11.72a2.13,2.13,0,0,1,2.71,1.43l2.46,7.89a2,2,0,0,1-.15,1.62,2.2,2.2,0,0,1-1.3,1l-25.19,7.84L807.24,785l23.44-7.29a2.08,2.08,0,0,1,1.66.13,2.17,2.17,0,0,1,1.06,1.29l2.26,7.26a2.12,2.12,0,0,1-.14,1.66,2.17,2.17,0,0,1-1.29,1.06l-23.44,7.29L814,806.79l25.83-8a2.13,2.13,0,0,1,2.71,1.43l2.46,7.89a2,2,0,0,1-.15,1.62,2.16,2.16,0,0,1-1.3,1l-38.26,11.92A2,2,0,0,1,803.72,822.45Z" transform="translate(-134.95 -126.32)"/><path class="cls-3" d="M135,470.67h19.36v5.92h-11v13.27H152v5.87h-8.65v15.32h11.1v5.75H135Z" transform="translate(-134.95 -126.32)"/><path class="cls-3" d="M161.57,513.9q-3.1-3.54-3.39-10.54l7.24-1.42a15.86,15.86,0,0,0,1.39,6.69,4.06,4.06,0,0,0,3.85,2.3,3.44,3.44,0,0,0,2.87-1.16,4.88,4.88,0,0,0,.94-3.16,8.5,8.5,0,0,0-1.22-4.65,20.77,20.77,0,0,0-3.85-4.18l-5.81-5.07a16.14,16.14,0,0,1-4-4.9,13.64,13.64,0,0,1-1.34-6.26q0-5.42,3.16-8.4c2.11-2,5-3,8.74-3q6,0,8.57,3.38a16.61,16.61,0,0,1,3,9.15l-7.23,1.25a15.68,15.68,0,0,0-1.05-5.67,3.43,3.43,0,0,0-3.45-1.91,3.53,3.53,0,0,0-2.85,1.23,4.67,4.67,0,0,0-1,3.1,7.25,7.25,0,0,0,.88,3.73,13.33,13.33,0,0,0,2.88,3.22l5.75,5.07a23.11,23.11,0,0,1,5.07,6,14.71,14.71,0,0,1,1.82,7.4,11.67,11.67,0,0,1-1.45,5.87,10.33,10.33,0,0,1-4.07,4,12.24,12.24,0,0,1-6,1.46Q164.67,517.43,161.57,513.9Z" transform="translate(-134.95 -126.32)"/><path class="cls-3" d="M192.07,476.88h-7.35v-6.21h22.95v6.21H200.5V516.8h-8.43Z" transform="translate(-134.95 -126.32)"/><path class="cls-3" d="M211.09,509h7.52v7.8h-7.52Z" transform="translate(-134.95 -126.32)"/><path class="cls-3" d="M816.4,514.49c-1.85-2-2.81-4.87-2.88-8.74v-.68h7.57a10,10,0,0,0,.83,4.73c.55.94,1.62,1.42,3.22,1.42a3.13,3.13,0,0,0,3.1-2.14q.88-2.13.88-7.37v-5.47a5.2,5.2,0,0,1-2.44,2.11,9.67,9.67,0,0,1-3.93.74q-9.69,0-9.69-13.56,0-7.23,2.88-11.3t9.14-4.07q6.15,0,9.11,4t3,10.85v16.35q0,7.51-2.71,11.78t-9.37,4.28Q819.16,517.43,816.4,514.49Zm12.72-23.89v-7.17a13,13,0,0,0-.88-5.3,3.49,3.49,0,0,0-6.32.14,16.18,16.18,0,0,0-.88,6.07,43.61,43.61,0,0,0,.2,4.87,5.3,5.3,0,0,0,1.08,2.82,3.44,3.44,0,0,0,2.82,1.08A4.4,4.4,0,0,0,829.12,490.6Z" transform="translate(-134.95 -126.32)"/><path class="cls-3" d="M846.07,514.49c-1.84-2-2.8-4.87-2.88-8.74v-.68h7.58a10,10,0,0,0,.82,4.73c.55.94,1.63,1.42,3.22,1.42a3.14,3.14,0,0,0,3.11-2.14c.58-1.42.88-3.88.88-7.37v-5.47a5.23,5.23,0,0,1-2.45,2.11,9.6,9.6,0,0,1-3.93.74q-9.69,0-9.68-13.56,0-7.23,2.87-11.3t9.14-4.07q6.15,0,9.12,4t3,10.85v16.35q0,7.51-2.71,11.78t-9.37,4.28Q848.83,517.43,846.07,514.49ZM858.8,490.6v-7.17a13.18,13.18,0,0,0-.88-5.3,3.5,3.5,0,0,0-6.33.14,16.18,16.18,0,0,0-.88,6.07,46.2,46.2,0,0,0,.2,4.87A5.3,5.3,0,0,0,852,492a3.44,3.44,0,0,0,2.82,1.08A4.41,4.41,0,0,0,858.8,490.6Z" transform="translate(-134.95 -126.32)"/><path class="cls-3" d="M872.69,509h7.52v7.8h-7.52Z" transform="translate(-134.95 -126.32)"/></g></g></svg>