<svg id="Layer_1" data-name="Layer 1" xmlns="http://www.w3.org/2000/svg" xmlns:xlink="http://www.w3.org/1999/xlink" viewBox="0 0 371.12 267.57" width="406" height="306" class="illustration styles_illustrationTablet__1DWOa"><defs><linearGradient id="linear-gradient" x1="224.99" y1="66.58" x2="196.27" y2="283.37" gradientUnits="userSpaceOnUse"><stop offset="0.01"></stop><stop offset="0.13" stop-opacity="0.69"></stop><stop offset="1" stop-opacity="0"></stop></linearGradient><linearGradient id="linear-gradient-2" x1="382.06" y1="129.61" x2="287.17" y2="201.41" xlink:href="#linear-gradient"></linearGradient><linearGradient id="linear-gradient-3" x1="153.93" y1="181.43" x2="288.45" y2="181.43" xlink:href="#linear-gradient"></linearGradient><linearGradient id="linear-gradient-4" x1="206.24" y1="128.99" x2="199.48" y2="265.82" gradientUnits="userSpaceOnUse"><stop offset="0.01" stop-color="#fff"></stop><stop offset="0.13" stop-color="#fff" stop-opacity="0.69"></stop><stop offset="0.74" stop-color="#fff" stop-opacity="0.18"></stop><stop offset="1" stop-color="#fff" stop-opacity="0"></stop></linearGradient><linearGradient id="linear-gradient-5" x1="253.1" y1="184.76" x2="175.43" y2="110.03" xlink:href="#linear-gradient-4"></linearGradient><linearGradient id="linear-gradient-6" x1="197.2" y1="97.71" x2="207.38" y2="97.71" xlink:href="#linear-gradient"></linearGradient><linearGradient id="linear-gradient-7" x1="165.78" y1="64.79" x2="182.71" y2="64.79" xlink:href="#linear-gradient-4"></linearGradient><linearGradient id="linear-gradient-8" x1="229.76" y1="78.21" x2="192.32" y2="68.91" xlink:href="#linear-gradient"></linearGradient><linearGradient id="linear-gradient-9" x1="278.48" y1="188.59" x2="380.46" y2="188.59" xlink:href="#linear-gradient"></linearGradient></defs><title>28</title><path d="M392,179.51c-.29,5-2.16,9.81-4,14.48-11.08,27.37-26.82,56.5-54.78,66-22.48,7.64-40.81-1.91-62.78-3.72-17.38-1.45-39.72.19-56.38,5.57-21,6.78-38.58,21.29-59.59,28.1-23.28,7.56-49.63,8-73.44,2.92-6-1.28-12.07-3-17.19-6.41-6-4-10.22-10-14.24-15.91C33.48,246.94,18.23,220,21.27,191.64c1.26-11.86,5.61-22.79,11.91-32.77,9.93-15.74,24.73-29.14,40-40.19,24.91-18.05,52.87-33,72.13-57,5.91-7.36,11.06-15.62,18.82-21,9.19-6.38,20.82-7.84,32-9.12,15.46-1.77,31-3.54,46.59-2.7a133.17,133.17,0,0,1,42.1,9.41c35.07,14,64.66,42.09,78.74,77.21,2.58,6.39,4.68,13,7.48,19.31.85,2,1.77,3.85,2.8,5.71C380.83,153.32,392.77,164.94,392,179.51Z" transform="translate(-20.88 -28.68)" fill="#fde4cf" opacity="0.18" style="isolation: isolate;"></path><path d="M392,179.51c-.29,5-2.16,9.81-4,14.48-11.08,27.37-26.82,56.5-54.78,66-22.48,7.64-40.81-1.91-62.78-3.72-17.38-1.45-39.72.19-56.38,5.57-21,6.78-38.58,21.29-59.59,28.1-23.28,7.56-49.63,8-73.44,2.92-6-1.28-12.07-3-17.19-6.41-6-4-10.22-10-14.24-15.91C33.48,246.94,18.23,220,21.27,191.64c1.26-11.86,5.61-22.79,11.91-32.77,9.66-2.6,20.62-2.55,30.12-3.65,102.1-11.77,205.29-23.54,307.68-20.4.85,2,1.77,3.85,2.8,5.71C380.83,153.32,392.77,164.94,392,179.51Z" transform="translate(-20.88 -28.68)" fill="#fde4cf" opacity="0.18" style="isolation: isolate;"></path><ellipse cx="208.9" cy="166.09" rx="123.36" ry="43.47" fill="#fde4cf" opacity="0.18" style="isolation: isolate;"></ellipse><ellipse cx="187.13" cy="166.09" rx="123.36" ry="43.47" fill="#fff"></ellipse><path d="M331.37,194.77a17,17,0,0,1-2.19,8.19c-10.89,20.09-61,35.27-121.18,35.27-68.12,0-123.35-19.45-123.35-43.46S139.88,151.3,208,151.3c49,0,91.24,10,111.18,24.6C327,181.61,331.37,188,331.37,194.77Z" transform="translate(-20.88 -28.68)" fill="url(#linear-gradient)"></path><ellipse cx="187.13" cy="157.83" rx="123.36" ry="43.47" fill="#fff"></ellipse><path d="M331.37,194.77a17,17,0,0,1-2.19,8.19,2.71,2.71,0,0,1-.91-.72c-1.09-1.17-2.18-2.35-3.28-3.52a8.25,8.25,0,0,1-6.83,1.67,18.23,18.23,0,0,1-6.64-2.86c-1.86-1.21-3.64-2.56-5.51-3.77a47.32,47.32,0,0,0-11.65-5.52c.78,0,.17-1.3-.57-1.62l-17-7.29a23.93,23.93,0,0,1,8.4-3.76,2.65,2.65,0,0,1-2.94-2.95c.31-1.66,2.25-2.57,3.94-2.42a13.17,13.17,0,0,1,4.68,1.88,33.48,33.48,0,0,0,19.92,3.53,21.8,21.8,0,0,1,8.4.29C327,181.61,331.37,188,331.37,194.77Z" transform="translate(-20.88 -28.68)" fill="url(#linear-gradient-2)"></path><path d="M268.52,194.31a15.47,15.47,0,0,0-3.2-7.84l20.5-12c1.28-.76,2.73-1.82,2.62-3.31a3.48,3.48,0,0,0-.95-1.9c-2.74-3.23-6.84-4.91-10.77-6.47l-15.29-6.06a14.37,14.37,0,0,0-4.5-1.24c-2.26-.12-4.41.82-6.47,1.73q-31.46,14-62.7,28.5a107.83,107.83,0,0,0-12.85,6.67c-4.09,2.61-7.83,5.72-11.88,8.38-2.67,1.75-7.86,3.25-9.1,6.27,8.84,1.24,19.2-.57,28.15-1.19q14.65-1,29.27-2.66C216.19,202.61,268.7,195.93,268.52,194.31Z" transform="translate(-20.88 -28.68)" fill="url(#linear-gradient-3)"></path><path d="M264.21,184.84a6.91,6.91,0,0,1-.7,3.27,6,6,0,0,1-2.38,2.08c-5.82,3.2-12.95,2.1-19.54,3-8.56,1.11-16.83,4.23-25.31,5.66-9.81,1.66-19.25,4-29.28,4-5.44,0-10.92-.55-16.3.22-5.95.85-11.55,3.28-17.06,5.68a94,94,0,0,0-3.56-27.61c-.77-2.72-1.57-5.95.24-8.12-3-3.56-7-10.48-6.17-15.43C145.1,152,150.67,154,156,153c11.78-2.15,22.76-7.26,34-11.25,6.7-2.38,13.47.5,20.35-1.3,9.67-2.53,17.28-7.47,27.22-8.56,3.11-.34,6.44-.79,9.22-2.32,1.34-.74,6.89.8,8.3,1.19,2.55.69,2.35,13.55,2.88,16.45C260.24,159.69,264.7,172,264.21,184.84Z" transform="translate(-20.88 -28.68)" fill="#fde4cf"></path><path d="M264.21,184.84a7,7,0,0,1-.7,3.27,5.91,5.91,0,0,1-2.38,2.07c-5.83,3.2-12.95,2.11-19.54,3-8.56,1.12-16.83,4.23-25.31,5.67-9.81,1.65-19.25,4-29.29,4-5.44,0-10.9-.55-16.29.23-5.95.84-11.55,3.27-17.06,5.67a92.61,92.61,0,0,0-.37-10.4c-.28-3.11-.71-6.22-1.3-9.3-.52-2.66-1.14-5.3-1.89-7.91-.09-.33-.18-.67-.28-1-.65-2.47-1.07-5.19.51-7.09a32.66,32.66,0,0,1-3-4.24c-2.08-3.52-3.76-7.82-3.17-11.2,1-5.56,6.53-3.63,11.82-4.6,11.78-2.15,22.77-7.26,34-11.25,6.7-2.38,13.47.5,20.34-1.29,9.67-2.53,17.29-7.48,27.23-8.58,3.11-.33,6.45-.78,9.22-2.31,1.34-.75,6.89.81,8.29,1.19,2.23.59,2.37,10.4,2.71,14.85a15.74,15.74,0,0,0,.19,1.6c.76,4.15,1.76,8.27,2.75,12.4.63,2.66,1.26,5.32,1.79,8A87.63,87.63,0,0,1,264,178,55.6,55.6,0,0,1,264.21,184.84Z" transform="translate(-20.88 -28.68)" fill="url(#linear-gradient-4)"></path><path d="M260.68,159.59a118.65,118.65,0,0,1-30.19,3.69c-4.77,0-9.57-.36-14.32.17-5.46.6-10.73,2.31-16,4l-16.63,5.44a133.18,133.18,0,0,1-13.37,3.85c-2.49.54-5,.94-7.55,1.33l-12.86,2c-.65-2.47-1.07-5.19.51-7.09a32.66,32.66,0,0,1-3-4.24c3.39-.75,6.91-.25,10.37,0a68.69,68.69,0,0,0,24.19-2.65c3-.89,6-2,8.9-3.08l19.41-7.23c9.35-3.47,20.53-3.46,30.35-5.19A54.93,54.93,0,0,0,251.37,148a40.21,40.21,0,0,1,6.37-2.38,15.74,15.74,0,0,0,.19,1.6C258.69,151.34,259.69,155.46,260.68,159.59Z" transform="translate(-20.88 -28.68)" fill="#fde4cf" opacity="0.43"></path><path d="M142.16,155.66c11.79,1.65,23.81-.7,35.2-4.16s22.46-8,34-11c13.79-3.56,28.17-4.83,41.57-9.63a5.15,5.15,0,0,0,2.41-1.41,4.58,4.58,0,0,0,.82-2.25c1.19-7.81-3.4-15.6-9.65-20.43s-14-7.26-21.52-9.62l-9.1-2.84c-7.36-2.29-10.66.12-15.5,5-6.3,6.4-12.94,12.51-19.39,18.76l-19.42,18.77-10,9.69C150.28,147.81,143.63,155.86,142.16,155.66Z" transform="translate(-20.88 -28.68)" fill="#fde4cf"></path><path d="M232.34,133c2-.38,4.4-.63,5.71.92a4.74,4.74,0,0,1,.79,1.51c1.46,4.06,1,8.56,1.91,12.79a1,1,0,0,0,.43.74.89.89,0,0,0,.51,0,2.9,2.9,0,0,0,1.79-3,12.62,12.62,0,0,0-1.1-3.64,8.25,8.25,0,0,1-.3-5.82c.17-.43.56-.91,1-.74s.38.88.68,1.27c.43.55,1.34.23,1.82-.27s.87-1.19,1.54-1.36a1.66,1.66,0,0,1,1.65.74,4.34,4.34,0,0,1,.65,1.79c1.26,6.15,1.42,12.61,3.88,18.39a1.38,1.38,0,0,0,.27.45,1.17,1.17,0,0,0,1,.22c2-.34,3.09-2.67,2.89-4.68s-1.34-3.78-2.29-5.56a30.26,30.26,0,0,1-3.55-11.94,4.25,4.25,0,0,1,.14-1.74,5.45,5.45,0,0,1,1-1.55,14.29,14.29,0,0,0,2.74-5.81c-2.56,2.45-6.39,2.85-9.91,3.12s-7.36.66-9.92,3.1" transform="translate(-20.88 -28.68)" fill="#fde4cf"></path><path d="M234.79,102.88A5.48,5.48,0,0,1,238,105c.37.69.42,1.51.75,2.23.77,1.72,2.78,2.4,4.46,3.25,5.94,3,7.21,8.88,9.3,14.6a9.53,9.53,0,0,1,.77,3.26c0,2.69-2.13,5-2.39,7.64a9.44,9.44,0,0,0,.58,3.82,26.77,26.77,0,0,0,4.1,7.83,18.7,18.7,0,0,1,1.75,2.5,4.18,4.18,0,0,1,.47,3,3.09,3.09,0,0,1-2.89,2.25,1.67,1.67,0,0,1-1-.25,2.15,2.15,0,0,1-.53-.63c-2.34-3.86-2.1-8.69-1.87-13.2.26-5.06.39-10.3-1.47-15A6.05,6.05,0,0,0,247,122.6a9.93,9.93,0,0,0-3.32-.32,15.9,15.9,0,0,1-2.58-.73c-.85-.15-1.34.48-2,1.12-1.22,1.29-2.14,2.84-3.48,4-3,2.61-7.27,2.88-11.22,3.2A131.8,131.8,0,0,0,211,131.68c-.49.1-1.1.33-1.09.83s1,.11.6-.12a64.34,64.34,0,0,1-18,6.48,21.11,21.11,0,0,0-6.49,1.88c-2,1.12-3.58,3.23-3.33,5.48.1.88.47,1.71.55,2.59a2.07,2.07,0,0,1-1.11,2.19l-4.06-4.33a51.24,51.24,0,0,1-25.71,6.7c-.78-1.28.29-2.87,1.33-3.95q2.64-2.76,5.52-5.25c3.7-3.2,7.69-6.08,11-9.7,2.84-3.15,5.1-6.8,8.09-9.81,4.74-4.76,11-7.59,16.9-10.85s11.75-7.33,14.59-13.42c1.21-2.59,2.39-2.9,5.16-2.88a26,26,0,0,1,5.72.35C225.45,99,230.17,101.22,234.79,102.88Z" transform="translate(-20.88 -28.68)" fill="url(#linear-gradient-5)"></path><path d="M232,111.26c.28,1.75-.52,3.47-1.36,5a15.65,15.65,0,0,1-4.94,6c-4.16,2.66-9.62,1.53-14.42,2.68-3.41.83-6.6,2.85-10.11,2.72a42.58,42.58,0,0,0,8.63-4.87,15.29,15.29,0,0,0,4.81-6.11c.93-2.28.57-4.86,1.57-7.1,1.66-3.71,7-3.72,10.42-3C229,107.12,231.63,108.66,232,111.26Z" transform="translate(-20.88 -28.68)" fill="#fde4cf"></path><path d="M225.33,114.73c0,4.16-4.15,7-7.93,8.71a63.87,63.87,0,0,1-24.53,5.82c-4.38.11-9-.4-12.44-3.12a7.72,7.72,0,0,1-2.75-3.92c-1.11-3.58.39-7.73.29-11.71-.1-3.74,0-8,2.8-10.48A13.17,13.17,0,0,0,183,98a6.77,6.77,0,0,0,1-2.32c.75-2.71,1.48-5.42,2.21-8.13l2.64,2A17,17,0,0,1,193,85c.39,3.15,4.12,4.48,7.11,5.53a64.17,64.17,0,0,1,10.72,5.19l2,1.16c1.66,1,3.42,2,4.3,3.76s.32,4.29-1.53,4.85C220.08,107.18,225.34,110,225.33,114.73Z" transform="translate(-20.88 -28.68)" fill="#fff"></path><path d="M205.2,100.29a4.63,4.63,0,0,0,2-5.13,2.65,2.65,0,0,0-.78-1.14c-.95-.73-2.32-.45-3.43,0-2.19.89-6.5,3.1-5.66,6.1S203.46,101.51,205.2,100.29Z" transform="translate(-20.88 -28.68)" fill="url(#linear-gradient-6)"></path><circle cx="176.41" cy="64.79" r="8.47" fill="#fde4cf"></circle><circle cx="176.41" cy="64.79" r="8.47" fill="url(#linear-gradient-7)"></circle><path d="M198.09,76.56a24.9,24.9,0,0,1,2.63-7.39,16.81,16.81,0,0,1,3.81-4.88c3-2.5,6.93-3.52,10.8-3.84s7.77-.05,11.64-.32c-1.67,2.25-3,4.73-4.57,7a16.88,16.88,0,0,1-6,5.74,14.68,14.68,0,0,1-7.77,1.32,43.52,43.52,0,0,1-7.82-1.57,35.26,35.26,0,0,0-1.14,12,5.11,5.11,0,0,1-.06,1.83c-.26.89-1.59,1.85-2.25.69-.28-.49.2-2,.21-2.62A45.62,45.62,0,0,1,198.09,76.56Z" transform="translate(-20.88 -28.68)" fill="#fde4cf"></path><path d="M198.09,76.56a24.9,24.9,0,0,1,2.63-7.39,16.81,16.81,0,0,1,3.81-4.88c3-2.5,6.93-3.52,10.8-3.84s7.77-.05,11.64-.32c-1.67,2.25-3,4.73-4.57,7a16.88,16.88,0,0,1-6,5.74,14.68,14.68,0,0,1-7.77,1.32,43.52,43.52,0,0,1-7.82-1.57,35.26,35.26,0,0,0-1.14,12,5.11,5.11,0,0,1-.06,1.83c-.26.89-1.59,1.85-2.25.69-.28-.49.2-2,.21-2.62A45.62,45.62,0,0,1,198.09,76.56Z" transform="translate(-20.88 -28.68)" fill="url(#linear-gradient-8)"></path><path d="M168.35,163.06a4.69,4.69,0,0,0,.63,2.45,1.62,1.62,0,0,0,2.22.51,2.38,2.38,0,0,0,.46-2.19l-.87-7A3,3,0,0,1,171,155a2.93,2.93,0,0,1,1.21-1l4.12-2.26a1.3,1.3,0,0,1,.79-.23,1.1,1.1,0,0,1,.59.38c1.35,1.48,1.25,4,2.87,5.18a1.36,1.36,0,0,0,1.67.11,1.55,1.55,0,0,0,.4-.81c.76-3.09-.41-6.79,1.64-9.22-.52.63-2.33,1.05-3.09,1.38-1.13.5-2.26,1-3.4,1.46-2.31,1-4.66,1.85-7.06,2.59-.88.27-2.61.39-3.31,1-1,.86-.24.9.22,1.91C168.56,157.59,168.2,160.8,168.35,163.06Z" transform="translate(-20.88 -28.68)" fill="#fde4cf"></path><path d="M264,178c-14.15,2.1-28.65,1.56-42.69,4.29-10.64,2.07-20.81,6-31.26,8.86-12.06,3.33-24.44,5.29-36.82,7.19-.28-3.11-.71-6.22-1.3-9.3a3.67,3.67,0,0,1,.61-.59c2.87-2.15,8.35-1.76,11.71-2.17a55.88,55.88,0,0,0,8.35-1.46c3.84-1.08,7.48-3,11.46-3.2h1.05c5.77,0,11-3.6,16.41-5.55,2.75-1,5.5-2,8.32-2.75,16.16-4.42,33.56-1.51,49.86-5.34a10.25,10.25,0,0,1,2.73-.4A87.63,87.63,0,0,1,264,178Z" transform="translate(-20.88 -28.68)" fill="#fde4cf" opacity="0.43"></path><path d="M225.33,114.73c0,4.16-4.15,7-7.93,8.71a63.87,63.87,0,0,1-24.53,5.82c-4.38.11-9-.4-12.44-3.12a7.72,7.72,0,0,1-2.75-3.92l6.22,3.27a10.39,10.39,0,0,0,3.45,1.33,3.54,3.54,0,0,0,3.33-1.19c.54-.72.73-1.74,1.5-2.21a3.06,3.06,0,0,1,1.73-.25l14.44.76a5,5,0,0,0,2.08-.18,4.8,4.8,0,0,0,1.78-1.42,50.3,50.3,0,0,0,5.25-7.06l-4-1.55c1.36-.69.73-3-.67-3.58s-3-.08-4.47.34a35.18,35.18,0,0,1-16.6.58c3.23-.57,6.55-.29,9.83-.43s6.69-.77,9.25-2.84a6.63,6.63,0,0,1-4.63-1.21c2.73-.8,5.88-2,6.57-4.78.64-2.49-1-4.35-2.55-6a2.8,2.8,0,0,1,.59-.09l2,1.16c1.66,1,3.42,2,4.3,3.76s.32,4.29-1.53,4.85C220.08,107.18,225.34,110,225.33,114.73Z" transform="translate(-20.88 -28.68)" fill="#fde4cf" opacity="0.18" style="isolation: isolate;"></path><path d="M286.9,152.33s37.36,13.41,40.91,23.79l3.55,10.39,49.1,24.34-7.64,14-45.73-30.08s-3.28,0-4.6-1-6.94-9.42-13.79-12.31-30.22-13.86-30.22-13.86l1.8-1.92L311,177.13,282.51,160.8l2.37-2.64,28.42,12.3-28.16-16.14Z" transform="translate(-20.88 -28.68)" fill="#fde4cf"></path><path d="M286.9,152.33s37.36,13.41,40.91,23.79l3.55,10.39,49.1,24.34-7.64,14-45.73-30.08s-3.28,0-4.6-1-6.94-9.42-13.79-12.31-30.22-13.86-30.22-13.86l1.8-1.92L311,177.13,282.51,160.8l2.37-2.64,28.42,12.3-28.16-16.14Z" transform="translate(-20.88 -28.68)" fill="url(#linear-gradient-9)"></path><path d="M286.9,152.33s38.6,12.82,42.15,23.06l3.55,10.23,49.1,24-7.64,13.8-45.72-29.66s-3.29,0-4.6-1-6.95-9.28-13.8-12.13S279.72,167,279.72,167l.56-1.31,31.91,10.73-28.43-16.1,1.12-2.12,29.66,11.65L286.38,153.9Z" transform="translate(-20.88 -28.68)" fill="#fde4cf"></path><path d="M286.9,152.33s30.15,13.07,35.69,19.54,7.6,15.21,7.6,15.21l-2.06,4.78,47.62,28.51,5.95-10.75-49.1-24L329.25,176s-.82-4.94-10.84-10S286.9,152.33,286.9,152.33Z" transform="translate(-20.88 -28.68)" fill="#fff" opacity="0.37"></path></svg>