<?xml version="1.0" encoding="iso-8859-1"?>
<!-- Generator: Adobe Illustrator 19.0.0, SVG Export Plug-In . SVG Version: 6.00 Build 0)  -->
<svg version="1.1" id="Capa_1" xmlns="http://www.w3.org/2000/svg" xmlns:xlink="http://www.w3.org/1999/xlink" x="0px" y="0px"
	 viewBox="0 0 512 512" style="enable-background:new 0 0 512 512;" xml:space="preserve">
<path style="fill:#EF8E4B;" d="M458.135,255.998l-65.61,221.45C388.211,492.01,374.833,502,359.646,502H152.355
	c-15.188,0-28.566-9.99-32.88-24.552L53.879,255.998H458.135z"/>
<g>
	<polygon style="fill:#FCB17E;" points="132.999,297.085 168.969,502.014 212.718,502.021 194.251,297.085 	"/>
	<polygon style="fill:#FCB17E;" points="255.985,297.085 255.985,501.986 299.254,502.007 317.719,297.085 	"/>
	<path style="fill:#FCB17E;" d="M379.453,297.085L342.522,502h17.124c15.187,0,28.565-9.989,32.879-24.551l53.437-180.363H379.453z"
		/>
</g>
<path style="fill:#D0E6EF;" d="M400.092,297.041c0.576,0.017,1.15,0.044,1.73,0.044c32.659,0,59.135-26.476,59.135-59.135
	c0-24.909-15.409-46.206-37.208-54.918c-1.087-31.704-27.114-57.076-59.083-57.076c-8.113,0-15.843,1.637-22.882,4.594
	C326.148,98.981,293.616,77.27,256,77.27c-37.57,0-70.07,21.658-85.729,53.165c-6.961-2.881-14.588-4.479-22.591-4.479
	c-31.923,0-57.922,25.298-59.08,56.938c-21.984,8.623-37.558,30.014-37.558,55.056c0,32.66,26.476,59.135,59.135,59.135
	C110.806,297.085,400.092,297.041,400.092,297.041z"/>
<path style="fill:#F25353;" d="M336.322,22.32c-8.325-2.231-16.804-0.612-23.667,3.786c-3.744-7.239-10.278-12.881-18.603-15.112
	c-16.068-4.305-32.717,5.728-37.187,22.409c-7.535,28.12,35.343,69.009,35.343,69.009s57.58-13.972,65.114-42.092
	C361.792,43.639,352.39,26.625,336.322,22.32z"/>
<circle style="fill:#FE947C;" cx="170.271" cy="130.43" r="44"/>
<path d="M255.99,328.758c-2.631,0-5.211,1.07-7.07,2.93c-1.87,1.86-2.93,4.44-2.93,7.07c0,2.63,1.06,5.21,2.93,7.07
	c1.859,1.859,4.439,2.93,7.07,2.93c2.63,0,5.21-1.07,7.069-2.93c1.86-1.86,2.92-4.44,2.92-7.07c0-2.63-1.06-5.21-2.92-7.07
	C261.199,329.829,258.619,328.758,255.99,328.758z"/>
<path d="M470.957,237.95c0-26.311-14.612-49.849-37.719-61.589c-1.954-15.549-9.099-29.902-20.492-40.939
	c-12.959-12.553-30.034-19.466-48.08-19.466c-6.2,0-12.283,0.81-18.174,2.415c-4.32-7.133-9.512-13.761-15.382-19.708
	c15.794-7.988,31.574-19.711,35.873-35.752c5.89-21.98-6.703-44.521-28.07-50.248h-0.001c-7.538-2.02-15.507-1.698-22.866,0.798
	c-5.125-5.841-11.866-10.104-19.403-12.125c-21.367-5.725-43.544,7.5-49.434,29.48c-3.157,11.779,0.213,24.639,6.061,36.507
	c-19.675,0.496-38.481,6.343-54.867,17.036c-5.673-3.476-12.038-5.922-18.831-7.107c-3.667-20.363-21.505-35.865-42.909-35.865
	c-5.522,0-10,4.477-10,10s4.478,10,10,10c10.438,0,19.311,6.812,22.42,16.221c-22.127,4.682-39.285,22.955-42.316,45.64
	c-20.566,10.281-34.685,30.134-37.631,52.924c-23.334,11.667-38.09,35.278-38.09,61.778c0,7.42,1.188,14.564,3.362,21.269
	l65.481,221.067c5.53,18.672,22.994,31.713,42.468,31.713h207.292c19.472,0,36.935-13.04,42.467-31.71l65.606-221.441
	C469.818,252.251,470.957,245.232,470.957,237.95z M266.525,35.991c2.569-9.589,10.978-15.99,19.998-15.99
	c1.637,0,3.295,0.211,4.94,0.652c5.325,1.427,9.696,4.995,12.309,10.047c1.293,2.499,3.577,4.337,6.295,5.065
	c2.714,0.728,5.613,0.278,7.983-1.24c4.788-3.069,10.36-3.974,15.683-2.546c10.717,2.872,16.965,14.424,13.93,25.753
	c-3.985,14.873-32.309,27.707-52.443,33.527C283.424,78.859,262.168,52.249,266.525,35.991z M170.272,96.433
	c18.748,0,34,15.252,34,34s-15.252,34-34,34s-34-15.252-34-34S151.524,96.433,170.272,96.433z M92.251,192.203
	c3.706-1.454,6.196-4.966,6.342-8.944c0.555-15.153,8.036-28.92,19.857-37.673c6.567,22.421,27.306,38.848,51.821,38.848
	c29.775,0,54-24.224,54-54c0-11.978-3.926-23.053-10.55-32.019c12.832-7.313,27.27-11.145,42.278-11.145
	c3.383,0,6.777,0.21,10.124,0.603c5.597,7.464,11.163,13.606,14.933,17.523l-15.646,58.392c-1.43,5.335,1.736,10.818,7.071,12.248
	c0.867,0.232,1.737,0.343,2.594,0.343c4.415,0,8.456-2.947,9.653-7.414l15.646-58.393c2.834-0.818,6.451-1.938,10.541-3.378
	c9.107,7.627,16.653,17.188,21.906,27.793c2.344,4.731,7.964,6.827,12.833,4.781c6.024-2.53,12.42-3.813,19.01-3.813
	c26.615,0,48.178,20.829,49.089,47.418c0.136,3.963,2.601,7.471,6.283,8.943c18.782,7.506,30.919,25.418,30.919,45.632
	c0,27.093-22.042,49.135-49.135,49.135c-0.312,0-0.621-0.012-0.93-0.022l-0.513-0.017c-0.094-0.003-0.188-0.004-0.282-0.004
	c-0.002,0-0.005,0-0.005,0s-289.286,0.043-289.915,0.043c-21.748,0-40.229-14.208-46.68-33.826l-0.03-0.102
	c-0.034-0.114-0.08-0.221-0.117-0.333c-1.495-4.695-2.308-9.691-2.308-14.875C61.042,217.596,73.292,199.639,92.251,192.203z
	 M310.196,492l16.666-184.946c15.304-0.002,29.177-0.004,40.635-0.006L334.165,492H310.196z M265.986,492V378.999
	c0-5.522-4.478-10-10-10s-10,4.478-10,10V492h-24.13l-16.664-184.928c32.628-0.005,69.096-0.01,101.588-0.015L290.114,492H265.986z
	 M177.365,492L144.907,307.08c11.464-0.002,25.172-0.004,40.204-0.006L201.775,492H177.365z M129.063,474.606L76.907,298.53
	c9.877,5.446,21.216,8.554,33.27,8.554c0.084,0,5.362-0.001,14.423-0.002l32.457,184.916h-4.704
	C141.674,492,132.096,484.846,129.063,474.606z M382.938,474.607C379.904,484.848,370.327,492,359.647,492h-5.16l33.333-184.955
	c6.952-0.001,11.255-0.002,12.114-0.002l0.29,0.01c0.531,0.018,1.063,0.033,1.598,0.033c12.061,0,23.405-3.112,33.285-8.563
	L382.938,474.607z"/>
<path d="M162.777,262.687c1.953,1.953,4.512,2.93,7.071,2.93s5.118-0.977,7.071-2.93c3.905-3.905,3.905-10.237,0-14.142
	l-16.382-16.382c-3.906-3.905-10.236-3.905-14.143,0c-3.905,3.905-3.905,10.237,0,14.143L162.777,262.687z"/>
<path d="M198.068,224.93c2.56,0,5.119-0.977,7.071-2.929l16.863-16.864c3.905-3.905,3.905-10.237,0-14.142
	c-3.906-3.905-10.238-3.905-14.143,0l-16.863,16.864c-3.905,3.905-3.905,10.237,0,14.142
	C192.95,223.954,195.508,224.93,198.068,224.93z"/>
<path d="M257.928,262.687c1.953,1.953,4.512,2.93,7.071,2.93c2.559,0,5.118-0.977,7.071-2.93c3.905-3.905,3.905-10.237,0-14.142
	l-16.382-16.382c-3.906-3.905-10.236-3.905-14.143,0c-3.905,3.905-3.905,10.237,0,14.143L257.928,262.687z"/>
<path d="M388.764,262.687c1.953,1.953,4.512,2.93,7.071,2.93c2.559,0,5.118-0.977,7.071-2.93c3.905-3.905,3.905-10.237,0-14.142
	l-16.382-16.382c-3.906-3.905-10.236-3.905-14.143,0c-3.905,3.905-3.905,10.237,0,14.143L388.764,262.687z"/>
<path d="M318.687,224.93c2.56,0,5.118-0.976,7.071-2.929l16.864-16.864c3.905-3.905,3.905-10.237,0-14.143
	c-3.906-3.905-10.236-3.905-14.143,0l-16.864,16.864c-3.905,3.905-3.905,10.237,0,14.143
	C313.569,223.954,316.127,224.93,318.687,224.93z"/>
<path d="M126.272,273.65c5.522,0,10-4.478,10-10s-4.478-10-10-10c-10.807,0-19.598-8.791-19.598-19.597c0-5.523-4.478-10-10-10
	s-10,4.477-10,10C86.673,255.887,104.437,273.65,126.272,273.65z"/>
<path d="M115.225,216.6c1.252,0,2.525-0.237,3.757-0.737l0.156-0.062c5.138-2.025,7.661-7.832,5.637-12.97
	c-2.024-5.138-7.831-7.661-12.971-5.637l-0.344,0.138c-5.117,2.077-7.582,7.909-5.505,13.026
	C107.532,214.244,111.274,216.6,115.225,216.6z"/>
<g>
</g>
<g>
</g>
<g>
</g>
<g>
</g>
<g>
</g>
<g>
</g>
<g>
</g>
<g>
</g>
<g>
</g>
<g>
</g>
<g>
</g>
<g>
</g>
<g>
</g>
<g>
</g>
<g>
</g>
</svg>
