<?xml version="1.0" encoding="UTF-8" standalone="no"?> <svg xmlns="http://www.w3.org/2000/svg" viewBox="0 0 90 90"><defs><style>.cls-1{fill:#c4875a;}.cls-2{fill:#743727;}.cls-3{fill:#f4e6d0;}.cls-4{fill:#f4e0c1;}.cls-5{fill:#f4c44e;}.cls-6{fill:#f4ca64;}.cls-7{fill:#f04b3e;}.cls-7,.cls-8{fill-rule:evenodd;}.cls-8{fill:#f57564;opacity:0.7;}</style></defs><title>ice-cupcake</title><g id="ice-cupcake"><g id="ice-cupcake-2" data-name="ice-cupcake"><polygon class="cls-1" points="55.3 32.26 65.17 2.5 68.25 3.1 70.4 4.27 60.03 34.08 55.3 32.26"/><path class="cls-2" d="M67.9,11.46A45.28,45.28,0,0,1,64,5.93L65.17,2.5l3.08.6L70.4,4.27Z"/><path class="cls-2" d="M62.42,27c-.92-1.39-2-4-3.67-5.29l1.37-4c1.36.95,2.59,3.64,3.79,5.21Z"/><path class="cls-2" d="M62.71,10c1.36.94,2.76,3.56,4,5.15L65.33,19c-1-1.43-2.22-3.93-3.89-5.16Z"/><polygon class="cls-1" points="57.24 36.83 75.85 10.88 78.63 12.27 80.33 13.95 61.22 39.81 57.24 36.83"/><path class="cls-2" d="M75.71,20.19a43.4,43.4,0,0,1-2-6.32l2.14-3,2.77,1.39L80.32,14Z"/><path class="cls-2" d="M65.68,33.65c-.46-1.57-.7-4.41-1.88-6l2.55-3.49c1,1.27,1.36,4.17,2,6Z"/><path class="cls-2" d="M71.18,17.47c1,1.26,1.56,4.14,2.27,6l-2.53,3.33c-.47-1.61-.92-4.35-2.15-6Z"/><path class="cls-3" d="M69.84,40.72c-1.51-4.14-5-7.08-8.48-9.22l-.38,0c1.14-6.91-3.79-10.33-8.58-13.1l-.24.09c-.62-1.79-2.15-3.66-5.22-5.24-4.1-2.09-8.88-4-12-7.29,2.56,4.59,5.06,9.65-1,12.23-2.6,1.11-6.42.47-8.45,2.8-1.49,1.7-2.76,5.69-2,8.07-5,.14-7.5,1.9-8.46,4.64-.91,2.56-.81,6.34.75,7.52,0,0-7.07,3.8-3.41,9.79,4.17,6.85,17.14,7.46,24.36,7.55C46.23,58.65,75.17,55.3,69.84,40.72Z"/><path class="cls-4" d="M70.28,40.53c-1.58-4.31-5.13-7.31-8.68-9.48l-.08,0a12.43,12.43,0,0,0,.09-1.49,10.14,10.14,0,0,0-2.89-7.1,25.71,25.71,0,0,0-6.11-4.49.44.44,0,0,0-.18-.07c-.76-1.8-2.38-3.6-5.31-5.1C43,10.67,38.27,8.8,35.3,5.58a.46.46,0,0,0-.63,0,.51.51,0,0,0-.12.66c1.38,2.48,2.7,5.07,2.69,7.14,0,1.74-.79,3.19-3.46,4.36a21.3,21.3,0,0,1-4.34.92,6.88,6.88,0,0,0-4.29,2,11.68,11.68,0,0,0-2.37,6.81,7.23,7.23,0,0,0,.07,1c-.24,0-.46,0-.69,0a7.36,7.36,0,0,0-6.31,3.09,10.43,10.43,0,0,0-1.78,5.92A8.24,8.24,0,0,0,14.43,40,4,4,0,0,0,15,41.11a11.14,11.14,0,0,0-1.76,1.42,7.23,7.23,0,0,0-2.4,5.06,7,7,0,0,0,1.13,3.68c2.23,3.62,6.64,5.49,11.35,6.53a69.27,69.27,0,0,0,13.4,1.25h.47a77.62,77.62,0,0,0,20.21-2.92,29.16,29.16,0,0,0,9.48-4.5C69.32,49.7,71,47.2,71,44.12A10.51,10.51,0,0,0,70.28,40.53ZM25.85,21.31a6,6,0,0,1,3.74-1.7,21.46,21.46,0,0,0,4.54-1c2.89-1.2,4.08-3.15,4.06-5.3a12.49,12.49,0,0,0-1.51-5.17c3,2.32,6.78,3.86,10,5.52,3,1.54,4.41,3.31,5,5A6,6,0,0,1,51,24.05c-2.85,3.94-8.48,4.8-14.56,4.79-3.92,0-8-.34-11.58-.34h-1a5.51,5.51,0,0,1-.1-1.08A10.77,10.77,0,0,1,25.85,21.31ZM23.2,29.46h0Zm-6.58,2.69a6.4,6.4,0,0,1,5.54-2.7c.36,0,2.26.07,2.68.07,3.53,0,7.62.34,11.58.34,6.14,0,12.07-.78,15.32-5.19a7,7,0,0,0,1.11-5.45A23.19,23.19,0,0,1,58,23.13a9.09,9.09,0,0,1,2.61,6.4,11.46,11.46,0,0,1-.15,1.85,1.17,1.17,0,0,1-.05.28C59.85,35,56.36,38,51.19,40a52.38,52.38,0,0,1-18.74,3.22A51.86,51.86,0,0,1,16,40.74a2.2,2.2,0,0,1-.63-1.07,7.37,7.37,0,0,1-.3-2.22A9.27,9.27,0,0,1,16.62,32.15ZM66.27,50.82c-7,5.54-22.36,7.23-29.11,7.22H36.7a67.21,67.21,0,0,1-13.22-1.22c-4.62-1-8.78-2.86-10.74-6.09a6,6,0,0,1-1-3.12,6.22,6.22,0,0,1,2.08-4.32,11.18,11.18,0,0,1,1.48-1.21,5.28,5.28,0,0,1,.49-.31h0a52.85,52.85,0,0,0,16.64,2.52A53.25,53.25,0,0,0,51.53,41c5.17-2.08,9-5.05,9.82-8.92,3.4,2.09,6.63,4.94,8,8.82A9.36,9.36,0,0,1,70,44.12C70,46.8,68.61,49,66.27,50.82Z"/><path class="cls-5" d="M67.09,50.67c-1.08.56-2.13,1.15-3.2,1.75l-2.82-2.13C60,50.9,59,51.52,57.92,52.17L55,50c-1,.64-2.09,1.31-3.11,2L49,49.76c-1,.68-2.05,1.37-3.06,2.07l-3-2.18c-1,.7-2,1.42-3,2.12-1-.71-2-1.42-3-2.12q-1.51,1.08-3,2.17c-1-.7-2-1.38-3.07-2.06L28,52c-1-.67-2.07-1.33-3.11-2L22,52.17c-1-.64-2.08-1.26-3.14-1.87L16,52.43c-1.06-.61-2.12-1.19-3.2-1.76-.88.64-1.77,1.25-2.64,1.85A330.5,330.5,0,0,1,20.82,85.65a127.51,127.51,0,0,0,37.92.06A315.33,315.33,0,0,1,69.8,52.53C68.9,51.93,68,51.31,67.09,50.67Z"/><path class="cls-6" d="M70.08,52.26c-.9-.6-1.8-1.23-2.71-1.86l-.24-.17-.26.14c-1,.52-2,1-2.93,1.59-.86-.64-1.72-1.28-2.59-1.95l-.25-.19-.27.16c-1,.54-1.93,1.11-2.89,1.7l-2.63-2-.25-.19-.27.17c-1,.58-1.91,1.18-2.84,1.79l-2.68-2L49,49.26l-.26.17c-.94.62-1.88,1.25-2.8,1.88l-2.73-2L43,49.14a2.76,2.76,0,0,1-.26.17l-2.77,2-2.77-2a2.2,2.2,0,0,1-.25-.17l-.27.19-2.73,2c-.93-.63-1.86-1.26-2.81-1.88l-.26-.17a2.36,2.36,0,0,1-.26.19l-2.68,2q-1.41-.91-2.84-1.79l-.26-.17-.26.19-2.64,2C21,51.1,20,50.54,19.05,50l-.27-.16-.24.18L16,52C15,51.42,14,50.89,13,50.38l-.27-.14a2.25,2.25,0,0,0-.23.17L9.88,52.26l-.2.14.08.22a319.38,319.38,0,0,1,10.64,33c0,.11.06.23.09.33l.36.06A121.22,121.22,0,0,0,40,87.5a123.27,123.27,0,0,0,18.73-1.39l.36-.05.09-.33A309.64,309.64,0,0,1,70.2,52.63a2.29,2.29,0,0,0,.09-.23ZM21.14,85.32A334.67,334.67,0,0,0,10.66,52.65l2.19-1.53c.93.49,1.85,1,2.77,1.53,2.86,10.4,5.44,21.56,7.81,33C22.66,85.54,21.9,85.44,21.14,85.32Zm3.15.44c-2.38-11.47-5-22.68-7.82-33.19.79-.58,1.58-1.19,2.38-1.8l2.73,1.62c2.07,10.9,4,22.22,5.73,33.7Q25.81,85.94,24.3,85.75Zm3.89.41c-1.76-11.51-3.67-22.88-5.76-33.85l2.44-1.85c.89.55,1.79,1.12,2.66,1.69,1.34,11.26,2.57,22.71,3.7,34.24C30.22,86.34,29.2,86.26,28.19,86.17Zm3.92.3c-1.14-11.55-2.37-23-3.71-34.34l2.5-1.87,2.3,1.55q1.06,17.33,2,34.79C34.15,86.57,33.14,86.52,32.12,86.47Zm7,.22c-1,0-2.05,0-3.08-.05q-.9-17.24-2-34.41l.12-.09,2.71-2,2.47,1.74Q39.24,69.3,39.12,86.69Zm.88,0q.11-17.32.26-34.64c.89-.63,1.79-1.27,2.7-1.9.85.61,1.69,1.24,2.54,1.86q-1.33,17.26-2.43,34.65C42,86.68,41,86.69,40,86.69Zm4-.05c.73-11.56,1.53-23.11,2.4-34.6.86-.59,1.74-1.19,2.62-1.77l2.5,1.88C49.86,63.44,48.37,74.94,47,86.5,46,86.56,45,86.6,44,86.63Zm3.94-.17c1.35-11.56,2.84-23,4.46-34.3.88-.57,1.77-1.14,2.66-1.69l2.63,2s0,0,0,0C55.2,63.37,53,74.74,50.93,86.25Zm3.92-.3c2-11.59,4.29-23,6.76-33.94.81-.51,1.63-1,2.45-1.46.79.61,1.59,1.21,2.38,1.8-3.15,10.49-6,21.77-8.58,33.28C53.83,86,52.82,86.07,51.82,86.17Zm6.61-.78-2.71.37c2.58-11.48,5.41-22.69,8.55-33.1.92-.53,1.85-1,2.78-1.53l2.26,1.54A319.24,319.24,0,0,0,58.42,85.38Z"/><path class="cls-7" d="M36.52,4.44a8,8,0,1,1-8,8,8,8,0,0,1,8-8Z"/><path class="cls-8" d="M35.64,6.69a4.51,4.51,0,0,1,4.11,2.67,4.5,4.5,0,0,0-7.56,3.29,4.53,4.53,0,0,0,.39,1.82,4.5,4.5,0,0,1,3.06-7.78Z"/></g></g></svg>