<?xml version="1.0"?>
<svg xmlns="http://www.w3.org/2000/svg" viewBox="0 0 511.998 511" width="512px" height="512px"><g><path class="active-path" d="m 504.098 102.809 h -41.6875 c 1.21094 -1.69922 2.30859 -3.48438 3.26953 -5.35547 c 5.51562 -10.7734 6.26172 -23.4609 2.04687 -34.8125 l -12.6328 -33.9531 c -4.21094 -11.3398 -13.0586 -20.457 -24.2656 -25.0117 c -11.2188 -4.55859 -23.9258 -4.19531 -34.8672 1 l -99.9766 47.4805 c -4.94141 -3.53125 -10.9844 -5.61719 -17.5078 -5.61719 h -44.9531 c -6.52344 0 -12.5703 2.08984 -17.5117 5.62109 l -99.9727 -47.4883 c -10.9414 -5.19141 -23.6484 -5.55469 -34.8672 -0.996094 c -11.207 4.55469 -20.0547 13.6719 -24.2656 25.0078 l -12.6328 33.9609 c -4.21484 11.3477 -3.46875 24.0352 2.05078 34.8086 c 0.957031 1.87109 2.05859 3.66016 3.26953 5.35547 h -41.6914 c -4.36328 0 -7.90234 3.53516 -7.90234 7.90234 v 56.8867 c 0 4.36328 3.53906 7.90234 7.90234 7.90234 c 4.36328 0 7.90234 -3.53906 7.90234 -7.90234 v -48.9883 h 54.8867 c 0.878906 0.308594 1.76953 0.59375 2.67188 0.84375 l 66.3398 18.2617 c -14.7422 22.5898 -27.7461 46.3516 -38.8789 70.9727 h -85.0195 v -9.48438 c 0 -4.36328 -3.53906 -7.89844 -7.90234 -7.89844 c -4.36328 0 -7.90234 3.53516 -7.90234 7.89844 v 17.3867 c 0 4.36328 3.53906 7.90234 7.90234 7.90234 h 28.1797 v 279.754 c 0 4.36719 3.53906 7.90234 7.90234 7.90234 h 424.031 c 4.36328 0 7.90234 -3.53516 7.90234 -7.90234 v -45.8828 c 0 -4.36328 -3.53906 -7.90234 -7.90234 -7.90234 c -4.36719 0 -7.90234 3.53906 -7.90234 7.90234 v 37.9844 h -156.707 v -266.996 c 22.3828 42.3945 37.5352 88.4922 44.5078 136.121 c 0.460938 3.15234 2.77344 5.71875 5.86328 6.50781 c 0.648437 0.167969 1.30469 0.246093 1.95703 0.246093 c 2.44141 0 4.79297 -1.13281 6.30859 -3.14453 c 11.3594 -15.0703 21.9219 -31.2031 31.457 -48.0469 c 15.9688 10.875 31.4727 23 46.1836 36.125 c 2.48047 2.21094 6.08203 2.63672 9.00781 1.05859 c 2.92578 -1.57422 4.55469 -4.8125 4.07031 -8.10156 c -6.30859 -43.0352 -18.0703 -85.3555 -34.7422 -125.625 h 42.0898 v 202.262 c 0 4.36719 3.53906 7.90234 7.90234 7.90234 c 4.36719 0 7.90234 -3.53516 7.90234 -7.90234 v -202.262 h 28.1836 c 4.36328 0 7.89844 -3.53906 7.89844 -7.90234 v -105.879 c 0.003906 -4.36719 -3.53125 -7.90234 -7.89844 -7.90234 Z m -101.359 -83.8594 c 7.05078 -3.34375 14.9102 -3.57031 22.1406 -0.632813 c 7.21875 2.93359 12.6875 8.57031 15.4023 15.8789 l 12.6289 33.9492 c 2.71875 7.3125 2.25391 15.1641 -1.30078 22.1055 c -3.55078 6.9375 -9.64844 11.8984 -17.1641 13.9648 l -125.785 34.6289 v -37.9766 c 28.2734 -17.3125 98.7578 -53.0195 116.301 -28.2578 c 2.51953 3.55859 7.44922 4.40625 11.0117 1.88281 c 3.5625 -2.52344 4.40625 -7.45703 1.88281 -11.0156 c -13.5391 -19.1133 -42.0703 -20.043 -84.8086 -2.75781 c -17.6055 7.11719 -33.8594 15.8047 -44.3867 21.832 v -5.83203 c 0 -4.23047 -0.878906 -8.26172 -2.45703 -11.9219 Z m -169.215 43.3906 h 44.9531 c 7.92969 0 14.3789 6.45313 14.3789 14.3789 v 65.3164 c 0 7.92969 -6.44922 14.3789 -14.3789 14.3789 h -44.9531 c -7.92969 0 -14.3789 -6.44922 -14.3789 -14.3789 v -65.3164 c 0 -7.92969 6.44922 -14.3789 14.3789 -14.3789 Z m -13.2813 146.344 c 7.55859 -12.5586 15.7852 -24.7305 24.6367 -36.4648 h 22.2344 c 8.85547 11.7344 17.082 23.9063 24.6367 36.4648 Z m -159.852 -118.434 c -3.55469 -6.94141 -4.01953 -14.793 -1.30469 -22.1016 l 12.6367 -33.957 c 2.71094 -7.30469 8.17969 -12.9414 15.3984 -15.875 c 7.22656 -2.9375 15.0898 -2.71094 22.1367 0.632813 l 96.5391 45.8555 c -1.57813 3.65625 -2.45703 7.68359 -2.45703 11.918 v 6.28125 c -10.4922 -6.03906 -27.1133 -14.9844 -45.168 -22.2852 c -42.7344 -17.2852 -71.2695 -16.3555 -84.8086 2.75781 c -2.52344 3.55859 -1.67969 8.49219 1.88281 11.0156 c 3.5625 2.52344 8.49219 1.67969 11.0117 -1.88281 c 17.707 -24.9961 89.3516 11.6211 117.082 28.7383 v 37.4961 l -125.781 -34.625 c -7.51953 -2.07031 -13.6172 -7.03125 -17.168 -13.9688 Z m 146.496 65.9609 c 3.93359 7.35937 10.8242 12.9102 19.0781 15.0469 c -36.957 51.5625 -62.3984 110.809 -74.332 173.082 c -8.39453 -12.2656 -16.2422 -25.1211 -23.4258 -38.3984 c -1.05078 -1.94531 -2.86328 -3.35938 -5.00781 -3.90234 c -2.14063 -0.542968 -4.41016 -0.164062 -6.25781 1.04297 c -13.1602 8.58203 -26.0469 17.9961 -38.4922 28.1055 c 12.8164 -67.2734 39.2969 -132.141 77.2695 -189.063 Z m -155 68.2813 h 42.0938 c -16.6719 40.2695 -28.4336 82.5859 -34.7461 125.625 c -0.480469 3.28906 1.14453 6.52734 4.07031 8.10156 c 2.92969 1.57422 6.52734 1.15234 9.00781 -1.05859 c 14.7109 -13.125 30.2148 -25.25 46.1875 -36.125 c 9.53516 16.8438 20.0938 32.9727 31.457 48.0469 c 1.51563 2.01172 3.86719 3.14844 6.30859 3.14844 c 0.652344 0 1.30859 -0.082031 1.95703 -0.25 c 3.08984 -0.789063 5.39844 -3.35547 5.85938 -6.50781 c 6.97656 -47.6289 22.1289 -93.7305 44.5078 -136.125 v 267 h -156.703 Z m 172.508 271.855 v -271.855 h 63.2109 v 271.855 Z m 170.664 -193.266 c -1.84766 -1.20703 -4.12109 -1.58203 -6.25781 -1.03906 c -2.14063 0.542969 -3.95703 1.95703 -5.00781 3.89844 c -7.18359 13.2773 -15.0313 26.1367 -23.4258 38.3984 c -11.9336 -62.2773 -37.375 -121.52 -74.3359 -173.078 c 8.25391 -2.13281 15.1484 -7.6875 19.082 -15.0508 l 51.1797 -14.0898 c 37.9648 56.9336 64.4453 121.801 77.2617 189.066 c -12.4492 -10.1094 -25.3359 -19.5234 -38.4961 -28.1055 Z m 101.137 -94.3945 h -85.0156 c -11.1328 -24.6211 -24.1367 -48.3828 -38.875 -70.9727 l 66.332 -18.2617 c 0.902343 -0.25 1.79297 -0.535156 2.67188 -0.84375 h 54.8867 Z m 0 0" data-original="#000000" data-old_color="#000000" fill="#9C2D2F"/></g> </svg>
