<?xml version="1.0"?>
<svg xmlns="http://www.w3.org/2000/svg" xmlns:xlink="http://www.w3.org/1999/xlink" class="" id="Capa_1" style="enable-background:new 0 0 512 512;" viewBox="0 0 512 512" x="0px" y="0px" width="512px" height="512px" xml:space="preserve" version="1.1"><g><g>
	<g>
		<path class="active-path" d="M 376 30 c -27.783 0 -53.255 8.804 -75.707 26.168 c -21.525 16.647 -35.856 37.85 -44.293 53.268 c -8.437 -15.419 -22.768 -36.621 -44.293 -53.268 C 189.255 38.804 163.783 30 136 30 C 58.468 30 0 93.417 0 177.514 c 0 90.854 72.943 153.015 183.369 247.118 c 18.752 15.981 40.007 34.095 62.099 53.414 C 248.38 480.596 252.12 482 256 482 s 7.62 -1.404 10.532 -3.953 c 22.094 -19.322 43.348 -37.435 62.111 -53.425 C 439.057 330.529 512 268.368 512 177.514 C 512 93.417 453.532 30 376 30 Z" data-original="#000000" data-old_color="#000000" fill="#BE3537"/>
	</g>
</g></g> </svg>
