<?xml version="1.0" encoding="UTF-8"?>
<svg width="22px" height="22px" viewBox="0 0 22 22" version="1.1" xmlns="http://www.w3.org/2000/svg" xmlns:xlink="http://www.w3.org/1999/xlink">
    <!-- Generator: Sketch 52 (66869) - http://www.bohemiancoding.com/sketch -->
    <title>instagram</title>
    <desc>Created with Sketch.</desc>
    <g id="Page-1" stroke="none" stroke-width="1" fill="none" fill-rule="evenodd">
        <g id="Desktop-HD" transform="translate(-259.000000, -2126.000000)" fill="#14286D" fill-rule="nonzero">
            <path d="M270.002454,2131.35948 C266.880982,2131.35948 264.36319,2133.87783 264.36319,2137 C264.36319,2140.12217 266.880982,2142.64052 270.002454,2142.64052 C273.123926,2142.64052 275.641718,2140.12217 275.641718,2137 C275.641718,2133.87783 273.123926,2131.35948 270.002454,2131.35948 Z M270.002454,2140.66708 C267.985276,2140.66708 266.336196,2139.02254 266.336196,2137 C266.336196,2134.97746 267.980368,2133.33292 270.002454,2133.33292 C272.02454,2133.33292 273.668712,2134.97746 273.668712,2137 C273.668712,2139.02254 272.019632,2140.66708 270.002454,2140.66708 Z M277.18773,2131.12875 C277.18773,2131.8602 276.598773,2132.44438 275.872393,2132.44438 C275.141104,2132.44438 274.557055,2131.85529 274.557055,2131.12875 C274.557055,2130.40221 275.146012,2129.81312 275.872393,2129.81312 C276.598773,2129.81312 277.18773,2130.40221 277.18773,2131.12875 Z M280.922699,2132.46402 C280.839264,2130.70166 280.43681,2129.14058 279.146012,2127.8544 C277.860123,2126.56822 276.299387,2126.16568 274.537423,2126.07732 C272.721472,2125.97423 267.278528,2125.97423 265.462577,2126.07732 C263.705521,2126.16077 262.144785,2126.56332 260.853988,2127.84949 C259.56319,2129.13567 259.165644,2130.69675 259.077301,2132.45911 C258.974233,2134.27547 258.974233,2139.71963 259.077301,2141.53598 C259.160736,2143.29834 259.56319,2144.85942 260.853988,2146.1456 C262.144785,2147.43178 263.700613,2147.83432 265.462577,2147.92268 C267.278528,2148.02577 272.721472,2148.02577 274.537423,2147.92268 C276.299387,2147.83923 277.860123,2147.43668 279.146012,2146.1456 C280.431902,2144.85942 280.834356,2143.29834 280.922699,2141.53598 C281.025767,2139.71963 281.025767,2134.28037 280.922699,2132.46402 Z M278.576687,2143.48488 C278.193865,2144.44706 277.452761,2145.18833 276.48589,2145.57615 C275.038037,2146.15051 271.602454,2146.01796 270.002454,2146.01796 C268.402454,2146.01796 264.961963,2146.1456 263.519018,2145.57615 C262.557055,2145.19324 261.815951,2144.45197 261.428221,2143.48488 C260.853988,2142.03671 260.986503,2138.60036 260.986503,2137 C260.986503,2135.39964 260.858896,2131.95838 261.428221,2130.51512 C261.811043,2129.55294 262.552147,2128.81167 263.519018,2128.42385 C264.966871,2127.84949 268.402454,2127.98204 270.002454,2127.98204 C271.602454,2127.98204 275.042945,2127.8544 276.48589,2128.42385 C277.447853,2128.80676 278.188957,2129.54803 278.576687,2130.51512 C279.15092,2131.96329 279.018405,2135.39964 279.018405,2137 C279.018405,2138.60036 279.15092,2142.04162 278.576687,2143.48488 Z" id="instagram"></path>
        </g>
    </g>
</svg>