<?xml version="1.0" encoding="UTF-8"?>
<svg width="20px" height="17px" viewBox="0 0 24 24" version="1.1" xmlns="http://www.w3.org/2000/svg" xmlns:xlink="http://www.w3.org/1999/xlink">
    <!-- Generator: Sketch 61 (89581) - https://sketch.com -->
    <title>linkedin-logo</title>
    <desc>Created with Sketch.</desc>
    <g id="Page-1" stroke="none" stroke-width="1" fill="#28457B" fill-rule="evenodd">
        <g id="Main" transform="translate(-234.000000, -3377.000000)" fill="#28457B" fill-rule="nonzero">
            <g id="Group-34" transform="translate(165.000000, 3319.000000)">
                <g id="Group-33" transform="translate(59.000000, 48.000000)">
                    <g id="Group-24">
                        <g id="linkedin-logo" transform="translate(10.000000, 10.000000)">
                            <path d="M2.77099355,0.0198193548 C1.23970065,0.0198193548 0.000247741936,1.26150194 7.98507926e-13,2.78932645 C7.98507926e-13,4.31863742 1.2394529,5.56007226 2.77124129,5.56007226 C4.29881806,5.56007226 5.54000516,4.31863742 5.54000516,2.78932645 C5.54000516,1.26125419 4.29857032,0.0198193548 2.77099355,0.0198193548 Z" id="Path"></path>
                            <rect id="Rectangle" x="0.381027097" y="7.6616671" width="4.77819871" height="15.3733781"></rect>
                            <path d="M17.3233548,7.27940129 C14.99904,7.27940129 13.4404955,8.55378581 12.80256,9.76227097 L12.7386426,9.76227097 L12.7386426,7.6616671 L8.15591226,7.6616671 L8.15566452,7.6616671 L8.15566452,23.0347974 L12.9296516,23.0347974 L12.9296516,15.4296155 C12.9296516,13.42464 13.3114219,11.482591 15.7972645,11.482591 C18.2474323,11.482591 18.2801342,13.7756903 18.2801342,15.5581935 L18.2801342,23.0345497 L23.0548645,23.0345497 L23.0548645,14.6024052 C23.0548645,10.4633806 22.1617548,7.27940129 17.3233548,7.27940129 Z" id="Path"></path>
                        </g>
                    </g>
                </g>
            </g>
        </g>
    </g>
</svg>