<svg width="116" height="149" viewBox="0 0 116 149" fill="none" xmlns="http://www.w3.org/2000/svg">
<path d="M30.2222 30.2222V96.8889M30.2222 30.2222H63.5556C69.4493 30.2222 75.1016 32.5635 79.2691 36.731C83.4365 40.8984 85.7778 46.5507 85.7778 52.4444C85.7778 58.3381 83.4365 63.9905 79.2691 68.1579C75.1016 72.3254 69.4493 74.6667 63.5556 74.6667H30.2222V30.2222ZM30.2222 96.8889C24.3285 96.8889 18.6762 99.2302 14.5087 103.398C10.3413 107.565 8 113.217 8 119.111M30.2222 96.8889H74.6667C83.5072 96.8889 91.9857 92.2064 98.2369 83.8714C104.488 75.5365 108 64.2319 108 52.4444C108 40.657 104.488 29.3524 98.2369 21.0175C91.9857 12.6825 83.5072 8 74.6667 8H8V119.111M8 119.111C8 125.005 10.3413 130.657 14.5087 134.825C18.6762 138.992 24.3285 141.333 30.2222 141.333V108" stroke="#264653" stroke-width="15" stroke-linecap="square" stroke-linejoin="round"/>
</svg>
