<svg width="110" height="144" viewBox="0 0 110 144" fill="none" xmlns="http://www.w3.org/2000/svg">
<path d="M27.2222 27.2222V93.8889M27.2222 27.2222H60.5556C66.4493 27.2222 72.1016 29.5635 76.2691 33.731C80.4365 37.8984 82.7778 43.5507 82.7778 49.4445C82.7778 55.3382 80.4365 60.9905 76.2691 65.1579C72.1016 69.3254 66.4493 71.6667 60.5556 71.6667H27.2222V27.2222ZM27.2222 93.8889C21.3285 93.8889 15.6762 96.2302 11.5087 100.398C7.34126 104.565 5 110.217 5 116.111M27.2222 93.8889H71.6667C80.5072 93.8889 88.9857 89.2064 95.2369 80.8714C101.488 72.5365 105 61.2319 105 49.4445C105 37.657 101.488 26.3524 95.2369 18.0175C88.9857 9.68253 80.5072 5 71.6667 5H5V116.111M5 116.111C5 122.005 7.34126 127.657 11.5087 131.825C15.6762 135.992 21.3285 138.333 27.2222 138.333V105" stroke="#67C9B8" stroke-width="10" stroke-linecap="square" stroke-linejoin="round"/>
</svg>
