<svg id="Capa_1" enable-background="new 0 0 512.001 512.001" height="512" viewBox="0 0 512.001 512.001" width="512" xmlns="http://www.w3.org/2000/svg"><g><g><g><g><path d="m267.745 87.985c-50.285-38.056-25.961-77.985-25.961-77.985s-94.727 7.534-89.397 83.085c.528 7.487 2.119 14.236 4.58 20.381h-2.887c-19.023 0-55.313 20.887-45.236 72.458l-2.93-.007c-29.529 12.545-36.089 30.287-36.163 49.184-.076 19.442 9.287 35.048 23.712 44.703l-.462-2.592h325.959l-1.095 6.152c44.892-73.425 21.367-113.405-19.427-138.793" fill="#ff9eb1"/></g></g><g><g><path d="m204.509 502.001h-39.356c-18.588 0-34.501-13.329-37.759-31.63l-34.392-193.159h91.495z" fill="#fff2a0"/></g></g><g><g><path d="m255.981 277.212h71.483l-20.012 224.789h-51.471" fill="#fff7bf"/></g></g><g><g><path d="m346.808 502.001h-39.356l20.012-224.789h91.495l-34.392 193.159c-3.258 18.3-19.17 31.63-37.759 31.63z" fill="#fff2a0"/></g></g><g><g><path d="m255.981 502.001h-51.472l-20.012-224.789h71.484" fill="#fff7bf"/></g></g><g><g><path d="m359.183 115.234c0-27.711-21.464-48.174-49.174-48.174-27.711 0-50.175 22.464-50.175 50.175s22.464 50.175 50.175 50.175c4.313 0 6.497-.544 10.491-1.568" fill="#faf7f5"/></g><g><g><g><g><circle cx="360.183" cy="156.138" fill="#ff7d97" r="38.903"/></g></g></g></g></g></g><g><g><g><path d="m255.981 338.191c-4.186 0-7.991-2.698-9.407-6.631-1.39-3.865-.202-8.335 2.938-10.991 3.283-2.777 8.092-3.121 11.745-.864 3.506 2.166 5.324 6.412 4.523 10.446-.916 4.618-5.096 8.04-9.799 8.04z"/></g></g><path d="m450.006 193.617c-5.356-22.296-20.024-40.829-44.819-56.613-6.38-14.949-19.998-26.097-36.426-29.016-1.558-13.234-7.389-25.256-16.805-34.405-10.966-10.655-25.864-16.523-41.948-16.523-16.636 0-31.717 6.786-42.62 17.735-13.748-12.145-20.959-25.332-21.458-39.284-.427-11.921 4.39-20.298 4.395-20.308 1.954-3.208 1.946-7.242-.023-10.442s-5.56-5.028-9.311-4.729c-1.044.083-25.869 2.174-50.32 14.208-34.06 16.763-50.747 44.271-48.259 79.551.264 3.738.773 7.401 1.523 10.967-10.233 2.456-22.4 8.638-32.072 20.383-8.317 10.1-17.027 27.285-14.227 53.533-25.716 12.198-37.784 30.221-37.886 56.389-.079 20.204 8.823 38.371 24.578 50.488l33.22 186.574c4.115 23.107 24.135 39.877 47.604 39.877h181.656c23.469 0 43.489-16.77 47.603-39.877l32.968-185.165c21.669-35.978 29.071-66.526 22.627-93.343zm-60.92-37.479c0 15.937-12.966 28.903-28.903 28.903-15.936 0-28.902-12.966-28.902-28.903 0-15.938 12.966-28.903 28.902-28.903 15.937 0 28.903 12.966 28.903 28.903zm-79.078-79.078c20.003 0 35.6 13.166 38.637 31.55-21.415 5.199-37.365 24.536-37.365 47.528 0 .418.005.834.016 1.249-.397.015-.821.023-1.288.023-22.152 0-40.175-18.023-40.175-40.175s18.023-40.175 40.175-40.175zm-202.025 118.865c.404.05 144.997.076 144.997.076 5.522 0 10-4.477 10-10s-4.478-10-10-10h-135.503c-1.502-15.374 1.84-28.449 9.826-38.146 8.141-9.885 19.587-14.387 26.778-14.387h40.75c5.523 0 10-4.477 10-10s-4.477-10-10-10h-30.662c-.934-3.525-1.531-7.193-1.805-11.085-1.885-26.727 10.46-46.906 36.691-59.976 9.81-4.888 19.89-7.918 27.876-9.762-.666 3.641-1.084 7.742-1.021 12.216.202 14.552 5.72 35.693 29.86 56.324-3.803 7.887-5.936 16.724-5.936 26.051 0 33.181 26.994 60.175 60.175 60.175 2.318 0 4.23-.141 5.964-.379 7.849 16.543 24.716 28.01 44.21 28.01 24.226 0 44.394-17.707 48.242-40.858 11.814 10.227 19.103 21.488 22.135 34.106 4.558 18.969-.463 42.113-14.928 68.922h-322.085c-8.996-8.201-13.845-19.365-13.795-32.072.053-13.835 3.565-28.134 28.231-39.215zm147.998 167.657c-5.523 0-10 4.477-10 10v118.419h-32.322l-18.231-204.789h121.107l-18.231 204.789h-32.322v-118.419c-.001-5.523-4.479-10-10.001-10zm-90.828 128.419c-13.762 0-25.501-9.834-27.914-23.383l-32.299-181.406h70.408l18.231 204.789zm209.57-23.384c-2.413 13.549-14.152 23.383-27.914 23.383h-28.426l18.231-204.789h70.408z"/></g></g></svg>