<?xml version="1.0" encoding="iso-8859-1"?>
<!-- Generator: Adobe Illustrator 19.0.0, SVG Export Plug-In . SVG Version: 6.00 Build 0)  -->
<svg version="1.1" id="Capa_1" xmlns="http://www.w3.org/2000/svg" xmlns:xlink="http://www.w3.org/1999/xlink" x="0px" y="0px"
	 viewBox="0 0 512 512" style="enable-background:new 0 0 512 512;" xml:space="preserve">
<circle style="fill:#66C6B9;" cx="256" cy="232.533" r="5.333"/>
<path style="fill:#FFD15C;" d="M38.4,325.333L92.8,489.6c3.2,13.867,16,22.4,29.867,22.4h266.667c13.867,0,25.6-8.533,30.933-22.4
	l54.4-164.267L38.4,325.333L38.4,325.333z"/>
<g>
	<path style="fill:#F7B64C;" d="M256,338.133c-13.867,0-24.533,10.667-24.533,24.533v89.6c0,13.867,10.667,24.533,24.533,24.533
		c13.867,0,24.533-10.667,24.533-24.533v-89.6C280.533,348.8,269.867,338.133,256,338.133z"/>
	<path style="fill:#F7B64C;" d="M162.133,359.467c-4.267-12.8-18.133-19.2-30.933-14.933s-19.2,18.133-14.933,30.933l29.867,84.267
		c4.267,12.8,18.133,19.2,30.933,14.933l0,0c12.8-4.267,19.2-18.133,14.933-30.933L162.133,359.467z"/>
	<path style="fill:#F7B64C;" d="M380.8,344.533c-12.8-4.267-26.667,2.133-30.933,14.933L320,442.667
		c-4.267,12.8,2.133,26.667,14.933,30.933l0,0c12.8,4.267,26.667-2.133,30.933-14.933l29.867-84.267
		C400,362.667,393.6,348.8,380.8,344.533z"/>
</g>
<path style="fill:#F3F3F3;" d="M512,270.933c0,51.2-41.6,92.8-92.8,92.8c-26.667,0-51.2-11.733-68.267-29.867
	c-26.667,20.267-59.733,32-94.933,32s-68.267-11.733-94.933-32C144,352,119.467,363.733,92.8,363.733c-51.2,0-92.8-41.6-92.8-92.8
	s41.6-92.8,92.8-92.8c3.2,0,5.333,0,8.533,0C115.2,105.6,179.2,50.133,256,50.133s140.8,55.467,154.667,128c3.2,0,5.333,0,8.533,0
	C470.4,178.133,512,219.733,512,270.933z"/>
<g>
	<circle style="fill:#66C6B9;" cx="81.067" cy="210.133" r="5.333"/>
	<circle style="fill:#66C6B9;" cx="89.6" cy="270.933" r="3.2"/>
	<circle style="fill:#66C6B9;" cx="103.467" cy="321.067" r="2.133"/>
	<circle style="fill:#66C6B9;" cx="165.333" cy="195.2" r="7.467"/>
	<circle style="fill:#66C6B9;" cx="151.467" cy="277.333" r="3.2"/>
	<circle style="fill:#66C6B9;" cx="206.933" cy="119.467" r="5.333"/>
	<circle style="fill:#66C6B9;" cx="343.467" cy="105.6" r="3.2"/>
	<circle style="fill:#66C6B9;" cx="296.533" cy="106.667" r="1.067"/>
	<circle style="fill:#66C6B9;" cx="276.267" cy="181.333" r="6.4"/>
	<circle style="fill:#66C6B9;" cx="283.733" cy="281.6" r="4.267"/>
	<circle style="fill:#66C6B9;" cx="403.2" cy="251.733" r="1.067"/>
	<circle style="fill:#66C6B9;" cx="446.933" cy="304" r="3.2"/>
	<circle style="fill:#66C6B9;" cx="446.933" cy="208" r="3.2"/>
	<circle style="fill:#66C6B9;" cx="339.2" cy="260.267" r="7.467"/>
</g>
<g>
	<circle style="fill:#415A6B;" cx="216.533" cy="237.867" r="4.267"/>
	<circle style="fill:#415A6B;" cx="36.267" cy="305.067" r="2.133"/>
	<circle style="fill:#415A6B;" cx="45.867" cy="249.6" r="7.467"/>
	<circle style="fill:#415A6B;" cx="132.267" cy="241.067" r="3.2"/>
	<circle style="fill:#415A6B;" cx="260.267" cy="337.067" r="4.267"/>
	<circle style="fill:#415A6B;" cx="274.133" cy="222.933" r="4.267"/>
	<circle style="fill:#415A6B;" cx="358.4" cy="163.2" r="5.333"/>
	<circle style="fill:#415A6B;" cx="406.4" cy="247.467" r="4.267"/>
	<circle style="fill:#415A6B;" cx="393.6" cy="298.667" r="6.4"/>
	<circle style="fill:#415A6B;" cx="466.133" cy="256" r="4.267"/>
	<circle style="fill:#415A6B;" cx="245.333" cy="129.067" r="4.267"/>
	<circle style="fill:#415A6B;" cx="243.2" cy="78.933" r="2.133"/>
	<circle style="fill:#415A6B;" cx="160" cy="129.067" r="2.133"/>
</g>
<circle style="fill:#8AD7F8;" cx="194.133" cy="297.6" r="1.067"/>
<path style="fill:#F3705A;" d="M256,227.2c0,0,136.533-67.2,136.533-156.8c0-38.4-32-70.4-70.4-70.4C291.2,0,265.6,19.2,256,46.933
	C246.4,19.2,219.733,0,189.867,0c-39.467,0-70.4,32-70.4,70.4C119.467,162.133,256,227.2,256,227.2z"/>
<g>
	<path style="fill:#F05540;" d="M272,218.667c-9.6,5.333-16,8.533-16,8.533S119.467,162.133,119.467,70.4
		c0-36.267,27.733-66.133,62.933-70.4c-18.133,12.8-29.867,34.133-29.867,57.6C148.267,114.133,203.733,166.4,272,218.667z"/>
</g>
<path style="fill:#FFFFFF;" d="M355.2,35.2c12.8,11.733,18.133,25.6,12.8,32c-5.333,6.4-20.267,2.133-33.067-9.6
	c-12.8-11.733-18.133-25.6-12.8-32C327.467,19.2,342.4,23.467,355.2,35.2z"/>
<g>
</g>
<g>
</g>
<g>
</g>
<g>
</g>
<g>
</g>
<g>
</g>
<g>
</g>
<g>
</g>
<g>
</g>
<g>
</g>
<g>
</g>
<g>
</g>
<g>
</g>
<g>
</g>
<g>
</g>
</svg>
