<svg version="1.2" xmlns="http://www.w3.org/2000/svg" viewBox="0 0 286 286" width="140" height="286">
	<title>Sweet 06-ai</title>
	<defs>
		<radialGradient id="g1" cx="143.1" cy="143" r="559.4" gradientUnits="userSpaceOnUse">
			<stop offset="0" stop-color="#c69c6d"/>
			<stop offset="1" stop-color="#42210b"/>
		</radialGradient>
		<radialGradient id="g2" cx="139.4" cy="147.8" r="77.9" gradientUnits="userSpaceOnUse">
			<stop offset="0" stop-color="#754c24"/>
			<stop offset="1" stop-color="#42210b"/>
		</radialGradient>
	</defs>
	<style>
		.s0 { fill: url(#g1) } 
		.s1 { fill: #000000 } 
		.s2 { fill: #b73c35 } 
		.s3 { fill: url(#g2) } 
		.s4 { fill: #ffffff } 
		.s5 { fill: #911916 } 
		.s6 { fill: #d1493d } 
		.s7 { fill: #b32825 } 
		.s8 { fill: #ed3624 } 
		.s9 { fill: #6d451c } 
		.s10 { fill: #bb814d } 
		.s11 { fill: #dbdbe5 } 
		.s12 { fill: #f5f3e9 } 
		.s13 { fill: #ea4361 } 
	</style>
	<g id="Layer 1">
		<g id="&lt;Group&gt;">
			<path id="&lt;Path&gt;" class="s0" d="m0.1 0h286v286h-286z"/>
			<path id="&lt;Compound Path&gt;" fill-rule="evenodd" class="s1" d="m240.8 203.2l4.4 16.2c0 0-19.7-16.2-32.5-13.9 0 0-3-10.1-3.6-10.1q0 0-0.1 0c-14.4 21.4-38.8 35.5-66.5 35.5q-1.2 0-2.4 0-0.1 0-0.1 0-0.3 0.1-0.5 0.3-0.4 0.1-0.7 0.3-0.3 0.1-0.5 0.2-0.4 0.2-0.8 0.4-0.2 0.1-0.4 0.2-0.5 0.2-1 0.4-0.2 0.1-0.4 0.2-0.4 0.2-0.8 0.4-0.2 0-0.4 0.1-0.5 0.3-1 0.5-0.2 0.1-0.5 0.2-0.3 0.1-0.7 0.3-0.2 0.1-0.4 0.2-0.6 0.2-1.1 0.4-0.2 0-0.4 0.1-0.4 0.2-0.8 0.3-0.2 0.1-0.4 0.2-0.5 0.2-0.9 0.3-0.3 0.1-0.5 0.2-0.4 0.1-0.9 0.3-0.2 0.1-0.4 0.1-0.4 0.2-0.8 0.3-0.2 0.1-0.4 0.1-0.5 0.2-1.1 0.4-0.2 0.1-0.4 0.1-0.4 0.1-0.8 0.3-0.2 0-0.4 0.1-0.6 0.1-1.1 0.3-0.2 0-0.4 0.1-0.4 0.1-0.8 0.2-0.2 0.1-0.4 0.1-0.6 0.2-1.1 0.3-0.2 0-0.4 0.1-0.4 0.1-0.8 0.2-0.3 0-0.5 0.1-0.4 0.1-0.9 0.2-0.1 0-0.3 0-0.5 0.1-1.1 0.2-0.2 0.1-0.4 0.1-0.4 0.1-0.8 0.2-0.2 0-0.4 0-0.6 0.1-1.1 0.2-0.2 0-0.4 0-0.4 0.1-0.9 0.2-0.2 0-0.4 0-0.5 0.1-1.1 0.1-0.1 0-0.3 0.1-0.4 0-0.9 0-0.2 0.1-0.4 0.1-0.5 0-1.1 0 0 0-0.1 0 0 0 0 0c-11.2 0.7-22.4-2-32.9-9.8 0 0-17.5-14.2 0.7-36.9q-1.1-0.1-2.1-0.4c-1.5-0.5-6.4-2.6-5.4-10.7q0.2-1.7 0.9-3.6c-3.4-8.8-5.2-18.3-5.2-28.3 0-44.1 35.9-80 80-80q2.4 0 4.8 0.2c2.5-3.3 5.5-6.2 8.9-8.5q0 0 0 0 0.4-0.2 0.7-0.5 0 0 0.1 0 0.1 0 0.2-0.1c-1.6-1.2-2.5-3.1-2.5-5.2 0-2 0.8-3.8 2.1-5-4.2-3.8-9.3-5.2-9.3-5.2v-1.3c4.7 1 8.2 4.3 9.8 6.1 1.2-0.9 2.6-1.4 4.1-1.4 3.8 0 6.8 3 6.8 6.8q0 0.4-0.1 0.8 0.3-0.1 0.6-0.2 0.1 0 0.3 0 0.3-0.1 0.5-0.1 0.2 0 0.4-0.1 0.2 0 0.5-0.1 0.2 0 0.4 0 0.2 0 0.5-0.1 0.2 0 0.4 0 0.2-0.1 0.4-0.1 0.3 0 0.5 0 0.2 0 0.4-0.1 0.3 0 0.5 0 0.2 0 0.4 0 0.3 0 0.6 0 0.1 0 0.3 0 0.5-0.1 0.9-0.1 0.5 0 0.9 0.1 0.2 0 0.3 0 0.3 0 0.7 0 0.1 0 0.3 0 0.3 0 0.6 0 0.1 0.1 0.3 0.1 0.3 0 0.6 0 0.1 0 0.3 0.1 0.3 0 0.6 0 0.1 0.1 0.3 0.1 0.3 0 0.6 0.1 0.1 0 0.3 0 0.3 0.1 0.5 0.1 0.2 0 0.3 0.1 0.3 0 0.6 0.1 0.2 0 0.3 0 0.3 0.1 0.6 0.2 0.1 0 0.3 0 0.3 0.1 0.5 0.2 0.2 0 0.3 0.1 0.3 0 0.6 0.1 0.1 0.1 0.2 0.1 0.3 0.1 0.6 0.2 0.2 0 0.3 0 0.3 0.1 0.6 0.2 0.1 0.1 0.2 0.1 0.3 0.1 0.6 0.2 0.1 0.1 0.2 0.1 0.3 0.1 0.6 0.3 0.1 0 0.2 0 0.3 0.2 0.6 0.3 0.1 0 0.2 0.1 0.3 0.1 0.6 0.3 0.1 0 0.2 0 0.3 0.2 0.6 0.3 0.1 0.1 0.2 0.1 0.3 0.2 0.6 0.3 0.1 0.1 0.1 0.1 0.4 0.2 0.7 0.3 0 0.1 0.1 0.1 0.3 0.2 0.6 0.4 0.1 0 0.1 0 0.4 0.2 0.7 0.4 0 0 0.1 0.1 0.3 0.2 0.6 0.4 0.1 0 0.1 0 0.3 0.2 0.6 0.5 0.1 0 0.1 0 0.3 0.2 0.6 0.5 0.1 0 0.1 0 0.3 0.2 0.6 0.5 0.1 0 0.1 0 0.3 0.3 0.6 0.5 0 0 0.1 0.1 0.3 0.2 0.6 0.5 0 0 0 0 0.3 0.3 0.6 0.5 0.1 0 0.1 0.1 0.3 0.2 0.6 0.5 0 0 0 0 0.3 0.3 0.6 0.6 0 0 0 0 0.3 0.3 0.6 0.6 0 0 0 0c5.1 5.2 8.5 12 9.7 19.4l5.6-4-6.6 24.7c8.1 12.5 12.8 27.4 12.8 43.4q0 1 0 2c7.7 2.6 15.3 7.4 22.8 15l-3.8 8.2-4.6 9.8c0 0 7.1-1.3 16.7 8.7zm-164.8-7.9q0 0 0 0.1 0-0.1 0-0.1z"/>
			<g id="&lt;Group&gt;">
				<g id="&lt;Group&gt;">
					<path id="&lt;Path&gt;" class="s2" d="m70.5 227.7c0 0-17.8-14.5 1.1-37.4l1.3 1.9 4.5 24.1-2.6 9.4z"/>
				</g>
				<g id="&lt;Group&gt;">
					<g id="&lt;Group&gt;">
						<path id="&lt;Path&gt;" class="s3" d="m139.4 225.7c-43.1 0-77.9-34.8-77.9-77.9 0-43 34.8-77.9 77.9-77.9 43.1 0 77.9 34.9 77.9 77.9 0 43.1-34.8 77.9-77.9 77.9z"/>
					</g>
					<g id="&lt;Group&gt;">
						<path id="&lt;Compound Path&gt;" fill-rule="evenodd" class="s4" d="m139.4 227.8c-44.1 0-80-35.9-80-80 0-44.1 35.9-80 80-80 44.1 0 80 35.9 80 80 0 44.1-35.9 80-80 80zm0-155.7c-41.8 0-75.8 34-75.8 75.7 0 41.8 34 75.8 75.8 75.8 41.8 0 75.7-34 75.7-75.8 0-41.7-33.9-75.7-75.7-75.7z"/>
					</g>
				</g>
				<g id="&lt;Group&gt;">
					<g id="&lt;Group&gt;">
						<path id="&lt;Path&gt;" class="s2" d="m233.8 182.8c0 0 7-1.4 16.7 8.7l-12.8 8.6 4.4 16.2c0 0-19.7-16.2-32.5-13.9l9.6-21.8z"/>
					</g>
					<g id="&lt;Group&gt;">
						<path id="&lt;Path&gt;" class="s5" d="m214.4 187.3l13 9.1-17.8 6c0 0-3-10.2-3.6-10.1z"/>
					</g>
					<g id="&lt;Group&gt;">
						<path id="&lt;Path&gt;" class="s2" d="m87.6 206.5c0 0 13.9 11.2 30.4-2 16.5-13.1 73.9-90.9 124.2-39.7l-14.8 31.6c0 0-22.6-12-47.8 4.8-25.2 16.7-71.9 54.2-109.1 26.5z"/>
					</g>
				</g>
				<g id="&lt;Group&gt;">
					<path id="&lt;Path&gt;" class="s6" d="m238.4 173l-11 23.4c0 0-22.6-12-47.8 4.8-18.1 12-47.3 34.8-76.2 36.3-11-0.6-21.5-4.2-30.8-12.4 0 0-15-14.9 0.3-32.9 0 0 8.5 11.4 15 14.5 1.5 1.1 7.6 4.9 15.7 4.1 4.8 0.6 10.6-0.1 17.2-4 16.7-9.9 75.1-68.9 117.6-33.8z"/>
				</g>
				<g id="&lt;Group&gt;">
					<path id="&lt;Compound Path&gt;" fill-rule="evenodd" class="s4" d="m133.3 208.3l0.7-0.5 0.1-0.1 0.4-0.2q0.1-0.1 0.3-0.2 0-0.1 0.1-0.1 0 0 0.1 0 0.1-0.1 0.2 0 0 0 0 0.2 0.1 0 0.1 0 0 0.1 0.1 0.3 0.1 0 0.1 0.1 0 0 0.2 0.2l0.1 0.2q0.1 0.1 0.3 0.4 0.1 0.3 0.2 0.4 0.1 0.1 0.1 0.2 0.2 0.2 0.4 0l0.5-0.4 0.8-0.5q0 0 0.1-0.1 0 0 0.1 0 0-0.1 0.1 0l0.3 0.5q0.4 0.6 0.5 0.7l0.1 0.2q0 0.1 0.1 0.2 0 0 0 0.1 0.1 0.1 0.2 0.2 0.1 0.2-0.3 0.5-0.1 0.1-0.3 0.2l-0.2 0.1-0.1 0.1q-0.2 0.1-0.3 0.1 0 0-0.1 0.1l-0.1 0.1q-0.3 0.2 0 0.7 0.1 0.2 0.3 0.5 0.6 0.7 1.7 2.4l0.9 1.3q0.4 0.6 0.3 0.9-0.1 0.3-1.3 1-0.7 0.5-0.9 0.5-0.1 0-0.1-0.1-0.1-0.1-0.1-0.2-0.4-0.6-0.4-0.6l-0.8-1.2-1-1.7q-0.7-1.1-1-1.6 0 0 0-0.1-0.2-0.2-0.4-0.1 0 0.1-0.3 0.2l-0.1 0.1-0.1 0.1q-0.2 0.1-0.3 0.1-0.1 0.1-0.5 0.4-0.1 0.1-0.1 0.1-0.3 0.2-1.1-1.1-0.1-0.2-0.3-0.5-0.1-0.3-0.2-0.4-0.1-0.2 0-0.3 0.1 0 0.3-0.1 0.3-0.1 0.5-0.2 0.1-0.1 0.3-0.3 0.2-0.1 0.3-0.2l0.1-0.1q0.1 0 0.1 0 0.1-0.1 0-0.2l-0.1-0.1-0.3-0.6-0.4-0.6-0.3-0.5q-0.1-0.1-0.1-0.2 0 0 0-0.1h0.1zm0.4 3.4l-0.4 0.3v0.1l0.4-0.1 0.5-0.4zm0.9-3.4l-0.1 0.3 0.2 0.4 0.1-0.5zm0.1 2.6h0.3l0.1-0.4zm1.5 0.6l1.2 1.5 1 1.5 0.4 0.7v-0.4l-0.3-0.5-0.6-0.9-0.6-0.9-0.3-0.3zm0.3-1l0.6-0.2 0.3-0.2 0.2-0.2 0.8-0.5-0.2-0.1-0.8 0.6zm2.9 5.1l0.1 0.7 0.2 0.4 0.2 0.4 0.3 0.4v-0.3l-0.3-0.5z"/>
					<path id="&lt;Compound Path&gt;" fill-rule="evenodd" class="s4" d="m144.5 204.1l0.6-0.5 0.8-0.5q0.2-0.1 0.3-0.1 0.1-0.1 0.1-0.1l0.3-0.2q0.1 0 0.5 0.5 0.5 0.7 1.7 2.2l2 3.3q0.5 0.6 0.7 0.9 0.1 0.1 0.1 0.2 0.1 0.1 0.1 0.1v0.1l0.1 0.1 0.1 0.1v0.1l0.1 0.1q0 0-0.1 0.1l-0.2 0.1q-0.6 0.5-0.7 0.5l-0.7 0.6q-0.3 0.1-0.4 0l-0.3-0.4q-0.2 0.2-0.3 0.6-0.3 0.7-0.7 1-0.7 0.4-2.2 0.8-1.5 0.4-2.6 0.1-1.5-0.4-2.5-2-1.2-1.7-0.7-3.8 0.4-1.8 1.8-2.7 1.2-0.8 1.7-0.8 0.6-0.1 0.6-0.1zm-2.5 4.8l-0.3 0.7h0.3zm-0.3-1.1l0.4-0.4-0.4 0.1zm0.5 4.4l0.4 0.4 0.2-0.4zm0.7-6.9h0.6l0.8-0.1 0.4-0.1 0.2-0.2zm1.2 2.2q-0.9 0.5-0.9 1.4-0.1 0.6 0.3 1.2 0.5 0.7 1 0.9 0.3 0.1 0.9 0 0.5 0 0.8-0.2 0.7-0.4 0.9-0.9 0.1-0.3 0-1.1-0.1-0.5-0.4-0.9-0.2-0.4-0.6-0.6-0.3-0.1-0.7-0.1-0.4-0.1-0.6 0-0.5 0.1-0.7 0.3zm3.7 5l0.1-0.2-0.6 0.3-0.7 0.4-0.8 0.2h-0.4l-0.6 0.3 1.5-0.2zm-1.5-9.3l0.1 0.6 0.3-0.1zm0.1 1.8l0.3 0.4 0.4 0.2-0.2-0.6zm2.8 3l0.2 0.5 0.6 0.7 0.4 0.7 0.4 0.1-0.9-1.2z"/>
					<path id="&lt;Compound Path&gt;" fill-rule="evenodd" class="s4" d="m151.7 202.2v0.1l0.2 0.2q0.1 0.1 0.2 0.1 0.3 0.1 1 0 1-0.1 1.6 0 1 0.3 1.7 1.2 0.4 0.5 0.4 0.8l0.1 0.7q0.1 0.5 0.1 0.6 0 0.4-0.4 1-0.4 0.6-1 1-0.7 0.5-1.9 0.5-0.5-0.1-1.1-0.4-0.4-0.1-0.5-0.2-0.1-0.3 0.2-0.9 0.4-0.4 0.4-0.7 0.2-0.5 0.3-0.6 0.1 0 0.3 0.1 0.3 0.2 0.5 0 0.1 0 0.1-0.1 0.1-0.1 0.1-0.1 0.1-0.1 0.1-0.1l-0.2-0.3q-0.3-0.3-1.2-0.1-1.2 0.3-1.8 0-0.5-0.2-0.9-0.6-0.5-0.4-0.7-0.7-0.6-0.8-0.4-2 0.3-1.1 1.2-1.8 0.7-0.5 1.8-0.4 0.2 0 1.2 0.4 0.5 0.2 0.6 0.3 0 0-0.1 0.2 0 0-0.1 0.4 0 0.1-0.4 0.7-0.3 0.4-0.5 0.8-0.4-0.3-0.5-0.3-0.1-0.1-0.3 0.1zm-0.7-2.3l-1 0.8-0.5 0.6v0.6l0.3-0.5 0.1-0.2 0.5-0.6 0.4-0.3zm-0.8 3h-0.3v0.2l0.4 0.1zm0.6 1l0.6 0.2 0.7-0.3h0.5l-0.1-0.2-0.3 0.1-0.4 0.1-0.3 0.1zm0.7-3.8l0.3 0.3 0.3-0.1v-0.2zm3.2 7.7l-1-0.3-0.2-0.1-0.5 0.1 0.6 0.2zm-1.4-4.4l0.5 0.2 0.3 0.1h0.4l0.4 0.1 0.4 0.1-0.2-0.3-0.4-0.1-0.5-0.1zm2.1 3h-0.5l0.2 0.2zm0.5-1.7l0.1 0.7h0.3z"/>
					<path id="&lt;Compound Path&gt;" fill-rule="evenodd" class="s4" d="m154.7 194l0.8-0.5v-0.1l0.4-0.2q0.2-0.1 0.3-0.2 0.1-0.1 0.1-0.1 0.1 0 0.2 0 0.1 0 0.1 0 0 0.1 0.1 0.2 0 0.1 0 0.1 0.1 0.1 0.2 0.2 0 0.1 0.1 0.2 0 0 0.1 0.2l0.1 0.2q0.1 0.1 0.2 0.4 0.2 0.3 0.3 0.4 0.1 0.1 0.1 0.2 0.1 0.2 0.4 0l0.5-0.4 0.8-0.4q0-0.1 0.1-0.1 0-0.1 0.1-0.1 0 0 0.1 0.1l0.3 0.5q0.4 0.6 0.4 0.7l0.1 0.2q0.1 0.1 0.1 0.2 0 0 0.1 0.1 0.1 0.1 0.1 0.2 0.2 0.2-0.3 0.5-0.1 0-0.3 0.2l-0.2 0.1h-0.1q-0.2 0.2-0.3 0.2 0 0-0.1 0l-0.1 0.1q-0.3 0.2 0 0.7 0.1 0.2 0.3 0.5 0.5 0.8 1.6 2.5l0.8 1.4q0.4 0.6 0.3 0.9-0.1 0.2-1.3 0.9-0.8 0.4-0.9 0.5-0.1 0-0.2-0.1 0-0.1-0.1-0.2-0.3-0.7-0.3-0.7l-0.8-1.2-0.9-1.7q-0.7-1.1-0.9-1.6-0.1-0.1-0.1-0.1-0.1-0.3-0.3-0.1-0.1 0-0.3 0.2h-0.1l-0.2 0.1q-0.2 0.1-0.3 0.2-0.1 0-0.5 0.3 0 0.1-0.1 0.1-0.3 0.2-1-1.1-0.1-0.2-0.3-0.6-0.1-0.2-0.2-0.3-0.1-0.3 0-0.3 0.1-0.1 0.3-0.1 0.3-0.2 0.5-0.2 0.1-0.1 0.3-0.3 0.2-0.2 0.3-0.2l0.1-0.1q0.1 0 0.1 0 0.1-0.1 0.1-0.2l-0.1-0.1-0.4-0.6-0.3-0.6-0.3-0.5q-0.1-0.1-0.1-0.2 0-0.1 0-0.1h0.1zm0.3 3.4l-0.4 0.2v0.2l0.4-0.1 0.4-0.4zm1.1-3.4l-0.1 0.3 0.2 0.4 0.1-0.5zm0 2.7l0.3-0.1 0.2-0.4zm1.4 0.7l1.2 1.5 0.9 1.6 0.4 0.6v-0.3l-0.3-0.5-0.5-0.9-0.6-0.9-0.3-0.4zm0.3-1l0.6-0.1 0.3-0.2 0.3-0.2 0.7-0.5-0.2-0.1-0.8 0.5zm2.8 5.3v0.7l0.2 0.3 0.2 0.5 0.3 0.4v-0.3l-0.3-0.5z"/>
					<path id="&lt;Compound Path&gt;" fill-rule="evenodd" class="s4" d="m167.2 190.5q0.3-0.1 1-0.3 0.1-0.1 0.2-0.1 0 0 0.3-0.2 0.1 0 0.2 0.1 0.1 0.1 0.1 0.9-0.1 0.2 0.2 2.9 0.1 1.2 0.2 2.5 0.2 1.8 0.2 1.9 0.2 0.9 0.2 1.2-0.1 0.6-0.1 1.2l0.2 1.2v0.9q0.1 0.6 0.1 0.7-0.1 0.2-0.2 0.2l-0.2 0.1-1 0.4-0.8 0.5-0.4 0.2q0 0 0-0.1-0.1-0.1-0.2-0.3-0.1-0.1-0.2-1.4v-1.1l-0.1-1.2v-0.3q0-0.3-0.1-0.6-0.2-0.4-0.9-1.1-0.9-0.8-1.9-2.1-1.1-1.3-1.6-1.7-1.1-1.2-1.3-1.5 0-0.1 0.1-0.2 0 0 0.2 0 0.1-0.1 0.1-0.1 0.3-0.1 0.9-0.5 0.6-0.3 1-0.5 0.1 0 0.3 0 0.2 0.1 0.8 0.9l1.2 1.3q0.6 0.8 0.9 1.2-0.1-0.8-0.1-1.3-0.2-0.9-0.2-1.3 0-0.5-0.1-1.1-0.1-0.4-0.1-0.7 0.8-0.4 1.1-0.6zm-4.9 2.6l0.4 0.7v-0.5zm0.8 0.9l1.1 1.1 1.3 1.7-1.2-1.9zm3.5 4.2l0.8 0.6-0.2-0.4zm1.4-7l-0.1 0.4 0.3-0.1zm0.1 4l0.3 1.4 0.2 2.6 0.2-0.3-0.1-0.5-0.1-1.4v-0.3l-0.1-0.5zm0.4-2.6l-0.3 0.3 0.2 0.2zm0 7.6v-0.2l-0.1-0.4-0.2 0.4zm0.1-5l-0.1 0.4h0.2v-0.1zm0.5 5.2l-0.3 2.6 0.3 0.5-0.1-0.5 0.1-0.4z"/>
					<path id="&lt;Compound Path&gt;" fill-rule="evenodd" class="s4" d="m168.9 185.2l0.8-0.3 1.5-0.5q0.2 0 0.3 0 0.1 0.1 0.3 0.5 0 0 0.3 0.8 0.2 0.5 0.3 0.9 0.2 0.3 0.3 0.8 0.3 1.3 0.4 1.5 0 0.1 0.4 1.1 0.2 0.5 0.4 1.1 0.1 0.4 0.3 0.9 0.1 0.3 0.1 0.5l0.3 0.7q0 0.2 0.1 0.3 0 0.3 0 0.3l0.2 0.5q0.1 0.1-0.1 0.3-0.1 0.1-0.4 0.2l-0.2 0.1q-0.1 0-0.1 0-0.2 0.1-0.8 0.3-0.1 0.1-0.2 0.1-0.6 0.2-0.7 0-0.1-0.1-0.6-1.2-0.2-0.6-0.3-1l-1.3-3.8-0.6-2.1zm1 1l0.5 1.6 1 2.5-0.1-0.9-0.6-1.4-0.3-0.9-0.5-1.6zm2.4 4.2l0.1 1.2 0.4 0.4zm3.3 5.7q0.1 0.4-0.1 0.9-0.2 0.7-0.6 0.8-0.7 0.2-1.4-0.1-0.6-0.2-0.7-0.7-0.1-0.4 0-0.9 0.2-0.7 0.7-0.9 0.4-0.1 0.6-0.1 1.2 0.1 1.5 1zm-1.6 0.9l-0.1 0.5 0.3-0.3zm0.9-0.4v0.4l-0.3 0.3 0.6-0.2v-0.2z"/>
				</g>
				<g id="&lt;Group&gt;">
					<g id="&lt;Group&gt;">
						<path id="&lt;Path&gt;" class="s7" d="m144.4 42.2c6.6 1.4 10.8 7.2 10.8 7.2l-0.4 0.3c-4.4-4.6-10.4-6.2-10.4-6.2z"/>
						<path id="&lt;Path&gt;" class="s8" d="m158.3 60.4c-3.7 0-6.8-3-6.8-6.7 0-3.8 3.1-6.8 6.8-6.8 3.8 0 6.8 3 6.8 6.8 0 3.7-3 6.7-6.8 6.7z"/>
						<path id="&lt;Path&gt;" class="s4" d="m172.6 124.3c-19.5 0-35.3-15.8-35.3-35.3 0-19.6 15.8-35.4 35.3-35.4 19.6 0 35.3 15.8 35.3 35.4 0 19.5-15.7 35.3-35.3 35.3z"/>
						<path id="&lt;Path&gt;" class="s9" d="m197.9 64.3c-2.5 2.3-7.2 0.7-9.3-0.7-2.5-1.6-7-1.5-10.3 0.7-3.3 2.1-5.8 1.3-10.8-1.6-5-2.9-6 0-12.4 1.3-3.6 0.7-5.9 0.2-7.2-0.3 6.4-6.2 15.1-10.1 24.7-10.1 9.9 0 18.9 4.1 25.3 10.7z"/>
						<path id="&lt;Path&gt;" class="s9" d="m155 73c-1.1 0-1.9-0.8-1.9-1.9 0-1.1 0.8-2 1.9-2 1.1 0 2 0.9 2 2 0 1.1-0.9 1.9-2 1.9z"/>
						<path id="&lt;Path&gt;" class="s9" d="m159.3 74.1c-0.4 0-0.8-0.3-0.8-0.7 0-0.4 0.4-0.8 0.8-0.8 0.4 0 0.7 0.4 0.7 0.8 0 0.4-0.3 0.7-0.7 0.7z"/>
						<path id="&lt;Path&gt;" class="s9" d="m173.8 81.9c-0.4 0-0.7-0.3-0.7-0.7 0-0.4 0.3-0.7 0.7-0.7 0.4 0 0.7 0.3 0.7 0.7 0 0.4-0.3 0.7-0.7 0.7z"/>
						<path id="&lt;Path&gt;" class="s9" d="m176 79.6c-0.3 0-0.5-0.2-0.5-0.5 0-0.2 0.2-0.4 0.5-0.4 0.2 0 0.4 0.2 0.4 0.4 0 0.3-0.2 0.5-0.4 0.5z"/>
						<path id="&lt;Path&gt;" class="s9" d="m183.3 85.6c-0.2 0-0.5-0.2-0.5-0.4 0-0.3 0.3-0.5 0.5-0.5 0.3 0 0.5 0.2 0.5 0.5 0 0.2-0.2 0.4-0.5 0.4z"/>
						<path id="&lt;Path&gt;" class="s9" d="m161.9 80.7c-0.3 0-0.6-0.3-0.6-0.7 0-0.3 0.3-0.6 0.6-0.6 0.4 0 0.7 0.3 0.7 0.6 0 0.4-0.3 0.7-0.7 0.7z"/>
						<path id="&lt;Path&gt;" class="s9" d="m175.9 76.6c-1.2 0-2.2-1-2.2-2.2 0-1.2 1-2.2 2.2-2.2 1.2 0 2.2 1 2.2 2.2 0 1.2-1 2.2-2.2 2.2z"/>
						<path id="&lt;Path&gt;" class="s9" d="m181.7 78.1c-0.5 0-0.9-0.4-0.9-0.9 0-0.5 0.4-0.9 0.9-0.9 0.5 0 0.9 0.4 0.9 0.9 0 0.5-0.4 0.9-0.9 0.9z"/>
						<path id="&lt;Path&gt;" class="s9" d="m195.4 69.9c-0.9 0-1.7-0.8-1.7-1.7 0-0.9 0.8-1.7 1.7-1.7 0.9 0 1.7 0.8 1.7 1.7 0 0.9-0.8 1.7-1.7 1.7z"/>
						<path id="&lt;Path&gt;" class="s9" d="m198.5 71.8c-0.3 0-0.5-0.2-0.5-0.5 0-0.3 0.2-0.6 0.5-0.6 0.3 0 0.5 0.3 0.5 0.6 0 0.3-0.2 0.5-0.5 0.5z"/>
						<path id="&lt;Path&gt;" class="s9" d="m169.9 67.3c-0.6 0-1-0.5-1-1 0-0.6 0.4-1 1-1 0.5 0 1 0.4 1 1 0 0.5-0.5 1-1 1z"/>
						<path id="&lt;Path&gt;" class="s9" d="m160.3 64.6c-0.3 0-0.6-0.3-0.6-0.6 0-0.3 0.3-0.6 0.6-0.6 0.3 0 0.6 0.3 0.6 0.6 0 0.3-0.3 0.6-0.6 0.6z"/>
						<path id="&lt;Path&gt;" class="s9" d="m145.2 70.1c-0.3 0-0.5-0.3-0.5-0.6 0-0.3 0.2-0.6 0.5-0.6 0.4 0 0.6 0.3 0.6 0.6 0 0.3-0.2 0.6-0.6 0.6z"/>
						<path id="&lt;Path&gt;" class="s9" d="m142.7 86.8c-0.9 0-1.6-0.8-1.6-1.7 0-0.9 0.7-1.6 1.6-1.6 1 0 1.7 0.7 1.7 1.6 0 0.9-0.7 1.7-1.7 1.7z"/>
						<path id="&lt;Path&gt;" class="s9" d="m146.1 85.9c-0.3 0-0.6-0.2-0.6-0.6 0-0.3 0.3-0.5 0.6-0.5 0.3 0 0.6 0.2 0.6 0.5 0 0.4-0.3 0.6-0.6 0.6z"/>
						<path id="&lt;Path&gt;" class="s9" d="m148.9 79.3c-0.5 0-0.8-0.3-0.8-0.7 0-0.4 0.3-0.8 0.8-0.8 0.4 0 0.7 0.4 0.7 0.8 0 0.4-0.3 0.7-0.7 0.7z"/>
						<path id="&lt;Path&gt;" class="s9" d="m184 69.3c-0.4 0-0.7-0.3-0.7-0.8 0-0.4 0.3-0.7 0.7-0.7 0.4 0 0.8 0.3 0.8 0.7 0 0.5-0.4 0.8-0.8 0.8z"/>
						<path id="&lt;Path&gt;" class="s9" d="m140.1 80.4c-0.3 0-0.4-0.2-0.4-0.4 0-0.2 0.1-0.4 0.4-0.4 0.2 0 0.3 0.2 0.3 0.4 0 0.2-0.1 0.4-0.3 0.4z"/>
						<path id="&lt;Path&gt;" class="s9" d="m161.4 86.2c-0.4 0-0.8-0.3-0.8-0.7 0-0.5 0.4-0.8 0.8-0.8 0.4 0 0.7 0.3 0.7 0.8 0 0.4-0.3 0.7-0.7 0.7z"/>
						<path id="&lt;Path&gt;" class="s9" d="m192.8 86.1c-0.8 0-1.5-0.7-1.5-1.5 0-0.9 0.7-1.5 1.5-1.5 0.9 0 1.6 0.6 1.6 1.5 0 0.8-0.7 1.5-1.6 1.5z"/>
						<path id="&lt;Path&gt;" class="s9" d="m195.3 83.2c-0.3 0-0.6-0.2-0.6-0.5 0-0.3 0.3-0.6 0.6-0.6 0.3 0 0.5 0.3 0.5 0.6 0 0.3-0.2 0.5-0.5 0.5z"/>
						<path id="&lt;Path&gt;" class="s9" d="m205.4 84.8c-0.5 0-0.9-0.3-0.9-0.8 0-0.4 0.4-0.8 0.9-0.8 0.4 0 0.8 0.4 0.8 0.8 0 0.5-0.4 0.8-0.8 0.8z"/>
						<path id="&lt;Path&gt;" class="s9" d="m189.4 75.6c-0.3 0-0.5-0.2-0.5-0.5 0-0.2 0.2-0.4 0.5-0.4 0.3 0 0.5 0.2 0.5 0.4 0 0.3-0.2 0.5-0.5 0.5z"/>
					</g>
					<g id="&lt;Group&gt;">
						<path id="&lt;Path&gt;" class="s10" d="m199 128.2h-26.2-26.6l-12.3-45.8 14.1 10.2c0.1-6.8 5.6-12.2 12.4-12.2 6.1 0 11.2 4.3 12.2 10.1 1.1-5.8 6.1-10.2 12.2-10.2 6.8 0 12.3 5.5 12.4 12.3l14.1-10.2z"/>
					</g>
					<path id="&lt;Compound Path&gt;" fill-rule="evenodd" class="s11" d="m213.2 79.7l-13.3 49.6h-27.1-27.5l-13.3-49.6 15.1 10.8c1.1-6.4 6.7-11.3 13.3-11.3 5.3 0 10 3.1 12.2 7.7 2.2-4.6 6.9-7.7 12.2-7.7 6.7 0 12.3 4.9 13.3 11.3zm-39.3 10.3v37.1h12.6l9.6-34.4c-0.1-6.2-5.1-11.2-11.3-11.2-5.2 0-9.6 3.6-10.9 8.5zm-24.7 2.5l9.6 34.6h12.9v-35.4l-0.2-0.9c-1-5.4-5.6-9.3-11-9.3-6.1 0-11.1 4.9-11.3 11zm-2.1 34.6h9.4l-9.4-33.7-11.3-8.1zm62.4-41.9l-11.2 8.1-9.3 33.8h9.3z"/>
				</g>
				<g id="&lt;Group&gt;">
					<g id="&lt;Group&gt;">
						<g id="&lt;Group&gt;">
							<path id="&lt;Compound Path&gt;" fill-rule="evenodd" class="s12" d="m88.3 159.3c-4.1 1.5-8 2.1-11.7 2-6.6-0.3-9.6-3.5-10.9-6.2-1.5-2.8-2.3-7.7 2.6-14.2q0.6-0.8 1.4-1.7-0.1-0.1-0.1-0.3c-0.6-1.9-0.6-4.1 0-6.7 0.5-2.1 1.4-4.4 2.8-7 1.5-2.6 3.5-5.2 6.2-8 2.2-2.1 5-4.1 8.5-6 2.3-1.2 4.5-2.2 6.6-2.9q1.5-0.5 2.9-0.9c3.8-1 6.9-1.1 9.5-0.3 2.2 0.7 3.9 2.3 4.8 4.3 1 2.4 0.7 5.2-0.9 8.2q-0.9 1.9-2.4 3.7 1 0.9 1.6 1.7c2.7 3.5 3 8.1 1.1 13.6-1.9 5.3-4.9 9.7-9.1 13.2-3.9 3.2-8 5.6-12.2 7.2zm-5.5-14q0.3 0 0.6 0 2-0.2 4.4-1c1.8-0.7 3.3-1.5 4.8-2.6q1.4-1.1 2-2.3-0.3-0.1-0.8-0.2-1.4-0.1-3.2 0.1c-0.4 2.3-2 4.2-4.2 5q-0.7 0.2-1.5 0.3-0.8 0.2-1.5 0.5-0.3 0.1-0.6 0.2z"/>
							<path id="&lt;Path&gt;" class="s12" d="m115.6 148.1c-1.2 0.5-5.4 1.5-9.1-3.1l-0.3-0.4-0.3-0.6c-1.5-3-2.3-6.3-2.4-10 0-4 0.3-6.3 1.1-7.9 0.7-1.4 1.9-2.7 4.1-4.6 1.9-1.6 3.5-2.6 5-3.3l0.2-0.1 0.3-0.1c1.7-0.6 3.3-0.5 4.5-0.1q0.4-0.2 0.8-0.4c-0.1-0.7-0.1-1.3-0.1-1.6 0.3-1.8 1.2-3 2-4.1q1.9-2.3 4.1-3.8 0.7-0.4 1.5-0.7c1.9-0.7 4-0.5 5.6 0.5 2.9 1.8 3.7 5 4 7.9 0.2 1 0.2 2.3-0.3 5.9-0.3 2.4-0.9 5.1-1.6 7.8-0.7 2.8-1.6 5.5-2.7 7.9-1.6 3.7-3.7 6-6.5 7l-0.3 0.2c-1.7 0.6-3.5 0.6-5.2 0.1q-0.9 1.3-2.1 2.2-1.1 0.9-2.3 1.3z"/>
							<path id="&lt;Path&gt;" class="s12" d="m139.9 139.3q-0.5 0.2-0.9 0.3c-1.9 0.6-3.8 0.5-5.6-0.1q-0.8 0.5-1.7 0.9l-0.2 0.1c-2.3 0.8-4.6 0.4-6.4-1-1.8-1.4-2.6-3.6-2.4-6 0.3-2.6 1.7-4.7 3.8-6l0.3-0.2q0.1-0.1 0.2-0.3c0.1-1.6 0.4-3.3 0.8-5.1 0.6-2.1 1.5-4.3 2.9-6.7 1.9-3 4.3-5.1 7.4-6.2l0.3-0.1 0.4-0.1c4.7-1 7.9 1.5 9 4.4q0.5 1.4 0.6 2.9c1.8 1.4 3.1 3.9 2.4 7-0.5 3.1-1.6 6.1-3.3 9.1-1.9 3.6-4.5 6-7.6 7.1z"/>
							<path id="&lt;Path&gt;" class="s12" d="m151.7 135.1q-0.5 0.2-0.9 0.3c-1.8 0.6-3.8 0.5-5.5-0.1q-0.8 0.5-1.7 0.8l-0.3 0.1c-2.3 0.9-4.6 0.5-6.3-0.9-1.8-1.4-2.7-3.6-2.4-6 0.3-2.6 1.6-4.7 3.7-6l0.3-0.2q0.1-0.2 0.2-0.4c0.1-1.5 0.4-3.2 0.8-5 0.6-2.2 1.5-4.4 3-6.7 1.8-3 4.3-5.1 7.3-6.2l0.3-0.1 0.4-0.1c4.7-1.1 8 1.4 9.1 4.4q0.5 1.4 0.5 2.9c1.9 1.4 3.2 3.9 2.4 7-0.5 3.1-1.6 6.1-3.2 9.1-2 3.6-4.6 6-7.7 7.1z"/>
							<path id="&lt;Path&gt;" class="s12" d="m163.9 130.7q-0.5 0.2-1.1 0.3c-1.5 0.4-3.4 0.4-5.1-0.5q-0.7 0.6-1.4 1l-0.2 0.1-0.2 0.1q-0.5 0.3-0.9 0.4c-2 0.7-4.1 0.5-5.8-0.6-1.7-1.1-2.8-2.9-3-5.1-0.1-1.4 0.1-4.3 3-6.7l0.8-0.8q0.2-0.4 0.4-0.9 0.6-2 0.8-4.1 0.2-1.6 0.3-3.4-0.3-0.3-0.4-0.5c-1.6-2-1.7-4.8-0.3-7.1 0.2-0.3 0.2-0.4 0.3-0.5q0.7-1.5 2-2.6 0.5-1 1.2-1.9c1.3-1.4 3-3 5.4-4.8 2.7-2.1 3.8-2.8 4.9-3.1 1.7-0.6 3.2-0.4 4.1-0.1l3 1.2q0.1 0 0.1-0.1 2.5-1.1 3.5-1.6l0.3-0.3 1.1-0.4c3-1.1 6.4 0.4 7.6 3.3 0.5 1.1 1 3-0.1 5.4-1.2 2.7-2.7 4.8-4.7 6.2-1.5 1.1-3.7 2.1-6.9 3.2l-0.7 0.3q-0.9 0.3-1.6 0.6l2.1 2.7c0.9 1.2 1.7 3.1 1.1 5.9q-0.5 2.6-1.7 5.4c-0.8 2.1-1.7 3.8-2.8 5.2-1.4 1.8-3.1 3.1-5.1 3.8z"/>
						</g>
					</g>
					<g id="&lt;Group&gt;">
						<g id="&lt;Group&gt;">
							<path id="&lt;Compound Path&gt;" class="s13" d="m76.9 155.3q-4.6-0.2-5.9-2.8-1.6-3.2 2-8 3.7-4.8 10.7-7.1 0.9-0.3 1 0.5 0.1 0.8-0.8 0.9-6.2 1.2-7.4 4.9-1.3 3.7 1.9 6.3 2.5 1.5 5.4 1.2 2.9-0.2 6.2-1.4 3.2-1.2 6.1-3.4 2.9-2.2 4.1-5 1.6-3.6-0.3-5.6-1.8-2-5.5-2.5-3.7-0.4-8.6 0.7-4.8 1.1-9.4 3.8-0.8 0.5-1.2-0.7-0.4-1.2 0.2-3.6 0.5-2.3 2.2-5.4 1.8-3.2 5.2-6.7 2.7-2.6 7.1-4.9 4.4-2.3 8.3-3.4 3.9-1 6.1-0.3 2.2 0.7 0.4 4.1-0.9 1.8-2.5 3.6-1.6 1.9-2.4 2.5-0.2 0.3-0.4 0.2-0.2-0.1-0.2-0.2 1.5-2.8-0.6-3.2-2.1-0.3-5.5 0.7-3.4 1-7.2 2.9-3.7 1.8-5.5 3.4-1.6 1.5-2 2.5-0.3 1.1 1.7 0 4.2-2.2 9.2-3.4 5.1-1.1 9.1-0.6 4.1 0.7 6.1 3.3 2 2.7 0.1 8.1-2.2 6.3-7.2 10.5-5.1 4.2-10.5 6.3-5.4 2-10 1.8z"/>
							<path id="&lt;Compound Path&gt;" class="s13" d="m114.1 142.2q-1.3 1.1-2.9-0.9-1.7-3.3-1.7-7.4-0.1-4.1 0.4-5.2 0.5-0.8 2.6-2.6 2.2-1.8 3.6-2.5 1.1-0.4 0.6 0.7-1.1 2.1-1.8 6.1-0.7 4.1 0.4 5.3 0.8 0.9 1.4-1.1 0.6-2.1 1.2-4.7 0.2-0.6 0.6-2.2 0.4-1.5 0.8-2 0.6-0.9 1.5-1.8 0.9-1 1.7-1.3 1-0.3 0.5 0.6-1.1 2.1-0.6 5.6 0.5 3.5 1.4 4.7 1.1 1.4 2.2-0.6 1.2-2.1 1.8-5.3 0.6-3.2 0.4-6.4-0.3-3.2-2.1-4-0.8-0.3-0.8-0.6 0.1-0.2 0.8-1.1 1.3-1.6 2.7-2.5 1.4-1 2 3.5 0.1 1-0.4 4.3-0.4 3.3-1.4 7.1-1 3.8-2.4 7-1.5 3.2-3.3 3.9-1 0.5-2-0.1-1.2-0.7-1.8-2.3-0.6-1.6-0.8-3.4-0.1-1.2-0.4 0-0.5 1.7-1 3.4-0.5 1.7-1 2.9-0.8 1.8-2.2 2.9z"/>
							<path id="&lt;Compound Path&gt;" fill-rule="evenodd" class="s13" d="m128.7 134.2q0.1-1.2 0.9-1.7 1.7-0.5 3-3.7 0.2-0.3 0.3-1.2 0.1-2 0.7-4.3 0.6-2.3 2.2-5 1.7-2.8 4.3-3.7 1.8-0.4 2.2 0.7 0.3 1-0.2 2.7-0.6 1.7-1.8 3.5-1.2 1.9-2.6 3.1-0.2 0.2-0.1 0.6 0.5 1.2 1.3 1.8 0.8 0.6 2 0.1 1.2-0.5 2-2 0.8-1.5 1.3-3.6 0.3-0.8 0.6-0.6 0.4 0.2 0.2 1-0.6 3.7-2.7 7.5-2 3.8-5 4.5-1.2 0.4-2.4-0.2-1.1-0.7-1.9-3-0.1-0.5-0.3-0.1-0.7 1.5-1.4 2.7-0.7 1.2-1.7 1.5-1.1 0.5-0.9-0.6zm8.5-10.5q1.1-1.4 1.3-3 0.1-0.9-0.2-1.8-0.3-0.8-1-0.4-0.6 0.4-0.7 1.2-0.2 0.9-0.1 1.4 0 1.3 0.5 2.6 0.1 0.3 0.2 0z"/>
							<path id="&lt;Compound Path&gt;" fill-rule="evenodd" class="s13" d="m140.5 129.9q0.1-1.1 0.9-1.6 1.7-0.5 3-3.7 0.2-0.4 0.3-1.2 0.1-2 0.7-4.3 0.6-2.3 2.3-5 1.6-2.8 4.2-3.7 1.8-0.4 2.2 0.6 0.4 1.1-0.2 2.8-0.5 1.6-1.7 3.5-1.3 1.9-2.6 3.1-0.3 0.2-0.2 0.6 0.6 1.2 1.4 1.8 0.8 0.6 1.9 0.1 1.2-0.6 2.1-2 0.8-1.5 1.3-3.7 0.2-0.7 0.6-0.5 0.3 0.2 0.1 0.9-0.6 3.8-2.6 7.6-2.1 3.7-5.1 4.5-1.2 0.4-2.3-0.3-1.2-0.7-2-2.9-0.1-0.5-0.3-0.1-0.7 1.5-1.4 2.7-0.7 1.1-1.6 1.5-1.1 0.5-1-0.7zm8.6-10.4q1-1.5 1.2-3 0.1-0.9-0.1-1.8-0.3-0.8-1.1-0.4-0.6 0.4-0.7 1.2-0.1 0.8-0.1 1.4 0 1.3 0.5 2.6 0.1 0.3 0.3 0z"/>
							<path id="&lt;Compound Path&gt;" class="s13" d="m153.3 126.4q-1.1 0.5-1.2-0.4 0-1 1-1.8 0.9-0.2 1.7-1.5 0.7-1.2 1.2-2.9 0.9-2.5 1.1-5.3 0.2-2 0.4-3.9 0.2-1.9 0.6-4.5 0.1-0.4-0.3-0.2l-1.4 0.4q-0.9 0.3-0.5-0.3 0.2-0.4 0.5-1 0.3-0.6 1.5-1.3 0.3-0.2 0.3-0.4 0.1-0.8 0.7-1.5 1.4-1.7 4.4-4 3.1-2.4 3.5-2.3 0.2 0.1-0.1 0.5-0.3 0.4-0.4 0.6-0.8 1.2-1.2 2-0.4 0.8-0.6 1.8-0.2 0.6 0.2 0.4 6.4-2.8 9.7-4.4 3.2-1.5 4.1-2 0.3-0.2 0.4 0 0.1 0.1-0.2 0.5-1 2.7-2.6 3.9-1.7 1.1-6.2 2.7-4.3 1.6-5.6 2-0.5 0.2-0.6 0.7-0.6 2.6-0.9 5.1-0.3 2.5-0.3 4.1-0.2 2.7 0.5 3.9 0.6 1.2 1.5 1.2 1.7-0.2 2.7-4.2 0.2-0.7 0.4-0.4 0.3 0.3 0.1 1.2-0.4 2.1-1.4 4.4-0.9 2.3-2.1 3.8-1.1 1.6-2.8 2-1.5 0.4-2.6-1.8-1-2.1-1.2-4.5-0.1-0.8-0.3-0.1-0.8 2.5-1.8 4.7-1 2.1-2.2 2.8z"/>
						</g>
					</g>
					<g id="&lt;Group&gt;">
						<path id="&lt;Path&gt;" class="s12" d="m92.2 200.2q-3.7 1.1-6.9 1.2c-2.4 0-4.4-0.8-5.9-2.4-2.8-2.9-2.5-7.1-2.4-8.5q0-0.4 0-0.8-0.5 0.2-1 0.4-3.6 1.3-6.9 0.3c-1.5-0.5-6.4-2.6-5.4-10.7 0.3-2.7 1.5-5.6 3.5-8.8 1.6-2.6 3.4-5 5.2-7.1 1.6-1.9 3-3.3 4.3-4.4 3-2.5 6.3-4.7 9.8-6.3q2.6-1.2 5-2.1 2.6-0.9 5.1-1.5c3.6-0.8 6.7-1 9.5-0.6 5.7 0.8 7.9 4.3 8.7 6.2 2 5.6-1.4 11-3.8 14 1.2 0.8 1.9 1.8 2.4 2.7 1 1.7 1.8 4.4 0.7 8-0.6 2-1.6 4-3.1 6.1-1.3 1.8-2.9 3.7-4.8 5.5-1.8 1.8-3.9 3.4-6 4.8q-3.9 2.5-7.6 3.8z"/>
						<path id="&lt;Path&gt;" class="s12" d="m124.3 187.4q-0.8 0.3-1.7 0.5c-0.7 0.1-2 0.1-3.5-0.3-1.3 1.5-2.7 2.3-3.8 2.7l-0.4 0.1c-1.6 0.5-3.2 0.4-4.7-0.1q-0.4 0.1-0.7 0.3h-0.2c-2 0.8-4.2 0.5-5.9-0.6-1.7-1.1-2.7-2.9-2.9-5-0.1-1.4 0.1-4.1 2.7-6.6l1.3-1.2q0 0 0-0.1 0.3-3.3 1.8-7.6l0.1-0.2c1-2.6 2.2-4.8 3.6-6.5 1.6-2 3.4-3.3 5.3-4q0.4-0.1 0.9-0.3c0.9-0.2 3.9-0.7 6.7 1.4l1.8-0.7 2.7 2.2c0.8 0.7 1.4 1.5 1.8 2.5l1.5 0.8c4.5 2.6 2.9 7.7 2.3 9.5-0.8 2.6-1.7 4.9-2.6 7-1.4 3.2-3.5 5.3-6.1 6.2z"/>
						<path id="&lt;Path&gt;" class="s12" d="m126.1 184.7q-0.1 0-0.1 0c-2 0.7-4 0.5-5.7-0.6-1.7-1-2.8-2.8-3-4.9-0.3-2.6 0.8-5.1 2.9-6.9l0.8-0.7h0.1q0.1-0.2 0.2-0.3 0.7-1.4 0.8-3.2c0.1-0.7 0.1-1.6 0-2.5q-0.1-2.1 0-4c0-1.8 0.2-3.4 0.3-4.8 0.3-2 0.7-3.6 1.4-4.9 0.5-0.8 1.3-1.9 2.5-3.1q1.3-1.3 2.9-2.7 2-1.7 3.9-3.2c1.5-1.1 2.4-1.7 3.4-2l1.9-0.7 2.2 0.6 0.5 0.2 0.5 0.3c1.6 0.9 2.6 2.4 3 4.1 0.2 1 0.2 3-1.2 5 2.2 0.2 4.2 1.3 5.4 3.3q1.2 1.9 1.2 4.4 1 0.6 1.7 1.6 1.5 2.4 0.8 5.6c-0.5 2.2-1.3 4.7-2.6 7.7-1.8 4-4.1 6.5-7.1 7.6q-0.3 0.1-0.6 0.2c-2 0.6-4.1 0.5-6-0.3q-0.2 0.3-0.5 0.6-1.2 1.5-2.8 2.8l-0.8 0.7-1.1 0.4-2.8 1z"/>
						<path id="&lt;Path&gt;" class="s12" d="m152.8 177q-0.5 0.1-0.9 0.3c-1.9 0.5-3.8 0.5-5.5-0.1q-0.8 0.5-1.7 0.8l-0.3 0.1c-2.3 0.8-4.6 0.5-6.4-0.9-1.7-1.4-2.6-3.6-2.3-6 0.3-2.6 1.6-4.8 3.7-6.1l0.3-0.2q0.1-0.1 0.2-0.3c0.1-1.5 0.4-3.3 0.8-5.1 0.6-2.1 1.5-4.3 3-6.6 1.8-3.1 4.3-5.1 7.3-6.2l0.3-0.1 0.4-0.1c4.7-1.1 8 1.4 9.1 4.4q0.5 1.3 0.5 2.9c1.8 1.3 3.2 3.8 2.4 7-0.5 3-1.6 6.1-3.2 9.1-2 3.6-4.6 6-7.7 7.1z"/>
						<path id="&lt;Path&gt;" class="s12" d="m167.2 171.8c-2.5 0.9-5.1 0.5-7.2-0.9q-1.3 1.6-2.9 2.6l-0.3 0.1q-0.5 0.3-1 0.4c-2 0.8-4.1 0.5-5.8-0.5-1.7-1.1-2.7-2.9-2.9-5-0.2-1.5 0-4.4 2.9-6.9l0.8-0.6c0.3-0.8 0.6-1.5 0.8-2.4q0.1-0.5 0.2-0.9-0.5-0.6-0.8-1.4-0.9-2.7 0.6-5.7 1-1.9 2.4-3.3c0.9-0.8 1.9-1.5 3.1-2.3q1.8-1.1 3.4-2 1.2-0.6 2.3-1 0.9-0.3 1.6-0.4c3.4-0.7 5.5 1 6.2 1.8 1.3 1.3 1.9 3.1 1.7 5l1.8 1.1c1.4 1 3.5 3.4 2.2 8-0.6 3-1.4 5.5-2.4 7.6-1.7 3.9-4.4 5.7-6.3 6.5l-0.1 0.1z"/>
						<path id="&lt;Path&gt;" class="s12" d="m178.7 184.3q-0.9 0.3-1.8 0.5c-3.8 0.7-6.4-0.5-8-1.7-2-1.5-3.4-3.7-3.9-6.3q-0.6-3.4 0.6-7.2 0.1-0.5 0.3-1-0.5-0.2-0.9-0.5c-1.7-1.1-2.8-2.9-3-5-0.1-1.5 0.1-4.3 3-6.8l0.9-0.8q0.4-0.9 0.6-2.1 0.3-1.1 0.4-2.5 0.3-2.7 1.4-4.7c0.6-1.3 1.7-2.5 3.5-4.1 1.6-1.3 3-2.3 4.3-2.9q0.6-0.4 1.1-0.6c1-0.3 2-0.4 3-0.3q0.4-0.4 0.9-0.7c1.9-1.4 3.3-2.3 4.5-2.8l0.2-0.1c4-1.4 6.5 0.9 7.2 1.6 1.3 1.5 2.2 4.2 0.8 7.2l-0.2 0.4-0.3 0.4q0 0 0 0c0 0-0.3 0.7-0.5 2.6-0.1 2.3-0.2 4.7-0.1 7q0.2 5.6 0 10.5c-0.1 4.5-2 8.9-5.5 13.3q-1.6 2.1-4 4-2.2 1.7-4.5 2.6z"/>
					</g>
					<g id="&lt;Group&gt;">
						<g id="&lt;Group&gt;">
							<path id="&lt;Compound Path&gt;" fill-rule="evenodd" class="s13" d="m85.1 195.5q-2.5 0-2.2-4.7 0.3-4.6 1-9.9 0.5-3.6 0.7-6.7 0.3-3-0.4-4.4-0.2-0.3 2.8-2.6 2.9-2.4 4.2-3.3 0.6-0.4 0.5-0.6-0.2-0.2-1.2 0.1-3.8 1.2-6.7 2.7-3 1.4-5.2 2.9-2.9 2.1-4.2 4-1.6 2.2-1.1 4.2 0.6 1.9 2.1 2.8 1.4 0.8 3.3 0.2 1.8-0.7 2.9-3.6 0.3-1 0.8-0.5 0.5 0.5 0.2 1.1-0.6 1.5-2.9 3.6-2.3 2.1-4.7 3.3-2.4 1.2-4.1 0.6-1.8-0.5-1.3-4.3 0.3-2.7 2.6-6.3 2.3-3.6 4.7-6.5 2.1-2.4 3.7-3.7 3.8-3.3 8.5-5.5 4.6-2.1 8.8-3.1 4.3-0.9 7.4-0.5 3.1 0.5 3.9 2.5 1.3 3.4-4 9.5-2.6 3.1-6.5 6.2-0.6 0.4-0.7 0.7-0.2 0.3 0.7 0 4.2-1 6.5-0.7 2.3 0.4 3.1 1.7 0.7 1.4 0.1 3.4-0.7 2.1-2.3 4.4-1.6 2.3-4 4.6-2.4 2.3-5.2 4.2-3.4 2.1-6.6 3.2-2.8 0.9-5.2 1zm5.1-7.3q0.4 1 1.6 1.3 1.3 0.2 2.8 0.1 1.6-0.3 3-0.9 1.5-0.6 2.9-1.9 2.5-2.4 2-4.1-0.4-1.7-2.5-2.4-2.2-0.8-5-0.7-2.9 0.1-4.9 0.7-0.3 0.2-0.5 1.2-0.2 1.7 0 3.9 0.2 2.1 0.6 2.8zm-0.2-10.3q0.1 0.4 0.5 0.2 3-2 5.9-5 3-3.1 4.6-6.2 1.6-3 0.8-4.1-0.7-1-2.6-1-1.8 0-4.7 0.7-0.4 0.2-0.6 0.6-1.4 3.8-2.2 6.6-0.7 2.7-1.2 5-0.5 2.3-0.5 3.2z"/>
							<path id="&lt;Compound Path&gt;" fill-rule="evenodd" class="s13" d="m106.4 184.5q-0.1-0.8 0.9-1.7 1.3-0.3 2.5-2.9 0.5-1 0.6-2.2 0.3-2.7 1.5-6.3 1.2-3 2.7-4.9 1.6-1.8 3-2.2 2.3-0.5 3.5 3.5 0.1 0.5 1.4-1 1.3-1.4 1.2-0.5-0.5 2-0.7 4.3-0.2 2.2 0.5 3.7 0.8 1.1 2-0.1 0.6-0.7 1.5-3.5 0.4-1 0.8-0.8 0.3 0.2-0.5 2.5-1.1 3.6-2.3 6.4-1.3 2.9-3.3 3.2-1.5 0.2-2.4-1.9-0.9-2.1-1-5.5 0-0.7-0.2-0.6-0.1 0.2-0.2 0.4-0.9 2.5-1.5 4.8-0.6 2.3-1.1 3.3-0.8 1.8-2 2.2-2.2 0.6-2.8-3.4-0.1-0.5-0.3-0.1-0.6 1.4-1.3 2.4-0.6 1.1-1.5 1.4-0.9 0.4-1-0.5zm9.2-9.9q0.3 1 0.7 0.7 0.8-0.5 1.2-2.7 0.5-2.3 0.5-3.2 0.1-3.2-1-3-1 0.3-1.4 1.8-0.3 1.5-0.3 3.5 0 1.8 0.3 2.9z"/>
							<path id="&lt;Compound Path&gt;" class="s13" d="m123.2 178.6q-0.1-1 0.9-1.8 1.4-0.6 2.5-2.9 1.2-2.4 1.4-5.2 0.2-1.7 0.1-3.5-0.1-1.8-0.1-3.4 0.1-2.4 0.3-4.3 0.3-1.8 0.8-2.8 0.3-0.6 1.4-1.7 1.2-1.2 2.6-2.4 1.8-1.6 3.6-2.9 1.7-1.3 2-1.3 0.1 0.2-0.2 0.5-0.3 0.4-0.4 0.7-0.9 1.5-1.8 4.1-0.8 2.5-1.4 5.5-0.9 4-1.4 8.2-0.1 0.7 0.1 0.5 0.2-0.2 0.4-0.5 0.9-1.7 2.3-3.7 3.1-4.4 5.6-5.3 1.3-0.4 1.9 0.4 0.5 0.9 0 2.7-0.7 2.3-2.5 4.1-1.7 1.8-2.6 2.6-0.4 0.3 0.3 1 1.4 1.6 2.7 1.7 1.7 0 2.7-1.4 1-1.3 1.5-3.4 0.2-1.2 0.6-1.2 0.5 0.1 0.2 1.1-0.5 2.7-2.3 6.6-1.7 3.9-3.8 4.5-1.9 0.6-3.6-1.2-1.7-1.8-2.3-3.8-0.3-0.8 0.2-1.4 1.4-1.7 1.9-2.6 0.5-1 0.4-1.6-0.2-0.8-1-0.1-0.7 0.6-1.4 1.7-1 1.8-1.3 4.3-0.3 2.4-0.2 3.6 0 0.9-0.4 1.3-0.7 0.8-1.7 1.9-1 1.2-2.1 2.2-0.5 0.4-0.6-1.7-0.1-1-0.2-2.1 0-1.1-0.1-2.4 0-0.4-0.2 0-0.7 2.2-1.7 3.7-0.9 1.5-2 2.1-1 0.6-1.1-0.4z"/>
							<path id="&lt;Compound Path&gt;" fill-rule="evenodd" class="s13" d="m141.6 171.8q0.1-1.1 0.9-1.6 1.7-0.5 3-3.7 0.2-0.4 0.3-1.2 0.1-2 0.7-4.3 0.6-2.3 2.2-5.1 1.7-2.7 4.3-3.6 1.8-0.4 2.2 0.6 0.4 1.1-0.2 2.7-0.5 1.7-1.7 3.6-1.3 1.9-2.6 3.1-0.3 0.2-0.2 0.6 0.6 1.2 1.4 1.8 0.8 0.6 1.9 0.1 1.2-0.6 2-2.1 0.9-1.4 1.4-3.6 0.2-0.8 0.6-0.5 0.3 0.2 0.1 0.9-0.6 3.8-2.6 7.6-2.1 3.7-5.1 4.5-1.2 0.4-2.3-0.3-1.2-0.7-2-3-0.1-0.4-0.3 0-0.7 1.5-1.4 2.7-0.7 1.1-1.6 1.5-1.1 0.4-1-0.7zm8.6-10.4q1-1.5 1.2-3 0.1-0.9-0.1-1.8-0.3-0.8-1.1-0.4-0.6 0.4-0.7 1.2-0.1 0.8-0.1 1.3 0 1.4 0.5 2.7 0.1 0.2 0.3 0z"/>
							<path id="&lt;Compound Path&gt;" class="s13" d="m153 167.9q-0.1-0.9 0.9-1.8 1.2-0.3 2-2.1 0.9-1.8 1.4-3.9 1-3.8 0.7-5.9 0-0.2-0.2-0.1-0.6 0.5-1 0.3-0.4-0.1 0.1-1.1 0.5-0.9 1.2-1.6 0.8-0.7 2.3-1.7 1.5-1 2.9-1.7 1.3-0.7 2.3-0.9 1-0.2 0.8 0.6-0.7 1.4-1 2.6-0.3 1.2-0.5 2.6-0.1 0.7 0.1 2.1 0.2 1.4 0.7 2.5 0.5 1.1 1.3 1.5 0.8 0.4 1.5-0.5 0.8-1 1.6-3.6 0.2-1.1 0.6-0.8 0.3 0.2-0.1 1.6-0.9 4-2.1 6.6-1.2 2.7-3.2 3.5-1.7 0.7-3-1-1.3-1.7-1.4-4.8-0.2-3.1 1.4-7 0.6-1.1-0.1-1.1-0.7 0-1.8 0.4-0.2 0.2-0.3 0.5-0.2 1.6-0.7 3.5-0.4 2-1 3.9-0.9 2.7-1.9 4.9-1.1 2.2-2.4 2.9-1 0.6-1.1-0.4z"/>
							<path id="&lt;Compound Path&gt;" fill-rule="evenodd" class="s13" d="m167.9 162.6q0-0.9 1-1.8 1.2-0.4 2.1-2.2 1-1.9 1.4-4.1 0.2-1.2 0.4-2.9 0.2-1.6 0.8-2.8 0.3-0.7 2.1-2.2 1.8-1.5 3.1-2.2 1.5-0.7 0.5 0.8-0.9 1.5-1.5 5.1-0.6 3.7 0.1 5.1 0.6 1 1.3-0.7 0.7-1.7 1.4-4.2 0.4-1.8 0.9-3.5 0.4-1.7 0.7-2.3 0.4-0.8 2.5-2.4 2.1-1.6 3.1-2 1.1-0.4 0.6 0.6-1.2 1.7-1.5 5.6-0.3 3.8-0.1 7.6 0.2 5.4 0 10.1-0.2 4.7-4.2 9.8-1.2 1.5-3.1 3.1-1.9 1.5-3.8 1.9-1.9 0.3-3.2-0.6-1.3-1-1.7-2.8-0.3-1.8 0.5-4.2 0.7-2.5 2.9-5 3-3.4 7.9-5.9 0.2-0.2 0.2-0.4-0.1-1-0.2-2-0.1-1-0.2-2-0.2-2.3-0.2-3.9-0.1-0.4-0.2-0.4-0.1-0.1-0.2 0.3-0.8 2.8-2.3 6.3-1.5 3.5-3.3 4-1.4 0.4-2.2-0.7-0.8-1.2-1-3.1-0.1-0.6-0.4-0.1-1.5 3.6-3 4.5-1.1 0.5-1.2-0.4zm14.4-0.7q-3.3 1-5.4 3.1-1.9 1.8-2.4 4.2-0.4 2.4 0 4.3 0.4 1.7 1.4 2.6 1 0.9 2.4 0.5 2.1-0.8 3.2-3.2 1.1-2.5 1.2-5.3 0.1-1.5 0.1-2.9-0.1-1.5-0.2-3-0.1-0.3-0.3-0.3z"/>
						</g>
					</g>
				</g>
			</g>
		</g>
	</g>
</svg>