<?xml version="1.0" encoding="iso-8859-1"?>
<!-- Generator: Adobe Illustrator 19.0.0, SVG Export Plug-In . SVG Version: 6.00 Build 0)  -->
<svg version="1.1" id="Capa_1" xmlns="http://www.w3.org/2000/svg" xmlns:xlink="http://www.w3.org/1999/xlink" x="0px" y="0px"
	 viewBox="0 0 376 376" style="enable-background:new 0 0 376 376;" xml:space="preserve">
<path style="fill:#CCE4FF;" d="M316,136c0,23.36-6.24,45.2-17.12,64L188,368L77.12,200C66.24,181.2,60,159.36,60,136
	C60,65.28,117.28,8,188,8S316,65.28,316,136z M252,136c0-35.36-28.64-64-64-64s-64,28.64-64,64s28.64,64,64,64S252,171.36,252,136z"
	/>
<g>
	<path style="fill:#007AFF;" d="M70.44,204.408l110.88,168c1.488,2.24,3.992,3.592,6.68,3.592s5.192-1.352,6.68-3.592l111.128-168.4
		C317.712,183.432,324,159.912,324,136C324,61.008,262.992,0,188,0S52,61.008,52,136c0,23.912,6.288,47.432,18.192,68
		C70.272,204.144,70.352,204.28,70.44,204.408z M188,16c66.168,0,120,53.832,120,120c0,21.104-5.544,41.848-15.8,59.592L188,353.48
		L83.928,195.8C73.504,177.704,68,157.032,68,136C68,69.832,121.832,16,188,16z"/>
	<path style="fill:#007AFF;" d="M188,208c39.704,0,72-32.304,72-72s-32.296-72-72-72s-72,32.304-72,72S148.296,208,188,208z M188,80
		c30.872,0,56,25.12,56,56s-25.128,56-56,56s-56-25.12-56-56S157.128,80,188,80z"/>
</g>
<g>
</g>
<g>
</g>
<g>
</g>
<g>
</g>
<g>
</g>
<g>
</g>
<g>
</g>
<g>
</g>
<g>
</g>
<g>
</g>
<g>
</g>
<g>
</g>
<g>
</g>
<g>
</g>
<g>
</g>
</svg>
