<?xml version="1.0"?>
<svg xmlns="http://www.w3.org/2000/svg" xmlns:xlink="http://www.w3.org/1999/xlink" id="Capa_1" style="enable-background:new 0 0 512 512;" viewBox="0 0 512 512" x="0px" y="0px" width="512px" height="512px" xml:space="preserve" version="1.1"><g><g>
	<g>
		<path class="active-path" d="M 119.467 337.067 c -28.237 0 -51.2 22.963 -51.2 51.2 c 0 28.237 22.963 51.2 51.2 51.2 s 51.2 -22.963 51.2 -51.2 C 170.667 360.03 147.703 337.067 119.467 337.067 Z M 119.467 422.4 c -18.825 0 -34.133 -15.309 -34.133 -34.133 c 0 -18.825 15.309 -34.133 34.133 -34.133 s 34.133 15.309 34.133 34.133 C 153.6 407.091 138.291 422.4 119.467 422.4 Z" data-original="#000000" data-old_color="#000000" fill="#A42F32"/>
	</g>
</g><g>
	<g>
		<path class="active-path" d="M 409.6 337.067 c -28.237 0 -51.2 22.963 -51.2 51.2 c 0 28.237 22.963 51.2 51.2 51.2 c 28.237 0 51.2 -22.963 51.2 -51.2 C 460.8 360.03 437.837 337.067 409.6 337.067 Z M 409.6 422.4 c -18.825 0 -34.133 -15.309 -34.133 -34.133 c 0 -18.825 15.309 -34.133 34.133 -34.133 c 18.825 0 34.133 15.309 34.133 34.133 C 443.733 407.091 428.425 422.4 409.6 422.4 Z" data-original="#000000" data-old_color="#000000" fill="#A42F32"/>
	</g>
</g><g>
	<g>
		<path class="active-path" d="M 510.643 289.784 l -76.8 -119.467 c -1.57 -2.441 -4.275 -3.917 -7.177 -3.917 H 332.8 c -4.719 0 -8.533 3.823 -8.533 8.533 v 213.333 c 0 4.719 3.814 8.533 8.533 8.533 h 34.133 v -17.067 h -25.6 V 183.467 h 80.674 l 72.926 113.442 v 82.825 h -42.667 V 396.8 h 51.2 c 4.719 0 8.533 -3.814 8.533 -8.533 V 294.4 C 512 292.77 511.531 291.157 510.643 289.784 Z" data-original="#000000" data-old_color="#000000" fill="#A42F32"/>
	</g>
</g><g>
	<g>
		<path class="active-path" d="M 375.467 277.333 V 217.6 h 68.267 v -17.067 h -76.8 c -4.719 0 -8.533 3.823 -8.533 8.533 v 76.8 c 0 4.719 3.814 8.533 8.533 8.533 h 128 v -17.067 H 375.467 Z" data-original="#000000" data-old_color="#000000" fill="#A42F32"/>
	</g>
</g><g>
	<g>
		<path class="active-path" d="M 332.8 106.667 H 8.533 C 3.823 106.667 0 110.49 0 115.2 v 273.067 c 0 4.719 3.823 8.533 8.533 8.533 H 76.8 v -17.067 H 17.067 v -256 h 307.2 v 256 H 162.133 V 396.8 H 332.8 c 4.719 0 8.533 -3.814 8.533 -8.533 V 115.2 C 341.333 110.49 337.519 106.667 332.8 106.667 Z" data-original="#000000" data-old_color="#000000" fill="#A42F32"/>
	</g>
</g><g>
	<g>
		<rect class="active-path" x="8.533" y="345.6" width="51.2" height="17.067" data-original="#000000" data-old_color="#000000" fill="#A42F32"/>
	</g>
</g><g>
	<g>
		<rect class="active-path" x="179.2" y="345.6" width="145.067" height="17.067" data-original="#000000" data-old_color="#000000" fill="#A42F32"/>
	</g>
</g><g>
	<g>
		<rect class="active-path" x="469.333" y="345.6" width="34.133" height="17.067" data-original="#000000" data-old_color="#000000" fill="#A42F32"/>
	</g>
</g><g>
	<g>
		<rect class="active-path" x="34.133" y="140.8" width="298.667" height="17.067" data-original="#000000" data-old_color="#000000" fill="#A42F32"/>
	</g>
</g><g>
	<g>
		<rect class="active-path" x="110.933" y="379.733" width="17.067" height="17.067" data-original="#000000" data-old_color="#000000" fill="#A42F32"/>
	</g>
</g><g>
	<g>
		<rect class="active-path" x="401.067" y="379.733" width="17.067" height="17.067" data-original="#000000" data-old_color="#000000" fill="#A42F32"/>
	</g>
</g><g>
	<g>
		<rect class="active-path" x="34.133" y="72.533" width="119.467" height="17.067" data-original="#000000" data-old_color="#000000" fill="#A42F32"/>
	</g>
</g><g>
	<g>
		<rect class="active-path" y="72.533" width="17.067" height="17.067" data-original="#000000" data-old_color="#000000" fill="#A42F32"/>
	</g>
</g></g> </svg>
