<svg width="24px" height="19px" viewBox="0 0 25 20" version="1.1" xmlns="http://www.w3.org/2000/svg" xmlns:xlink="http://www.w3.org/1999/xlink">
    <!-- Generator: Sketch 52 (66869) - http://www.bohemiancoding.com/sketch -->
    <title>twitter</title>
    <desc>Created with Sketch.</desc>
    <g id="Page-1" stroke="none" stroke-width="1" fill="none" fill-rule="evenodd">
        <g id="Desktop-HD" transform="translate(-204.000000, -2127.000000)" fill="#14286D" fill-rule="nonzero">
            <path d="M226.430263,2131.98436 C226.446133,2132.2031 226.446133,2132.42188 226.446133,2132.64062 C226.446133,2139.31247 221.290693,2147 211.868048,2147 C208.965107,2147 206.268417,2146.17184 204,2144.7344 C204.412453,2144.78125 204.808988,2144.79688 205.23731,2144.79688 C207.632583,2144.79688 209.837572,2144.00003 211.59837,2142.64065 C209.345822,2142.59375 207.458119,2141.14064 206.807726,2139.14062 C207.125012,2139.18747 207.44225,2139.21873 207.775405,2139.21873 C208.235417,2139.21873 208.695477,2139.15621 209.12375,2139.04688 C206.776036,2138.57809 205.01519,2136.54687 205.01519,2134.09374 L205.01519,2134.03126 C205.697272,2134.40627 206.490488,2134.64064 207.331165,2134.67185 C205.951082,2133.76558 205.046928,2132.21873 205.046928,2130.46871 C205.046928,2129.53123 205.300689,2128.67186 205.74488,2127.92185 C208.267107,2130.98435 212.058381,2132.98432 216.309618,2133.2031 C216.230321,2132.8281 216.182714,2132.43752 216.182714,2132.04688 C216.182714,2129.2656 218.467,2127 221.306464,2127 C222.781714,2127 224.11419,2127.60937 225.050131,2128.59375 C226.208095,2128.37501 227.318499,2127.95311 228.302048,2127.375 C227.921285,2128.5469 227.112297,2129.53128 226.0495,2130.15624 C227.080608,2130.04692 228.079977,2129.7656 229,2129.37502 C228.302146,2130.37498 227.429633,2131.26557 226.430263,2131.98436 Z" id="twitter"></path>
        </g>
    </g>
</svg>


