<?xml version="1.0" encoding="UTF-8" standalone="no"?>
<svg
   xmlns:dc="http://purl.org/dc/elements/1.1/"
   xmlns:cc="http://creativecommons.org/ns#"
   xmlns:rdf="http://www.w3.org/1999/02/22-rdf-syntax-ns#"
   xmlns:svg="http://www.w3.org/2000/svg"
   xmlns="http://www.w3.org/2000/svg"
   xmlns:sodipodi="http://sodipodi.sourceforge.net/DTD/sodipodi-0.dtd"
   xmlns:inkscape="http://www.inkscape.org/namespaces/inkscape"
   version="1.1"
   id="svg2"
   xml:space="preserve"
   width="1333.3333"
   height="1066.6667"
   viewBox="0 0 1333.3333 1066.6667"
   sodipodi:docname="04062019-28.eps"><metadata
     id="metadata8"><rdf:RDF><cc:Work
         rdf:about=""><dc:format>image/svg+xml</dc:format><dc:type
           rdf:resource="http://purl.org/dc/dcmitype/StillImage" /></cc:Work></rdf:RDF></metadata><defs
     id="defs6" /><sodipodi:namedview
     pagecolor="#ffffff"
     bordercolor="#666666"
     borderopacity="1"
     objecttolerance="10"
     gridtolerance="10"
     guidetolerance="10"
     inkscape:pageopacity="0"
     inkscape:pageshadow="2"
     inkscape:window-width="640"
     inkscape:window-height="480"
     id="namedview4" /><g
     id="g10"
     inkscape:groupmode="layer"
     inkscape:label="ink_ext_XXXXXX"
     transform="matrix(1.3333333,0,0,-1.3333333,0,1066.6667)"><g
       id="g12"
       transform="scale(0.1)"><path
         d="M 5968.08,4214.09 H 3850.83 c -2.43,0 -4.85,-0.01 -7.28,-0.04 -434.38,-5.35 -602.57,-560.75 -251.23,-816.25 41.75,-30.36 87.13,-55.71 135.55,-74.89 -11.94,91.35 36.8,187.65 117.47,232.14 103.1,56.84 234.75,26.6 334.93,-35.25 100.17,-61.86 179.91,-151.35 272.53,-224.04 81.1,-63.64 188.87,-115.95 284.52,-77.48 111.43,44.81 149.88,188.95 252.51,251.34 78.97,47.99 181.31,37.64 267.49,4.3 86.2,-33.33 162.97,-87.07 247.09,-125.34 89.86,-40.89 187.89,-63.75 286.57,-66.82 54.66,-1.71 110.32,2.79 161.5,22.05 59.14,22.25 109.26,62.94 157.4,103.88 29.37,24.99 67.06,55.55 107.87,87.93 292.05,231.67 140.62,707.04 -231.98,718.21 -5.87,0.17 -11.77,0.26 -17.69,0.26"
         style="fill:#d21164;fill-opacity:1;fill-rule:nonzero;stroke:none"
         id="path14" /><path
         d="m 4084.03,4736.38 c 170.46,-140.02 406.45,-196.53 621.84,-148.9 64.2,14.19 126.34,37.01 190.93,49.31 87.03,16.58 176.45,13.7 264.99,10.77 16.38,-0.54 33.37,-1.24 47.93,-8.76 63.38,-32.77 27.2,-105.34 36.46,-159.13 9.52,-55.32 66.31,-117.24 124.99,-120.42 101.66,-5.52 68.95,106.13 95.95,166.05 15.5,34.42 49.75,63.34 87.38,60.42 39.51,-3.07 67.74,-37.6 95.76,-65.62 28.03,-28.02 70.85,-52.86 105.22,-33.13 33.47,19.2 35.58,67.56 61.7,95.97 26.32,28.63 70.03,30.67 108.92,30.71 25.5,0.02 50.99,0.05 76.5,0.07 -97.08,184.5 -290.54,310.37 -513.5,310.37 H 4329.82 c -123.71,0 -238.27,-38.85 -332.42,-104.84 26.94,-29.52 55.6,-57.38 86.63,-82.87"
         style="fill:#d21164;fill-opacity:1;fill-rule:nonzero;stroke:none"
         id="path16" /><path
         d="m 5260.42,6410.81 c -15.83,26.39 -49.75,36.55 -76.77,21.84 -183.48,-99.9 -254.06,-398.81 -280.8,-588.78 -5.25,0.14 -10.54,0.22 -15.86,0.22 -152.8,0 -276.67,-55.06 -276.67,-207.85 0,-152.8 123.87,-276.67 276.67,-276.67 152.8,0 276.67,123.87 276.67,276.67 0,133.65 -94.78,192.52 -220.8,205.18 39.35,309.86 205.87,439.83 294.92,487.89 29.4,15.87 39.84,52.85 22.64,81.5"
         style="fill:#d21164;fill-opacity:1;fill-rule:nonzero;stroke:none"
         id="path18" /><path
         d="m 6465.19,3022.92 h -3050 c -7.01,0 -13.99,-0.12 -20.93,-0.37 -309.7,-10.99 -516.13,-326.11 -412.35,-618.11 18.3,-51.5 39.26,-102 63.71,-151.13 101.83,-204.66 274.18,-385.86 495.33,-443.73 181.89,-47.61 374.84,-8 554.78,46.49 179.95,54.48 357.97,124.29 545.48,137.99 187.51,13.69 392.69,-39.99 506.69,-189.49 62.25,-81.64 100.73,-192.56 195.88,-231.11 114.83,-46.53 238.58,41.23 321.83,133 83.24,91.78 169.54,201.53 292.87,213.41 163.18,15.71 310.61,-151.7 470.03,-113.48 188.18,45.11 211.74,322.09 376.76,423.17 71.38,43.73 165.51,45.05 239.92,7.68 v 205.68 c 0,320.33 -259.68,580 -580,580"
         style="fill:#d21164;fill-opacity:1;fill-rule:nonzero;stroke:none"
         id="path20" /></g></g></svg>
