<?xml version="1.0" encoding="utf-8"?>
<!-- Generator: Adobe Illustrator 16.0.0, SVG Export Plug-In . SVG Version: 6.00 Build 0)  -->
<!DOCTYPE svg PUBLIC "-//W3C//DTD SVG 1.1//EN" "http://www.w3.org/Graphics/SVG/1.1/DTD/svg11.dtd">
<svg version="1.1" id="Calque_1" xmlns="http://www.w3.org/2000/svg" xmlns:xlink="http://www.w3.org/1999/xlink" x="0px" y="0px"
	 width="800px" height="612.405px" viewBox="0 0 800 612.405" enable-background="new 0 0 800 612.405" xml:space="preserve">
<g>
	<g>
		<path fill="#FFFFFF" d="M374.203,369.119c5.28,10.183,4.368,39.521-2.735,43.029l-167.852,83.229
			c-8.154,4.05-21.501,4.05-29.642,0L6.122,412.148c-7.117-3.524-8.028-32.902-2.737-43.071c0.615,0.358,1.175,0.745,1.839,1.092
			l163.583,81.087c5.541,2.748,12.63,4.27,19.989,4.27c7.344,0,14.447-1.521,19.98-4.257l163.576-81.1
			C373.017,369.836,373.603,369.464,374.203,369.119z"/>
		<path fill="#FFFFFF" d="M159.19,166.856c-1.991,0.844-4.071,1.424-6.192,1.688l-0.593,1.324c-1.168,2.584-2.764,4.906-4.741,6.896
			c-3.668,3.689-8.249,5.873-13.03,6.619c-1.112,6.371,0.788,13.184,5.721,18.088c8.043,8.002,21.053,7.961,29.053-0.067
			c4.94-4.976,6.819-11.843,5.625-18.257c-2.646-1.133-5.134-2.748-7.282-4.904c-3.006-2.971-5.052-6.633-6.101-10.682
			C160.847,167.271,160.039,167.034,159.19,166.856z"/>
		<path fill="#FFFFFF" d="M164.605,130.349c4.007,3.979,5.97,9.258,5.914,14.564c0.089,5.334-1.892,10.707-5.955,14.799
			c-4.851,4.863-11.539,6.785-17.854,5.775c0,0.016,0,0.043-0.013,0.07c-4.229-0.566-8.277-2.432-11.496-5.637
			c-7.961-7.92-7.877-20.908,0.144-29.076c0.036-0.041,0.077-0.066,0.097-0.109C143.567,122.581,156.618,122.401,164.605,130.349z"
			/>
		<path fill="#FFFFFF" d="M127.04,140.021c-1.803,7.697,0.214,16.059,6.128,21.943c3.565,3.553,8.139,5.791,13.197,6.482
			l2.709,0.357l0.041-0.18c0.179,0,0.373,0.029,0.565,0.016c-0.987,2.184-2.362,4.24-4.137,6.025
			c-8.008,8.027-20.997,8.068-29.054,0.068c-8.029-7.988-8.069-21.004-0.069-29.033C119.426,142.673,123.151,140.78,127.04,140.021z
			"/>
		<path fill="#FFFFFF" d="M178.218,184.421c0.054-0.043,0.095-0.084,0.144-0.111c6.377,1.656,13.272,0.566,18.925-3.166
			c2.928,0.969,5.679,2.598,8.014,4.906c8.044,8.002,8.077,21.006,0.084,29.048c-8.002,8.056-21.02,8.084-29.048,0.084
			c-3.086-3.084-4.986-6.883-5.712-10.862c0.31-0.276,0.614-0.54,0.905-0.815C176.531,198.459,178.978,191.44,178.218,184.421z"/>
		<path fill="#FFFFFF" d="M161.345,240.274c-1.9-1.879-3.339-4.049-4.354-6.397c3.718-6.011,4.492-13.418,2.143-20.078
			c0.637-0.885,1.327-1.755,2.143-2.556c2.161-2.171,4.697-3.745,7.399-4.756c1.084,3.912,3.102,7.462,5.996,10.366
			c5.84,5.816,13.999,7.89,21.509,6.3c0.759,6.053-1.161,12.396-5.804,17.065C182.404,248.248,169.387,248.275,161.345,240.274z"/>
		<path fill="#FFFFFF" d="M213.578,208.022c-0.123-0.11-0.22-0.262-0.331-0.388c2.225-7.144,0.954-15.118-3.773-21.296
			c8.969,5.031,20.555,3.732,28.149-3.91c1.424-1.424,2.598-2.998,3.572-4.67c0.463,0.389,0.926,0.721,1.355,1.148
			c8.034,8.014,8.077,21.004,0.082,29.045C234.624,215.982,221.621,216.023,213.578,208.022z"/>
		<path fill="#FFFFFF" d="M270.698,195.806c-5.507,5.527-13.384,7.256-20.391,5.197c2.779-8.223,0.9-17.676-5.658-24.211
			c-0.608-0.609-1.319-1.203-2.1-1.811c0.539-1.258,0.974-2.541,1.292-3.869c8.064,2.059,16.658-0.275,22.518-6.164
			c0.296-0.289,0.558-0.635,0.836-0.926c1.215,0.762,2.363,1.672,3.434,2.736C278.663,174.747,278.704,187.749,270.698,195.806z"/>
		<path fill="#FFFFFF" d="M232.897,256.664c-2.288-2.281-3.912-4.976-4.906-7.834c0.414-0.36,0.829-0.721,1.229-1.12
			c6.053-6.08,8.105-14.523,6.149-22.25c0.9-0.648,1.838-1.187,2.792-1.685c1.125,2.293,2.618,4.408,4.457,6.231
			c6.556,6.524,16.008,8.36,24.208,5.556c2.411,7.131,0.782,15.339-4.876,21.018C253.942,264.622,240.938,264.665,232.897,256.664z"
			/>
		<path fill="#FFFFFF" d="M244.726,227.894c-3.746-3.732-5.735-8.555-5.991-13.474c2.163-1.104,4.208-2.542,6.003-4.367
			c1.879-1.864,3.332-4.008,4.423-6.273l0.31,0.098c8.271,2.432,17.184,0.166,23.278-5.914c0.312,0.276,0.636,0.512,0.954,0.801
			c8.036,8.016,8.057,21.018,0.069,29.06C265.771,235.867,252.774,235.881,244.726,227.894z"/>
		<path fill="#FFFFFF" d="M88.804,149.142c-22.214-3.012-42.153,4.09-42.153,4.09s10.054-27.859,32.391-27.307
			c11.056,0.277,20.701-0.537,27.975-1.504c-6.045,0.414-13.327,0.027-20.473-2.584C69.679,115.632,60.139,99.38,60.139,99.38
			s17.798-6.231,34.657-0.041c1.685,0.609,3.26,1.355,4.789,2.143c-8.203-12.685-6.668-28.604-6.668-28.604s9.75,1.977,18.683,8.43
			c-0.512-1.079-1.023-2.184-1.562-3.345c-0.87-1.963-1.652-4.09-2.404-6.273c-0.015,0.015-0.015,0.015-0.028,0.027l-0.235,0.208
			c-1.485,1.217-3.393-1.079-1.913-2.308l0.254-0.208c0.339-0.29,0.713-0.358,1.065-0.318c-0.332-1.201-0.678-2.39-1.03-3.592
			c-0.387-1.493-0.642-3.04-0.987-4.589c-0.354-1.532-0.56-3.109-0.741-4.711c-0.159-1.575-0.476-3.165-0.497-4.769l-0.056-1.285
			c-1.402,0.623-2.887-1.366-1.527-2.501c0.47-0.374,0.967-0.387,1.396-0.22l-0.041-0.788c0.013-1.604,0.11-3.191,0.158-4.781
			c0-1.59,0.2-3.15,0.381-4.699c0.22-1.534,0.29-3.081,0.622-4.56c0.048-0.235,0.095-0.47,0.151-0.705
			c-1.271,0.166-2.411-1.575-1.168-2.626c0.581-0.483,1.237-0.414,1.721-0.067c0.359-1.756,0.746-3.469,1.272-5.072
			c0.704-2.708,1.636-5.14,2.514-7.407c0.54-1.547,1.174-2.887,1.803-4.173c-0.862-0.428-1.36-1.672-0.378-2.46
			c0.552-0.468,1.16-0.442,1.644-0.15c0.683-1.452,1.388-2.724,2.017-3.746c1.437-2.446,2.252-3.827,2.252-3.827
			c1.34-2.281,4.27-3.04,6.543-1.7c2.273,1.342,3.033,4.257,1.701,6.55c-0.022,0.042-0.036,0.055-0.063,0.098l-0.228,0.36
			c0,0-0.297,0.455-0.78,1.256c0.649,0.539,0.925,1.575,0.082,2.268c-0.539,0.455-1.14,0.414-1.608,0.15
			c-0.644,0.98-1.347,2.156-2.033,3.565c-0.573,1.147-1.25,2.432-1.892,3.827c0.836,0.43,1.304,1.659,0.353,2.46
			c-0.511,0.414-1.051,0.401-1.508,0.179c-0.691,1.659-1.394,3.386-1.954,5.308c-0.851,2.335-1.375,4.878-1.984,7.502
			c-0.187,0.637-0.29,1.314-0.386,1.989c1.125,0.141,1.961,1.673,0.828,2.613c-0.414,0.358-0.856,0.401-1.257,0.291
			c-0.167,1.105-0.325,2.197-0.353,3.33c-0.082,1.41-0.213,2.848-0.269,4.27l0.056,4.326c-0.035,1.437,0.228,2.874,0.317,4.311
			c0.069,0.939,0.179,1.852,0.304,2.792c1.361-0.429,2.708,1.479,1.396,2.569c-0.292,0.234-0.609,0.305-0.906,0.305
			c0.146,0.926,0.297,1.852,0.504,2.749c0.345,1.368,0.69,2.708,1.015,4.007c0.754,2.626,1.597,5.129,2.523,7.436
			c0.427,0.981,0.829,1.933,1.228,2.858c0.616-16.152,10.13-29.197,10.13-29.197s12.782,13.86,13.818,31.811
			c0.298,5.277-0.476,10.322-1.693,14.827c2.301-5.929,4.707-13.03,6.724-21.087c5.457-21.667,34.989-23.892,34.989-23.892
			s-12.202,17.315-15.242,39.507c-2.833,20.616-25.026,20.299-34.975,23.891c-3.096,1.119-8.809,5.184-10.779,8.553
			C115.619,131.454,109.428,151.933,88.804,149.142z"/>
		<path fill="#FFFFFF" d="M66.191,219.672c-7.642-7.6-7.849-19.886-0.733-28.065c5.633,5.569,14.219,7.682,22.291,5.043l2.514-0.844
			c1.155,0.525,2.336,0.928,3.545,1.258v0.539c0.055,5.791,2.203,11.207,6.038,15.464c-0.988,2.322-2.411,4.504-4.291,6.397
			c-4.85,4.878-11.552,6.783-17.839,5.776c-0.013,0.027-0.028,0.056-0.028,0.082C73.473,224.743,69.41,222.891,66.191,219.672z"/>
		<path fill="#FFFFFF" d="M202.179,248.842h0.013c-1.465-0.855-2.859-1.894-4.132-3.151c-1.608-1.602-2.887-3.398-3.841-5.306
			c3.946-4.933,5.735-11.22,4.933-17.604l-0.027-0.152c3.067-1.146,5.916-2.972,8.368-5.416c1.941-1.948,3.462-4.146,4.58-6.511
			c4.311,4.01,9.777,6.081,15.297,6.234c7.668,8.028,7.615,20.756-0.269,28.688c-4.595,4.601-10.828,6.563-16.832,5.899
			l-0.483-0.027l-0.877-0.165c-0.401-0.07-0.803-0.166-1.204-0.264c-0.089-0.012-0.179-0.04-0.261-0.068
			c-1.092-0.263-2.128-0.621-3.15-1.079c-0.299-0.123-0.553-0.247-0.816-0.386c-0.276-0.125-0.539-0.249-0.803-0.414
			C202.509,249.035,202.35,248.953,202.179,248.842z"/>
		<path fill="#FFFFFF" d="M152.141,279.159c-2.693-2.679-4.449-5.941-5.293-9.409c1.196-0.636,2.321-1.354,3.4-2.184
			c0.801-0.623,1.567-1.286,2.281-2.004c0.166-0.165,0.317-0.358,0.468-0.525c4.111,2.087,8.706,2.875,13.114,2.279h-0.013l1.823,3
			c1.107,1.822,2.204,3.274,3.462,4.532c2.521,2.487,5.487,4.299,8.645,5.431c-4.687,3.882-10.669,5.361-16.361,4.464
			c0,0.014-0.028,0.054-0.028,0.054C159.425,284.245,155.368,282.381,152.141,279.159z"/>
		<path fill="#FFFFFF" d="M203.685,277.999c3.102,3.013,6.853,5.002,10.847,5.97c-4.843,4.851-11.524,6.743-17.819,5.748
			c-0.006,0.028-0.021,0.043-0.021,0.069c-4.227-0.567-8.277-2.432-11.504-5.638c-0.808-0.801-1.498-1.672-2.148-2.569
			c0.131-0.125,0.29-0.251,0.415-0.359c6.474,1.257,13.396-0.167,18.916-4.451c0.049-0.041,0.084-0.068,0.125-0.095l0.276,0.317
			C203.076,277.336,203.353,277.667,203.685,277.999z"/>
		<path fill="#FFFFFF" d="M102.118,215.207c3.324,2.833,7.256,4.672,11.36,5.35c-0.299,6.632,2.209,13.07,6.888,17.742
			c1.071,1.065,2.245,1.961,3.462,2.791c-0.823,1.384-1.81,2.683-2.999,3.869c-4.837,4.879-11.539,6.799-17.839,5.776
			c0,0.027-0.007,0.056-0.021,0.068c-4.208-0.552-8.264-2.432-11.491-5.638c-4.684-4.641-6.558-11.041-5.707-17.19
			c3.482-0.705,6.784-2.196,9.624-4.393c0.788-0.608,1.542-1.272,2.261-2.02C99.535,219.687,100.993,217.516,102.118,215.207z"/>
		<path fill="#FFFFFF" d="M132.547,269.295c-4.214-0.582-8.263-2.434-11.498-5.64c-3.219-3.206-5.099-7.268-5.7-11.496
			c1.895-0.774,3.682-1.798,5.328-3.081c0.78-0.608,1.547-1.271,2.266-2.019c1.361-1.354,2.501-2.86,3.462-4.463
			c4.304,2.168,9.141,2.971,13.846,2.307c0.075,5.888,2.508,11.581,6.812,15.877c1.031,1.023,2.15,1.894,3.324,2.696
			c-4.858,4.85-11.511,6.757-17.812,5.722C132.575,269.239,132.555,269.265,132.547,269.295z"/>
		<path fill="#FFFFFF" d="M96.792,197.574c6.633,0.499,13.431-1.769,18.468-6.841c2.585-2.609,4.546-5.801,5.671-9.283
			c3.373,1.588,7.028,2.236,10.675,2.127c-0.967,6.813,1.092,13.695,5.604,18.819c-0.877,3.457-2.633,6.746-5.341,9.453
			c-7.987,8.029-20.989,8.072-29.033,0.069C98.857,207.966,96.854,202.785,96.792,197.574z"/>
		<path fill="#FFFFFF" d="M108.262,158.081c-1.114,6.951,1.077,14.137,6.487,18.986c1.12,1.039,2.35,1.893,3.634,2.613
			c-0.795,2.998-2.294,5.887-4.546,8.387c-7.2,7.988-19.193,8.942-26.794,2.102c-7.586-6.826-7.911-18.863-0.703-26.863
			C92.141,156.853,101.054,155.001,108.262,158.081z"/>
		<path fill="#FFFFFF" d="M143.284,243.204c3.966-0.746,7.711-2.612,10.71-5.624c0.427-0.43,0.87-0.898,1.243-1.368
			c1.092,1.991,2.46,3.801,4.063,5.402c5.991,5.957,14.344,8.003,21.654,6.055c-0.214,4.296-1.894,8.455-5.1,11.675
			c-7.136,7.172-19.097,6.868-26.684-0.69C144.846,254.369,142.869,248.648,143.284,243.204z"/>
		<path fill="#FFFFFF" d="M140.037,204.389c3.981,3.385,8.844,5.236,13.792,5.541c5.554,7.972,4.787,19.027-2.316,26.172
			c-7.993,8.044-21.01,8.085-29.039,0.082c-4.352-4.337-6.329-10.128-5.998-15.807c6.468,0.346,13.052-1.923,17.957-6.868
			C136.983,210.952,138.904,207.814,140.037,204.389z"/>
		<path fill="#FFFFFF" d="M65.127,186.562c-5.528-8.609-2.661-20.285,6.398-26.115c5.098-3.277,11.041-3.926,16.264-2.406
			c-0.194,0.152-0.401,0.25-0.581,0.4c-1.112,0.857-2.15,1.824-3.096,2.861c-3.992,4.449-6.094,10.115-5.948,15.961
			c0.159,5.885,2.605,11.275,6.873,15.131c0.581,0.512,1.189,0.967,1.785,1.408C78.709,196.47,69.728,193.733,65.127,186.562z"/>
		<path fill="#FFFFFF" d="M205.756,275.856c-0.372-0.358-0.676-0.788-1.036-1.174c5.239-5.32,7.602-12.782,6.454-20.105
			c4.996,0.276,10.046-0.966,14.357-3.829c1.14,2.917,2.889,5.666,5.264,8.029c2.764,2.735,6.06,4.658,9.535,5.749
			c-0.663,3.98-2.494,7.822-5.526,10.943C226.886,283.583,213.897,283.774,205.756,275.856z"/>
		<path fill="#FFFFFF" d="M173.498,272.721c-1.209-1.202-2.176-2.543-3.032-3.938c2.846-1.147,5.505-2.875,7.806-5.182
			c3.897-3.926,6.274-9.121,6.716-14.635l0.131-1.658c2.536-1.077,4.912-2.626,6.999-4.643c0,0.027,0.015,0.027,0.015,0.027
			c0.517,0.91,1.077,1.795,1.713,2.653c0.635,0.87,1.327,1.686,2.1,2.46c0.767,0.772,1.603,1.45,2.447,2.087
			c0.194,0.138,0.415,0.302,0.635,0.44c0.851,0.623,1.728,1.176,2.653,1.646c0,0.012,0,0.012,0,0.012
			c0.913,0.472,1.866,0.857,2.805,1.202c0.235,0.098,0.483,0.167,0.706,0.249c0.967,0.318,1.941,0.582,2.93,0.787h0.013
			c1.25,6.453-0.608,13.405-5.597,18.42C194.544,280.694,181.532,280.722,173.498,272.721z"/>
		<path fill="#FFFFFF" d="M184.974,112.952c8.044,7.986,8.077,21.002,0.084,29.045c-3.295,3.316-7.435,5.252-11.733,5.846
			l0.077-0.746c0.711-7.063-1.721-13.93-6.681-18.863c-4.373-4.367-10.102-6.563-15.871-6.676c0.918-3.121,2.618-6.049,5.078-8.537
			C163.943,104.98,176.932,104.949,184.974,112.952z"/>
		<path fill="#FFFFFF" d="M203.879,123.079c-2.833,2.846-6.303,4.656-9.943,5.5c0.297-6.385-1.969-12.879-6.847-17.742
			c-4.892-4.865-11.386-7.104-17.784-6.773c0.821-3.633,2.624-7.113,5.444-9.946c8.008-8.044,21.01-8.085,29.046-0.098
			C211.831,102.035,211.879,115.022,203.879,123.079z"/>
		<path fill="#FFFFFF" d="M218.119,69.368c8.041,8,8.082,21.004,0.082,29.045c-1.831,1.826-3.93,3.221-6.155,4.244
			c-1.03-3.953-3.068-7.67-6.151-10.751c-6.147-6.108-14.853-8.085-22.675-5.998c-0.58-5.886,1.375-11.953,5.874-16.472
			C197.079,61.395,210.083,61.367,218.119,69.368z"/>
		<path fill="#FFFFFF" d="M255.462,135.405c-4.851,4.893-11.531,6.799-17.853,5.777c0,0.041-0.015,0.053-0.015,0.084
			c-0.634-0.084-1.263-0.266-1.893-0.404c0.816-2.443,1.223-5.027,1.189-7.654c0.054-4.711-1.271-9.189-3.759-13.002
			c2.569-0.83,4.947-2.088,7.067-3.73c0.78-0.594,1.519-1.244,2.232-1.963c3.516-3.55,5.748-8.001,6.508-12.796
			c2.418,0.967,4.643,2.404,6.563,4.34c4.014,3.98,5.978,9.257,5.916,14.564C261.501,125.954,259.517,131.331,255.462,135.405z"/>
		<path fill="#FFFFFF" d="M228.005,118.63c3.994,3.967,5.948,9.244,5.915,14.537c0.062,5.361-1.92,10.723-5.983,14.813
			c-4.837,4.879-11.526,6.787-17.827,5.777c0,0.014-0.013,0.041-0.035,0.084c-1.32-0.193-2.618-0.555-3.896-0.996
			c-1.187-2.943-2.936-5.652-5.257-7.961c-2.087-2.057-4.559-3.689-7.269-4.85c-0.504-1.588-0.829-3.232-0.918-4.891
			c0.381-1.133,0.678-2.266,0.89-3.414l0.995-0.248c3.352-0.775,6.428-2.211,9.122-4.299c0.788-0.621,1.527-1.283,2.251-2.004
			c3.482-3.496,5.597-7.807,6.427-12.34C218.042,112.482,223.741,114.374,228.005,118.63z"/>
		<path fill="#FFFFFF" d="M227.154,83.85c0-2.28-0.337-4.519-0.966-6.633c5.162,0.013,10.287,1.948,14.186,5.83
			c4.006,3.981,5.955,9.261,5.899,14.554c0.084,5.346-1.893,10.721-5.962,14.799c-2.619,2.623-5.784,4.378-9.126,5.277
			c-0.36-0.389-0.698-0.787-1.079-1.176c-4.546-4.517-10.847-6.921-17.328-6.646c0.069-1.408,0.041-2.818-0.13-4.213l0.606-0.264
			c1.721-0.787,3.365-1.754,4.83-2.902c0.774-0.594,1.521-1.242,2.232-1.961C224.743,96.066,227.175,90.137,227.154,83.85z"/>
		<path fill="#FFFFFF" d="M198.821,147.015c8.028,8,8.075,21.002,0.067,29.045c-8,8.043-20.995,8.07-29.046,0.07
			c-3.371-3.346-5.319-7.615-5.872-11.994c0.947-0.707,1.852-1.465,2.708-2.309c3.109-3.139,5.147-6.91,6.135-10.904l0.925-0.137
			c5.142-0.703,9.785-3.025,13.426-6.689c0.767-0.773,1.444-1.588,2.086-2.445C192.754,142.522,196.083,144.278,198.821,147.015z"/>
		<path fill="#FFFFFF" d="M264.017,163.03c-4.858,4.863-11.539,6.783-17.841,5.762c0,0.027-0.013,0.041-0.026,0.084
			c-0.629-0.084-1.245-0.264-1.852-0.404c0.76-6.893-1.479-14.053-6.758-19.316c-1.237-1.23-2.689-2.307-4.242-3.262
			c0.455-0.73,0.926-1.451,1.312-2.225l0.897,0.195c0.552,0.15,1.107,0.289,1.687,0.357l2.404,0.291l0.056-0.111
			c5.61,0.275,11.207-1.422,15.635-4.879c0.793-0.607,1.555-1.27,2.293-2.016c1.706-1.729,3.13-3.662,4.209-5.762
			c0.787,0.578,1.567,1.186,2.278,1.92c3.994,3.98,5.956,9.244,5.901,14.551C270.054,153.55,268.078,158.925,264.017,163.03z"/>
		<path fill="#FFFFFF" d="M203.015,175.839c4.608-6.037,5.921-13.791,3.897-20.797c7.952,2.238,16.845,0.262,23.056-6.012
			c0.36-0.344,0.657-0.732,0.966-1.105c1.618,0.885,3.137,1.988,4.5,3.344c8.034,8.004,8.063,21.018,0.089,29.063
			c-8.015,8.041-21.018,8.068-29.061,0.068C205.066,179.003,203.92,177.47,203.015,175.839z"/>
		<path fill="#FFFFFF" d="M372.546,270.938c-3.352,1.894-6.799,3.289-9.839,4.491c-3.02,1.174-6.149,2.404-7.793,3.648
			c-2.122,1.602-4.173,4.56-6.329,7.697c-2.792,4.05-5.963,8.637-10.613,12.492c-7.946,6.576-15.781,7.71-22.096,8.622
			c-2.404,0.345-4.664,0.678-6.771,1.284c-4.091,1.204-5.955,2.971-10.143,7.214c-2.087,2.113-4.45,4.52-7.482,7.033
			c-11.007,9.122-23.216,10.296-32.605,10.296c-2.447,0-4.906-0.084-7.351-0.166c-2.176-0.069-4.352-0.153-6.515-0.153
			c-5.41,0-9.002,0.526-12.058,1.743c-2.639,1.063-5.306,6.756-7.641,11.786c-4.934,10.516-12.367,26.394-32.183,26.394
			c-1.721,0-3.551-0.125-5.5-0.415c-10.151-1.479-15.981-8.097-20.245-12.922c-2.225-2.513-4.132-4.684-5.976-5.512
			c-2.383-1.064-4.72-1.645-7.435-2.307c-5.561-1.355-12.485-3.054-19.918-9.315c-5.467-4.615-9.55-9.452-13.176-13.735
			c-7.511-8.87-10.923-12.478-20.002-12.478c-0.739,0-1.506,0.027-2.309,0.084c-2.972,0.192-5.872,0.497-8.684,0.787
			c-4.61,0.469-9.363,0.952-14.047,0.952c-10.611,0-25.958-2.225-36.64-21.599c-9.417-17.051-9.983-18.087-27.512-20.547
			c-2.404-0.346-4.773-0.912-7.109-1.631l0.664,75.104c-1.333,3.233,0.483,6.729,5.52,9.23l163.589,81.102
			c7.947,3.938,20.943,3.938,28.896,0l163.576-81.102c4.815-2.389,6.668-5.692,5.659-8.802h0.774L372.546,270.938z"/>
		<path fill="#FFFFFF" d="M366.818,238.906l-77.273-38.332c1.68,3.994,2.633,8.235,2.646,12.672
			c0.028,8.816-3.386,17.107-9.604,23.34c-0.76,0.787-1.575,1.52-2.404,2.211c1.028,9.714-2.316,19.428-9.412,26.558
			c-5.623,5.653-12.905,9.011-20.741,9.632c-1.555,3.358-3.662,6.426-6.288,9.135c-5.845,6.01-13.529,9.493-21.792,9.949
			c-4.27,3.826-9.41,6.425-14.938,7.615l-0.399,2.003l-11.595-1.576c-6.011-0.815-11.531-3.178-16.132-6.924
			c-1.997,0.775-4.07,1.368-6.185,1.742l-0.532,1.574l-10.184-1.368c-7.124-0.953-13.562-4.116-18.62-9.146
			c-1.603-1.604-3.042-3.358-4.27-5.251l-8.223-1.104c-7.11-0.97-13.542-4.132-18.586-9.164c-2.584-2.569-4.685-5.497-6.246-8.704
			l-4.725-0.607c-7.103-0.955-13.542-4.119-18.607-9.164c-4.678-4.641-7.752-10.458-8.975-16.732
			c-6.218-1.286-11.83-4.298-16.333-8.775c-2.82-2.792-4.961-6.023-6.537-9.466l-40.108,19.885c-4.816,2.376-6.667,5.68-5.658,8.788
			H4.333l0.124,13.792c2.743,1.16,5.728,2.031,8.96,2.501c22.539,3.165,25.924,7.394,36.675,26.862
			c11.326,20.534,27.907,14.717,47.674,13.446c24.749-1.59,28.438,15.642,44.316,29.046c8.374,7.048,15.38,5.708,24.431,9.783
			c9.597,4.313,12.727,15.975,22.91,17.467c25.295,3.704,21.71-30.083,38.885-36.991c17.854-7.172,38.465,4.146,55.221-9.77
			c8.276-6.854,11.442-13.475,22.068-16.583c8.87-2.611,16.594-1.064,24.416-7.559c6.952-5.764,10.219-15.116,17.404-20.532
			c6.889-5.211,18.088-6.388,23.927-12.743c0.399-0.428,0.711-0.885,1.063-1.324l-0.056-6.98
			C373.692,244.89,371.855,241.395,366.818,238.906z"/>
		<path fill="#FFFFFF" d="M209.144,506.528c-5.625,2.778-12.853,4.313-20.355,4.313c-7.504,0-14.724-1.535-20.347-4.313
			L4.802,425.388v95.76c-0.021,2.599,1.962,5.211,5.956,7.188l163.589,81.116c7.947,3.938,20.943,3.938,28.896,0l163.576-81.116
			c3.987-1.977,5.976-4.574,5.976-7.172v-95.791L209.144,506.528z M25.688,508.45l-1.16-1.148c-5.673-5.679,3.129-14.48,8.81-8.802
			l1.153,1.16C40.17,505.341,31.368,514.129,25.688,508.45z M46.721,470.56c0,8.016-12.451,8.016-12.451,0v-3.481
			c0-8.017,12.451-8.017,12.451,0V470.56z M67.076,514.903c-2.434-0.056-4.664-0.511-6.612-2.02
			c-2.675-2.056-4.111-5.29-2.232-8.496c1.547-2.642,5.817-4.312,8.52-2.238c0.075,0.387,0.187,0.481,0.325,0.302
			C75.082,502.618,75.097,515.067,67.076,514.903z M114.217,529.26c-5.658,5.694-14.454-3.096-8.795-8.802
			c0.386-0.399,0.774-0.773,1.161-1.146c5.658-5.707,14.454,3.095,8.796,8.789C114.997,528.486,114.611,528.874,114.217,529.26z
			 M117.802,558.708c-3.109-4.132,0.11-11.677,6.384-9.811c4.035,1.201,5.638,4.324,5.722,8.318
			C130.067,564.663,119.454,565.105,117.802,558.708z M160.164,541.255c-2.523-0.581-4.388-2.128-6.213-3.912
			c-5.74-5.623,3.068-14.41,8.803-8.801c0.374,0.373,0.581,0.581,0.732,0.718C171.307,531.043,167.983,543.037,160.164,541.255z
			 M185.375,571.075c0,8.028-12.437,8.028-12.437,0v-3.469c0-8.014,12.437-8.014,12.437,0V571.075z M205.288,523.705
			c-0.181-6.495,7.827-7.641,11.041-3.662c3.953,3.263,2.792,11.207-3.669,11.028C208.231,530.961,205.411,528.128,205.288,523.705z
			 M218.428,584.23h-2.294c-8.034,0-8.034-12.437,0-12.437h2.294C226.472,571.794,226.472,584.23,218.428,584.23z M241.34,551.217
			c-0.401,0.373-0.787,0.762-1.168,1.161c-5.692,5.652-14.495-3.15-8.809-8.816c0.401-0.387,0.787-0.772,1.168-1.146
			C238.224,536.75,247.012,545.553,241.34,551.217z M259.816,504.717c0.296-1.13,0.828-2.001,1.422-2.873
			c2.503-6.922,13.695-3.688,11.733,3.855c-0.291,1.135-0.815,2.033-1.432,2.889C269.018,515.497,257.824,512.265,259.816,504.717z
			 M273.557,548.387c-1.92-1.507-2.784-4.479-2.189-6.702c0.98-3.58,4.298-4.81,7.655-4.342c5.321,0.734,6.853,6.027,6.881,10.627
			C285.945,555.834,274.068,555.944,273.557,548.387z M320.575,523.705c0,8.015-12.452,8.015-12.452,0v-2.322
			c0-8.028,12.452-8.028,12.452,0V523.705z M309.279,486.728c0.2-0.139,0.082-0.249-0.297-0.333
			c-2.086-2.694-0.429-6.965,2.23-8.512c3.201-1.88,6.447-0.455,8.506,2.24c1.506,1.948,1.961,4.185,2.002,6.604
			C321.902,494.756,309.45,494.74,309.279,486.728z M337.453,511.435h-2.314c-8.029,0-8.029-12.449,0-12.449h2.314
			C345.482,498.985,345.482,511.435,337.453,511.435z M351.1,458.76c-1.154,1.161-2.322,2.321-3.468,3.481
			c-5.681,5.679-14.469-3.123-8.79-8.802c1.148-1.161,2.295-2.322,3.469-3.47C347.985,444.304,356.793,453.094,351.1,458.76z"/>
	</g>
	<text transform="matrix(1 0 0 1 385.2285 381.9805)" fill="#FFFFFF" font-family="'BellMT'" font-size="209.4193">Cake</text>
	<text transform="matrix(1 0 0 1 385.2266 523.666)" fill="#FFFFFF" font-family="'BellMT'" font-size="199.0757">Cube</text>
	<text transform="matrix(1 0 0 1 528.8662 275.0166)" fill="#FFFFFF" font-family="'BellMT'" font-size="42.6802">The</text>
</g>
</svg>
