<?xml version="1.0" encoding="utf-8"?>
<!-- Generator: Adobe Illustrator 19.0.0, SVG Export Plug-In . SVG Version: 6.00 Build 0)  -->
<svg version="1.1" id="Layer_1" xmlns="http://www.w3.org/2000/svg" xmlns:xlink="http://www.w3.org/1999/xlink" x="0px" y="0px"
	 viewBox="0 0 512 512" style="enable-background:new 0 0 512 512;" xml:space="preserve">
<style type="text/css">
	.st0{fill:#C2D5D8;}
	.st1{fill:#B7C9CC;}
	.st2{fill:#CC803D;}
	.st3{fill:#B37035;}
	.st4{fill:#FFE1D9;}
	.st5{fill:#F2D6CE;}
	.st6{fill:#C23527;}
	.st7{fill:#B33124;}
	.st8{fill:#E6C1B8;}
</style>
<g id="XMLID_1_">
	<circle id="XMLID_3_" class="st0" cx="256" cy="254.8" r="254.8"/>
	<path id="XMLID_4_" class="st1" d="M488.1,359.9c0-0.8-0.8-2.4-1.6-3.1c-0.8-1.6-0.8-2.4-1.6-3.9c-0.8-1.6-0.8-2.4-1.6-3.9
		s-0.8-2.4-1.6-3.9s-0.8-2.4-1.6-3.9c-0.8-1.6-0.8-2.4-1.6-3.9c-0.8-1.6-0.8-2.4-1.6-3.9c-0.8-1.6-0.8-2.4-1.6-3.9
		c-0.8-1.6-0.8-2.4-1.6-3.9s-0.8-2.4-1.6-3.9c-0.8-1.6-0.8-2.4-1.6-3.9s-0.8-2.4-1.6-3.9v-0.8c0-2.4-0.8-5.5-2.4-7.8
		c-0.8-1.6-0.8-2.4-1.6-3.9s-0.8-2.4-1.6-3.9c-0.8-1.6-0.8-2.4-1.6-3.9s-0.8-2.4-1.6-3.9c-0.8-1.6-0.8-2.4-1.6-3.9
		c-0.8-1.6-0.8-2.4-1.6-3.9s-0.8-2.4-1.6-3.9c-0.8-1.6-0.8-2.4-1.6-3.9c-0.8-1.6-0.8-2.4-1.6-3.9s-0.8-2.4-1.6-3.9
		c-0.8-1.6-0.8-2.4-1.6-3.9s-0.8-2.4-1.6-3.9c-0.8-1.6-0.8-2.4-1.6-3.9c-0.8-1.6-0.8-2.4-1.6-3.9c-0.8-1.6-0.8-2.4-1.6-3.9
		c-0.8-1.6-0.8-2.4-1.6-3.9c-0.8-1.6-0.8-2.4-1.6-3.9c-2.4-7.8-8.6-13.3-17.2-14.1c-1.6-3.1-2.4-5.5-3.9-8.6l0,0
		c-0.8-3.1-2.4-7.1-3.9-10.2c-0.8-3.1-2.4-7.1-3.9-10.2c-0.8-3.1-2.4-7.1-3.9-10.2c-3.1-10.2-8.6-20.4-14.1-29
		c-21.2-36.9-61.2-63.5-105.1-72.1c-0.8-0.8-0.8-2.4-1.6-3.1c0-0.8-0.8-2.4-0.8-3.1c-0.8-3.1-1.6-5.5-3.1-7.8V69
		c0-0.8-0.8-1.6-0.8-2.4l0,0c0-0.8,0-0.8-0.8-1.6c-0.8-1.6-1.6-3.9-2.4-4.7c-2.4-8.6-10.2-15.7-19.6-15.7c-1.6,0-3.1,0-3.9,0l0,0
		c-9.4,3.9-15.7,11-15.7,20.4c0,2.4,0.8,5.5,1.6,7.8c0,2.4,0.8,3.9,2.4,6.3c0.8,0.8,0.8,2.4,1.6,3.1v0.8
		c-71.4,7.1-128.6,63.5-136.4,134.9l0,0l0,0c0,0.8,0,0.8,0,1.6v0.8l0,0l0,0c0,0,0,0.8,0,1.6v0.8l0,0l0,0c0,0.8,0,0,0,0.8
		c0,0.8,0,2.4,0,2.4H96c-11,0-19.6,9.4-19.6,20.4c0,2.4,0.8,4.7,0.8,6.3c0,2.4,0.8,5.5,2.4,7.8c0.8,1.6,0.8,3.1,1.6,3.9
		c0.8,1.6,0.8,3.1,1.6,3.9c0.8,1.6,0.8,3.1,1.6,3.9c0.8,1.6,0.8,2.4,1.6,3.9c0.8,1.6,0.8,2.4,1.6,3.9c0.8,1.6,0.8,2.4,1.6,3.9
		c0.8,1.6,0.8,2.4,1.6,3.9c0.8,1.6,0.8,2.4,1.6,3.9c0.8,1.6,0.8,2.4,1.6,3.9c0.8,1.6,0.8,2.4,1.6,3.9c0.8,1.6,0.8,2.4,1.6,3.9
		c0.8,1.6,0.8,2.4,1.6,3.9c0.8,1.6,0.8,2.4,1.6,3.9c0.8,1.6,0.8,2.4,1.6,3.9c0.8,1.6,0.8,2.4,1.6,3.9c0.8,1.6,0.8,2.4,1.6,3.9
		c0.8,1.6,0.8,2.4,1.6,3.9v0.8c0,2.4,0.8,5.5,2.4,7.8c0.8,1.6,0.8,2.4,1.6,3.9c0.8,1.6,0.8,2.4,1.6,3.9c0.8,1.6,0.8,2.4,1.6,3.9
		c0.8,1.6,0.8,2.4,1.6,3.9c0.8,1.6,0.8,2.4,1.6,3.9c0.8,1.6,0.8,2.4,1.6,3.9c0.8,1.6,0.8,2.4,1.6,3.9c0.8,1.6,0.8,2.4,1.6,3.9
		c0.8,1.6,0.8,2.4,1.6,3.9c0.8,1.6,0.8,2.4,1.6,3.9c0.8,1.6,0.8,2.4,1.6,3.9c0.8,1.6,0.8,2.4,1.6,3.9c0.8,1.6,0.8,2.4,1.6,3.9
		s0.8,2.4,1.6,3.9c0.8,1.6,0.8,2.4,1.6,3.9c0.8,1.6,0.8,2.4,1.6,3.9v0.8c0,2.4,0.8,5.5,2.4,7.8c0.8,1.6,0.8,2.4,1.6,3.9
		c0.8,1.6,0.8,2.4,1.6,3.9c0.8,1.6,0.8,2.4,1.6,3.9c0.8,1.6,0.8,2.4,1.6,3.9c0,0.8,0.8,1.6,0.8,3.1l4.7,23.5c0,0.8,0,0.8,0.8,1.6
		v1.6c0,1.6,0.8,2.4,1.6,3.9l0,0c0,1.6,0.8,2.4,1.6,3.9l0,0c0,1.6,0.8,2.4,1.6,3.9l0,0c0,1.6,0.8,2.4,1.6,3.9l0,0
		c0,1.6,0.8,2.4,1.6,3.9l0,0c0,1.6,0.8,2.4,1.6,3.9l0,0c0,1.6,0.8,2.4,1.6,3.9l0,0c0,1.6,0.8,2.4,1.6,3.9l0,0c0,1.6,0.8,2.4,1.6,3.9
		l0,0c0,1.6,0.8,2.4,1.6,3.9l0,0c0,1.6,0.8,2.4,1.6,3.9l0,0c27.4,10.2,58,16.5,89.4,16.5C359.5,509.6,448.1,448.5,488.1,359.9z"/>
	<path id="XMLID_5_" class="st2" d="M389.3,254c6.3,0,11,5.5,9.4,12.5l-34.5,179.6c-1.6,6.3-7.8,11-14.9,11h-81.5
		c-6.3,0-17.2,0-23.5,0h-81.5c-6.3,0-13.3-4.7-14.9-11l-34.5-180.3c-1.6-6.3,2.4-11.8,9.4-11.8H389.3z"/>
	<path id="XMLID_6_" class="st3" d="M389.3,254h-15.7c6.3,0,11,5.5,9.4,12.5l-34.5,179.6c-1.6,6.3-7.8,11-14.9,11h15.7
		c6.3,0,13.3-4.7,14.9-11l34.5-180.3C400.3,259.5,395.6,254,389.3,254z"/>
	<path id="XMLID_7_" class="st3" d="M256,417.9c-2.4,0-3.9-1.6-3.9-3.9V294.8c0-2.4,1.6-3.9,3.9-3.9c2.4,0,3.9,1.6,3.9,3.9V414
		C259.9,416.3,258.4,417.9,256,417.9z"/>
	<path id="XMLID_8_" class="st3" d="M296,417.9L296,417.9c-2.4,0-3.9-2.4-3.9-4.7L303.8,294c0-2.4,2.4-3.9,4.7-3.9
		c2.4,0,3.9,2.4,3.9,4.7L300.7,414C299.9,416.3,297.6,417.9,296,417.9z"/>
	<path id="XMLID_9_" class="st3" d="M336,417.9h-0.8c-2.4-0.8-3.9-2.4-3.1-4.7L355.6,294c0.8-2.4,2.4-3.9,4.7-3.1
		c2.4,0.8,3.9,2.4,3.1,4.7l-23.5,119.2C339.1,417.1,337.5,417.9,336,417.9z"/>
	<path id="XMLID_10_" class="st3" d="M216,417.9c-2.4,0-3.9-1.6-3.9-3.9l-11.8-119.2c0-2.4,1.6-3.9,3.9-4.7c2.4,0,3.9,1.6,4.7,3.9
		l11.8,119.2C220.7,415.6,219.1,417.9,216,417.9L216,417.9z"/>
	<path id="XMLID_11_" class="st3" d="M176,417.9c-1.6,0-3.1-1.6-3.9-3.1l-23.5-119.2c-0.8-2.4,0.8-3.9,3.1-4.7
		c2.4-0.8,3.9,0.8,4.7,3.1l23.5,119.2c0.8,2.4-0.8,3.9-3.1,4.7H176z"/>
	<path id="XMLID_12_" class="st4" d="M419.1,221.9h-12.5c-3.9-80-70.6-143.5-151.3-143.5s-146.6,63.5-151.3,143.5H91.3
		c-11,0-19.6,8.6-19.6,19.6c0,11,8.6,19.6,19.6,19.6h326.2c11,0,19.6-8.6,19.6-19.6C437.1,230.5,430.1,221.9,419.1,221.9z"/>
	<path id="XMLID_13_" class="st5" d="M394.8,221.9h11.8c-3.9-80-70.6-142.7-151.3-142.7c-2.4,0-3.9,0-6.3,0
		C328.1,82.3,390.9,145.8,394.8,221.9z"/>
	<path id="XMLID_14_" class="st5" d="M419.1,221.9h-11.8c11,0,19.6,8.6,19.6,19.6c0,11-8.6,19.6-19.6,19.6h11.8
		c11,0,19.6-8.6,19.6-19.6C438.7,230.5,430.1,221.9,419.1,221.9z"/>
	<circle id="XMLID_15_" class="st6" cx="256" cy="63.5" r="19.6"/>
	<path id="XMLID_16_" class="st7" d="M256,43.9c-1.6,0-2.4,0-3.9,0.8c9.4,1.6,15.7,10.2,15.7,19.6s-7.1,18-15.7,19.6
		c1.6,0,2.4,0.8,3.9,0.8c11,0,19.6-8.6,19.6-19.6C275.6,52.5,267,43.9,256,43.9z"/>
	<path id="XMLID_17_" class="st8" d="M406.5,214.1H105.5c0,3.9-0.8,7.8-0.8,7.8h301.9C407.3,221.9,406.5,218,406.5,214.1z"/>
	<path id="XMLID_18_" class="st3" d="M113.3,265l0.8,4.7h283.1l0.8-4.7c0-1.6,0,0,0-3.9H113.3C113.3,265.8,113.3,264.2,113.3,265z"
		/>
</g>
</svg>
