<svg id="Capa_1" enable-background="new 0 0 512 512" height="512" viewBox="0 0 512 512" width="512" xmlns="http://www.w3.org/2000/svg"><g><g><path d="m279.43 14.182c-9.363 0-17.752 4.435-23.429 11.442-5.677-7.007-14.066-11.442-23.429-11.442-17.104 0-30.971 14.797-30.971 33.052 0 15.953 14.577 43.056 46.861 59.65 1.963 1.009 3.992 1.979 6.087 2.905.923.408 1.98.408 2.903 0 2.095-.926 4.124-1.896 6.087-2.905 32.281-16.594 46.858-43.696 46.858-59.65.001-18.254-13.863-33.052-30.967-33.052z" fill="#fc5a95"/><path d="m310.399 47.236c0 15.95-14.58 43.06-46.86 59.65-1.96 1.01-3.99 1.98-6.09 2.9-.92.41-1.98.41-2.9 0-2.1-.92-4.12-1.89-6.09-2.9-2.79-1.43-5.44-2.94-7.96-4.52 26.73-16.66 38.9-40.56 38.9-55.13 0-12.23-6.22-22.9-15.47-28.61 4.56-2.83 9.85-4.44 15.5-4.44 17.1 0 30.97 14.79 30.97 33.05z" fill="#fb3a82"/></g><g><path d="m136.34 141.145h239.32v173.15h-239.32z" fill="#fc7cb6"/><path d="m339.667 141.145h35.993v173.15h-35.993z" fill="#fb5fa7"/><path d="m375.66 141.145v105.97c-21.97 0-39.85-17.88-39.85-39.85v-32.25c0-.64-.52-1.16-1.15-1.16-.64 0-1.16.52-1.16 1.16v14.5c0 19.85-16.15 36-36 36s-36-16.15-36-36v-5.51c0-.28-.22-.5-.5-.5s-.5.22-.5.5v59.26c0 21.97-17.87 39.85-39.84 39.85h-1.32c-21.97 0-39.84-17.88-39.84-39.85v-69.01c0-.28-.22-.5-.5-.5s-.5.22-.5.5v7.9c0 22.61-18.39 41-41 41-.39 0-.77-.01-1.16-.01v-82z" fill="#fb5fa7"/><path d="m40.67 326.095h430.66v143.38h-430.66z" fill="#f69583"/><path d="m435.667 326.095h35.663v143.38h-35.663z" fill="#ea806f"/><path d="m471.33 326.095v51.58c-.67.04-1.34.06-2.02.06h-3.44v23.21c0 19.4-15.78 35.19-35.18 35.19h-4c-18.54 0-33.78-14.42-35.1-32.63h-14.37c-17.77 0-32.5-13.24-34.86-30.37h-15.86v102.24h-79.69v-120.1c0-.64-.52-1.16-1.15-1.16-.64 0-1.16.52-1.16 1.16v26.51c0 19.85-16.15 36-36 36s-36-16.15-36-36v-5.52c0-.27-.22-.5-.5-.5s-.5.23-.5.5v99.11h-81v-108.86c0-.27-.22-.5-.5-.5s-.5.23-.5.5v7.9c0 22.61-18.39 41-41 41-2.68 0-5.3-.26-7.83-.75v-88.57z" fill="#ea806f"/><g><path d="m474.388 497.818h-436.776c-16.631 0-30.112-13.482-30.112-30.112v-2.329c0-5.523 4.477-10 10-10h477c5.523 0 10 4.477 10 10v2.329c0 16.63-13.482 30.112-30.112 30.112z" fill="#b5dbfd"/><path d="m504.5 465.376v2.33c0 16.63-13.48 30.11-30.11 30.11h-36.24c16.63 0 30.11-13.48 30.11-30.11v-2.33c0-5.52-4.47-10-10-10h36.24c5.52 0 10 4.48 10 10z" fill="#8dcafc"/></g><g><path d="m27.5 322.363v52.058c0 11.598 9.402 21 21 21 11.598 0 21-9.402 21-21v-7.904c0-11.322 9.178-20.5 20.5-20.5 11.322 0 20.5 9.178 20.5 20.5v88.86h41v-79.107c0-11.322 9.178-20.5 20.5-20.5 11.322 0 20.5 9.178 20.5 20.5v5.511c0 8.837 7.163 16 16 16 8.837 0 16-7.163 16-16v-26.505c0-11.685 9.472-21.157 21.157-21.157 11.685 0 21.157 9.472 21.157 21.157v100.099h39.686v-87.058c0-8.387 6.799-15.186 15.186-15.186h25.164c8.387 0 15.186 6.799 15.186 15.186 0 8.387 6.799 15.186 15.186 15.186h19.091c8.387 0 15.186 6.799 15.186 15.186v2.255c0 8.387 6.799 15.186 15.186 15.186h3.999c8.387 0 15.186-6.799 15.186-15.186v-28.022c0-8.387 6.799-15.186 15.186-15.186h8.255c8.387 0 15.186-6.799 15.186-15.186v-19.132c0-11.026-8.923-19.972-19.949-20l-417-1.056c-11.063-.027-20.048 8.935-20.048 20.001z" fill="#fcddb3"/><path d="m484.5 323.415v19.14c0 8.38-6.8 15.18-15.19 15.18h-8.25c-8.39 0-15.19 6.8-15.19 15.19v28.02c0 8.39-6.8 15.19-15.18 15.19h-4c-4.74 0-8.97-2.17-11.75-5.57 2.14-2.62 3.43-5.96 3.43-9.62v-28.02c0-8.39 6.8-15.19 15.19-15.19h8.25c8.39 0 15.19-6.8 15.19-15.18v-19.14c0-11.02-8.92-19.97-19.95-20l-391.1-.98c.53-.05 1.06-.07 1.6-.07l417 1.05c11.03.03 19.95 8.98 19.95 20z" fill="#fbcc85"/></g><path d="m294.333 455.376h40v42.442h-40z" fill="#fcddb3"/><g><path d="m116.5 130.098v52.058c0 11.598 9.402 21 21 21 11.598 0 21-9.402 21-21v-7.904c0-11.322 9.178-20.5 20.5-20.5 11.322 0 20.5 9.178 20.5 20.5v69.017c0 10.959 8.884 19.843 19.843 19.843h1.314c10.959 0 19.843-8.884 19.843-19.843v-59.263c0-11.322 9.178-20.5 20.5-20.5 11.322 0 20.5 9.178 20.5 20.5v5.511c0 8.837 7.163 16 16 16 8.837 0 16-7.163 16-16v-14.505c0-11.685 9.472-21.157 21.157-21.157 11.685 0 21.157 9.472 21.157 21.157v32.256c0 10.959 8.884 19.843 19.843 19.843 10.959 0 19.843-8.884 19.843-19.843v-77.17c0-11.046-8.954-20-20-20h-239c-11.046 0-20 8.955-20 20z" fill="#fcddb3"/></g><g><path d="m395.5 130.095v77.17c0 5.48-2.22 10.44-5.81 14.04-3.59 3.59-8.55 5.81-14.03 5.81-5.34 0-10.18-2.1-13.75-5.54.1-.09.19-.18.28-.27 3.59-3.6 5.81-8.56 5.81-14.04v-77.17c0-11.04-8.95-20-20-20h27.5c11.05 0 20 8.96 20 20z" fill="#fbcc85"/></g></g><g fill="#fac574"><path d="m90.348 261.256c0 7.413-6.01 13.423-13.423 13.423s-13.423-6.01-13.423-13.423 6.01-21.114 13.423-21.114 13.423 13.701 13.423 21.114z"/><path d="m448.498 261.256c0 7.413-6.01 13.423-13.423 13.423s-13.423-6.01-13.423-13.423 6.01-21.114 13.423-21.114 13.423 13.701 13.423 21.114z"/><path d="m171.648 65.994c0 7.413-6.01 13.423-13.423 13.423s-13.423-6.01-13.423-13.423 6.01-21.114 13.423-21.114 13.423 13.7 13.423 21.114z"/><path d="m367.198 65.994c0 7.413-6.01 13.423-13.423 13.423s-13.423-6.01-13.423-13.423 6.01-21.114 13.423-21.114 13.423 13.7 13.423 21.114z"/></g><path d="m494.5 447.876h-15.675v-84.737c7.77-3.604 13.175-11.475 13.175-20.589v-19.132c0-15.125-12.305-27.462-27.431-27.5l-21.994-.056v-15.098c7.838-3.024 13.423-10.618 13.423-19.509 0-9.711-7.385-28.614-20.923-28.614s-20.923 18.902-20.923 28.614c0 8.892 5.585 16.485 13.423 19.509v15.06l-44.418-.112v-62.155c11.441-3.269 19.843-13.812 19.843-26.288v-24.679c0-4.142-3.357-7.5-7.5-7.5s-7.5 3.358-7.5 7.5v24.678c0 6.806-5.537 12.343-12.344 12.343-6.806 0-12.343-5.537-12.343-12.343v-32.256c0-15.801-12.855-28.657-28.657-28.657-15.801 0-28.656 12.855-28.656 28.657v14.505c0 4.687-3.813 8.5-8.5 8.5s-8.5-3.813-8.5-8.5v-5.511c0-15.439-12.561-28-28-28s-28 12.561-28 28v59.263c0 6.806-5.537 12.343-12.343 12.343h-1.314c-6.806 0-12.343-5.537-12.343-12.343v-69.017c0-15.439-12.561-28-28-28s-28 12.561-28 28v7.904c0 7.444-6.056 13.5-13.5 13.5s-13.5-6.056-13.5-13.5v-52.058c0-6.893 5.607-12.5 12.5-12.5h239c6.893 0 12.5 5.607 12.5 12.5v19.502c0 4.142 3.357 7.5 7.5 7.5s7.5-3.358 7.5-7.5v-19.501c0-15.164-12.337-27.5-27.5-27.5h-14.225v-17.096c7.838-3.024 13.423-10.618 13.423-19.509 0-9.711-7.385-28.614-20.923-28.614s-20.923 18.902-20.923 28.614c0 8.892 5.585 16.485 13.423 19.509v17.095h-61.983c22.127-16.994 33.605-39.208 33.605-55.363 0-22.36-17.257-40.552-38.468-40.552-8.56 0-16.768 2.989-23.429 8.385-6.661-5.396-14.87-8.385-23.429-8.385-21.213 0-38.472 18.192-38.472 40.552 0 16.156 11.48 38.37 33.608 55.363h-61.984v-17.095c7.838-3.024 13.423-10.618 13.423-19.509 0-9.711-7.385-28.614-20.923-28.614s-20.923 18.902-20.923 28.614c0 8.892 5.585 16.485 13.423 19.509v17.095h-14.223c-15.163 0-27.5 12.336-27.5 27.5v52.058c0 12.697 8.348 23.478 19.843 27.152v85.76l-44.418-.112v-14.191c7.838-3.024 13.423-10.618 13.423-19.509 0-9.711-7.385-28.614-20.923-28.614s-20.923 18.902-20.923 28.614c0 8.892 5.585 16.485 13.423 19.509v14.153l-21.854-.055c-.024 0-.049 0-.073 0-7.331 0-14.225 2.85-19.418 8.029-5.21 5.197-8.079 12.111-8.079 19.47v52.058c0 10.076 5.261 18.941 13.175 24.01v49.446h-15.676c-9.649 0-17.5 7.851-17.5 17.5v2.329c0 20.739 16.873 37.612 37.612 37.612h436.775c20.739 0 37.612-16.873 37.612-37.612v-2.329c.001-9.649-7.85-17.5-17.499-17.5zm-59.425-200.096c2.202 1.445 5.923 8.581 5.923 13.476 0 3.266-2.657 5.923-5.923 5.923s-5.923-2.657-5.923-5.923c0-4.895 3.721-12.031 5.923-13.476zm-81.3-195.262c2.202 1.445 5.923 8.581 5.923 13.476 0 3.266-2.657 5.923-5.923 5.923s-5.923-2.657-5.923-5.923c.001-4.895 3.721-12.031 5.923-13.476zm-144.674-5.283c0-14.089 10.529-25.552 23.472-25.552 6.725 0 13.141 3.158 17.602 8.664 1.424 1.757 3.565 2.778 5.827 2.778 2.263 0 4.403-1.021 5.828-2.779 4.46-5.505 10.875-8.663 17.601-8.663 12.94 0 23.468 11.463 23.468 25.552 0 11.979-11.616 36.956-42.784 52.979-1.345.691-2.723 1.362-4.112 2.003-1.392-.642-2.769-1.313-4.11-2.002-31.175-16.024-42.792-41.001-42.792-52.98zm-50.876 5.283c2.202 1.445 5.923 8.581 5.923 13.476 0 3.266-2.657 5.923-5.923 5.923s-5.923-2.657-5.923-5.923c0-4.895 3.72-12.031 5.923-13.476zm-81.3 195.262c2.202 1.445 5.923 8.581 5.923 13.476 0 3.266-2.657 5.923-5.923 5.923s-5.923-2.657-5.923-5.923c0-4.895 3.721-12.031 5.923-13.476zm-41.925 74.582c0-3.345 1.305-6.488 3.673-8.85 2.36-2.354 5.493-3.65 8.826-3.65h.033l112.555.285h.019c4.134 0 7.489-3.346 7.5-7.481.011-4.142-3.339-7.509-7.481-7.519l-16.281-.041v-85.17c12.671-2.892 22.157-14.245 22.157-27.78v-7.904c0-7.168 5.832-13 13-13s13 5.832 13 13v69.017c0 15.077 12.266 27.343 27.343 27.343h1.314c15.077 0 27.343-12.266 27.343-27.343v-59.263c0-7.168 5.832-13 13-13s13 5.832 13 13v5.511c0 12.958 10.542 23.5 23.5 23.5s23.5-10.542 23.5-23.5v-14.505c0-7.53 6.127-13.657 13.657-13.657s13.656 6.126 13.656 13.657v32.256c0 12.476 8.403 23.02 19.844 26.289v62.117l-175.043-.443c-.006 0-.013 0-.019 0-4.134 0-7.489 3.345-7.5 7.481-.011 4.142 3.339 7.508 7.481 7.519l271.455.688c6.875.017 12.468 5.625 12.468 12.5v19.132c0 4.238-3.448 7.687-7.687 7.687h-8.255c-12.51 0-22.687 10.177-22.687 22.686v28.022c0 4.238-3.448 7.686-7.687 7.686h-3.999c-4.238 0-7.687-3.448-7.687-7.686v-2.255c0-12.509-10.177-22.687-22.687-22.687h-19.091c-4.238 0-7.687-3.448-7.687-7.686 0-12.509-10.177-22.687-22.687-22.687h-25.163c-12.51 0-22.687 10.177-22.687 22.687v79.558h-24.687v-92.6c0-15.801-12.855-28.657-28.657-28.657-15.801 0-28.656 12.855-28.656 28.657v26.505c0 4.687-3.813 8.5-8.5 8.5s-8.5-3.813-8.5-8.5v-5.511c0-15.439-12.561-28-28-28s-28 12.561-28 28v71.606h-26v-81.36c0-15.439-12.561-28-28-28s-28 12.561-28 28v7.904c0 7.444-6.056 13.5-13.5 13.5s-13.496-6.056-13.496-13.5zm124 125.514v-71.606c0-7.168 5.832-13 13-13s13 5.832 13 13v5.511c0 12.958 10.542 23.5 23.5 23.5s23.5-10.542 23.5-23.5v-26.505c0-7.53 6.127-13.657 13.657-13.657s13.656 6.126 13.656 13.657v92.6zm-110.825-44.964c.109.001.216.008.325.008 15.715 0 28.5-12.785 28.5-28.5v-7.904c0-7.168 5.832-13 13-13s13 5.832 13 13v81.36h-54.825zm-33.175 64.793v-2.329c0-1.378 1.121-2.5 2.5-2.5h269.333v27.441h-249.221c-12.468 0-22.612-10.144-22.612-22.612zm286.833-4.829h25v27.442h-25zm195.167 4.829c0 12.468-10.144 22.612-22.612 22.612h-132.555v-27.441h28.598c4.143 0 7.5-3.358 7.5-7.5s-3.357-7.5-7.5-7.5h-56.431v-79.558c0-4.238 3.448-7.687 7.687-7.687h25.163c4.238 0 7.687 3.448 7.687 7.687 0 12.509 10.177 22.686 22.687 22.686h19.091c4.238 0 7.687 3.448 7.687 7.687v2.255c0 12.509 10.177 22.686 22.687 22.686h3.999c12.51 0 22.687-10.177 22.687-22.686v-28.022c0-4.238 3.448-7.686 7.687-7.686h2.767v82.639h-60.404c-4.143 0-7.5 3.358-7.5 7.5s3.357 7.5 7.5 7.5h91.075c1.379 0 2.5 1.122 2.5 2.5z"/></g></svg>