<svg id="Capa_1" enable-background="new 0 0 512 512" height="512" viewBox="0 0 512 512" width="512" xmlns="http://www.w3.org/2000/svg"><g id="XMLID_2425_"><g id="XMLID_546_"><path id="XMLID_1425_" d="m478 316h-20v-114c0-26.899-21.354-48.895-48-49.949v-51.301c0-19.679-12.228-36.544-29.48-43.43 1.209-3.601 1.847-7.411 1.847-11.32 0-9.471-3.688-18.374-10.385-25.071l-18-18c-3.905-3.904-10.237-3.904-14.143 0l-18 18c-8.956 8.957-12.102 21.552-9.452 33.071h-21.864c2.649-11.52-.496-24.114-9.452-33.071l-18-18c-3.905-3.904-10.237-3.904-14.143 0l-18 18c-8.956 8.957-12.102 21.552-9.452 33.071h-21.864c2.649-11.52-.496-24.114-9.452-33.071l-18-18c-3.905-3.904-10.237-3.904-14.143 0l-18 18c-6.697 6.697-10.385 15.6-10.385 25.071 0 3.91.638 7.719 1.847 11.32-17.251 6.885-29.479 23.751-29.479 43.43v51.301c-26.646 1.054-48 23.049-48 49.949v114h-20c-18.748 0-34 15.252-34 34s15.252 34 34 34h184v43.938l-33.049 14.634c-3.618 1.602-5.951 5.186-5.951 9.143v50.285c0 5.522 4.477 10 10 10h134c5.523 0 10-4.478 10-10v-50.285c0-3.957-2.333-7.542-5.951-9.143l-33.049-14.635v-43.937h45c5.523 0 10-4.478 10-10s-4.477-10-10-10h-305c-7.72 0-14-6.28-14-14s6.28-14 14-14h444c7.72 0 14 6.28 14 14s-6.28 14-14 14h-49c-5.523 0-10 4.478-10 10s4.477 10 10 10h49c18.748 0 34-15.252 34-34s-15.252-34-34-34zm-165 176h-114v-33.776l57-25.239 57 25.239zm-39-108v35.082l-13.951-6.177c-2.578-1.143-5.519-1.143-8.098 0l-13.951 6.176v-35.081zm61.983-348.929 10.929-10.929 10.929 10.929c5.126 5.126 5.892 12.985 2.298 18.929h-26.453c-3.595-5.944-2.829-13.803 2.297-18.929zm-90.912 0 10.929-10.929 10.929 10.929c5.125 5.126 5.892 12.985 2.297 18.929h-26.452c-3.594-5.944-2.828-13.803 2.297-18.929zm-90.911 0 10.929-10.929 10.929 10.929c5.126 5.126 5.892 12.985 2.297 18.929h-26.453c-3.594-5.944-2.828-13.803 2.298-18.929zm-32.16 65.679c0-14.75 12-26.75 26.75-26.75h214.5c14.75 0 26.75 12 26.75 26.75v51.25h-268zm-18 71.25h304c16.542 0 30 13.458 30 30v29.357c-22.711 19.801-57.31 18.907-78.929-2.712-3.905-3.904-10.237-3.904-14.143 0-22.567 22.568-59.29 22.568-81.857 0-3.905-3.904-10.237-3.904-14.143 0-10.932 10.933-25.468 16.953-40.929 16.953s-29.997-6.021-40.929-16.953c-3.905-3.904-10.237-3.904-14.143 0-21.617 21.618-56.216 22.513-78.927 2.712v-29.357c0-16.542 13.458-30 30-30zm-30 144v-60.287c11.483 6.44 24.473 9.885 38 9.885 17.626 0 34.358-5.816 48.005-16.539 28.083 22.003 67.914 22.003 95.995-.004 28.081 22.007 67.912 22.007 95.995.004 13.647 10.724 30.378 16.539 48.005 16.539 13.527 0 26.517-3.445 38-9.885v60.287z"/><path id="XMLID_1434_" d="m384 364c-2.63 0-5.21 1.069-7.07 2.93-1.86 1.86-2.93 4.44-2.93 7.07s1.07 5.21 2.93 7.069c1.86 1.86 4.44 2.931 7.07 2.931s5.21-1.07 7.07-2.931c1.86-1.859 2.93-4.439 2.93-7.069s-1.07-5.21-2.93-7.07c-1.86-1.861-4.44-2.93-7.07-2.93z"/></g></g></svg>