<svg id="Capa_1" enable-background="new 0 0 512 512" height="512" viewBox="0 0 512 512" width="512" xmlns="http://www.w3.org/2000/svg"><g><path d="m397 197 20 315c1.793 0 3.577-.321 5.267-.955.406-.1.915-.213 1.514-.352 8.292-1.917 30.318-7.01 50.251-23.396 25.194-20.709 37.968-51.09 37.968-90.297v-200z" fill="#ff7038"/><path d="m0 197v160c0 6.383 4.039 12.066 10.066 14.165l402 140c1.604.56 3.271.835 4.933.835h.001v-315z" fill="#ffde46"/><path d="m237 450.197 175.066 60.968c1.604.56 3.271.835 4.933.835h.001v-315h-180z" fill="#ff9d21"/><path d="m0 287.66 417 145.224v-31.768l-417-145.223z" fill="#f5f0eb"/><path d="m237 370.197 180 62.687v-31.768l-180-62.686z" fill="#ebe1dc"/><path d="m424.615 44.077c-3.804-2.242-8.402-2.693-12.57-1.235-20.274 7.096-98.603 34.355-181.529 63.216-94.377 32.845-191.968 66.809-220.471 76.784-6.023 2.108-10.053 7.796-10.045 14.177s4.052 12.059 10.08 14.151l261.92 91.216v74.614c0 19.33 15.67 35 35 35 19.33 0 35-15.67 35-35v-50.236l70.045 24.394c4.166 1.459 8.766 1.007 12.57-1.235 3.569-2.103 87.385-52.649 87.385-152.923 0-4.142-.993-102.014-87.385-152.923z" fill="#ffef7b"/><path d="m424.615 44.077c-3.804-2.242-8.402-2.693-12.57-1.235-19.745 6.91-94.553 32.946-175.045 60.959v186.396l35 12.189v74.614c0 19.33 15.67 35 35 35s35-15.67 35-35v-50.236l70.045 24.394c4.166 1.459 8.766 1.007 12.57-1.235 3.569-2.103 87.385-52.649 87.385-152.923 0-4.142-.993-102.014-87.385-152.923z" fill="#ffde46"/><g fill="#ff9d21"><circle cx="412" cy="132" r="15"/><circle cx="432" cy="202" r="15"/><circle cx="382" cy="262" r="15"/><circle cx="352" cy="192" r="15"/></g><path d="m237 90.003c-8.284 0-15-6.716-15-15 0-18.954-10.532-35.995-27.485-44.473l-4.223-2.111c-7.41-3.704-10.413-12.715-6.708-20.124 3.706-7.409 12.718-10.412 20.124-6.708l4.223 2.111c27.183 13.592 44.069 40.914 44.069 71.305 0 8.284-6.716 15-15 15z" fill="#beda4b"/><path d="m237 90.002c8.284 0 15-6.716 15-15 0-17.179-5.399-33.375-15-46.668z" fill="#14cd6e"/><path d="m237 190c-35.841 0-65-29.159-65-65s29.159-65 65-65 65 29.159 65 65-29.159 65-65 65z" fill="#ff4169"/><path d="m302 125c0-35.841-29.159-65-65-65v130c35.841 0 65-29.159 65-65z" fill="#cf3160"/></g></svg>