<?xml version="1.0" encoding="iso-8859-1"?>
<!-- Generator: Adobe Illustrator 19.0.0, SVG Export Plug-In . SVG Version: 6.00 Build 0)  -->
<svg version="1.1" id="Capa_1" xmlns="http://www.w3.org/2000/svg" xmlns:xlink="http://www.w3.org/1999/xlink" x="0px" y="0px"
	 viewBox="0 0 512.001 512.001" style="enable-background:new 0 0 512.001 512.001;" xml:space="preserve">
<g>
	<path style="fill:#55C2E3;" d="M128.692,239.006h-28.555l-35.771,45.416l28.209,176.919c3.964,24.863,25.409,43.16,50.586,43.16
		h11.366l21.076-139.037L128.692,239.006z"/>
	<path style="fill:#55C2E3;" d="M383.309,239.006h28.555l35.771,45.416l-28.209,176.919c-3.964,24.863-25.409,43.16-50.586,43.16
		h-11.366l-21.076-139.037L383.309,239.006z"/>
</g>
<g>
	<polygon style="fill:#F3F5E6;" points="217.757,504.501 154.528,504.501 119.853,270.96 128.692,239.006 196.31,239.006 
		258.365,371.753 	"/>
	<polygon style="fill:#F3F5E6;" points="294.244,504.501 357.473,504.501 392.147,270.96 383.309,239.006 315.691,239.006 
		253.636,371.753 	"/>
</g>
<polygon style="fill:#55C2E3;" points="196.31,292.775 217.757,504.501 294.244,504.501 315.691,292.775 320.419,239.006 
	196.31,239.006 "/>
<path style="fill:#45B6D9;" d="M122.575,461.341L94.366,284.422l34.788-44.169l-0.463-1.247l0,0h-28.555l-35.771,45.416
	l28.209,176.919c3.964,24.863,25.409,43.16,50.586,43.16h11.366l0.502-3.313C138.272,494.841,125.539,479.928,122.575,461.341z"/>
<path style="fill:#FB8D4B;" d="M256,298.496c19.737,0,36.24-13.844,40.33-32.351v0.008c4.093,18.503,20.594,32.343,40.328,32.343
	c19.737,0,36.24-13.844,40.33-32.351v0.008c4.093,18.503,20.594,32.343,40.328,32.343c0.548,0,1.094-0.011,1.637-0.032
	c22.171-0.864,39.295-20.009,38.523-42.183C452.897,124.59,356.362,68.355,256,68.355S59.104,124.59,54.523,256.281
	c-0.771,22.174,16.353,41.319,38.523,42.183c0.543,0.021,1.089,0.032,1.637,0.032c19.734,0,36.236-13.84,40.328-32.343v-0.008
	c4.09,18.507,20.593,32.351,40.33,32.351c19.734,0,36.236-13.84,40.328-32.343v-0.008C219.76,284.652,236.264,298.496,256,298.496z"
	/>
<path style="fill:#E86D24;" d="M84.523,256.281C88.875,131.168,176.224,74.168,271,68.785c-4.984-0.283-9.986-0.43-15-0.43
	c-100.362,0-196.896,56.235-201.477,187.927c-0.771,22.174,16.353,41.318,38.523,42.183c0.543,0.021,1.089,0.032,1.637,0.032
	c5.35,0,10.459-1.024,15.151-2.876C94.461,289.393,83.914,273.785,84.523,256.281z"/>
<circle style="fill:#FEC300;" cx="119.98" cy="112.42" r="18.735"/>
<circle style="fill:#F9545B;" cx="60.835" cy="206.83" r="18.735"/>
<circle style="fill:#55C2E3;" cx="392.02" cy="112.42" r="18.735"/>
<circle style="fill:#4CC7B3;" cx="451.17" cy="206.83" r="18.735"/>
<circle style="fill:#F9545B;" cx="256" cy="80.59" r="32.3"/>
<path style="fill:#BDBFB4;" d="M173.156,504.501c-6.753-0.001-13.233-1.329-19.183-3.736l0.555,3.736H173.156z"/>
<path d="M169.825,210.708c4.143,0,7.5-3.358,7.5-7.5v-15.596c0-4.142-3.357-7.5-7.5-7.5c-4.142,0-7.5,3.358-7.5,7.5v15.596
	C162.325,207.35,165.683,210.708,169.825,210.708z"/>
<path d="M342.176,210.708c4.142,0,7.5-3.358,7.5-7.5v-15.596c0-4.142-3.358-7.5-7.5-7.5s-7.5,3.358-7.5,7.5v15.596
	C334.676,207.35,338.034,210.708,342.176,210.708z"/>
<path d="M256.001,219.033c10.454,0,20.264-4.364,26.916-11.974c2.726-3.119,2.408-7.857-0.711-10.583
	c-3.119-2.727-7.857-2.408-10.583,0.71c-3.803,4.351-9.497,6.846-15.622,6.846s-11.819-2.496-15.623-6.847
	c-2.726-3.118-7.463-3.437-10.583-0.71c-3.119,2.726-3.437,7.464-0.71,10.583C235.736,214.669,245.546,219.033,256.001,219.033z"/>
<path d="M60.835,180.593c-14.466,0-26.235,11.769-26.235,26.235c0,10.275,5.94,19.185,14.565,23.487
	c-1.111,8.33-1.834,16.946-2.139,25.705c-0.413,11.879,3.485,22.925,10.255,31.6l27.887,174.902
	c4.571,28.67,28.961,49.479,57.993,49.479h225.678c29.032,0,53.421-20.809,57.993-49.479l27.887-174.901
	c6.769-8.675,10.667-19.721,10.254-31.601c-0.305-8.759-1.026-17.375-2.138-25.705c8.625-4.303,14.566-13.212,14.566-23.487
	c0-14.466-11.769-26.235-26.235-26.235c-0.292,0-0.58,0.013-0.869,0.022c-8.271-21.283-19.964-40.214-34.846-56.422
	c1.787-3.543,2.799-7.54,2.799-11.771c0-14.466-11.769-26.235-26.235-26.235c-6.153,0-11.814,2.135-16.293,5.696
	c-24.239-14.576-53.037-24.389-83.897-28.605C285.946,51.163,274.1,42.46,260.13,41.012c1.841-12.503,7.144-21.638,15.847-27.188
	c3.493-2.227,4.518-6.864,2.291-10.356c-2.228-3.492-6.864-4.518-10.356-2.291c-13.258,8.456-21.145,22.642-23.05,41.219
	C234,45.569,225.043,53.25,220.176,63.277c-30.86,4.217-59.658,14.029-83.897,28.605c-4.479-3.561-10.14-5.696-16.293-5.696
	c-14.466,0-26.235,11.769-26.235,26.235c0,4.231,1.013,8.228,2.799,11.771c-14.882,16.208-26.575,35.14-34.846,56.422
	C61.415,180.606,61.127,180.593,60.835,180.593z M60.835,195.593c6.025,0,11.235,5.2,11.235,11.235
	c0,6.041-5.184,11.235-11.235,11.235c-6.117,0-11.235-5.122-11.235-11.235C49.6,200.633,54.64,195.593,60.835,195.593z
	 M99.982,460.16L74.694,301.562c4.844,2.272,10.131,3.748,15.706,4.244c3.453,0.308,6.9,0.213,10.34-0.194
	c0.037-0.004,0.074-0.012,0.111-0.016c5.54-0.704,10.895-2.339,15.843-4.843l29.036,195.563l0.102,0.686h-2.67
	C121.545,497.001,103.385,481.507,99.982,460.16z M136.785,286.998c9.145,11.715,23.662,18.998,38.557,18.998
	c4.917,0,9.85-0.752,14.544-2.217l2.741,27.059c0.417,4.121,4.094,7.122,8.218,6.706c4.121-0.417,7.123-4.097,6.706-8.218
	l-3.323-32.806c4.484-3.3,8.354-7.333,11.458-11.885c0.972,1.415,2.03,2.768,3.145,4.072c9.205,10.768,22.968,17.289,37.17,17.289
	c15.19,0,30.115-7.65,39.175-19.805c0.384-0.515,0.775-1.025,1.14-1.556c3.104,4.552,6.974,8.584,11.458,11.885l-20.308,200.481
	h-62.93l-14.007-138.284c-0.418-4.122-4.1-7.121-8.218-6.706c-4.121,0.417-7.124,4.097-6.706,8.218l13.854,136.772h-48.462
	l-30.658-206.49c1.726-1.84,3.295-3.797,4.702-5.857C135.592,285.455,136.187,286.231,136.785,286.998z M412.019,460.16
	c-3.403,21.347-21.563,36.841-43.18,36.841h-2.67l6.803-45.82c0.608-4.098-2.22-7.912-6.317-8.521c-4.1-0.609-7.912,2.22-8.52,6.317
	L351.005,497h-48.462c0,0,19.563-193.121,19.573-193.223c-0.136,1.345,13.326,2.217,14.544,2.217
	c15.907,0,31.308-8.254,40.301-21.342c1.407,2.06,2.977,4.016,4.703,5.857c0,0-19.111,128.721-19.127,128.827
	c-0.596,4.016,2.311,7.925,6.317,8.521c4.04,0.601,7.922-2.29,8.52-6.317l17.933-120.789c4.948,2.504,10.302,4.139,15.84,4.843
	c0.039,0.005,0.077,0.012,0.116,0.017c8.82,1.102,17.944-0.25,26.045-4.05L412.019,460.16z M462.401,206.828
	c0,5.75-4.577,10.634-10.255,11.185c-6.467,0.628-12.214-4.732-12.214-11.186c0-6.087,5.145-11.234,11.235-11.234
	C457.361,195.593,462.401,200.633,462.401,206.828z M403.251,112.422c0,6.047-5.126,11.22-11.235,11.235
	c-6.195,0-11.235-5.04-11.235-11.235c0-6.055,5.176-11.235,11.235-11.235C398.211,101.187,403.251,106.227,403.251,112.422z
	 M256.001,55.798c13.262,0,24.784,11.547,24.794,24.795c0,13.671-11.123,24.794-24.794,24.794s-24.794-11.123-24.795-24.794
	C231.206,67.21,242.608,55.798,256.001,55.798z M119.985,101.187c6.036,0,11.235,5.188,11.235,11.235
	c0,6.045-5.182,11.235-11.235,11.235c-6.06,0-11.235-5.168-11.235-11.235C108.75,106.227,113.79,101.187,119.985,101.187z
	 M106.863,135.125c3.969,2.303,8.533,3.532,13.122,3.532c9.589,0,18.599-5.423,23.13-13.868c3.345-6.234,4.024-13.755,1.815-20.48
	c-0.012-0.036-0.02-0.073-0.032-0.108c20.752-12.312,45.127-20.914,71.338-25.187c-0.021,0.524-0.031,1.051-0.031,1.578
	c0,21.943,17.852,39.794,39.795,39.794c21.942,0,39.795-17.852,39.795-39.794c0-0.527-0.011-1.053-0.031-1.578
	c26.209,4.273,50.588,12.875,71.337,25.187c-0.012,0.035-0.02,0.072-0.031,0.107c-2.795,8.874-0.741,18.843,5.533,25.744
	c8.172,8.989,22.026,11.169,32.533,5.073c13.112,14.479,23.485,31.33,30.925,50.241c-5.328,3.735-9.079,9.344-10.497,15.749
	c-0.415,1.873-0.634,3.795-0.634,5.713c0,9.359,5.292,18.316,13.445,22.894c2.971,1.668,6.289,2.761,9.675,3.157
	c1.003,7.664,1.65,15.596,1.931,23.663c0.625,17.979-14.514,34.454-32.664,34.454c-15.053,0-30.03-11.235-32.968-26.292
	c-0.618-3.166-3.338-5.665-6.547-6.015c-3.746-0.408-7.324,2.157-8.138,5.837c-3.353,15.164-17.498,26.469-33.007,26.469
	c-12.712,0-24.751-7.535-30.351-18.941c-2.387-4.862-2.463-12.902-9.439-13.382c-3.699-0.27-7.055,2.208-7.861,5.854
	c-3.389,15.337-17.271,26.469-33.007,26.469s-29.618-11.132-33.007-26.469c-0.792-3.572-4.175-6.102-7.827-5.852
	c-3.164,0.208-5.892,2.47-6.718,5.531c-4.073,15.1-17.099,26.791-33.107,26.791c-15.736,0-29.618-11.132-33.008-26.469
	c-1.673-7.57-13.132-7.483-14.677,0.146c-3.073,15.172-17.694,26.323-32.975,26.323c-18.471,0-33.299-16.208-32.665-34.454
	c0.28-8.066,0.929-15.999,1.932-23.663c0.011-0.049,1.385-0.206,1.77-0.279c13.003-2.473,22.346-14.798,21.252-27.984
	c-0.021-0.252-0.045-0.505-0.074-0.756c-0.84-7.392-4.863-14.221-10.958-18.494C83.378,166.456,93.751,149.605,106.863,135.125z"/>
<g>
</g>
<g>
</g>
<g>
</g>
<g>
</g>
<g>
</g>
<g>
</g>
<g>
</g>
<g>
</g>
<g>
</g>
<g>
</g>
<g>
</g>
<g>
</g>
<g>
</g>
<g>
</g>
<g>
</g>
</svg>
