<svg xmlns="http://www.w3.org/2000/svg" viewBox="0 0 400 300" width="406" height="306" class="illustration styles_illustrationTablet__1DWOa"><g id="_425_dessert_flatline" data-name="#425_dessert_flatline"><ellipse cx="200" cy="210.51" rx="118.36" ry="46.97" fill="#fff"></ellipse><path d="M200,258c-65.54,0-118.86-21.29-118.86-47.47S134.46,163,200,163s118.86,21.29,118.86,47.47S265.54,258,200,258ZM200,164c-65,0-117.86,20.85-117.86,46.47S135,257,200,257s117.86-20.85,117.86-46.47S265,164,200,164Z" fill="#231f20"></path><path d="M200,250.73c-58.72,0-106.49-18-106.49-40.22S141.28,170.29,200,170.29s106.49,18,106.49,40.22S258.72,250.73,200,250.73Zm0-79.44c-58.17,0-105.49,17.59-105.49,39.22S141.83,249.73,200,249.73s105.49-17.59,105.49-39.22S258.17,171.29,200,171.29Z" fill="#d1d3d4"></path><path d="M132.37,228.06c3.2,1.64,6.91,1.91,10.39,2.84,6.11,1.63,11.48,5.2,17.36,7.42s12.33,1.71,18.56,2.33c14.38,1.43,28.91,3.93,43.35,1.73,10.5-1.59,20.29-5.66,29.87-10.09,7.24-3.35,15.56-2.49,22.17-7.37,4.41-3.26,7.11-8.34,8.88-13.53a40.8,40.8,0,0,0,2-19.81c-.48-2.82-1.43-5.72-3.56-7.63a15,15,0,0,0-5.55-2.75,107.52,107.52,0,0,0-25.75-4.89,60.72,60.72,0,0,0-14.32.5c-5.3.92-10.37,2.83-15.46,4.59C192.82,190.92,164,196,135.42,201.53c-6.2,1.2-14.39,2.2-13.48,10.14C122.62,217.69,126.94,225.26,132.37,228.06Z" fill="#fff"></path><path d="M209.78,243.75A207.47,207.47,0,0,1,186.57,242c-2.65-.3-5.3-.6-7.94-.86-1.8-.18-3.67-.27-5.48-.36-4.44-.2-9-.42-13.21-2-2.43-.92-4.8-2.08-7.09-3.2a57.37,57.37,0,0,0-10.22-4.21c-1.11-.3-2.28-.53-3.41-.76a27.09,27.09,0,0,1-7.08-2.12h0c-5.85-3-10-10.89-10.7-16.77-.9-7.91,6.64-9.32,12.69-10.46l1.19-.23,8.68-1.67c25.31-4.87,51.47-9.9,76.17-18.44l2-.7a84.6,84.6,0,0,1,13.52-3.91,59.78,59.78,0,0,1,14.44-.51A108,108,0,0,1,276,180.73a15.32,15.32,0,0,1,5.74,2.85c1.88,1.69,3.09,4.28,3.71,7.92a41.33,41.33,0,0,1-2,20.05c-2.17,6.37-5.13,10.88-9.05,13.77s-8.46,3.83-12.86,4.73a42,42,0,0,0-9.4,2.7c-10.77,5-20,8.61-30,10.13A82.37,82.37,0,0,1,209.78,243.75ZM132.6,227.61a26.19,26.19,0,0,0,6.82,2c1.14.23,2.32.47,3.47.78a58.12,58.12,0,0,1,10.4,4.27c2.27,1.11,4.62,2.26,7,3.17,4,1.52,8.54,1.73,12.9,1.94,1.83.08,3.71.17,5.54.35,2.65.26,5.3.56,8,.86,11.58,1.31,23.56,2.66,35.28.88,9.89-1.5,19-5.11,29.73-10a42.6,42.6,0,0,1,9.62-2.77c4.49-.92,8.73-1.79,12.46-4.55s6.6-7.12,8.7-13.29a40.21,40.21,0,0,0,2-19.56c-.58-3.42-1.68-5.82-3.39-7.35a14.51,14.51,0,0,0-5.37-2.64,107.52,107.52,0,0,0-25.63-4.88,59.88,59.88,0,0,0-14.2.5,85.18,85.18,0,0,0-13.36,3.87l-2,.71c-24.77,8.56-51,13.6-76.31,18.47L135.52,202l-1.2.23c-5.94,1.12-12.68,2.38-11.89,9.37.63,5.5,4.69,13.18,10.17,16Z" fill="#231f20"></path><path d="M181.3,193.1c-7.21.64-13.53-1.46-21-.55q-13.35,1.62-26.61,3.92c-3,.52-6,1.08-8.53,2.68s-4.49,4.49-4.1,7.46a10.08,10.08,0,0,0,1.91,4.26c4.82,7,12.35,11.77,20.32,14.71,10.82,4,22.36,4.41,33.4,7.38,11.35,3,22.79,7.07,34.72,6.34,8.75-.54,17.12-3.62,25.34-6.67,17.52-6.49,34.22-12.35,48.82-24.33a15.38,15.38,0,0,0,4-4.39,6.37,6.37,0,0,0,.4-5.72,8.07,8.07,0,0,0-2.27-2.6,22.06,22.06,0,0,0-14.58-4.82c-5.34.21-10.51,1.84-15.91,1.63-5-.19-9.8-1.61-14.69-2.37-12.32-1.92-24.89-.65-37.3.62C197.27,191.47,189.29,192.39,181.3,193.1Z" fill="#d79944"></path><path d="M208.61,239.89c-9.06,0-17.89-2.5-26.46-4.91-1.85-.53-3.69-1-5.54-1.54-4.57-1.23-9.31-2-13.9-2.81-6.48-1.09-13.18-2.22-19.55-4.58-9-3.34-16.14-8.49-20.55-14.89a10.53,10.53,0,0,1-2-4.48c-.44-3.33,1.86-6.39,4.33-8,2.71-1.71,6-2.29,8.7-2.75,8.8-1.52,17.76-2.84,26.64-3.93a49.59,49.59,0,0,1,11.15.23,53.1,53.1,0,0,0,9.82.32h0c5.32-.47,10.73-1,16-1.61l8-.84c12.28-1.26,25-2.56,37.43-.62,1.71.27,3.45.62,5.12,1a59.78,59.78,0,0,0,9.51,1.41,46.34,46.34,0,0,0,8.9-.81,59.21,59.21,0,0,1,7-.82A22.56,22.56,0,0,1,288,195.21a8.42,8.42,0,0,1,2.4,2.76,6.82,6.82,0,0,1-.39,6.18,16.25,16.25,0,0,1-4.1,4.54c-14,11.47-29.79,17.32-46.52,23.51l-2.44.9c-8.16,3-16.59,6.15-25.49,6.7Q210.05,239.89,208.61,239.89Zm-44.3-47.07a32.44,32.44,0,0,0-3.9.22c-8.86,1.09-17.81,2.41-26.59,3.93-2.58.44-5.79,1-8.34,2.61-2.2,1.38-4.25,4.08-3.87,7a9.61,9.61,0,0,0,1.82,4c4.29,6.23,11.24,11.25,20.08,14.52,6.28,2.33,12.93,3.45,19.37,4.54,4.61.78,9.38,1.58,14,2.82,1.85.5,3.7,1,5.55,1.54,9.39,2.65,19.11,5.4,29,4.79,8.75-.53,17.11-3.64,25.2-6.63l2.45-.91c16.65-6.16,32.37-12,46.22-23.35a14.72,14.72,0,0,0,3.85-4.24,5.81,5.81,0,0,0,.39-5.26A7.84,7.84,0,0,0,287.4,196a21.53,21.53,0,0,0-14.24-4.71,57.93,57.93,0,0,0-6.85.81,47.11,47.11,0,0,1-9.1.82,61.11,61.11,0,0,1-9.67-1.43c-1.66-.34-3.38-.69-5.08-.95-12.33-1.92-25-.63-37.16.63q-4,.4-8,.84c-5.23.56-10.64,1.13-16,1.61h0a53.29,53.29,0,0,1-10-.33C169.06,193.05,166.72,192.82,164.31,192.82Z" fill="#231f20"></path><path d="M124.29,184c-2,5.82-.61,12.3,1.88,17.92,2,4.58,4.92,9,9.15,11.65,3.75,2.38,8.23,3.24,12.46,4.6,8.68,2.8,16.49,7.83,25,11a64.05,64.05,0,0,0,52.41-3.74c9.21-5,19.37-3.94,29-8.15a91.85,91.85,0,0,0,11.46-5.68c3.39-2.11,7-2.6,10.66-4.19a18,18,0,0,0,7.85-7.4,48.12,48.12,0,0,0,4.19-10.11,12.16,12.16,0,0,0,.84-4.78c-.34-3.75-3.69-3.74-6.57-4.6a36.44,36.44,0,0,0-11.89-1.34c-8.45.32-16.65,2.66-25,4-23.09,3.63-46.63-1.17-70-.44-14.05.44-28.39,2.85-42-.79a11.93,11.93,0,0,0-4.52-.68C127.8,181.42,124.79,182.52,124.29,184Z" fill="#fff"></path><path d="M194.8,233.59a63.3,63.3,0,0,1-22.16-4c-3.89-1.46-7.68-3.31-11.35-5.11a103.62,103.62,0,0,0-13.67-5.91c-1.05-.34-2.12-.65-3.19-1a35.55,35.55,0,0,1-9.38-3.7c-3.77-2.39-6.91-6.38-9.34-11.87-2.09-4.72-4.12-11.73-1.89-18.28h0c.59-1.75,3.89-2.88,5.44-3.08a11.15,11.15,0,0,1,4.3.59l.41.11c10.16,2.72,21,2,31.41,1.33,3.41-.22,6.94-.45,10.4-.56,9.29-.29,18.74.3,27.88.87,13.84.86,28.16,1.76,42-.42,2.79-.44,5.63-1,8.37-1.55a105.71,105.71,0,0,1,16.65-2.42A36.59,36.59,0,0,1,282.78,180c.5.15,1,.27,1.55.4,2.37.56,5.05,1.2,5.37,4.63a12.59,12.59,0,0,1-.86,5,48,48,0,0,1-4.24,10.21,18.39,18.39,0,0,1-8.08,7.61,42.06,42.06,0,0,1-4.34,1.56,26.2,26.2,0,0,0-6.25,2.59,93.35,93.35,0,0,1-11.53,5.71c-4.49,2-9.13,2.8-13.63,3.6-5.36,1-10.42,1.87-15.31,4.54A64.1,64.1,0,0,1,194.8,233.59Zm-70-49.45c-2.12,6.24-.15,13,1.87,17.55,2.34,5.3,5.36,9.14,9,11.43a35.13,35.13,0,0,0,9.13,3.58c1.08.31,2.16.62,3.22,1a104.59,104.59,0,0,1,13.8,6c3.65,1.79,7.41,3.63,11.26,5.07A63.42,63.42,0,0,0,225,225c5-2.75,10.41-3.71,15.62-4.64a58.1,58.1,0,0,0,13.4-3.53,92,92,0,0,0,11.4-5.65,27.69,27.69,0,0,1,6.48-2.7,41.59,41.59,0,0,0,4.24-1.52,17.58,17.58,0,0,0,7.62-7.2,47.68,47.68,0,0,0,4.15-10,11.8,11.8,0,0,0,.82-4.58c-.25-2.73-2.28-3.21-4.62-3.76-.53-.13-1.07-.26-1.6-.42a35.74,35.74,0,0,0-11.73-1.31,104.37,104.37,0,0,0-16.49,2.4c-2.76.55-5.6,1.11-8.42,1.56-14,2.19-28.35,1.3-42.26.43-9.11-.57-18.54-1.16-27.78-.87-3.44.11-7,.34-10.37.56-10.53.69-21.41,1.4-31.73-1.37l-.41-.11a10.26,10.26,0,0,0-3.92-.55c-1.59.2-4.24,1.3-4.62,2.41Z" fill="#231f20"></path><path d="M131.52,199.65c3.62,3,7,3,11.29,4.2,6.4,1.83,11.76,6.09,17.35,9.7C171.62,221,185,226,198.68,225.42c6.1-.24,12.1-1.58,18.06-2.92l16.95-3.79c5.82-1.3,11.79-2.67,16.79-5.93,2.67-1.74,5-4,7.78-5.57,7-4,15.3-2.86,21.27-8.76,4.09-4,8.37-8.59,9-14.3,1.08-10.24-6.28-15-15.48-16.33-5.63-.84-11.37-.39-17.06-.08a349.34,349.34,0,0,1-50.84-.89c-9.44-.86-18.91-2.1-28.36-1.37-13.08,1-25.11,6.45-37.45,10.41-3.54,1.14-12.32,1.87-14.84,4.83-3.08,3.62.58,11.09,2.8,14.29a23.71,23.71,0,0,0,3.9,4.35Z" fill="#d79944"></path><path d="M196.64,226c-15,0-28.17-6.45-36.76-12-1.13-.74-2.26-1.5-3.39-2.26-4.32-2.92-8.8-5.94-13.82-7.38-1.1-.31-2.14-.55-3.15-.77-3-.67-5.54-1.25-8.32-3.52h0l-.35-.3a23.74,23.74,0,0,1-4-4.45c-2.4-3.46-6.07-11-2.77-14.89,1.89-2.23,6.9-3.23,10.92-4,1.61-.32,3.13-.63,4.15-1,3.05-1,6.14-2.07,9.14-3.13,9.11-3.21,18.53-6.54,28.42-7.31,8-.62,16,.17,23.86.93l4.59.44a348.24,348.24,0,0,0,50.76.89l1.63-.09c5.1-.29,10.38-.6,15.54.17C284.33,169,290,175,289,184.2c-.61,5.78-4.84,10.39-9.12,14.61-3.59,3.54-8.06,4.65-12.38,5.71a34.83,34.83,0,0,0-9,3.13,36.76,36.76,0,0,0-4.41,3.1c-1.08.83-2.19,1.69-3.35,2.45-5.14,3.35-11.42,4.76-17,6L216.85,223c-5.89,1.32-12,2.68-18.15,2.93C198,226,197.32,226,196.64,226Zm-64.8-26.7c2.59,2.13,5,2.68,7.9,3.32,1,.23,2.08.47,3.21.79,5.17,1.48,9.71,4.54,14.1,7.51,1.12.76,2.24,1.51,3.38,2.25,8.86,5.72,22.68,12.41,38.23,11.79,6.08-.24,12.13-1.6,18-2.91l16.94-3.79c5.72-1.28,11.64-2.6,16.62-5.86,1.13-.73,2.23-1.58,3.28-2.4a37.26,37.26,0,0,1,4.54-3.18,35.57,35.57,0,0,1,9.24-3.23c4.38-1.08,8.52-2.1,11.92-5.45,4.15-4.1,8.25-8.55,8.83-14,.53-5-.73-13.64-15.05-15.78-5-.75-10.28-.45-15.34-.16l-1.62.09a348.84,348.84,0,0,1-50.91-.9c-1.54-.13-3.07-.28-4.6-.43-7.77-.76-15.81-1.54-23.68-.93-9.77.76-19.12,4.06-28.17,7.25-3,1.06-6.1,2.15-9.17,3.14-1.07.34-2.54.64-4.25,1-3.87.77-8.69,1.74-10.36,3.69-2.67,3.15.32,10.06,2.83,13.68a23.16,23.16,0,0,0,3.82,4.27l.33.27Z" fill="#231f20"></path><path d="M134.77,189.15c3.12,2,6.72,3.16,10.12,4.69,7.36,3.33,13.79,8.61,21.4,11.32,11.22,4,23.6,1.93,35.23-.62,4-.88,8.18-1.83,12.27-1.2,2.62.41,5.12,1.45,7.75,1.81a26,26,0,0,0,7.76-.43c16.2-2.82,31.72-10.26,43.2-22.17a8.43,8.43,0,0,0,2.45-3.76c.66-2.91-1.63-5.61-3.92-7.5a45.42,45.42,0,0,0-30.91-10.24c-6.92.36-16.63,3.25-22.8-1.16s-10.5-8.6-18.41-10.22c-5.15-1.06-10.47-.82-15.73-.58l-28.8,1.31c-9.81.45-21.79,1.75-26.55,11.72C123.44,171.32,126,183.47,134.77,189.15Z" fill="#fff"></path><path d="M180.41,207.89a42.49,42.49,0,0,1-14.29-2.26,70.06,70.06,0,0,1-12.28-6.3,91.28,91.28,0,0,0-9.16-5c-1-.47-2.11-.91-3.18-1.34a41.87,41.87,0,0,1-7-3.39h0c-8.69-5.65-11.82-17.8-7.11-27.66,4.61-9.68,15.69-11.49,27-12l28.8-1.32c5.21-.24,10.6-.49,15.85.59,6.6,1.35,10.91,4.58,15.47,8,1,.76,2.05,1.54,3.14,2.32,4.51,3.22,11.15,2.38,17,1.63,1.93-.25,3.76-.48,5.45-.57a45.94,45.94,0,0,1,31.25,10.35c3.26,2.69,4.68,5.46,4.1,8a9,9,0,0,1-2.58,4c-11,11.43-26.46,19.36-43.47,22.31a26.1,26.1,0,0,1-7.92.43,30.4,30.4,0,0,1-4.09-.94,33.11,33.11,0,0,0-3.67-.86c-3.9-.6-7.92.28-11.81,1.13l-.28.06C195,206.49,187.67,207.89,180.41,207.89ZM135,188.73a39.52,39.52,0,0,0,6.84,3.3c1.08.44,2.16.88,3.21,1.36a90.87,90.87,0,0,1,9.26,5.08,68.85,68.85,0,0,0,12.11,6.21c11.29,4,24,1.78,34.95-.63l.28-.06c4-.87,8.09-1.77,12.18-1.14a33.53,33.53,0,0,1,3.78.89,29.74,29.74,0,0,0,3.95.91,25.49,25.49,0,0,0,7.62-.42c16.8-2.92,32-10.74,42.92-22a8,8,0,0,0,2.32-3.53c.62-2.71-1.7-5.3-3.75-7a45,45,0,0,0-30.57-10.12c-1.65.09-3.46.32-5.38.56-6,.77-12.89,1.65-17.73-1.81-1.09-.78-2.13-1.56-3.15-2.33-4.66-3.49-8.69-6.5-15.07-7.81-5.12-1-10.45-.81-15.61-.57l-28.8,1.31c-11,.51-21.73,2.24-26.12,11.44-4.49,9.42-1.53,21,6.76,26.39Z" fill="#231f20"></path><path d="M127.55,164.63a8.29,8.29,0,0,0,1.24,3.13c4.3,7.6,9.38,15.11,16.79,19.72,9,5.63,19.25,11,30.07,11.59,9.67.57,18.91-.63,28.55-.85,9.92-.22,19.86,1.61,29.74.7,13-1.2,25.2-7.1,36.14-14.29,4.55-3,9.2-6.56,10.87-11.74,1.86-5.78-.62-12.3-4.9-16.61s-10.07-6.76-15.87-8.57c-18.36-5.73-38-6-57.17-4.44s-38.16,5-57.33,6.54c-5,.4-8.65.67-11.84,4.5C131.84,156.71,127.19,161.37,127.55,164.63Z" fill="#d79944"></path><path d="M181,199.72c-1.8,0-3.61,0-5.42-.15-11.35-.66-22.16-6.58-30.31-11.66-7.75-4.84-12.92-12.78-17-19.9a8.82,8.82,0,0,1-1.3-3.33h0c-.32-3,3-6.74,5.36-9.48.39-.44.75-.85,1.05-1.21,3.3-4,7.17-4.28,12.08-4.67h.1c9.71-.78,19.55-2.06,29.06-3.3,9.25-1.21,18.81-2.46,28.27-3.24,23.21-1.93,41.44-.51,57.36,4.46,5,1.57,11.39,4,16.08,8.7s6.8,11.58,5,17.11c-1.7,5.28-6.33,8.89-11.08,12-13.12,8.63-25,13.33-36.36,14.37a109,109,0,0,1-17.06-.23c-4.17-.28-8.49-.57-12.72-.47-3.46.08-6.92.29-10.26.49C189.73,199.46,185.41,199.72,181,199.72Zm-53-35.15a7.84,7.84,0,0,0,1.17,3c4,7,9.06,14.82,16.62,19.54,8,5,18.72,10.86,29.84,11.51a154.9,154.9,0,0,0,18.21-.36c3.35-.2,6.82-.41,10.3-.49,4.27-.09,8.62.19,12.81.47a107.07,107.07,0,0,0,16.9.23c11.17-1,22.92-5.67,35.9-14.2,4.6-3,9.07-6.5,10.67-11.49,1.67-5.18-.2-11.5-4.77-16.1S265,149.72,260,148.19c-15.79-4.93-33.9-6.34-57-4.42-9.43.78-19,2-28.22,3.23-9.53,1.24-19.37,2.53-29.11,3.31h-.1c-4.86.38-8.36.66-11.4,4.31-.3.36-.66.78-1.06,1.23-2.15,2.46-5.39,6.16-5.11,8.71Z" fill="#231f20"></path><path d="M196.1,192.26a186.19,186.19,0,0,0,21.13-.37c18.12-1.7,35.34-8.67,51.57-16.91,5.53-2.81,11.05-5.82,15.61-10s8.15-9.75,8.88-15.91c.76-6.37-2.56-13.75-8.8-15.21-3.43-.8-7,.27-10.32,1.37-24.07,7.91-48.69,17.93-73.84,14.85-13.54-1.66-26.62-7.11-40.27-6.94-11.49.15-27,8-20.18,21.22,4.8,9.37,10,16.64,19.9,20.3C172.31,189.29,182.56,192,196.1,192.26Z" fill="#fff"></path><path d="M205,192.88c-3,0-6-.06-8.92-.12h0c-14-.28-24.32-3.14-36.49-7.66-9.88-3.66-15.21-10.85-20.17-20.53-2.24-4.38-2.27-8.62-.08-12.26,3.75-6.23,13.26-9.59,20.71-9.69,8.22-.1,16.3,1.83,24.14,3.71a149.55,149.55,0,0,0,16.19,3.23c21.87,2.68,43.54-4.66,64.49-11.77,3.06-1,6.1-2.06,9.13-3.06,3.62-1.19,7.14-2.19,10.59-1.38,6.65,1.56,9.94,9.39,9.19,15.75-.68,5.73-3.89,11.49-9,16.23-4.73,4.35-10.59,7.49-15.72,10.09-20.23,10.28-36.19,15.51-51.76,17C213.2,192.77,209.09,192.88,205,192.88Zm-8.9-1.12a185.54,185.54,0,0,0,21.07-.37c15.43-1.44,31.28-6.64,51.4-16.86,5.3-2.69,10.86-5.68,15.5-9.94,5-4.58,8.07-10.12,8.72-15.6.7-5.94-2.32-13.23-8.43-14.67-3.19-.74-6.57.22-10,1.36-3,1-6.08,2-9.12,3.06-21.07,7.14-42.84,14.52-64.94,11.81A147.32,147.32,0,0,1,184,147.3c-7.78-1.86-15.81-3.77-23.9-3.68-7.17.1-16.3,3.29-19.86,9.21-2,3.37-2,7.17.11,11.29,4.86,9.46,10.05,16.49,19.63,20,12.07,4.48,22.33,7.31,36.16,7.59Z" fill="#231f20"></path><path d="M182.11,181.88c10.09,1.76,20.45,2.59,30.64,3.63,7.57.78,15.76.45,22-3.93,2.83-2,5.07-4.71,7.7-7,6.06-5.22,13.88-7.79,21.43-10.44s15.29-5.67,20.78-11.48,8-15.22,3.69-21.95c-3.84-6-11.5-8-18.49-9.28a152.47,152.47,0,0,0-26.94-2.64c-18.67,0-37.11,4.68-54.45,11.61-4.53,1.81-9,4.46-13.63,5.79-4.29,1.24-7.82,1.67-11.39,4.86-3.05,2.73-5.25,6.37-8.56,8.78-3,2.17-6.9,3.39-8.78,6.57a9.19,9.19,0,0,0-.44,7.68,19,19,0,0,0,4.41,6.54c4.56,4.76,8.43,5.58,14.46,6.67S176.11,180.83,182.11,181.88Z" fill="#d79944"></path><path d="M218.67,186.33q-2.82,0-6-.32c-2-.21-4-.41-6-.6-8.12-.8-16.51-1.62-24.63-3a79.29,79.29,0,0,1-9-2.33,82.17,82.17,0,0,0-8.56-2.23c-6.34-1.15-10.14-2-14.74-6.82a19.27,19.27,0,0,1-4.51-6.71,9.68,9.68,0,0,1,.48-8.1c1.34-2.27,3.65-3.58,5.88-4.85a32.19,32.19,0,0,0,3-1.88,30.47,30.47,0,0,0,4.86-4.84,40.73,40.73,0,0,1,3.66-3.9c3-2.7,6-3.47,9.34-4.36l2.25-.61a56.89,56.89,0,0,0,8.35-3.43c1.71-.81,3.47-1.64,5.22-2.34,19.27-7.7,37.65-11.62,54.64-11.65h.18A153.5,153.5,0,0,1,269.92,121c7.11,1.27,14.91,3.39,18.83,9.51,4.61,7.19,1.51,17-3.74,22.56-5.54,5.86-13.4,8.95-21,11.62l-1.16.4c-7.09,2.48-14.43,5-20.11,9.94-1,.87-2,1.83-2.93,2.76A38.91,38.91,0,0,1,235,182C230.89,184.9,225.51,186.33,218.67,186.33Zm24.41-67h-.18c-16.86,0-35.12,3.92-54.26,11.58-1.73.69-3.48,1.52-5.17,2.32A57.83,57.83,0,0,1,175,136.7c-.78.23-1.53.43-2.26.62-3.27.86-6.1,1.6-8.93,4.14a40,40,0,0,0-3.57,3.8,31.31,31.31,0,0,1-5,5A33.86,33.86,0,0,1,152,152.2c-2.22,1.26-4.31,2.45-5.52,4.49a8.67,8.67,0,0,0-.4,7.25,18.21,18.21,0,0,0,4.3,6.36c4.37,4.57,8.05,5.42,14.18,6.53a81.85,81.85,0,0,1,8.68,2.25,78.81,78.81,0,0,0,8.92,2.3c8.08,1.42,16.46,2.24,24.56,3l6.05.6c9.64,1,16.51-.23,21.63-3.84a38.2,38.2,0,0,0,4.68-4.13c.95-.94,1.94-1.92,3-2.81,5.82-5,13.25-7.61,20.43-10.12l1.16-.41c7.47-2.62,15.21-5.65,20.59-11.36,5-5.29,8-14.56,3.62-21.33-3.71-5.79-11.26-7.83-18.15-9.06A151.7,151.7,0,0,0,243.08,119.32Z" fill="#231f20"></path><path d="M120.73,138a27.7,27.7,0,0,0,3.89,10,46,46,0,0,0,29.25,21c8.2,1.79,16.73,1.28,25,2.54,6,.9,11.8,2.72,17.79,3.53,22.46,3,44.28-8.24,63.11-20.87,5-3.34,9.93-6.86,13.58-11.6a30.54,30.54,0,0,0,3.87-29.84,23.22,23.22,0,0,0-6.42-9c-4.58-3.81-10.63-5.24-16.49-6.28a158.35,158.35,0,0,0-46.74-1.73c-15.76,2-32.35,3.54-47.84,7.1S117.78,118.45,120.73,138Z" fill="#fff"></path><path d="M204.2,176.05a55.62,55.62,0,0,1-7.59-.51c-3.16-.43-6.32-1.14-9.38-1.83-2.75-.63-5.59-1.27-8.41-1.7-3.58-.54-7.27-.75-10.84-1a92.77,92.77,0,0,1-14.22-1.58,46.79,46.79,0,0,1-29.57-21.2,27.77,27.77,0,0,1-4-10.16h0c-1.32-8.76,3.12-17.1,12.84-24.1,10.51-7.57,23-10.84,26.56-11.67C172.4,99.4,186,97.8,199.08,96.25l8.45-1A158,158,0,0,1,254.42,97c5.56,1,11.9,2.39,16.72,6.39a23.82,23.82,0,0,1,6.56,9.19,30.87,30.87,0,0,1-3.94,30.34c-3.7,4.81-8.79,8.42-13.69,11.71C244.84,164.81,225.17,176.05,204.2,176.05Zm-83-38.09a26.65,26.65,0,0,0,3.82,9.79A45.73,45.73,0,0,0,154,168.49,90.16,90.16,0,0,0,168,170.05c3.59.21,7.31.43,10.93,1,2.86.44,5.72,1.08,8.48,1.71,3,.69,6.17,1.4,9.3,1.82,23.45,3.16,45.85-9.45,62.76-20.79,4.83-3.24,9.85-6.8,13.46-11.49a29.87,29.87,0,0,0,3.81-29.34,22.88,22.88,0,0,0-6.28-8.81c-4.63-3.84-10.82-5.2-16.26-6.17a156.63,156.63,0,0,0-46.59-1.72l-8.46,1c-13.08,1.55-26.61,3.15-39.32,6.08-17,3.92-41.39,16.38-38.64,34.64Z" fill="#231f20"></path><path d="M135.48,113.36c-7.1,4.36-13,9.15-13.72,18-.62,8.09,4.44,15.06,10.52,19.86,7.54,5.95,17.07,8.66,26.33,11.23,4.83,1.35,9.7,2.7,14.7,3,5.23.31,10.47-.54,15.72-.63,6.79-.11,13.56,1.08,20.36.95,8.68-.17,17.15-2.48,25.53-4.77,12.43-3.4,22.52-11.34,33.08-18.63,2.52-1.74,5.11-3.59,6.62-6.25,2.39-4.21,1.61-9.26,1.11-13.83-.42-3.91.15-7.69-.12-11.47-.59-8.18-9.88-13.47-16.74-16.14-9.22-3.57-19.17-4.7-29-5.81-11.57-1.3-23.26-2.6-34.81-1.22C173.41,90.25,154.06,101.94,135.48,113.36Z" fill="#d79944"></path><path d="M208.31,166.3c-3.09,0-6.21-.25-9.23-.49-3.3-.25-6.7-.52-10-.47-2.08,0-4.19.19-6.24.35a71.75,71.75,0,0,1-9.52.28c-5.08-.3-10-1.67-14.8-3-8.8-2.45-18.77-5.22-26.51-11.33-4.32-3.41-11.45-10.57-10.71-20.29.73-9.53,7.59-14.5,14-18.42l.26.43-.26-.43C152.86,102.1,172.85,89.81,195,87.17c11.67-1.39,23.49-.06,34.92,1.23,9.73,1.09,19.78,2.22,29.12,5.84,6.09,2.36,16.42,7.66,17.06,16.57.12,1.75.07,3.52,0,5.24a42.9,42.9,0,0,0,.1,6.2l.1,1c.49,4.27,1,9.12-1.27,13.18-1.51,2.65-4,4.48-6.77,6.42l-4.28,3c-8.91,6.27-18.13,12.75-29,15.71-8.29,2.27-16.86,4.61-25.65,4.79Zm-18.39-2c3.09,0,6.21.24,9.23.48,3.36.26,6.82.53,10.23.47,8.67-.17,17.18-2.5,25.41-4.75,10.66-2.92,19.8-9.35,28.65-15.57l4.28-3c2.71-1.88,5.07-3.63,6.47-6.09,2.14-3.78,1.64-8.25,1.15-12.58l-.1-1a43.51,43.51,0,0,1-.11-6.34c.05-1.69.1-3.44,0-5.14-.6-8.36-10.55-13.43-16.42-15.71-9.22-3.57-19.21-4.69-28.87-5.78-11.37-1.28-23.14-2.61-34.69-1.23-21.95,2.62-41.84,14.84-59.39,25.63-7.86,4.83-12.86,9.46-13.48,17.63-.71,9.26,6.17,16.15,10.33,19.43,7.58,6,17.45,8.73,26.16,11.15,4.73,1.32,9.62,2.68,14.58,3a70.1,70.1,0,0,0,9.4-.28c2.06-.15,4.19-.31,6.29-.35Z" fill="#231f20"></path><path d="M145.9,88.66a23.74,23.74,0,0,1,4.3-2.22c3.69-1.42,7.67-1.82,11.6-2.21,20-2,39.84-5.85,60-6.22,15.28-.28,35.75,2.89,48.35,12.31,8.32,6.22,14,17,11.45,27.07C279.91,124,275,129.32,269.3,133s-12.2,5.82-18.63,7.95c-10.1,3.35-20.36,6.73-31,7.15-4.42.17-8.92-.16-13.23.87-1.71.41-3.37,1-5.12,1.29-3.37.49-6.77-.44-10.14-1-7.46-1.15-15.1-.28-22.6-1.07a51.9,51.9,0,0,1-28.2-12.39c-7.39-6.39-13.88-15.8-10.52-26.08C132.35,102.14,138.63,93.36,145.9,88.66Z" fill="#fff"></path><path d="M199.34,150.87a33.13,33.13,0,0,1-6-.72q-1.12-.21-2.25-.39a86.24,86.24,0,0,0-12.32-.67,101.31,101.31,0,0,1-10.27-.4,52.44,52.44,0,0,1-28.47-12.5c-5.64-4.87-14.52-14.81-10.66-26.61,2.68-8.23,9.21-16.8,16.23-21.34h0A24.5,24.5,0,0,1,150,86c3.77-1.45,7.82-1.85,11.73-2.23,7.06-.7,14.23-1.65,21.15-2.57,12.7-1.68,25.82-3.42,38.87-3.66,15.12-.27,35.85,2.83,48.66,12.41,10.84,8.1,13.65,19.7,11.64,27.59-1.55,6.07-6,11.71-12.5,15.88-5.78,3.71-12.37,5.9-18.74,8-10,3.31-20.35,6.74-31.13,7.17-1.21.05-2.42.06-3.63.07a42,42,0,0,0-9.5.79c-.62.15-1.23.32-1.84.5a26.33,26.33,0,0,1-3.32.8A14.4,14.4,0,0,1,199.34,150.87ZM146.17,89.08h0c-6.73,4.35-13.24,12.91-15.82,20.81-3.68,11.25,4.92,20.83,10.37,25.55a51.43,51.43,0,0,0,27.92,12.26c3.36.36,6.82.37,10.17.39a87,87,0,0,1,12.46.68c.76.12,1.52.26,2.27.4a24.31,24.31,0,0,0,7.72.57,25.11,25.11,0,0,0,3.19-.77c.62-.18,1.25-.36,1.88-.51a42.62,42.62,0,0,1,9.73-.82c1.2,0,2.4,0,3.6-.07,10.64-.42,20.92-3.83,30.85-7.12,6.31-2.09,12.84-4.26,18.52-7.9,6.3-4,10.58-9.46,12.07-15.28,2.68-10.52-3.73-20.91-11.27-26.55-12.61-9.42-33.09-12.49-48-12.21-13,.24-26.09,2-38.75,3.66-6.94.92-14.11,1.87-21.19,2.56-3.85.38-7.82.77-11.47,2.18a23.11,23.11,0,0,0-4.21,2.17Z" fill="#231f20"></path><path d="M159.33,137.41c2.68,1.58,4.93,3.85,7.75,5.14,6.9,3.16,14.83-.26,22.39-.87,6.67-.54,13.34,1.19,20,1,7-.18,12.93-2.54,19.3-4.93,5.4-2,12.8-6.48,18.66-5.82,1.92.22,3.74,1,5.66,1.14,2.9.2,5.66-1.13,8.26-2.43l6.91-3.45c7.95-4,14.44-12.88,13.47-22.21-.8-7.76-7.1-13.72-13.41-18.31a60.81,60.81,0,0,0-13.05-7.57c-18.07-7.24-38.32-.82-57.72.68-14.48,1.12-29.25-.56-43.43,2.6A31.11,31.11,0,0,0,146,85.25C137.64,89.76,125.87,105,129.54,115c2,5.31,7.32,10.85,11.73,14.19C146.77,133.32,153.53,134,159.33,137.41Z" fill="#d79944"></path><path d="M173.7,144.37a16.15,16.15,0,0,1-6.82-1.36,25.87,25.87,0,0,1-4.64-3,37.84,37.84,0,0,0-3.16-2.19h0a44.56,44.56,0,0,0-7.94-3.4c-3.45-1.23-7-2.5-10.17-4.88-4.22-3.19-9.86-8.88-11.9-14.42-3.85-10.42,8.5-25.91,16.65-30.33a31.16,31.16,0,0,1,8.33-2.9c9-2,18.43-2.07,27.53-2.13,5.24,0,10.67-.07,16-.47,5.12-.4,10.4-1.15,15.5-1.88,14.28-2,29-4.15,42.45,1.22a60.88,60.88,0,0,1,13.15,7.63c5.43,4,12.74,10.17,13.62,18.67.77,7.49-3.7,17.69-13.74,22.71l-6.92,3.45c-2.4,1.2-5.39,2.7-8.52,2.48A16.77,16.77,0,0,1,250,133a17.46,17.46,0,0,0-2.56-.54c-4.23-.48-9.38,1.83-13.92,3.86-1.6.72-3.11,1.4-4.51,1.92l-.87.33c-6.1,2.3-11.86,4.47-18.6,4.64a72.19,72.19,0,0,1-9.21-.56,58.93,58.93,0,0,0-10.79-.46,64.46,64.46,0,0,0-6.83,1A49.38,49.38,0,0,1,173.7,144.37Zm62.12-68.12c-7.49,0-15.13,1.1-22.64,2.17-5.12.73-10.41,1.48-15.56,1.88-5.33.41-10.77.45-16,.48-9,.06-18.39.12-27.32,2.11a30.18,30.18,0,0,0-8.07,2.8C138.52,89.86,126.4,105,130,114.8c2,5.33,7.47,10.85,11.57,14,3,2.29,6.52,3.53,9.91,4.73a46.35,46.35,0,0,1,8.11,3.49h0a38,38,0,0,1,3.24,2.25,25.65,25.65,0,0,0,4.46,2.87c4.68,2.14,9.79,1.17,15.21.14a67.81,67.81,0,0,1,6.93-1.06,59.93,59.93,0,0,1,11,.47,70.49,70.49,0,0,0,9.08.55c6.56-.17,12.25-2.31,18.27-4.57l.87-.33c1.37-.52,2.87-1.19,4.45-1.9,4.66-2.09,9.94-4.46,14.44-4a20,20,0,0,1,2.71.57,15.36,15.36,0,0,0,2.92.57c2.83.2,5.59-1.17,8-2.38l6.91-3.45c7.3-3.64,14.17-12.27,13.19-21.71-.83-8.1-7.94-14.13-13.21-18a59.79,59.79,0,0,0-12.93-7.51A51.43,51.43,0,0,0,235.82,76.25Z" fill="#231f20"></path><path d="M177.64,54.17a27.13,27.13,0,0,1,19.78-10.89,38.85,38.85,0,0,1,11.45,1.19c10.52,2.46,21.49,8.58,24.21,19,1.56,6,.14,12.41,1.76,18.37.66,2.45,1.84,4.84,1.69,7.38-.25,4.59-4.68,7.81-9,9.44-6.65,2.51-13.87,2.93-21,3.25-8.3.38-17.09.56-24.34-3.49C166.73,89.78,168.33,66.89,177.64,54.17Z" fill="#fff"></path><path d="M200.09,102.63c-6.53,0-12.72-.73-18.1-3.74-5.78-3.23-9.64-8.65-11.17-15.67-2.07-9.49.51-21.28,6.42-29.34h0a27.57,27.57,0,0,1,20.15-11.1A39,39,0,0,1,209,44c13,3.05,22.21,10.3,24.58,19.4a38.8,38.8,0,0,1,.87,9.22,36.91,36.91,0,0,0,.88,9.15c.18.68.41,1.35.63,2A14.86,14.86,0,0,1,237,89.28c-.22,4.07-3.71,7.76-9.31,9.89-7,2.63-14.82,3-21.13,3.28C204.4,102.55,202.23,102.63,200.09,102.63ZM178,54.47c-5.74,7.85-8.25,19.31-6.24,28.53,1.46,6.74,5.16,11.93,10.68,15,6.91,3.87,15.33,3.83,24.06,3.43,6.24-.28,14-.64,20.82-3.22,2-.74,8.37-3.58,8.68-9a14.16,14.16,0,0,0-1-5.14c-.23-.69-.46-1.39-.65-2.08a37.69,37.69,0,0,1-.91-9.39,37.56,37.56,0,0,0-.84-9C230.33,54.9,221.41,47.92,208.76,45a37.65,37.65,0,0,0-11.3-1.17A26.56,26.56,0,0,0,178,54.47Z" fill="#231f20"></path><path d="M190.67,61c-11.73-4.75-26.82-5.84-36,4.22-3.37,3.68-4.81,8.77-5.16,13.74-.51,7.32-.64,16.46,4.66,22.19,2.29,2.47,5.65,4.61,5.79,8,0,1.08-.2,2.38.63,3.07a2.86,2.86,0,0,0,2.34.27c3.26-.58,6.7-1.59,10-1.48,2.65.09,4.76,1.08,7.6.53,4.32-.83,8.16-3.67,12.55-4,5.12-.33,10.69,2.8,15.09.18a3.18,3.18,0,0,0,1.28-1.24,4.4,4.4,0,0,0,.27-2.17l-.65-12.78c-.36-7.3-.88-15.91-5.5-21.93a25.57,25.57,0,0,0-8.88-6.81C193.4,62.16,192.06,61.55,190.67,61Z" fill="#fff"></path><path d="M161.81,113.09a2.31,2.31,0,0,1-1.56-.51,3.26,3.26,0,0,1-.81-2.76c0-.23,0-.46,0-.67-.1-2.37-1.92-4.09-3.86-5.91-.61-.57-1.24-1.16-1.8-1.76-5.2-5.63-5.38-14.17-4.79-22.56.28-4.08,1.43-9.83,5.29-14,3-3.28,14.5-13.28,36.57-4.35,1.38.56,2.75,1.18,4.06,1.85,4.15,2.12,7,4.33,9,7,4.81,6.26,5.28,15.48,5.61,22.21l.65,12.78a4.72,4.72,0,0,1-.33,2.42,3.67,3.67,0,0,1-1.46,1.44c-2.9,1.73-6.27,1.1-9.52.5a24.1,24.1,0,0,0-5.8-.61,21.33,21.33,0,0,0-6.85,2,29.49,29.49,0,0,1-5.64,1.91,12.94,12.94,0,0,1-5-.18,21.21,21.21,0,0,0-2.73-.34,32.29,32.29,0,0,0-7.31,1c-.88.18-1.75.37-2.61.52A6.56,6.56,0,0,1,161.81,113.09ZM174,57.9c-10.9,0-17,5.42-19,7.64-3.66,4-4.76,9.53-5,13.45-.57,8.17-.42,16.46,4.53,21.81.53.58,1.15,1.16,1.74,1.72,2,1.87,4.07,3.82,4.18,6.59,0,.23,0,.48,0,.73,0,.81,0,1.58.45,2a2.49,2.49,0,0,0,1.93.16c.85-.16,1.71-.34,2.58-.52a31.68,31.68,0,0,1,7.54-1,19.59,19.59,0,0,1,2.87.35,12,12,0,0,0,4.61.18,28.19,28.19,0,0,0,5.44-1.86,22.6,22.6,0,0,1,7.18-2.1,24.75,24.75,0,0,1,6,.62c3.22.6,6.25,1.16,8.83-.37a2.69,2.69,0,0,0,1.08-1,3.87,3.87,0,0,0,.22-1.92l-.64-12.78c-.36-7-.79-15.64-5.41-21.65-1.92-2.51-4.69-4.63-8.71-6.68-1.28-.65-2.62-1.26-4-1.81A43.89,43.89,0,0,0,174,57.9Z" fill="#231f20"></path><path d="M244.72,61.13c-10.35-6.47-24.62-5.73-34.44,1.51-11.07,8.18-16.63,24.07-9.06,36.41,1.55,2.54,3.67,5.16,3.25,8.11-.15,1-.62,2.16-.2,3.13.49,1.13,1.93,1.48,3.17,1.44,5.17-.14,9.36,2.12,14.35,2.65,4.77.51,9.24-2.21,14-3,5.79-1,13.68.73,17.92-4.55,2.59-3.22,3-9.56,3.9-13.46C260.4,81.15,255.49,67.87,244.72,61.13Z" fill="#fff"></path><path d="M223,114.94c-.41,0-.83,0-1.24-.06a38.62,38.62,0,0,1-6.09-1.3,27.51,27.51,0,0,0-8.2-1.35c-1.8,0-3.15-.6-3.64-1.74a4.13,4.13,0,0,1,0-2.6,7.49,7.49,0,0,0,.15-.8c.33-2.3-1.06-4.47-2.42-6.57l-.76-1.21c-6.28-10.24-4.56-26.91,9.2-37.07,10.11-7.46,24.5-8.09,35-1.53s16,20.1,13.07,32.72c-.22,1-.42,2.11-.63,3.32-.63,3.67-1.35,7.84-3.36,10.34-3.17,4-8.14,4.13-12.95,4.31a38.76,38.76,0,0,0-5.27.43,35.62,35.62,0,0,0-5.11,1.43A24.9,24.9,0,0,1,223,114.94Zm-15.06-3.71a30.16,30.16,0,0,1,8,1.38,37.56,37.56,0,0,0,5.93,1.27c2.9.31,5.66-.6,8.58-1.57a37.69,37.69,0,0,1,5.24-1.47,39.76,39.76,0,0,1,5.41-.44c4.59-.17,9.33-.34,12.21-3.93,1.85-2.31,2.55-6.34,3.16-9.89.21-1.22.41-2.37.64-3.37C259.92,81,254.73,68,244.46,61.56a30.77,30.77,0,0,0-33.88,1.49c-13.29,9.81-15,25.88-8.94,35.74l.75,1.19c1.46,2.25,3,4.58,2.57,7.25,0,.29-.1.59-.17.88a3.29,3.29,0,0,0-.06,2c.38.89,1.64,1.17,2.69,1.14Z" fill="#231f20"></path><path d="M236,56.15a16.2,16.2,0,0,0-3.78-.9,29,29,0,0,0-12,1.57,22.59,22.59,0,0,0-11.27,7.49c-1.43,1.71-2.61,3.87-2.33,6.08s2.55,4.24,4.67,3.54a4.35,4.35,0,0,1,1.38-.4,2.2,2.2,0,0,1,1.5,1c2.84,3.42,2.67,8.32,3.61,12.66a23.45,23.45,0,0,0,4.72,9.78c1.25,1.54,3.1,3,5,2.54,2.39-.62,3-3.69,3.13-6.16l.51-9.39c.13-2.24.51-4.89,2.52-5.89,1-.51,2.26-.46,3.2-1.1,2.65-1.81.6-7.19,3.53-8.51.72-.32,1.56-.26,2.3-.54,4.2-1.61,2-4.88-.18-7.18A17.06,17.06,0,0,0,236,56.15Z" fill="#231f20"></path><path d="M226.69,100.09c-2,0-3.76-1.71-4.67-2.83a23.86,23.86,0,0,1-4.82-10c-.26-1.19-.44-2.44-.61-3.65-.47-3.29-.92-6.4-2.89-8.78a1.68,1.68,0,0,0-1.11-.75,1.62,1.62,0,0,0-.76.21,3.75,3.75,0,0,1-.43.16,3.64,3.64,0,0,1-3.11-.46A5,5,0,0,1,206,70.46c-.26-2,.59-4.27,2.45-6.49A23.1,23.1,0,0,1,220,56.3a29,29,0,0,1,12.23-1.58,16.66,16.66,0,0,1,3.91.93,17.7,17.7,0,0,1,6.73,4.67c2.1,2.26,3,4.07,2.62,5.54a3.82,3.82,0,0,1-2.65,2.51,5.79,5.79,0,0,1-1.2.28,4.41,4.41,0,0,0-1.07.25c-1.23.56-1.39,2.06-1.57,3.8s-.39,3.65-1.88,4.66a5.46,5.46,0,0,1-1.94.73,5.67,5.67,0,0,0-1.32.41c-1.74.86-2.1,3.24-2.22,5.44l-.52,9.39c-.21,3.86-1.4,6.1-3.53,6.65A3.47,3.47,0,0,1,226.69,100.09ZM212.57,73h.05a2.61,2.61,0,0,1,1.91,1.14c2.16,2.61,2.65,6,3.12,9.31.17,1.19.35,2.42.6,3.58a22.82,22.82,0,0,0,4.6,9.55c.89,1.09,2.64,2.84,4.48,2.36,1.62-.42,2.53-2.33,2.72-5.67l.52-9.39c.13-2.36.57-5.23,2.81-6.34a6.91,6.91,0,0,1,1.56-.5,4.86,4.86,0,0,0,1.57-.56c1.08-.74,1.24-2.27,1.42-3.89.2-1.9.41-3.86,2.2-4.67a5.25,5.25,0,0,1,1.35-.34,4.85,4.85,0,0,0,1-.21c1.15-.44,1.81-1,2-1.75.25-1.08-.55-2.62-2.36-4.57a16.55,16.55,0,0,0-6.32-4.39h0a15.45,15.45,0,0,0-3.65-.87,28,28,0,0,0-11.78,1.54,22.06,22.06,0,0,0-11,7.33c-1.15,1.38-2.48,3.49-2.21,5.67a4,4,0,0,0,1.77,2.74,2.59,2.59,0,0,0,2.21.35l.36-.14A3.08,3.08,0,0,1,212.57,73Z" fill="#231f20"></path><path d="M191.28,77.7c-.37,3.38.44,7.18.68,10.26q.82,10.42,1.64,20.85c.17,2.13.41,4.42,1.85,6,1.79,2,4.75,2.09,7.34,2.66s5.49,2.42,5.17,5.05a6.3,6.3,0,0,1-1.36,2.78L200,134.63c.28-.4,15,4.38,1,7.75-1.78.43-3.65,1.25-4.48,2.88a7.62,7.62,0,0,0-.38,4.27,56.47,56.47,0,0,1,.45,8.62c-.73,13.77.2,27.69.23,41.57,0,2.23-.13,4.87-2,6s-4.53,0-5.72-1.9-1.31-4.23-1.4-6.46c-.67-16.26-1.34-32.64,1.13-48.73.53-3.46,1.1-7.35-1-10.14-1.64-2.19-4.48-3.06-7.18-3.52a40.12,40.12,0,0,0-24,3.39,5.83,5.83,0,0,0-2.31,1.68c-1,1.42-.68,3.38-.35,5.1a72.17,72.17,0,0,1,1.27,13.2c0,1.87-.45,4.24-2.28,4.62a3.25,3.25,0,0,1-2.32-.57c-3.83-2.38-4.37-7.64-4.52-12.14l-.41-13.42a12.4,12.4,0,0,1,.77-5.91,12.39,12.39,0,0,1,4-4.14l12.37-9.25c1.37-1,3.41-2,4.61-.79,1.55,1.57-.56,4.74,1,6.3s4.12-.94,6.4-1.48c2.61-.61,4.89,1.67,6.94,3.41s5.54,2.91,7.1.72c1.69-2.36-1-5.26-2.47-7.73-4-6.59-.12-14.67,0-21.7a83.07,83.07,0,0,0-2.58-21.23c-1.44-5-4.85-9.8-9.79-11.52a8.24,8.24,0,0,1-2.18-.91,3.35,3.35,0,0,1,.15-5.33c1.55-1,3.53-.44,5.33-.16,2.74.42,5.54.2,8.29.56,3.63.46,11.54,3,12.83,7.09,1.46,4.59-4.49,5.84-6.26,9.53A9.94,9.94,0,0,0,191.28,77.7Z" fill="#231f20"></path><path d="M193.1,206.75a5.66,5.66,0,0,1-4.51-2.6c-1.29-2.06-1.4-4.65-1.48-6.73-.66-16-1.34-32.64,1.14-48.83.51-3.33,1.08-7.1-.9-9.74-1.65-2.2-4.69-2.94-6.84-3.31a39.62,39.62,0,0,0-23.73,3.35,5.28,5.28,0,0,0-2.1,1.5c-.91,1.27-.55,3.17-.26,4.69a73.35,73.35,0,0,1,1.28,13.3c0,2.91-1,4.79-2.71,5.15a3.73,3.73,0,0,1-2.71-.65c-3.92-2.44-4.61-7.48-4.77-12.58l-.42-13.42a12.93,12.93,0,0,1,.83-6.16,13,13,0,0,1,4.19-4.33l12.38-9.25c2.22-1.65,4.15-1.92,5.31-.74.95,1,.79,2.36.65,3.59s-.25,2.11.36,2.71c.77.77,1.81.29,3.42-.57a11.25,11.25,0,0,1,2.47-1c2.64-.62,4.86,1.31,6.82,3l.6.52a6.81,6.81,0,0,0,4.69,1.76,2.27,2.27,0,0,0,1.63-.94c1.17-1.64-.25-3.76-1.62-5.8-.31-.46-.61-.91-.88-1.34-2.85-4.66-1.9-10-1-15.07a42.7,42.7,0,0,0,.88-6.92,81.71,81.71,0,0,0-2.56-21.07c-1.57-5.48-5.1-9.65-9.45-11.16l-.45-.15a7.13,7.13,0,0,1-1.86-.82,3.69,3.69,0,0,1-1.47-3.17,3.63,3.63,0,0,1,1.65-3.07c1.52-.93,3.37-.62,5-.35l.7.11a34.7,34.7,0,0,0,4.31.31c1.3,0,2.65.08,4,.25,3.56.46,11.86,3,13.28,7.46,1,3.18-1.14,4.93-3.21,6.62a10.87,10.87,0,0,0-3.09,3.31,9.62,9.62,0,0,0-.85,3.19h0a32.1,32.1,0,0,0,.36,7.22c.13,1,.26,2,.33,2.94l1.64,20.86c.18,2.28.43,4.28,1.71,5.67s3.42,1.81,5.46,2.18l1.6.31c3,.67,5.93,2.83,5.58,5.65a6.87,6.87,0,0,1-1.45,3l-6.12,8.62q.42.1,1.05.33c1.33.46,5.67,2.13,5.56,4.46-.08,1.59-2.18,2.87-6.42,3.89-2.13.51-3.52,1.39-4.13,2.6a7.16,7.16,0,0,0-.33,4l0,.25a55.26,55.26,0,0,1,.43,8.46c-.47,8.89-.24,18,0,26.83.13,4.82.25,9.81.26,14.71,0,2.48-.19,5.21-2.29,6.49A3.59,3.59,0,0,1,193.1,206.75ZM174,133.91a40.2,40.2,0,0,1,6.75.57c2.32.4,5.63,1.22,7.51,3.73,2.25,3,1.61,7.18,1.1,10.54-2.47,16.09-1.79,32.63-1.13,48.63.09,2.05.18,4.38,1.32,6.19,1,1.64,3.33,2.75,5,1.73s1.82-3.38,1.77-5.57c0-4.9-.13-9.88-.25-14.69-.22-8.84-.45-18,0-26.92a53.37,53.37,0,0,0-.42-8.29l0-.25A8.15,8.15,0,0,1,196,145c.76-1.51,2.39-2.57,4.84-3.16,5.22-1.26,5.65-2.54,5.59-3-.2-1.71-5.34-3.61-6.34-3.67a.55.55,0,0,1-.46-.08.53.53,0,0,1-.12-.75h0l6.63-9.32a6,6,0,0,0,1.25-2.53c.3-2.45-2.67-4-4.75-4.47-.5-.11-1-.21-1.55-.3-2.22-.4-4.51-.82-6.06-2.52s-1.84-4.39-2-6.31L191.43,88c-.07-.91-.19-1.88-.32-2.9a33.15,33.15,0,0,1-.37-7.46h0a10.8,10.8,0,0,1,.95-3.54,11.42,11.42,0,0,1,3.38-3.68c2-1.6,3.65-3,2.86-5.46-1.18-3.73-8.78-6.26-12.39-6.72-1.27-.16-2.59-.2-3.86-.24a39.32,39.32,0,0,1-4.44-.32l-.72-.12c-1.5-.25-3.07-.52-4.24.2A2.63,2.63,0,0,0,171.13,60a2.59,2.59,0,0,0,1,2.25,5.82,5.82,0,0,0,1.58.69l.47.15c4.69,1.63,8.47,6.07,10.13,11.88a83.3,83.3,0,0,1,2.61,21.39,46.15,46.15,0,0,1-.9,7.09c-.89,4.92-1.81,10,.83,14.32.26.42.55.86.85,1.3,1.5,2.24,3.21,4.77,1.6,7a3.33,3.33,0,0,1-2.37,1.38,8,8,0,0,1-5.52-2l-.6-.52c-1.86-1.61-3.77-3.27-5.87-2.77a10,10,0,0,0-2.22,1c-1.55.81-3.3,1.73-4.68.37-1-1-.81-2.36-.67-3.6.13-1.08.24-2.1-.35-2.71-1.08-1.1-3.26.38-3.9.85l-12.37,9.25a12.14,12.14,0,0,0-3.87,3.94,12,12,0,0,0-.73,5.66l.42,13.42c.15,4.79.77,9.53,4.27,11.7a2.82,2.82,0,0,0,1.93.51c1.73-.36,1.85-3.23,1.84-4.1a72,72,0,0,0-1.26-13.1c-.32-1.72-.73-3.87.45-5.52a6.33,6.33,0,0,1,2.5-1.84A40.66,40.66,0,0,1,174,133.91ZM191.28,77.7h0Z" fill="#231f20"></path><path d="M194.55,54.69c2.79.14,4.86,2.55,6.56,4.76C202,60.6,203,61.84,204.46,62c1.86.23,3.35-1.39,4.79-2.59,3.68-3.1,8.68-4,13-6.17A4.91,4.91,0,0,0,225,50.73a3.67,3.67,0,0,0-1.55-3.88,10.63,10.63,0,0,0-4.16-1.55c-7.28-1.59-14.68-3.1-22.12-2.72-4.67.23-18,2.12-19.2,8.08C175.91,61,191.18,54.52,194.55,54.69Z" fill="#231f20"></path><path d="M204.82,62.58a3,3,0,0,1-.42,0c-1.61-.2-2.72-1.47-3.72-2.77-1.64-2.13-3.6-4.42-6.16-4.55h0a19.1,19.1,0,0,0-3.81.66c-4.14.92-9.81,2.19-12.3-.23-1.12-1.09-1.47-2.81-1-5.1,1.47-7.51,19.52-8.51,19.7-8.52,7.35-.37,14.43,1,22.27,2.73a11.35,11.35,0,0,1,4.36,1.64,4.23,4.23,0,0,1,1.74,4.49,5.42,5.42,0,0,1-3,2.84,49.41,49.41,0,0,1-4.84,2c-2.95,1.11-5.74,2.16-8,4.09l-.61.53C207.79,61.41,206.46,62.58,204.82,62.58Zm-10.24-8.43c3,.15,5.17,2.65,7,5,.85,1.11,1.79,2.21,3,2.36s2.57-.9,3.74-1.93c.22-.19.42-.37.63-.54,2.44-2.05,5.44-3.18,8.35-4.27a49.25,49.25,0,0,0,4.74-2,4.44,4.44,0,0,0,2.44-2.22,3.16,3.16,0,0,0-1.35-3.28,10.27,10.27,0,0,0-4-1.46c-7.77-1.69-14.78-3.07-22-2.71-4.51.23-17.63,2.13-18.71,7.65-.37,1.92-.13,3.3.72,4.13,2.07,2,7.42.82,11.32,0a20.12,20.12,0,0,1,4.1-.69Z" fill="#231f20"></path><path d="M158.3,207.15c.65.68,1.88.26,2.4-.52a8,8,0,0,0,.79-2.7,8,8,0,0,1,4.32-5.33,10.26,10.26,0,0,0,2.54-1.28c5-4.32-2.14-11-7.23-9C152.59,191.73,155.44,200.15,158.3,207.15Z" fill="#231f20"></path><path d="M159.14,208a1.67,1.67,0,0,1-1.23-.51.39.39,0,0,1-.11-.17c-2-4.91-4-10.51-2.19-14.75a9,9,0,0,1,5.31-4.79c3.27-1.31,7.22.69,8.85,3.38a4.82,4.82,0,0,1-1.06,6.54,6.79,6.79,0,0,1-1.94,1.05l-.73.31a7.48,7.48,0,0,0-4,5c-.05.22-.1.44-.14.67a5.73,5.73,0,0,1-.73,2.19,2.53,2.53,0,0,1-1.83,1.1Zm-.39-1.19a.65.65,0,0,0,.47.11,1.46,1.46,0,0,0,1-.62,5,5,0,0,0,.58-1.8c0-.24.09-.48.14-.72a8.54,8.54,0,0,1,4.62-5.69c.25-.12.51-.23.78-.34a5.75,5.75,0,0,0,1.63-.87,3.75,3.75,0,0,0,.85-5.16c-1.4-2.32-4.76-4.05-7.53-2.94A7.94,7.94,0,0,0,156.6,193C155,196.85,156.84,202.15,158.75,206.84Z" fill="#231f20"></path><path d="M227.42,128.88a44.36,44.36,0,0,1,1.89,20.87c-.32,2.08-.81,4.3,0,6.24s3.7,3.08,5.09,1.5c1.06-1.22,1.34-3.75,2.93-3.43,2.71,9.57-2.71,20.11.24,29.61.37,1.19,1.32,2.58,2.51,2.21a2.5,2.5,0,0,0,1.32-1.5c4.88-10.49,4.08-22.58,4.34-34.15a174.48,174.48,0,0,1,1.72-20.8,3.74,3.74,0,0,1,.41-1.43c1.17-1.93,4.71-.64,6.09-2.43.95-1.25.07-3.18-1.31-3.93a10.37,10.37,0,0,0-4.61-.75,28,28,0,0,1-11-2.9c-2.88-1.35-5.42-2.74-8.51-.69a6.78,6.78,0,0,0-2.95,6.12,17.42,17.42,0,0,0,1.51,4.7C227.23,128.37,227.32,128.62,227.42,128.88Z" fill="#231f20"></path><path d="M239.71,186.48c-1.23,0-2.2-1.29-2.63-2.65-1.53-4.93-.85-10.16-.2-15.22.61-4.68,1.23-9.51.07-14-.39.11-.68.64-1.12,1.56a7.46,7.46,0,0,1-1,1.69,2.84,2.84,0,0,1-2.68.89,4.46,4.46,0,0,1-3.3-2.53c-.82-1.89-.49-3.93-.17-5.91l.09-.62a43.33,43.33,0,0,0-1.86-20.6h0l-.28-.75c-.11-.27-.23-.54-.34-.82a13.61,13.61,0,0,1-1.2-4,7.34,7.34,0,0,1,3.18-6.61c3.19-2.11,5.82-.87,8.61.45l.43.21a27.35,27.35,0,0,0,10.78,2.85l.62,0a9.15,9.15,0,0,1,4.22.79,4,4,0,0,1,1.93,2.55,2.6,2.6,0,0,1-.45,2.17c-.81,1.06-2.18,1.22-3.39,1.37s-2.2.26-2.66,1a3.36,3.36,0,0,0-.34,1.23,175.21,175.21,0,0,0-1.71,20.74c0,1.81-.05,3.63-.07,5.46-.08,9.8-.16,19.95-4.32,28.9a3,3,0,0,1-1.65,1.78A1.87,1.87,0,0,1,239.71,186.48Zm-2.63-33a1.84,1.84,0,0,1,.39,0,.55.55,0,0,1,.41.38c1.36,4.83.71,9.92.07,14.84s-1.3,10.05.16,14.76c.27.85,1,2.12,1.84,1.86.44-.14.74-.67,1-1.22,4.07-8.74,4.15-18.76,4.23-28.45,0-1.83,0-3.66.07-5.48A173.57,173.57,0,0,1,247,129.35a4.25,4.25,0,0,1,.48-1.62c.74-1.22,2.18-1.39,3.45-1.54,1.1-.13,2.14-.25,2.67-1a1.53,1.53,0,0,0,.24-1.3,2.83,2.83,0,0,0-1.38-1.83,8.54,8.54,0,0,0-3.74-.66l-.63,0a28.33,28.33,0,0,1-11.2-3l-.43-.21c-2.72-1.28-4.87-2.3-7.55-.52a6.24,6.24,0,0,0-2.71,5.62,12.73,12.73,0,0,0,1.12,3.71l.35.84c.1.26.2.51.29.78h0a44.53,44.53,0,0,1,1.92,21.13l-.1.63c-.29,1.82-.6,3.71.09,5.31a3.41,3.41,0,0,0,2.49,1.9,1.8,1.8,0,0,0,1.7-.54,6.75,6.75,0,0,0,.84-1.44C235.33,154.7,235.9,153.49,237.08,153.49Z" fill="#231f20"></path><path d="M184.39,70.65c-3.1-2.12-7.11-2.2-10.87-2.2-2.19,0-4.83.27-5.77,2.24-.68,1.43-.12,3.1.33,4.61a29.27,29.27,0,0,1,1.14,6.7,4.78,4.78,0,0,1-.39,2.6,1.85,1.85,0,0,1-2.23.93,2.69,2.69,0,0,1-1.19-1.71,11.73,11.73,0,0,0-2.07-4.15,3.63,3.63,0,0,0-4.2-1.06c-1.63.87-2,3.19-3.51,4.2-2.63-.49-3.9-3.44-4.68-6a18.89,18.89,0,0,1-.86-3.77c-.54-5.56,3.71-10.7,8.8-13s10.86-2.44,16.45-2.53" fill="#231f20"></path><path d="M167.16,86.19a1.83,1.83,0,0,1-.78-.17,3.13,3.13,0,0,1-1.48-2l-.08-.23A10.7,10.7,0,0,0,163,80a3.15,3.15,0,0,0-3.56-1,4.76,4.76,0,0,0-1.63,2,6.36,6.36,0,0,1-1.83,2.23.52.52,0,0,1-.4.08c-3-.56-4.34-3.91-5.09-6.38a18.74,18.74,0,0,1-.89-3.87c-.59-6.19,4.31-11.37,9.12-13.56C163.94,57.13,170,57,175.33,57a.56.56,0,0,1,.55.52.54.54,0,0,1-.53.55c-5.24.08-11.17.17-16.24,2.48-4.47,2-9,6.81-8.49,12.48a19.73,19.73,0,0,0,.84,3.66c.65,2.14,1.78,5,4,5.59a6.2,6.2,0,0,0,1.32-1.76,5.81,5.81,0,0,1,2-2.35,4.17,4.17,0,0,1,4.86,1.18,11.5,11.5,0,0,1,2.1,4.1l.08.23c.2.57.45,1.2.91,1.4a1.32,1.32,0,0,0,1.53-.7,4.42,4.42,0,0,0,.32-2.31,28.33,28.33,0,0,0-1.12-6.58l-.08-.25c-.44-1.51-.95-3.21-.22-4.74,1.09-2.28,4.07-2.55,6.24-2.55h0c3.49,0,7.82,0,11.17,2.3a.54.54,0,0,1,.14.75.55.55,0,0,1-.75.14C181,69,176.86,69,173.52,69h0c-1.87,0-4.44.2-5.27,1.94-.55,1.15-.13,2.58.28,4l.08.26A29.34,29.34,0,0,1,169.76,82a5.28,5.28,0,0,1-.46,2.88A2.58,2.58,0,0,1,167.16,86.19Z" fill="#231f20"></path><path d="M242.79,85.08a.5.5,0,0,1-.32-.88L247.38,80a.51.51,0,0,1,.71.06.51.51,0,0,1-.06.71L243.12,85A.52.52,0,0,1,242.79,85.08Z" fill="#d1d3d4"></path><path d="M243.45,96.35a.47.47,0,0,1-.32-.12l-4.29-3.57a.51.51,0,0,1-.06-.71.49.49,0,0,1,.7-.06l4.29,3.58a.5.5,0,0,1-.32.88Z" fill="#d1d3d4"></path><path d="M168.44,93.22A.48.48,0,0,1,168,93a.5.5,0,0,1,.11-.7l5.8-4.17a.5.5,0,0,1,.7.12.51.51,0,0,1-.11.7l-5.81,4.17A.52.52,0,0,1,168.44,93.22Z" fill="#d1d3d4"></path><path d="M172.07,103.22a.48.48,0,0,1-.23,0l-4.79-2.46a.5.5,0,1,1,.45-.89l4.8,2.46a.5.5,0,0,1,.21.67A.49.49,0,0,1,172.07,103.22Z" fill="#d1d3d4"></path><path d="M160.31,91.77a.48.48,0,0,1-.34-.13L156.17,88a.49.49,0,0,1,0-.7.5.5,0,0,1,.71,0l3.8,3.63a.5.5,0,0,1,0,.71A.48.48,0,0,1,160.31,91.77Z" fill="#d1d3d4"></path><path d="M178.47,96.29a.41.41,0,0,1-.19,0,.49.49,0,0,1-.27-.65l1.55-3.74a.5.5,0,1,1,.92.38L178.93,96A.51.51,0,0,1,178.47,96.29Z" fill="#d1d3d4"></path><path d="M173.77,80.87a.53.53,0,0,1-.24-.06.5.5,0,0,1-.2-.68l3.44-6.31a.5.5,0,1,1,.88.48l-3.44,6.31A.49.49,0,0,1,173.77,80.87Z" fill="#d1d3d4"></path><path d="M209.44,87.19a.5.5,0,0,1-.49-.38l-1.69-6.87a.5.5,0,0,1,.37-.6.49.49,0,0,1,.6.36l1.69,6.87a.5.5,0,0,1-.36.61Z" fill="#d1d3d4"></path><path d="M220,104.73a.45.45,0,0,1-.25-.07l-5-2.73a.5.5,0,1,1,.48-.88l5,2.74a.49.49,0,0,1,.19.68A.51.51,0,0,1,220,104.73Z" fill="#d1d3d4"></path><path d="M208.28,101.47h-.08a.5.5,0,0,1-.41-.58l1-6.21a.51.51,0,0,1,.58-.41.5.5,0,0,1,.41.57l-1,6.22A.51.51,0,0,1,208.28,101.47Z" fill="#d1d3d4"></path><path d="M244.15,108.42a.54.54,0,0,1-.22,0l-9.39-4.55a.5.5,0,1,1,.44-.9l9.38,4.54a.51.51,0,0,1,.24.67A.51.51,0,0,1,244.15,108.42Z" fill="#d1d3d4"></path><path d="M250.48,97.31a.45.45,0,0,1-.2,0,.5.5,0,0,1-.26-.66l3.13-7.2a.5.5,0,1,1,.91.4L250.94,97A.51.51,0,0,1,250.48,97.31Z" fill="#d1d3d4"></path><path d="M255.3,79.62a.49.49,0,0,1-.35-.15l-6.21-6.16a.5.5,0,0,1,.71-.71l6.2,6.16a.5.5,0,0,1-.35.86Z" fill="#d1d3d4"></path><path d="M236.53,89.76a.5.5,0,0,1-.49-.42l-.72-4.27a.5.5,0,1,1,1-.17l.72,4.27a.51.51,0,0,1-.41.58Z" fill="#d1d3d4"></path><path d="M194.78,78.48a.51.51,0,0,1-.42-.77l1.21-1.94a.5.5,0,0,1,.85.52l-1.21,1.95A.5.5,0,0,1,194.78,78.48Z" fill="#d1d3d4"></path><path d="M197,104.55h-.08a.5.5,0,0,1-.42-.57,13.15,13.15,0,0,1,1.42-4.42.49.49,0,0,1,.69-.12.5.5,0,0,1,.13.69,12.44,12.44,0,0,0-1.25,4A.5.5,0,0,1,197,104.55Z" fill="#d1d3d4"></path><path d="M175.3,107.31a.5.5,0,0,1-.26-.92l5.38-3.34a.5.5,0,1,1,.53.85l-5.38,3.34A.54.54,0,0,1,175.3,107.31Z" fill="#d1d3d4"></path><path d="M165.06,107.91a.51.51,0,0,1-.44-.26l-4.26-7.81a.5.5,0,0,1,.87-.48l4.27,7.81a.51.51,0,0,1-.2.68A.53.53,0,0,1,165.06,107.91Z" fill="#d1d3d4"></path><path d="M231.86,207.12s11.42,7.26,11.28,9.1-3.43,11.49-.85,11.55,3.44-5.07,3.44-5.07-4.77,14.52.7,12.06,4.91-12,5.45-16.57-2.87-9.79-.57-9.88,7.78,2.19,6.95-1.1-10.21-3-13.35-3.11S227.43,201.15,231.86,207.12Z" fill="#231f20"></path><path d="M245.32,235.58a1.75,1.75,0,0,1-1.19-.44c-1.25-1.13-.95-4.37-.34-7.32a2.35,2.35,0,0,1-1.52.49,1.28,1.28,0,0,1-1-.53c-1-1.3-.22-4.82.8-8.95a25,25,0,0,0,.58-2.65c-.07-1-5.79-5.27-11-8.6a.38.38,0,0,1-.14-.14c-1-1.27-1.19-2.33-.71-3.15,1.17-2,6.24-1.62,11.77-1,1,.12,1.92.22,2.44.25l1.48,0c4.32.08,11.55.22,12.37,3.48a1.9,1.9,0,0,1-.3,1.86c-.88.93-2.83.57-4.73.22a13.63,13.63,0,0,0-2.42-.31.34.34,0,0,0-.22.06c-.24.33.14,1.79.45,3a17.52,17.52,0,0,1,.85,6.39c-.09.8-.16,1.78-.22,2.83-.32,5.07-.76,12-5.54,14.17A3.32,3.32,0,0,1,245.32,235.58Zm.16-10.14c-1,3.63-1.69,7.94-.63,8.9.27.24.72.21,1.36-.07,4.19-1.89,4.6-8.46,4.9-13.26.07-1.06.13-2.06.23-2.89a16.66,16.66,0,0,0-.82-6c-.48-1.81-.83-3.12-.27-3.87a1.3,1.3,0,0,1,1-.5,13.8,13.8,0,0,1,2.67.34c1.38.25,3.27.6,3.74.1.18-.19.12-.57.05-.87-.62-2.46-7.87-2.6-11.35-2.66l-1.5,0c-.57,0-1.43-.12-2.53-.25-3.18-.37-9.79-1.15-10.71.44-.29.49.14,1.29.58,1.89,3.56,2.27,11.59,7.6,11.45,9.54a23.56,23.56,0,0,1-.61,2.83c-.61,2.46-1.74,7-1,8a.3.3,0,0,0,.22.11c.93,0,1.64-1,2.13-2.06.33-1.21.63-2.18.79-2.64a.53.53,0,0,1,.64-.36.54.54,0,0,1,.4.61A13.35,13.35,0,0,1,245.48,225.44Z" fill="#231f20"></path></g></svg>