<svg id="Layer_1" xmlns="http://www.w3.org/2000/svg" viewBox="0 0 86.9 48.2"><style>.st0{fill:#a68f51}</style><path class="st0" d="M53.6 28.9c.6-1.9-.6-3.3-2.7-2.9-2.2.5-4.6 3.1-4.4 5.8.2 1.8 1.9 2.8 3.7 2.7 3.1-.2 4.9-2.3 6.4-4.5s2.6-5 3.4-7.5c0 0 0-.1-.1-.1-1.9 2.1-4.1 4.5-6.3 6.5m-16-8.8c.6-.6 1.1-1.7 1.1-2.5.1-1.2-.7-1.4-1.4-.9-1.2.9-1.9 3.2-2 5.1.9-.4 1.7-.9 2.3-1.7M48.3 8.4c-.8 3-2 6.2-2.9 9.3-.3 1.1-.7 2.3-.7 3.4 0 .5.1.9.5 1.1 1.6-.1 2.3-1.6 3-2.7 1.5-2.5 2.2-5.3 3.2-8.2.4-1.2.9-2.6 1.2-3.7 0-.1.2-.5-.1-.5-1.4.5-2.7.9-4.2 1.3m23.2.4c1.9.6.8 4-1.2 3.3-.4-.1-.6-.6-.9-.5-.4.1-.6.7-.5 1.4.2.9 1.4 1.6 2.5 1.3 2-.5 3.1-2.7 2.9-5.1-.1-1.1-.6-2.1-.6-3.3 0 0 0-.1-.1-.1 0 0 0-.1-.1-.1-.6 1.2-1.4 2.1-2 3.1M76.3 0h.2c-.6 1.6-.5 3.7-.1 5.5.4 1.4.9 2.7.7 4.5-.3 3.1-2.5 5.9-5.5 6.2-2.1.2-3.5-.7-4-2.2-.4.2-.6.6-.8.8-.6.6-1.1 1.3-1.7 1.9-.3.4-.6.6-.8 1-.5.9-.6 2-.9 3.1-1.7 5-3.9 9.4-7.6 12.3-1.5 1.2-3.3 2.2-5.7 2.3-3 .2-5.2-1.8-5.3-4.3-.3-3.5 2.9-6.6 6.1-6.8 1.7-.1 3.2.6 3.6 2.1 1.8-1.4 3.4-3.2 5-4.8.5-.5 1.3-1.2 1.6-1.7.3-.5.4-1.2.6-1.7.2-.6.4-1.1.6-1.8-.8 1-2.3 3.4-4.1 4-1.7.6-2.5-.7-2.3-2.5-.8 1.2-2.2 3.7-4 4.5-1.7.7-2.9-.5-2.7-2.2-.9 1.4-2.5 4.3-4.7 4.7-1.9.5-2.4-1.2-2.1-3.1-1.4 2-3.1 5-6 5.8-.1 0-.2 0-.3.1-3.8.4-3.9-4.1-3-6.8.4-1.3 1.3-2.9 2.2-4 .9-1.1 2.4-2.3 4-2.3 1.4 0 2.1.9 2 2.2-.1 1.6-1.1 3-2.1 3.9-1.1 1-2.5 1.9-3.6 2.5.1 1.5 1.5 2 2.7 1.5 2.2-1.1 3.5-4.1 4.5-6.8 1.1-2.9 1.9-5.9 2.8-8.5-2 .6-3.9 1.8-5.4 3.1 1.3-2.2 3.3-3.7 5.8-4.6.5-1.1.8-2.3 1.1-3.6 1-.5 1.9-1.1 3.1-1.6-.4 1.4-.9 2.7-1.3 4.2 1.5-.4 2.8-.7 4.3-1.1.5-1.2.8-2.5 1.2-3.8 1-.5 1.9-1.1 3.1-1.5-.4 1.5-.9 2.8-1.3 4.3 2.6-.8 4.7-2.1 6.7-3.7-1.4 2.8-4.3 4.1-7.1 5.4-.6 1.9-1.3 3.9-1.9 5.8-.6 2-1.4 4.1-1.6 6.3-.1.6 0 1.4.5 1.5.9.2 1.9-1.4 2.1-1.9 1.7-2.6 2.4-5.7 3.4-8.6 1-.6 1.9-1.1 3.1-1.6-.6 2.1-1.4 4.5-2 6.5-.3.8-1 3.1 0 3.2.9.3 1.9-1.2 2.4-1.8 1.8-2.5 2.7-5.7 3.6-8.8 1-.5 1.9-1.1 3.1-1.5-.9 3.3-2 6.6-3.1 9.9.8-.7 1.7-1.9 2.5-2.9.2-2 1.3-3.3 3-3.9 1.7-2.8 3.5-5.8 5.4-8.7"/><path class="st0" d="M86.6 15.1c.1 0 .1 0 0 0-2.5 3.6-6.5 5.7-10.6 7.5s-8.7 3.5-13.5 4.6c-.1-.2.2-.5.3-.7.4-.7.7-1.6 1-2.3 8.5-2 16.5-4.7 22.8-9.1M10 48c.1-.6.8-1.4 1.4-1.9 1.6-1.8 3.4-3.3 5.2-4.5 7.6-5.5 16.8-9.6 26.7-12.3-.2.8-.3 1.9-.2 2.8C30.3 35.3 18.8 40.3 10 48M26.1 15.8c3.4.5 5.6 2.5 5.2 6.7-.3 3.9-3.2 7.5-6.1 9.2-1.9 1.1-5.2 1.8-6.5-.3-1-1.5-.5-3.9.2-5.4.6-1.3 1.4-2.6 2.3-3.5 1-1 2.2-2 3.9-1.9-1.2.9-2.6 1.8-3.6 3.2-.8 1.2-1.9 2.9-1.9 4.7-.2 1.8.6 3.2 2.6 2.6 1.8-.5 3.3-2 4.4-3.7.9-1.6 1.8-4.3 1.4-6.4-.6-2.9-2.5-4.1-5.6-4.5.7-.4 1.4-.6 2.1-1 2.2-1.2 4.7-3.3 5-6.4.2-1.9-.6-3.3-1.7-4.3-4.5 4.8-6.2 11.9-9.1 18.7-1.4 3.3-3 6.3-5 8.8-1.9 2.3-4.5 5.1-8.5 5.4C2.2 37.8-.3 36 0 33c.2-1.9 1.9-3.6 3.8-3.5 1.2 0 2.3 1 1.9 2.5-.3 1.2-1.7 2.3-3.1 1.9-.6-.2-.6-.5-1-.8-.6.4-.3 1.3 0 1.8.5.9 1.7 1.7 3.3 1.5.8-.1 1.7-.5 2.3-.8 2.5-1.5 4.3-4.2 5.7-7.1 2.8-5.8 4.6-12.4 7.7-17.6 1.6-2.7 3.5-5 5.7-7-2.5-.8-5.5-.4-7.8.5-4.4 1.5-8 4.1-10.5 7.9-1.3 1.7-2.5 4-2.2 6.9.1 1.4.9 2.6 2.2 2.8.8.1 1.8-.2 2.2-.5 1.9-1 3.2-3.2 4.1-5.3.9-2.2 1.4-5 1.4-7.8.6 1.6.8 3.4.6 5.2-.3 3.5-1.7 6.5-3.6 8.4-1.1 1-3.2 2.6-5.5 2-.6-.2-1.3-.6-1.9-1-2.2-2.3-1.2-6.7.1-9.2 2.5-5.2 7.1-9 12.8-11 2.4-.8 5.8-1.5 9-.9.3.2.7.4 1.1.3.3 0 .7-.4 1.1-.6C30.5 1 31.7.4 33.2 0c.5-.1-.6.6-.7.6-.8.6-1.2.7-2 1.4-.2.1-.9.6-.9.7 0 .1 1 .6 1.1.8 1 .9 1.9 2.7 1.9 4.6-.2 2-1.2 3.5-2.3 4.6-1.2 1.5-2.6 2.2-4.2 3.1M33.1 40c-.2-.1-.3 0-.3-.1s.1-.1.2-.1h2.3c.2 0 .3 0 .3.3v.6c0 .1 0 .2-.1.2s-.1-.3-.3-.6c-.2-.3-.5-.4-.8-.4-.6 0-.6.1-.6.6v1.3c0 .2 0 .2.1.2h.4c.3 0 .5-.1.6-.2.2-.2.1-.5.2-.5s.1 0 .1.2v1.4c0 .1 0 .2-.1.2s-.1-.3-.2-.6-.3-.4-.6-.4h-.5c-.1 0-.1 0-.1.2V44c0 .4.2.6.6.6s.7-.1.9-.5c.2-.3.2-.6.3-.6s.1 0 .1.1v.1l-.1.7c0 .3-.1.3-.2.3-.2 0-.7-.1-1.6-.1-.6 0-.8.1-1 .1-.1 0-.2-.1-.2-.1 0-.2.1-.1.3-.1.2-.1.3-.1.3-.5v-3.7c.1-.2.1-.3 0-.3M37 45c-.4 0-.6-.1-.7-.3-.1-.1-.1-.2-.1-.4 0-.5 0-.6.1-.6s.1.2.1.4c.1.5.4.7.7.7.5 0 .7-.4.7-.8 0-.6-.3-.8-.8-1.1-.6-.3-.7-.6-.7-1.1 0-.6.4-1.1 1-1.1.4 0 .6.1.7.2 0 0 .1.3.1.6 0 .1 0 .2-.1.2s-.1-.1-.2-.4c-.1-.4-.3-.5-.6-.5s-.6.3-.6.6c0 .5.3.6.8.9.6.4.8.6.8 1.3 0 .8-.5 1.4-1.2 1.4M40.1 41v3.2c0 .3 0 .4.2.4.1 0 .3 0 .3.1s-.1.1-.2.1h-1.2c-.1 0-.1 0-.1-.1s.1-.1.3-.1c.2-.1.2-.1.2-.4V41c0-.1 0-.1-.1-.1h-.2c-.3 0-.5.1-.6.4-.1.2-.1.4-.2.4 0 0-.1 0-.1-.1v-.1l.2-.8c0-.1 0-.1.1-.1 0 0 .1 0 .1.1s0 .1.1.1h1c.7 0 1.1 0 1.1-.1.1-.1.1-.2.1-.2s.1 0 .1.1v.9c0 .1 0 .1-.1.1s-.1-.2-.2-.5-.3-.3-.6-.3h-.2v.2"/><text transform="matrix(.75 0 0 1 40.727 44.849)" class="st0" font-size="6.572" font-family="AGaramondPro-Regular">.</text><path class="st0" d="M44.8 40.4c-.2 0-.5.3-.6.3-.1 0-.1 0-.1-.1 0-.2.2-.2.5-.4.6-.3.9-.5 1-.5s.1.1.1.2V44c0 .5 0 .6.2.7.3.1.5 0 .5.2 0 .1 0 .1-.1.1s-.4-.1-1-.1c-.5 0-.8.1-.8.1-.1 0-.1 0-.1-.1 0-.2.2-.1.5-.2.2 0 .3-.2.3-.6v-3.2c-.4-.4-.4-.5-.4-.5M48.3 39.6c.8 0 1.5.9 1.5 2.2 0 1.1-.5 2-1.4 3-.6.6-1.3.8-1.3.8-.1 0-.1 0-.1-.1 0-.2.4-.2.7-.6.8-.8 1.4-1.9 1.4-3.1 0-1.2-.5-1.9-.8-1.9s-.6.6-.6 1.3c0 .8.4 1.5.8 1.5.2 0 .3-.1.4-.1 0 0 .1 0 .1.1s-.3.4-.7.4c-.6 0-1.2-.6-1.2-1.6-.2-1.1.4-1.9 1.2-1.9M51.3 40.4c-.2 0-.5.3-.6.3-.1 0-.1 0-.1-.1 0-.2.2-.2.5-.4.6-.3.9-.5.9-.5.1 0 .1.1.1.2V44c0 .5 0 .6.2.7.3.1.5 0 .5.2 0 .1 0 .1-.1.1s-.4-.1-1-.1c-.5 0-.8.1-.8.1s-.1 0-.1-.1c0-.2.2-.1.5-.2.2 0 .3-.2.3-.6v-3.2c-.2-.4-.2-.5-.3-.5M54.9 39.6c.8 0 1.5.9 1.5 2.2 0 1.1-.5 2-1.4 3-.6.6-1.3.8-1.3.8-.1 0-.1 0-.1-.1 0-.2.4-.2.7-.6.8-.8 1.4-1.9 1.4-3.1 0-1.2-.5-1.9-.8-1.9s-.6.6-.6 1.3c0 .8.4 1.5.8 1.5.2 0 .3-.1.4-.1 0 0 .1 0 .1.1s-.3.4-.7.4c-.6 0-1.2-.6-1.2-1.6-.2-1.1.4-1.9 1.2-1.9"/></svg>