<svg id="Capa_1" enable-background="new 0 0 512 512" height="512" viewBox="0 0 512 512" width="512" xmlns="http://www.w3.org/2000/svg" xmlns:xlink="http://www.w3.org/1999/xlink"><linearGradient id="SVGID_1_" gradientUnits="userSpaceOnUse" x1="240.418" x2="353.045" y1="366.833" y2="366.833"><stop offset="0" stop-color="#c5baeb"/><stop offset="1" stop-color="#f2effa"/></linearGradient><linearGradient id="SVGID_2_" gradientUnits="userSpaceOnUse" x1="243.181" x2="335.841" y1="241.093" y2="241.093"><stop offset="0" stop-color="#dea861"/><stop offset="1" stop-color="#ebcba0"/></linearGradient><linearGradient id="lg1"><stop offset="0" stop-color="#5d3645"/><stop offset="1" stop-color="#71525e"/></linearGradient><linearGradient id="SVGID_3_" gradientUnits="userSpaceOnUse" x1="243.181" x2="335.841" xlink:href="#lg1" y1="314.423" y2="314.423"/><linearGradient id="SVGID_4_" gradientUnits="userSpaceOnUse" x1="243.181" x2="335.841" xlink:href="#lg1" y1="162.375" y2="162.375"/><linearGradient id="SVGID_5_" gradientUnits="userSpaceOnUse" x1="113.901" x2="452.438" xlink:href="#lg1" y1="217.807" y2="8.922"/><radialGradient id="SVGID_6_" cx="283.391" cy="81.172" gradientUnits="userSpaceOnUse" r="57.566"><stop offset="0" stop-color="#ff7a85"/><stop offset="1" stop-color="#ff4757"/></radialGradient><g><g><path d="m487.464 335.895c-.12-30.586-18.644-59.776-56.447-81.602-83.71-48.33-229.928-42.269-326.588 13.538-52.306 30.199-79.324 68.772-79.894 105.476l-.067.006v24.513l.066-.006c.139 30.568 18.664 59.739 56.446 81.552 83.709 48.33 229.928 42.269 326.587-13.538 53.009-30.605 80.039-69.81 79.894-106.953l.06-.005v-22.986z" fill="url(#SVGID_1_)"/><ellipse cx="256" cy="355.345" fill="#e9e5f6" rx="232.695" ry="131.645" transform="matrix(.993 -.121 .121 .993 -41.111 33.582)"/></g><g><path d="m446.43 121.94c-.098-25.164-15.339-49.179-46.44-67.135-68.869-39.762-189.166-34.775-268.69 11.138-43.033 24.845-65.262 56.58-65.73 86.777l-.055.004v207.566l.055-.005c.115 25.149 15.355 49.148 46.44 67.095 68.869 39.762 189.166 34.775 268.69-11.138 43.611-25.179 65.85-57.434 65.731-87.993l.049-.004v-206.309z" fill="url(#SVGID_2_)"/><path d="m380.699 322.3c-79.524 45.913-199.82 50.9-268.69 11.138-31.084-17.947-46.325-41.946-46.44-67.095l-.055.005v34.261l.055-.005c.115 25.149 15.355 49.148 46.44 67.095 68.869 39.762 189.166 34.775 268.69-11.138 43.611-25.179 65.849-57.434 65.731-87.993l.049-.004v-34.261l-.049.004c.119 30.559-22.119 62.813-65.731 87.993z" fill="url(#SVGID_3_)"/><g><path d="m399.99 54.805c-68.869-39.761-189.166-34.775-268.69 11.138-43.033 24.845-65.262 56.58-65.73 86.777l-.055.004v50.13l.055-.005c.115 25.149 15.355 49.148 46.44 67.095 68.869 39.762 189.166 34.775 268.69-11.138 43.611-25.179 65.849-57.434 65.731-87.993l.049-.004v-48.873l-.049.004c-.099-25.163-15.34-49.179-46.441-67.135z" fill="url(#SVGID_4_)"/></g><ellipse cx="256" cy="137.942" fill="#8b636f" rx="191.443" ry="108.307" transform="matrix(.993 -.121 .121 .993 -14.808 31.985)"/><path d="m371.844 197.011c-73.876 42.653-185.63 47.285-249.609 10.347-63.979-36.939-55.955-101.46 17.921-144.112 73.876-42.653 185.63-47.285 249.609-10.347s55.955 101.459-17.921 144.112z" fill="url(#SVGID_5_)"/></g><circle cx="256" cy="98.154" fill="url(#SVGID_6_)" r="57.566"/><g><path d="m256 65.365c-.004 0-.007 0-.01 0-3.982-.006-7.207-3.23-7.207-7.212 0-1.545.254-38.06 22.315-56.476 3.059-2.555 7.611-2.145 10.166.915 2.554 3.06 2.144 7.611-.916 10.165-16.844 14.061-17.13 45.093-17.13 45.405-.012 3.979-3.24 7.203-7.218 7.203z" fill="#236568"/></g></g></svg>