<?xml version="1.0" encoding="iso-8859-1"?>
<!-- Generator: Adobe Illustrator 19.0.0, SVG Export Plug-In . SVG Version: 6.00 Build 0)  -->
<svg version="1.1" id="Layer_1" xmlns="http://www.w3.org/2000/svg" xmlns:xlink="http://www.w3.org/1999/xlink" x="0px" y="0px"
	 viewBox="0 0 480 480" style="enable-background:new 0 0 480 480;" xml:space="preserve">
<path style="fill:#FCB23C;" d="M78.776,296l21.376,149.688C102.944,465.248,119.968,480,139.76,480h200.48
	c19.792,0,36.824-14.752,39.6-34.304L401.224,296H78.776z"/>
<path style="fill:#BD852D;" d="M432,296h-30.776H78.776H48c-4.416,0-8,3.576-8,8s3.584,8,8,8h33.064l8,56H120v16
	c0,6.488,2.536,12.52,6.992,16.856c4.48,4.616,10.52,7.144,17.008,7.144c13.232,0,24-10.768,24-24v-16h16v16
	c0,6.488,2.536,12.52,6.992,16.856c4.48,4.616,10.52,7.144,17.008,7.144c13.232,0,24-10.768,24-24v-16h16v16
	c0,6.496,2.528,12.528,6.984,16.856C259.472,405.472,265.504,408,272,408c13.232,0,24-10.768,24-24v-16h16v16
	c0,6.496,2.528,12.528,6.984,16.856C323.472,405.472,329.504,408,336,408c13.232,0,24-10.768,24-24v-16h30.936l8-56H432
	c4.424,0,8-3.576,8-8S436.424,296,432,296z"/>
<path style="fill:#FCB23C;" d="M336,72H144c-13.232,0-24,10.768-24,24v56h240V96C360,82.768,349.232,72,336,72z"/>
<path style="fill:#FDC163;" d="M336,72H144c-13.232,0-24,10.768-24,24v32c0-13.232,10.768-24,24-24h192c13.232,0,24,10.768,24,24V96
	C360,82.768,349.232,72,336,72z"/>
<g>
	<circle style="fill:#FEF0D8;" cx="176" cy="104" r="8"/>
	<circle style="fill:#FEF0D8;" cx="208" cy="128" r="8"/>
	<circle style="fill:#FEF0D8;" cx="240" cy="104" r="8"/>
	<circle style="fill:#FEF0D8;" cx="272" cy="128" r="8"/>
	<circle style="fill:#FEF0D8;" cx="304" cy="104" r="8"/>
</g>
<path style="fill:#B376DD;" d="M368,152H112c-13.232,0-24,10.768-24,24v56h304v-56C392,162.768,381.232,152,368,152z"/>
<path style="fill:#C291E4;" d="M368,152H112c-13.232,0-24,10.768-24,24v32c0-13.232,10.768-24,24-24h256c13.232,0,24,10.768,24,24
	v-32C392,162.768,381.232,152,368,152z"/>
<g>
	<circle style="fill:#E4E2FE;" cx="128" cy="184" r="8"/>
	<circle style="fill:#E4E2FE;" cx="160" cy="208" r="8"/>
	<circle style="fill:#E4E2FE;" cx="192" cy="184" r="8"/>
	<circle style="fill:#E4E2FE;" cx="224" cy="208" r="8"/>
	<circle style="fill:#E4E2FE;" cx="256" cy="184" r="8"/>
	<circle style="fill:#E4E2FE;" cx="288" cy="184" r="8"/>
	<circle style="fill:#E4E2FE;" cx="320" cy="208" r="8"/>
	<circle style="fill:#E4E2FE;" cx="352" cy="184" r="8"/>
</g>
<path style="fill:#F97985;" d="M392,232H88c-13.232,0-24,10.768-24,24v40h352v-40C416,242.768,405.232,232,392,232z"/>
<path style="fill:#FA949D;" d="M392,232H88c-13.232,0-24,10.768-24,24v32c0-13.232,10.768-24,24-24h304c13.232,0,24,10.768,24,24
	v-32C416,242.768,405.232,232,392,232z"/>
<g>
	<path style="fill:#FEDDE0;" d="M120,232v32c0,13.232,10.768,24,24,24s24-10.768,24-24v-32H120z"/>
	<path style="fill:#FEDDE0;" d="M184,232v32c0,13.232,10.768,24,24,24s24-10.768,24-24v-32H184z"/>
	<path style="fill:#FEDDE0;" d="M248,232v32c0,13.232,10.768,24,24,24s24-10.768,24-24v-32H248z"/>
	<path style="fill:#FEDDE0;" d="M312,232v32c0,13.232,10.768,24,24,24s24-10.768,24-24v-32H312z"/>
</g>
<path style="fill:#F85766;" d="M312,40h-24.72C283.448,17.336,263.736,0,240,0c-26.472,0-48,21.528-48,48s21.528,48,48,48
	c23.736,0,43.448-17.336,47.28-40H312c4.424,0,8-3.576,8-8S316.424,40,312,40z"/>
<g>
	<path style="fill:#F97985;" d="M208,56c0-26.472,21.528-48,48-48c4.528,0,8.84,0.808,12.992,1.984C260.928,3.8,250.936,0,240,0
		c-26.472,0-48,21.528-48,48c0,21.96,14.84,40.48,35.008,46.168C215.48,85.392,208,71.568,208,56z"/>
	<path style="fill:#F97985;" d="M303.28,48H320c0-4.424-3.576-8-8-8h-10.824C302.096,42.576,302.816,45.248,303.28,48z"/>
</g>
<circle style="fill:#FEDDE0;" cx="264" cy="32" r="8"/>
<g>
</g>
<g>
</g>
<g>
</g>
<g>
</g>
<g>
</g>
<g>
</g>
<g>
</g>
<g>
</g>
<g>
</g>
<g>
</g>
<g>
</g>
<g>
</g>
<g>
</g>
<g>
</g>
<g>
</g>
</svg>
