<svg xmlns="http://www.w3.org/2000/svg" width="106.514" height="70.071" viewBox="0 0 106.514 70.071">
  <path id="Path_136551" data-name="Path 136551" d="M98.44,32.615H85.535V16.234a3.986,3.986,0,0,1,2.154.98,1.615,1.615,0,0,0,2.687-1.208V11.217a8.084,8.084,0,0,0-8.069-8.074H56.966a3.763,3.763,0,0,0-7.423,0H24.208a8.081,8.081,0,0,0-8.069,8.074v4.788a1.615,1.615,0,0,0,2.687,1.208,3.97,3.97,0,0,1,2.154-.98V32.615H8.069A8.077,8.077,0,0,0,0,40.685v4.2a1.611,1.611,0,0,0,2.753,1.141A3.737,3.737,0,0,1,4.032,45.2V68.459a1.614,1.614,0,0,0,1.617,1.612h95.216a1.613,1.613,0,0,0,1.612-1.612V45.2a3.756,3.756,0,0,1,1.284.832,1.612,1.612,0,0,0,2.753-1.141v-4.2a8.078,8.078,0,0,0-8.074-8.069M19.368,13.286V11.217a4.846,4.846,0,0,1,4.841-4.845h58.1a4.846,4.846,0,0,1,4.841,4.845v2.068a7.209,7.209,0,0,0-7.223,1.783,4.1,4.1,0,0,1-5.663,0,7.232,7.232,0,0,0-10.223,0,4.018,4.018,0,0,1-5.668,0,7.241,7.241,0,0,0-10.228,0,4.012,4.012,0,0,1-5.663,0,7.235,7.235,0,0,0-10.223,0,4.1,4.1,0,0,1-5.663,0,7.224,7.224,0,0,0-7.223-1.783m62.938,3.98V32.615h-58.1V17.266c.033.033,7.508,2.905,10.328.086a4.087,4.087,0,0,1,5.659,0,7.241,7.241,0,0,0,10.228,0,4.012,4.012,0,0,1,5.663,0,7.241,7.241,0,0,0,10.228,0,4.093,4.093,0,0,1,5.663,0,7.168,7.168,0,0,0,5.112,2.121c1.935,0,5.183-2.173,5.216-2.206M99.248,66.842H7.261V45.259a3.671,3.671,0,0,1,1.155.77,7.241,7.241,0,0,0,10.228,0,4.093,4.093,0,0,1,5.663,0,7.241,7.241,0,0,0,10.228,0,4.087,4.087,0,0,1,5.659,0,7.241,7.241,0,0,0,10.228,0,4.093,4.093,0,0,1,5.663,0,7.241,7.241,0,0,0,10.228,0,4.093,4.093,0,0,1,5.663,0,7.227,7.227,0,0,0,10.228,0,4.092,4.092,0,0,1,5.659,0,7.247,7.247,0,0,0,10.233,0,3.7,3.7,0,0,1,1.151-.77Zm4.037-24.817a7.238,7.238,0,0,0-7.47,1.721,4.1,4.1,0,0,1-5.663,0,7.238,7.238,0,0,0-10.228,0,4.012,4.012,0,0,1-5.663,0,7.232,7.232,0,0,0-10.223,0,4.022,4.022,0,0,1-5.668,0,7.238,7.238,0,0,0-10.228,0,4.017,4.017,0,0,1-5.663,0,7.232,7.232,0,0,0-10.223,0,4.017,4.017,0,0,1-5.663,0,7.238,7.238,0,0,0-10.228,0,4.017,4.017,0,0,1-5.663,0,7.358,7.358,0,0,0-7.47-1.726V40.685a4.845,4.845,0,0,1,4.841-4.841H98.44a4.846,4.846,0,0,1,4.845,4.841Z"/>
</svg>
