<?xml version="1.0" standalone="no"?>
<!DOCTYPE svg PUBLIC "-//W3C//DTD SVG 20010904//EN"
 "http://www.w3.org/TR/2001/REC-SVG-20010904/DTD/svg10.dtd">
<svg version="1.0" xmlns="http://www.w3.org/2000/svg"
 width="200.000000pt" height="200.000000pt" viewBox="0 0 200.000000 200.000000"
 preserveAspectRatio="xMidYMid meet">

<g transform="translate(0.000000,200.000000) scale(0.100000,-0.100000)"
fill="#000000" stroke="none">
<path d="M1140 1772 c-19 -8 -50 -14 -69 -14 -36 2 -91 -30 -91 -53 0 -7 -6
-16 -12 -19 -7 -3 -3 -3 10 0 26 6 30 -11 5 -25 -10 -6 -13 -11 -6 -11 6 0 15
5 18 10 8 13 52 13 60 -1 4 -6 19 -7 37 -4 24 6 30 3 35 -13 3 -12 16 -22 35
-26 21 -4 29 -10 24 -21 -4 -11 1 -15 18 -15 13 0 44 -3 70 -6 46 -7 47 -7 41
18 -5 18 -2 27 9 31 9 4 16 17 16 29 0 36 14 52 29 34 9 -11 19 -13 37 -5 46
17 78 10 117 -26 40 -38 47 -68 20 -97 -15 -17 -15 -18 11 -18 15 0 40 -7 57
-15 37 -19 49 -13 49 26 0 32 -23 63 -41 57 -6 -2 -25 9 -41 24 -17 15 -36 28
-43 28 -8 0 -16 8 -19 18 -4 11 -19 25 -34 33 -15 8 -30 18 -33 23 -4 4 -17 5
-30 0 -38 -12 -69 -11 -81 3 -6 7 -21 13 -35 13 -13 0 -34 5 -46 12 -41 21
-81 25 -117 10z"/>
<path d="M510 1639 c0 -18 3 -19 15 -9 8 6 20 8 27 4 10 -6 9 -3 -1 9 -19 24
-41 21 -41 -4z"/>
<path d="M735 1629 c-12 -19 3 -21 52 -6 l48 15 -47 1 c-26 1 -50 -4 -53 -10z"/>
<path d="M1100 1549 c0 -5 5 -7 10 -4 6 3 10 8 10 11 0 2 -4 4 -10 4 -5 0 -10
-5 -10 -11z"/>
<path d="M1000 1536 c0 -2 7 -7 16 -10 8 -3 12 -2 9 4 -6 10 -25 14 -25 6z"/>
<path d="M1095 1520 c-17 -7 -15 -9 12 -9 17 -1 35 4 38 9 7 12 -22 12 -50 0z"/>
<path d="M1040 1511 c0 -5 7 -12 16 -15 24 -9 28 -7 14 9 -14 17 -30 20 -30 6z"/>
<path d="M713 1438 c-31 -15 -29 -30 2 -22 27 7 32 -4 13 -25 -11 -11 -8 -12
12 -6 23 7 24 7 10 -10 -14 -16 -13 -17 8 -11 18 6 22 4 22 -13 0 -23 15 -28
24 -8 3 8 8 7 16 -5 6 -10 16 -18 21 -18 6 0 7 5 4 10 -11 18 17 11 31 -7 13
-17 13 -17 14 0 0 19 15 23 25 7 10 -16 25 -12 19 5 -7 18 17 20 35 3 11 -11
12 -9 6 11 -6 20 -4 23 9 18 9 -4 16 -2 16 2 0 5 -6 12 -12 14 -7 3 -2 6 12 7
23 1 24 1 7 14 -18 14 -18 14 0 19 10 3 5 5 -12 4 -17 -1 -29 -7 -28 -14 5
-23 -48 -53 -94 -53 -55 0 -98 22 -118 60 -9 17 -17 30 -18 29 -1 0 -12 -5
-24 -11z"/>
<path d="M1143 1423 c-31 -6 -29 -23 2 -23 29 0 32 -7 8 -27 -16 -13 -15 -14
11 -8 26 6 28 4 22 -20 -6 -24 7 -35 19 -15 9 15 35 0 35 -21 0 -10 5 -19 10
-19 6 0 10 6 10 13 0 8 3 8 9 -2 8 -12 12 -13 26 -1 12 10 19 10 27 2 17 -17
28 -15 22 3 -7 18 7 20 24 3 9 -9 12 -7 12 11 0 17 4 22 16 17 13 -5 15 -2 11
15 -4 15 -2 19 9 15 17 -7 18 6 2 22 -9 9 -9 12 0 12 7 0 12 5 12 10 0 6 -8
10 -19 10 -12 0 -20 -9 -24 -27 -7 -35 -53 -63 -100 -63 -27 0 -45 9 -71 34
-20 18 -36 41 -36 50 0 9 -3 15 -7 15 -5 -1 -18 -4 -30 -6z"/>
<path d="M905 1240 c-6 -10 22 -60 34 -60 4 0 21 -14 40 -30 32 -30 33 -32 27
-93 -7 -68 -24 -90 -66 -85 -17 2 -30 13 -40 35 -8 18 -18 33 -22 33 -19 0 28
-71 50 -77 31 -7 73 12 79 37 5 18 7 18 26 5 37 -26 83 -19 107 15 12 17 17
30 12 30 -5 0 -14 -11 -20 -25 -9 -19 -19 -25 -44 -25 -49 0 -60 12 -66 70
l-5 51 58 54 c55 50 57 53 37 64 -11 6 -40 11 -64 10 l-43 -1 44 -9 c24 -5 46
-11 49 -14 3 -3 -10 -22 -29 -41 -42 -41 -65 -40 -123 7 -40 34 -44 45 -18 52
15 4 15 5 0 6 -9 0 -20 -3 -23 -9z"/>
<path d="M1115 1140 c4 -6 11 -8 16 -5 14 9 11 15 -7 15 -8 0 -12 -5 -9 -10z"/>
<path d="M900 1130 c0 -5 5 -10 10 -10 6 0 10 5 10 10 0 6 -4 10 -10 10 -5 0
-10 -4 -10 -10z"/>
<path d="M840 1120 c0 -5 5 -10 11 -10 5 0 7 5 4 10 -3 6 -8 10 -11 10 -2 0
-4 -4 -4 -10z"/>
<path d="M1180 1110 c0 -5 5 -10 11 -10 5 0 7 5 4 10 -3 6 -8 10 -11 10 -2 0
-4 -4 -4 -10z"/>
<path d="M890 1080 c0 -5 5 -10 10 -10 6 0 10 5 10 10 0 6 -4 10 -10 10 -5 0
-10 -4 -10 -10z"/>
<path d="M1110 1080 c0 -5 5 -10 10 -10 6 0 10 5 10 10 0 6 -4 10 -10 10 -5 0
-10 -4 -10 -10z"/>
<path d="M560 931 c0 -9 30 -24 36 -18 2 1 -6 8 -16 15 -11 7 -20 8 -20 3z"/>
<path d="M1340 916 c0 -10 -9 -16 -22 -17 -22 0 -22 -1 -3 -9 11 -5 25 -9 30
-9 14 -1 17 37 4 44 -5 4 -9 -1 -9 -9z"/>
<path d="M536 905 c4 -8 8 -15 10 -15 2 0 4 7 4 15 0 8 -4 15 -10 15 -5 0 -7
-7 -4 -15z"/>
<path d="M1510 909 c0 -5 5 -7 10 -4 6 3 10 8 10 11 0 2 -4 4 -10 4 -5 0 -10
-5 -10 -11z"/>
<path d="M1440 896 c0 -8 4 -17 9 -20 5 -4 7 3 4 14 -6 23 -13 26 -13 6z"/>
<path d="M1555 901 c-3 -5 -1 -12 5 -16 5 -3 10 1 10 9 0 18 -6 21 -15 7z"/>
<path d="M637 894 c-11 -11 3 -24 18 -17 10 3 15 -1 15 -12 0 -9 5 -13 10 -10
6 3 10 15 10 26 0 13 -7 19 -23 19 -13 0 -27 -3 -30 -6z"/>
<path d="M1126 881 c-4 -5 -2 -12 3 -15 5 -4 12 -2 15 3 4 5 2 12 -3 15 -5 4
-12 2 -15 -3z"/>
<path d="M1502 869 c-12 -11 -22 -25 -22 -32 0 -8 4 -7 11 3 8 11 12 12 16 3
3 -10 8 -10 19 1 31 32 8 55 -24 25z"/>
<path d="M1332 846 c1 -14 5 -23 9 -20 7 4 0 44 -7 44 -2 0 -3 -11 -2 -24z"/>
<path d="M1555 860 c3 -5 8 -10 11 -10 2 0 4 5 4 10 0 6 -5 10 -11 10 -5 0 -7
-4 -4 -10z"/>
<path d="M785 840 c-3 -5 -1 -10 4 -10 6 0 11 5 11 10 0 6 -2 10 -4 10 -3 0
-8 -4 -11 -10z"/>
<path d="M1030 840 c-8 -5 -12 -11 -9 -14 2 -3 11 -1 19 4 8 5 12 11 9 14 -2
3 -11 1 -19 -4z"/>
<path d="M1210 834 c0 -8 5 -12 10 -9 6 4 8 11 5 16 -9 14 -15 11 -15 -7z"/>
<path d="M1280 840 c0 -5 5 -10 11 -10 5 0 7 5 4 10 -3 6 -8 10 -11 10 -2 0
-4 -4 -4 -10z"/>
<path d="M705 830 c3 -5 8 -10 11 -10 2 0 4 5 4 10 0 6 -5 10 -11 10 -5 0 -7
-4 -4 -10z"/>
<path d="M1435 830 c-3 -6 1 -7 9 -4 18 7 21 14 7 14 -6 0 -13 -4 -16 -10z"/>
<path d="M435 180 c-3 -5 1 -10 10 -10 9 0 13 5 10 10 -3 6 -8 10 -10 10 -2 0
-7 -4 -10 -10z"/>
<path d="M837 180 c-42 -13 -57 -29 -57 -61 0 -44 54 -72 104 -53 28 11 17 24
-14 18 -57 -12 -82 41 -35 72 14 9 34 14 45 11 11 -3 23 -1 26 4 3 5 1 9 -5 9
-5 0 -15 2 -23 4 -7 2 -26 0 -41 -4z"/>
<path d="M1380 183 c-36 -7 -60 -32 -60 -64 0 -44 55 -72 104 -53 28 11 17 24
-14 18 -57 -12 -82 41 -35 72 14 9 34 14 45 11 11 -3 23 -1 26 4 3 5 1 9 -5 9
-5 0 -15 2 -23 4 -7 2 -24 1 -38 -1z"/>
<path d="M173 120 c-8 -49 -7 -60 4 -60 7 0 16 14 20 30 4 24 11 30 32 31 23
2 24 2 4 6 -34 6 -30 41 5 46 20 3 16 4 -14 6 l-41 1 -10 -60z"/>
<path d="M1617 166 c-14 -36 -19 -106 -7 -106 6 0 14 9 17 20 3 11 9 20 14 20
5 0 14 -9 21 -20 7 -11 19 -20 27 -20 11 0 10 4 -2 24 -14 21 -14 25 6 45 17
17 18 21 6 21 -9 0 -24 -9 -34 -20 -26 -29 -35 -25 -28 15 6 34 -9 50 -20 21z"/>
<path d="M1083 153 c-3 -10 -13 -26 -21 -36 -14 -16 -14 -17 1 -11 12 4 16 2
13 -7 -14 -47 -15 -79 -1 -79 8 0 15 9 15 20 0 13 7 20 19 20 30 0 51 11 62
31 14 27 -6 59 -36 59 -14 0 -25 5 -25 10 0 17 -20 11 -27 -7z m56 -27 c15
-18 3 -46 -20 -46 -13 0 -19 7 -19 23 0 37 18 48 39 23z"/>
<path d="M302 139 c-19 -7 -23 -15 -20 -41 3 -31 5 -33 46 -35 23 -1 42 1 42
5 0 4 4 24 9 45 9 37 9 37 -23 36 -17 0 -41 -4 -54 -10z m49 -12 c-1 -4 -1
-16 -1 -27 0 -13 -7 -20 -19 -20 -29 0 -36 18 -15 41 17 18 36 22 35 6z"/>
<path d="M425 123 c-4 -16 -8 -36 -10 -46 -2 -9 3 -17 11 -17 12 0 16 11 29
73 2 9 -3 17 -11 17 -7 0 -16 -12 -19 -27z"/>
<path d="M496 131 c-15 -58 -16 -71 -2 -71 7 0 16 14 20 30 4 20 14 34 31 40
34 13 31 18 -10 17 -23 -1 -36 -6 -39 -16z"/>
<path d="M590 145 c0 -3 7 -22 15 -41 10 -25 12 -41 5 -54 -12 -23 -13 -30 -1
-30 12 0 83 121 75 129 -3 3 -16 -7 -29 -23 l-24 -30 -12 27 c-11 23 -29 37
-29 22z"/>
<path d="M928 115 c-5 -47 0 -52 49 -52 38 0 42 2 47 30 8 42 7 57 -4 57 -5 0
-13 -15 -18 -32 -6 -23 -15 -34 -31 -36 -20 -3 -22 -1 -15 32 5 28 3 36 -9 36
-10 0 -16 -12 -19 -35z"/>
<path d="M1482 134 c-24 -17 -29 -46 -9 -61 6 -5 29 -10 50 -10 31 -1 37 2 37
20 0 12 3 32 6 45 6 20 3 22 -28 22 -18 0 -44 -7 -56 -16z m56 -21 c-4 -35
-48 -48 -48 -14 0 18 23 40 43 41 5 0 7 -12 5 -27z"/>
<path d="M1748 139 c-23 -13 -24 -65 -2 -73 22 -9 64 -7 64 2 0 4 -12 8 -27 7
-14 0 -28 6 -30 13 -3 8 7 12 31 12 29 0 36 4 36 19 0 29 -39 40 -72 20z m50
-17 c2 -7 -6 -12 -17 -12 -21 0 -27 11 -14 24 9 9 26 2 31 -12z"/>
<path d="M1210 100 c0 -5 13 -10 29 -10 17 0 33 5 36 10 4 6 -8 10 -29 10 -20
0 -36 -4 -36 -10z"/>
</g>
</svg>
