<?xml version="1.0" encoding="iso-8859-1"?>
<!-- Generator: Adobe Illustrator 19.0.0, SVG Export Plug-In . SVG Version: 6.00 Build 0)  -->
<svg version="1.1" id="Layer_1" xmlns="http://www.w3.org/2000/svg" xmlns:xlink="http://www.w3.org/1999/xlink" x="0px" y="0px"
	 viewBox="0 0 504 504" style="enable-background:new 0 0 504 504;" xml:space="preserve">
<circle style="fill:#FD8469;" cx="252" cy="252" r="252"/>
<g>
	<path style="fill:#FFD05B;" d="M268.4,126c0,9.6-7.2,17.2-16.4,17.2c-8.8,0-16.4-7.6-16.4-17.2s16.8-39.2,16.4-29.6
		C251.6,104,268.4,116.4,268.4,126z"/>
	<path style="fill:#FFD05B;" d="M353.2,152c0,7.2-5.6,13.2-12.4,13.2s-12.4-6-12.4-13.2s12.8-30,12.4-22.8
		C340,134.8,353.2,144.4,353.2,152z"/>
	<path style="fill:#FFD05B;" d="M176,152c0,7.2-5.6,13.2-12.4,13.2c-6.8,0-12.4-6-12.4-13.2s12.8-30,12.4-22.8
		C162.8,134.8,176,144.4,176,152z"/>
</g>
<path style="fill:#FFFFFF;" d="M404.8,242c-2.4,3.2-4.8,5.6-7.2,8c-31.6,38.8-70.8,0-110.4-4c0,11.6-12,19.6-15.6,19.6
	c-27.6,7.6-55.2-7.6-78.8-15.6c-11.2,0-20.8,10-32.4,10c-3.6,2.4-7.6,4-12.4,5.2c-2.8,0.4-5.6-1.6-6-4.4c-0.8-7.6-10-4.8-16.8-3.2
	c-4,0.8-8-1.6-8.8-5.6c-1.2-6.4-1.2-12.4-5.6-15.6c-9.2,0.4-16.4,8-16.4,17.2v155.6h315.2V254C409.6,249.2,407.6,245.2,404.8,242z"
	/>
<path style="fill:#F1543F;" d="M139.2,318.8c5.6-6.8,13.6-8.4,19.6-6.4c14,5.2,17.2,24.4,5.2,36.8c-24.8,25.2-24.8,25.2-24.8,25.2
	s0,0-24.8-25.2c-12-12.4-8.8-31.6,5.2-36.8C125.6,310.4,133.6,312,139.2,318.8z"/>
<path style="fill:#2C9984;" d="M212.8,318.8c5.6-6.8,13.6-8.4,19.6-6.4c14,5.2,17.2,24.4,5.2,36.8c-24.8,25.2-24.8,25.2-24.8,25.2
	s0,0-24.8-25.2c-12-12.4-8.8-31.6,5.2-36.8C199.2,310.4,207.2,312,212.8,318.8z"/>
<path style="fill:#F9B54C;" d="M286.4,318.8c5.6-6.8,13.6-8.4,19.6-6.4c14,5.2,17.2,24.4,5.2,36.8c-24.8,25.2-24.8,25.2-24.8,25.2
	s0,0-24.8-25.2c-12-12.4-8.8-31.6,5.2-36.8C272.8,310.4,280.8,312,286.4,318.8z"/>
<path style="fill:#2B3B4E;" d="M360,318.8c5.6-6.8,13.6-8.4,19.6-6.4c14,5.2,17.2,24.4,5.2,36.8C360,374.8,360,374.8,360,374.8
	s0,0-24.8-25.2c-12-12.4-8.8-31.6,5.2-36.8C346.4,310.4,354.4,312,360,318.8z"/>
<rect x="238.4" y="147.6" style="fill:#84DBFF;" width="26.8" height="89.2"/>
<path style="fill:#F9B54C;" d="M252,143.2c-4.8,0-8.4-4-8.4-9.2c0-2.8,3.2-10,6-16c1.2,1.6,2.4,2.8,3.6,4.4
	c2.4,3.2,7.2,9.2,7.2,11.6C260.4,139.2,256.8,143.2,252,143.2z"/>
<rect x="330.4" y="168.4" style="fill:#4CDBC4;" width="20.8" height="68.4"/>
<path style="fill:#F9B54C;" d="M340.4,165.2c-2.4,0-4.4-2.4-4.4-5.2c0-1.6,1.6-5.2,3.2-8.8c0.4,0.4,0.4,0.8,0.8,1.2
	c1.6,2,4.8,6.4,5.2,7.6C345.2,162.8,343.2,165.2,340.4,165.2z"/>
<rect x="153.2" y="168.4" style="fill:#4CDBC4;" width="20.8" height="68.4"/>
<path style="fill:#F9B54C;" d="M163.6,165.2c-2.4,0-4.4-2.4-4.4-5.2c0-1.6,1.6-5.2,3.2-8.8c0.4,0.4,0.4,0.8,0.8,1.2
	c1.6,2,4.8,6.4,5.2,7.6C168,162.8,166,165.2,163.6,165.2z"/>
<path style="fill:#F1543F;" d="M392,236.8H140h-28c-0.4,0-0.8,0-0.8,0c5.6,4,4.4,12.4,7.2,21.2c2.4,2.4,11.2-2,17.6-2.4v20
	c0,3.2,2.4,5.6,5.6,5.6c3.2,0,5.6-2.4,5.6-5.6v-10.4c5.2-0.8,9.6-2.8,13.6-5.2c9.2,0,16.8-5.6,24.8-8.4v31.6c0,3.2,2.4,5.6,5.6,5.6
	c3.2,0,5.6-2.4,5.6-5.6v-31.6c22.8,8,48.8,21.6,74.8,14.4c3.2,0,10.8-4.4,14-12v22c0,3.2,2.4,5.6,5.6,5.6s5.6-2.4,5.6-5.6v-28
	c36,8,71.6,38,100.8,2.4c2.4-2.4,4.8-5.2,7.2-8C401.6,238.8,397.2,236.8,392,236.8z M146.8,255.2c0.8,0.4,1.2,0.8,2,1.2
	C148.4,256,147.6,255.6,146.8,255.2L146.8,255.2z M156.8,259.6c0.4,0,0.4,0,0.8,0C157.2,259.6,157.2,259.6,156.8,259.6z
	 M149.6,256.8c0.8,0.4,2,1.2,2.8,1.6C151.2,257.6,150.4,257.2,149.6,256.8z M153.2,258.4c0.8,0.4,1.6,0.4,2.4,0.8
	C154.8,259.2,154,258.8,153.2,258.4z"/>
<g>
</g>
<g>
</g>
<g>
</g>
<g>
</g>
<g>
</g>
<g>
</g>
<g>
</g>
<g>
</g>
<g>
</g>
<g>
</g>
<g>
</g>
<g>
</g>
<g>
</g>
<g>
</g>
<g>
</g>
</svg>
